M48
; DRILL file {KiCad 8.0.6} date 2024-10-27T13:34:58-0700
; FORMAT={-:-/ absolute / inch / decimal}
; #@! TF.CreationDate,2024-10-27T13:34:58-07:00
; #@! TF.GenerationSoftware,Kicad,Pcbnew,8.0.6
; #@! TF.FileFunction,Plated,1,2,PTH
FMAT,2
INCH
; #@! TA.AperFunction,Plated,PTH,ComponentDrill
T1C0.0300
; #@! TA.AperFunction,Plated,PTH,ViaDrill
T2C0.0315
; #@! TA.AperFunction,Plated,PTH,ComponentDrill
T3C0.0315
; #@! TA.AperFunction,Plated,PTH,ViaDrill
T4C0.0400
; #@! TA.AperFunction,Plated,PTH,ComponentDrill
T5C0.0433
; #@! TA.AperFunction,Plated,PTH,ComponentDrill
T6C0.1200
%
G90
G05
T1
X3.7131Y-3.4733
X3.8121Y-3.4773
X4.1131Y-3.9703
X4.2121Y-3.4703
X4.2131Y-3.9713
X4.3121Y-3.4713
X4.3131Y-3.9703
X4.4121Y-3.4703
X4.4131Y-3.9713
X4.5121Y-3.4713
X4.5131Y-3.9703
X4.6121Y-3.4703
X4.6131Y-3.9713
X4.7121Y-3.4713
X7.7311Y-1.9853
X7.8311Y-1.9863
X7.9311Y-1.9853
X8.0311Y-1.4923
X8.0311Y-1.9863
X8.1271Y-1.9863
X8.2301Y-1.9863
T2
X1.149Y-3.77
X1.149Y-3.879
X1.149Y-4.765
X1.15Y-2.479
X1.151Y-3.604
X1.248Y-5.121
X1.254Y-5.395
X1.471Y-3.262
X1.595Y-5.641
X1.767Y-5.552
X1.781Y-4.069
X1.877Y-3.354
X1.885Y-2.457
X1.891Y-2.767
X1.977Y-4.065
X2.058Y-2.385
X2.191Y-5.248
X2.215Y-1.406
X2.218Y-1.693
X2.279Y-5.413
X2.304Y-5.862
X2.334Y-3.398
X2.382Y-4.147
X2.422Y-5.493
X2.428Y-4.065
X2.475Y-5.787
X2.504Y-3.449
X2.556Y-3.314
X2.586Y-5.367
X2.62Y-4.031
X2.622Y-3.451
X2.623Y-4.29
X2.64Y-3.18
X2.677Y-5.332
X2.726Y-4.031
X2.75Y-2.095
X2.786Y-3.14
X2.806Y-2.308
X2.832Y-3.262
X2.877Y-5.168
X2.885Y-4.407
X2.908Y-3.991
X2.964Y-5.126
X3.0Y-5.49
X3.08Y-2.49
X3.093Y-1.309
X3.192Y-3.303
X3.216Y-5.444
X3.263Y-1.115
X3.289Y-5.042
X3.3Y-5.446
X3.33Y-4.21
X3.376Y-2.179
X3.387Y-5.449
X3.404Y-3.347
X3.417Y-3.18
X3.418Y-2.304
X3.471Y-5.407
X3.497Y-3.19
X3.54Y-2.046
X3.556Y-3.315
X3.562Y-4.678
X3.583Y-5.363
X3.589Y-2.252
X3.646Y-3.285
X3.66Y-4.2
X3.685Y-1.315
X3.732Y-3.174
X3.779Y-5.328
X3.82Y-3.1
X3.86Y-1.315
X3.88Y-5.283
X3.91Y-3.98
X3.91Y-4.2
X3.96Y-1.5
X3.96Y-1.902
X3.993Y-4.282
X4.037Y-5.234
X4.044Y-5.829
X4.082Y-2.406
X4.144Y-4.446
X4.167Y-5.829
X4.201Y-3.295
X4.22Y-3.1
X4.232Y-3.218
X4.246Y-2.367
X4.275Y-5.241
X4.289Y-5.832
X4.35Y-4.226
X4.366Y-3.371
X4.377Y-5.157
X4.457Y-2.772
X4.475Y-5.78
X4.485Y-5.202
X4.551Y-3.218
X4.569Y-2.693
X4.569Y-3.371
X4.6Y-5.783
X4.611Y-5.202
X4.695Y-5.199
X4.75Y-3.197
X4.753Y-3.313
X4.794Y-4.35
X4.837Y-3.107
X4.844Y-3.974
X4.845Y-5.028
X4.846Y-4.421
X4.883Y-3.201
X4.886Y-4.172
X4.932Y-2.126
X4.982Y-5.787
X5.007Y-4.238
X5.046Y-4.365
X5.1Y-5.787
X5.103Y-1.378
X5.124Y-2.088
X5.132Y-5.031
X5.173Y-1.315
X5.191Y-5.284
X5.239Y-1.378
X5.265Y-3.28
X5.268Y-3.409
X5.341Y-2.413
X5.366Y-2.767
X5.366Y-3.76
X5.383Y-2.231
X5.412Y-5.792
X5.464Y-3.683
X5.471Y-2.693
X5.505Y-3.154
X5.519Y-3.371
X5.541Y-4.372
X5.561Y-2.046
X5.606Y-3.217
X5.646Y-4.414
X5.652Y-3.413
X5.693Y-3.175
X5.751Y-4.001
X5.777Y-3.126
X5.787Y-3.263
X5.789Y-5.332
X5.806Y-2.329
X5.844Y-1.507
X5.898Y-5.329
X5.923Y-2.241
X5.936Y-4.103
X5.94Y-3.105
X5.94Y-5.105
X5.981Y-4.372
X6.041Y-5.105
X6.052Y-5.27
X6.069Y-4.145
X6.1Y-2.329
X6.128Y-5.74
X6.136Y-5.318
X6.15Y-3.147
X6.165Y-3.469
X6.167Y-5.841
X6.216Y-4.204
X6.244Y-3.067
X6.261Y-5.611
X6.271Y-3.763
X6.335Y-3.144
X6.352Y-4.068
X6.359Y-5.53
X6.37Y-3.677
X6.384Y-4.284
X6.445Y-1.37
X6.45Y-3.193
X6.492Y-5.315
X6.614Y-5.782
X6.615Y-3.179
X6.665Y-1.587
X6.665Y-1.866
X6.67Y-2.584
X6.67Y-2.86
X6.685Y-1.42
X6.702Y-4.494
X6.737Y-5.782
X6.765Y-5.308
X6.782Y-2.416
X6.835Y-3.032
X6.849Y-5.228
X6.859Y-5.785
X6.887Y-3.175
X6.933Y-5.07
X6.975Y-5.574
X6.978Y-4.334
X6.993Y-5.782
X7.069Y-4.979
X7.1Y-3.416
X7.119Y-5.781
X7.136Y-5.189
X7.165Y-2.769
X7.17Y-3.763
X7.184Y-5.486
X7.191Y-4.159
X7.244Y-3.434
X7.265Y-3.679
X7.272Y-2.689
X7.272Y-4.976
X7.282Y-5.465
X7.31Y-5.786
X7.38Y-5.402
X7.437Y-5.786
X7.447Y-5.158
X7.471Y-3.476
X7.534Y-5.154
X7.565Y-5.786
X7.593Y-4.492
X7.601Y-4.868
X7.667Y-2.993
X7.682Y-5.786
X7.702Y-4.153
X7.712Y-3.315
X7.796Y-4.113
X7.815Y-5.786
X7.919Y-3.346
X7.933Y-4.078
X7.953Y-5.786
X7.999Y-2.373
X8.039Y-5.786
X8.073Y-2.77
X8.076Y-3.763
X8.104Y-5.207
X8.146Y-3.392
X8.174Y-3.679
X8.177Y-2.689
X8.189Y-5.786
X8.195Y-5.207
X8.202Y-4.033
X8.279Y-1.115
X8.294Y-5.789
X8.357Y-5.674
X8.391Y-4.425
X8.429Y-4.198
X8.508Y-5.848
X8.513Y-1.957
X8.555Y-4.355
X8.56Y-5.796
X8.58Y-1.474
X8.604Y-4.163
X8.615Y-2.188
X8.618Y-4.034
X8.653Y-1.415
X8.677Y-4.118
X8.688Y-3.385
X8.698Y-3.985
X8.765Y-2.436
X8.863Y-1.401
X8.954Y-1.436
X8.991Y-5.12
X9.073Y-3.462
X9.082Y-5.071
X9.115Y-3.177
X9.202Y-4.013
X9.205Y-4.118
X9.237Y-4.219
X9.305Y-4.934
X9.347Y-5.022
X9.452Y-4.99
X9.489Y-2.335
X9.54Y-5.403
X9.648Y-5.277
X9.751Y-3.296
X9.802Y-5.532
X9.854Y-5.42
X9.987Y-5.616
X10.002Y-4.303
X10.047Y-5.371
X10.187Y-5.662
X10.216Y-2.023
X10.236Y-5.574
X10.257Y-5.49
X10.331Y-1.38
X10.349Y-4.257
X10.421Y-4.683
X10.426Y-3.967
X10.431Y-4.966
X10.433Y-2.684
X10.433Y-3.677
X10.44Y-1.695
X10.45Y-1.978
X10.45Y-2.964
T3
X1.404Y-4.569
X1.404Y-4.869
X1.406Y-3.575
X1.406Y-3.875
X1.504Y-4.569
X1.504Y-4.869
X1.506Y-3.575
X1.506Y-3.875
X1.604Y-4.569
X1.604Y-4.869
X1.606Y-3.575
X1.606Y-3.875
X1.704Y-4.569
X1.704Y-4.869
X1.706Y-3.575
X1.706Y-3.875
X1.804Y-4.569
X1.804Y-4.869
X1.806Y-3.575
X1.806Y-3.875
X1.904Y-4.569
X1.904Y-4.869
X1.906Y-3.575
X1.906Y-3.875
X2.004Y-4.569
X2.004Y-4.869
X2.006Y-3.575
X2.006Y-3.875
X2.303Y-4.569
X2.303Y-4.869
X2.312Y-3.575
X2.312Y-3.875
X2.313Y-2.579
X2.313Y-2.879
X2.323Y-1.586
X2.323Y-1.886
X2.403Y-4.569
X2.403Y-4.869
X2.412Y-3.575
X2.412Y-3.875
X2.413Y-2.579
X2.413Y-2.879
X2.423Y-1.586
X2.423Y-1.886
X2.503Y-4.569
X2.503Y-4.869
X2.512Y-3.575
X2.512Y-3.875
X2.513Y-2.579
X2.513Y-2.879
X2.523Y-1.586
X2.523Y-1.886
X2.603Y-4.569
X2.603Y-4.869
X2.612Y-3.575
X2.612Y-3.875
X2.613Y-2.579
X2.613Y-2.879
X2.623Y-1.586
X2.623Y-1.886
X2.703Y-4.569
X2.703Y-4.869
X2.712Y-3.575
X2.712Y-3.875
X2.713Y-2.579
X2.713Y-2.879
X2.723Y-1.586
X2.723Y-1.886
X2.803Y-4.569
X2.803Y-4.869
X2.812Y-3.575
X2.812Y-3.875
X2.813Y-2.579
X2.813Y-2.879
X2.823Y-1.586
X2.823Y-1.886
X2.903Y-4.569
X2.903Y-4.869
X2.912Y-3.575
X2.912Y-3.875
X2.913Y-2.579
X2.913Y-2.879
X2.923Y-1.586
X2.923Y-1.886
X3.208Y-4.571
X3.208Y-4.871
X3.212Y-2.579
X3.212Y-2.879
X3.217Y-3.575
X3.217Y-3.875
X3.219Y-1.586
X3.219Y-1.886
X3.308Y-4.571
X3.308Y-4.871
X3.312Y-2.579
X3.312Y-2.879
X3.317Y-3.575
X3.317Y-3.875
X3.319Y-1.586
X3.319Y-1.886
X3.408Y-4.571
X3.408Y-4.871
X3.412Y-2.579
X3.412Y-2.879
X3.417Y-3.575
X3.417Y-3.875
X3.419Y-1.586
X3.419Y-1.886
X3.508Y-4.571
X3.508Y-4.871
X3.512Y-2.579
X3.512Y-2.879
X3.517Y-3.575
X3.517Y-3.875
X3.519Y-1.586
X3.519Y-1.886
X3.608Y-4.571
X3.608Y-4.871
X3.612Y-2.579
X3.612Y-2.879
X3.617Y-3.575
X3.617Y-3.875
X3.619Y-1.586
X3.619Y-1.886
X3.708Y-4.571
X3.708Y-4.871
X3.712Y-2.579
X3.712Y-2.879
X3.717Y-3.575
X3.717Y-3.875
X3.719Y-1.586
X3.719Y-1.886
X3.808Y-4.571
X3.808Y-4.871
X3.812Y-2.579
X3.812Y-2.879
X3.817Y-3.575
X3.817Y-3.875
X3.819Y-1.586
X3.819Y-1.886
X3.908Y-4.571
X3.908Y-4.871
X4.11Y-4.572
X4.11Y-4.872
X4.112Y-3.575
X4.112Y-3.875
X4.117Y-2.579
X4.117Y-2.879
X4.121Y-1.586
X4.121Y-1.886
X4.21Y-4.572
X4.21Y-4.872
X4.212Y-3.575
X4.212Y-3.875
X4.217Y-2.579
X4.217Y-2.879
X4.221Y-1.586
X4.221Y-1.886
X4.31Y-4.572
X4.31Y-4.872
X4.312Y-3.575
X4.312Y-3.875
X4.317Y-2.579
X4.317Y-2.879
X4.321Y-1.586
X4.321Y-1.886
X4.41Y-4.572
X4.41Y-4.872
X4.412Y-3.575
X4.412Y-3.875
X4.417Y-2.579
X4.417Y-2.879
X4.421Y-1.586
X4.421Y-1.886
X4.51Y-4.572
X4.51Y-4.872
X4.512Y-3.575
X4.512Y-3.875
X4.517Y-2.579
X4.517Y-2.879
X4.521Y-1.586
X4.521Y-1.886
X4.61Y-4.572
X4.61Y-4.872
X4.612Y-3.575
X4.612Y-3.875
X4.617Y-2.579
X4.617Y-2.879
X4.621Y-1.586
X4.621Y-1.886
X4.71Y-4.572
X4.71Y-4.872
X4.712Y-3.575
X4.712Y-3.875
X4.717Y-2.579
X4.717Y-2.879
X4.721Y-1.586
X4.721Y-1.886
X4.81Y-4.572
X4.81Y-4.872
X5.013Y-4.572
X5.013Y-4.872
X5.014Y-3.575
X5.014Y-3.875
X5.018Y-1.587
X5.018Y-1.887
X5.018Y-2.579
X5.018Y-2.879
X5.113Y-4.572
X5.113Y-4.872
X5.114Y-3.575
X5.114Y-3.875
X5.118Y-1.587
X5.118Y-1.887
X5.118Y-2.579
X5.118Y-2.879
X5.213Y-4.572
X5.213Y-4.872
X5.214Y-3.575
X5.214Y-3.875
X5.218Y-1.587
X5.218Y-1.887
X5.218Y-2.579
X5.218Y-2.879
X5.313Y-4.572
X5.313Y-4.872
X5.314Y-3.575
X5.314Y-3.875
X5.318Y-1.587
X5.318Y-1.887
X5.318Y-2.579
X5.318Y-2.879
X5.413Y-4.572
X5.413Y-4.872
X5.414Y-3.575
X5.414Y-3.875
X5.418Y-1.587
X5.418Y-1.887
X5.418Y-2.579
X5.418Y-2.879
X5.513Y-4.572
X5.513Y-4.872
X5.514Y-3.575
X5.514Y-3.875
X5.518Y-1.587
X5.518Y-1.887
X5.518Y-2.579
X5.518Y-2.879
X5.613Y-4.572
X5.613Y-4.872
X5.614Y-3.575
X5.614Y-3.875
X5.618Y-1.587
X5.618Y-1.887
X5.618Y-2.579
X5.618Y-2.879
X5.713Y-4.572
X5.713Y-4.872
X5.714Y-3.575
X5.714Y-3.875
X5.916Y-4.571
X5.916Y-4.871
X5.919Y-2.579
X5.919Y-2.879
X5.921Y-3.575
X5.921Y-3.875
X5.924Y-1.587
X5.924Y-1.887
X6.016Y-4.571
X6.016Y-4.871
X6.019Y-2.579
X6.019Y-2.879
X6.021Y-3.575
X6.021Y-3.875
X6.024Y-1.587
X6.024Y-1.887
X6.116Y-4.571
X6.116Y-4.871
X6.119Y-2.579
X6.119Y-2.879
X6.121Y-3.575
X6.121Y-3.875
X6.124Y-1.587
X6.124Y-1.887
X6.216Y-4.571
X6.216Y-4.871
X6.219Y-2.579
X6.219Y-2.879
X6.221Y-3.575
X6.221Y-3.875
X6.224Y-1.587
X6.224Y-1.887
X6.316Y-4.571
X6.316Y-4.871
X6.319Y-2.579
X6.319Y-2.879
X6.321Y-3.575
X6.321Y-3.875
X6.324Y-1.587
X6.324Y-1.887
X6.416Y-4.571
X6.416Y-4.871
X6.419Y-2.579
X6.419Y-2.879
X6.421Y-3.575
X6.421Y-3.875
X6.424Y-1.587
X6.424Y-1.887
X6.516Y-4.571
X6.516Y-4.871
X6.519Y-2.579
X6.519Y-2.879
X6.521Y-3.575
X6.521Y-3.875
X6.524Y-1.587
X6.524Y-1.887
X6.616Y-4.571
X6.616Y-4.871
X6.621Y-3.575
X6.621Y-3.875
X6.82Y-4.571
X6.82Y-4.871
X6.822Y-1.587
X6.822Y-1.887
X6.823Y-2.578
X6.823Y-2.878
X6.823Y-3.573
X6.823Y-3.873
X6.92Y-4.571
X6.92Y-4.871
X6.922Y-1.587
X6.922Y-1.887
X6.923Y-2.578
X6.923Y-2.878
X6.923Y-3.573
X6.923Y-3.873
X7.02Y-4.571
X7.02Y-4.871
X7.022Y-1.587
X7.022Y-1.887
X7.023Y-2.578
X7.023Y-2.878
X7.023Y-3.573
X7.023Y-3.873
X7.12Y-4.571
X7.12Y-4.871
X7.122Y-1.587
X7.122Y-1.887
X7.123Y-2.578
X7.123Y-2.878
X7.123Y-3.573
X7.123Y-3.873
X7.22Y-4.571
X7.22Y-4.871
X7.222Y-1.587
X7.222Y-1.887
X7.223Y-2.578
X7.223Y-2.878
X7.223Y-3.573
X7.223Y-3.873
X7.32Y-4.571
X7.32Y-4.871
X7.322Y-1.587
X7.322Y-1.887
X7.323Y-2.578
X7.323Y-2.878
X7.323Y-3.573
X7.323Y-3.873
X7.42Y-4.571
X7.42Y-4.871
X7.422Y-1.587
X7.422Y-1.887
X7.423Y-2.578
X7.423Y-2.878
X7.423Y-3.573
X7.423Y-3.873
X7.52Y-4.571
X7.52Y-4.871
X7.523Y-3.573
X7.523Y-3.873
X7.721Y-4.569
X7.721Y-4.869
X7.726Y-2.579
X7.726Y-2.879
X7.726Y-3.576
X7.726Y-3.876
X7.731Y-1.591
X7.731Y-1.891
X7.821Y-4.569
X7.821Y-4.869
X7.826Y-2.579
X7.826Y-2.879
X7.826Y-3.576
X7.826Y-3.876
X7.831Y-1.591
X7.831Y-1.891
X7.921Y-4.569
X7.921Y-4.869
X7.926Y-2.579
X7.926Y-2.879
X7.926Y-3.576
X7.926Y-3.876
X7.931Y-1.591
X7.931Y-1.891
X8.021Y-4.569
X8.021Y-4.869
X8.026Y-2.579
X8.026Y-2.879
X8.026Y-3.576
X8.026Y-3.876
X8.031Y-1.591
X8.031Y-1.891
X8.121Y-4.569
X8.121Y-4.869
X8.126Y-2.579
X8.126Y-2.879
X8.126Y-3.576
X8.126Y-3.876
X8.131Y-1.591
X8.131Y-1.891
X8.221Y-4.569
X8.221Y-4.869
X8.226Y-2.579
X8.226Y-2.879
X8.226Y-3.576
X8.226Y-3.876
X8.231Y-1.591
X8.231Y-1.891
X8.321Y-4.569
X8.321Y-4.869
X8.326Y-2.579
X8.326Y-2.879
X8.326Y-3.576
X8.326Y-3.876
X8.331Y-1.591
X8.331Y-1.891
X8.426Y-2.579
X8.426Y-2.879
X8.426Y-3.576
X8.426Y-3.876
X8.623Y-4.569
X8.623Y-4.869
X8.626Y-3.575
X8.626Y-3.875
X8.627Y-2.579
X8.627Y-2.879
X8.633Y-1.591
X8.633Y-1.891
X8.723Y-4.569
X8.723Y-4.869
X8.726Y-3.575
X8.726Y-3.875
X8.727Y-2.579
X8.727Y-2.879
X8.733Y-1.591
X8.733Y-1.891
X8.823Y-4.569
X8.823Y-4.869
X8.826Y-3.575
X8.826Y-3.875
X8.827Y-2.579
X8.827Y-2.879
X8.833Y-1.591
X8.833Y-1.891
X8.923Y-4.569
X8.923Y-4.869
X8.926Y-3.575
X8.926Y-3.875
X8.927Y-2.579
X8.927Y-2.879
X8.933Y-1.591
X8.933Y-1.891
X9.023Y-4.569
X9.023Y-4.869
X9.026Y-3.575
X9.026Y-3.875
X9.027Y-2.579
X9.027Y-2.879
X9.033Y-1.591
X9.033Y-1.891
X9.123Y-4.569
X9.123Y-4.869
X9.126Y-3.575
X9.126Y-3.875
X9.127Y-2.579
X9.127Y-2.879
X9.133Y-1.591
X9.133Y-1.891
X9.223Y-4.569
X9.223Y-4.869
X9.226Y-3.575
X9.226Y-3.875
X9.227Y-2.579
X9.227Y-2.879
X9.233Y-1.591
X9.233Y-1.891
X9.327Y-2.579
X9.327Y-2.879
X9.333Y-1.591
X9.333Y-1.891
X9.583Y-1.592
X9.583Y-1.892
X9.626Y-4.569
X9.626Y-4.869
X9.63Y-3.575
X9.63Y-3.875
X9.683Y-1.592
X9.683Y-1.892
X9.726Y-4.569
X9.726Y-4.869
X9.73Y-3.575
X9.73Y-3.875
X9.783Y-1.592
X9.783Y-1.892
X9.826Y-4.569
X9.826Y-4.869
X9.83Y-3.575
X9.83Y-3.875
X9.883Y-1.592
X9.883Y-1.892
X9.926Y-4.569
X9.926Y-4.869
X9.93Y-3.575
X9.93Y-3.875
X9.983Y-1.592
X9.983Y-1.892
X10.026Y-4.569
X10.026Y-4.869
X10.03Y-3.575
X10.03Y-3.875
X10.083Y-1.592
X10.083Y-1.892
X10.126Y-4.569
X10.126Y-4.869
X10.13Y-3.575
X10.13Y-3.875
X10.183Y-1.592
X10.183Y-1.892
X10.226Y-4.569
X10.226Y-4.869
X10.23Y-3.575
X10.23Y-3.875
X10.283Y-1.592
X10.283Y-1.892
T4
X1.148Y-3.979
X1.148Y-4.976
X1.152Y-3.472
T5
X1.397Y-2.5736
X1.497Y-2.487
X1.597Y-2.5736
T6
X0.985Y-1.19
X0.985Y-5.74
X10.485Y-1.19
X10.485Y-5.74
M30
