G04 #@! TF.GenerationSoftware,KiCad,Pcbnew,8.0.6*
G04 #@! TF.CreationDate,2024-10-27T13:34:52-07:00*
G04 #@! TF.ProjectId,Dazzler2 Rev D,44617a7a-6c65-4723-9220-52657620442e,rev?*
G04 #@! TF.SameCoordinates,Original*
G04 #@! TF.FileFunction,Soldermask,Top*
G04 #@! TF.FilePolarity,Negative*
%FSLAX46Y46*%
G04 Gerber Fmt 4.6, Leading zero omitted, Abs format (unit mm)*
G04 Created by KiCad (PCBNEW 8.0.6) date 2024-10-27 13:34:52*
%MOMM*%
%LPD*%
G01*
G04 APERTURE LIST*
%ADD10C,0.100000*%
%ADD11O,1.200000X2.400000*%
%ADD12O,1.200000X3.200000*%
%ADD13O,3.500000X3.500000*%
%ADD14C,1.905000*%
%ADD15O,1.905000X2.000000*%
%ADD16C,3.048000*%
%ADD17R,1.778000X8.382000*%
%ADD18C,1.600000*%
%ADD19C,2.032000*%
%ADD20C,3.400000*%
G04 APERTURE END LIST*
D10*
X56500000Y-149000000D02*
X219000000Y-149000000D01*
X219000000Y-160000000D01*
X56500000Y-160000000D01*
X56500000Y-149000000D01*
G36*
X56500000Y-149000000D02*
G01*
X219000000Y-149000000D01*
X219000000Y-160000000D01*
X56500000Y-160000000D01*
X56500000Y-149000000D01*
G37*
X272088661Y-31322382D02*
X272495061Y-151896182D01*
X214938661Y-152073982D01*
X214938661Y-150854782D01*
X215522861Y-149076782D01*
X217859661Y-146612982D01*
X259795061Y-146638382D01*
X267643661Y-138510382D01*
X267618261Y-38231182D01*
X261115861Y-31296982D01*
X57230061Y-31296982D01*
X54944061Y-33379782D01*
X54944061Y-51210582D01*
X45317461Y-62640582D01*
X19333261Y-62640582D01*
X19358661Y-31500182D01*
X25226061Y-25454982D01*
X266272061Y-25454982D01*
X272088661Y-31322382D01*
G36*
X272088661Y-31322382D02*
G01*
X272495061Y-151896182D01*
X214938661Y-152073982D01*
X214938661Y-150854782D01*
X215522861Y-149076782D01*
X217859661Y-146612982D01*
X259795061Y-146638382D01*
X267643661Y-138510382D01*
X267618261Y-38231182D01*
X261115861Y-31296982D01*
X57230061Y-31296982D01*
X54944061Y-33379782D01*
X54944061Y-51210582D01*
X45317461Y-62640582D01*
X19333261Y-62640582D01*
X19358661Y-31500182D01*
X25226061Y-25454982D01*
X266272061Y-25454982D01*
X272088661Y-31322382D01*
G37*
D11*
X81711800Y-98425000D03*
X84251800Y-98425000D03*
X86791800Y-98425000D03*
X89331800Y-98425000D03*
X91871800Y-98425000D03*
X94411800Y-98425000D03*
X96951800Y-98425000D03*
X96951800Y-90805000D03*
X94411800Y-90805000D03*
X91871800Y-90805000D03*
X89331800Y-90805000D03*
X86791800Y-90805000D03*
X84251800Y-90805000D03*
X81711800Y-90805000D03*
X243408200Y-48056800D03*
X245948200Y-48056800D03*
X248488200Y-48056800D03*
X251028200Y-48056800D03*
X253568200Y-48056800D03*
X256108200Y-48056800D03*
X258648200Y-48056800D03*
X261188200Y-48056800D03*
X261188200Y-40436800D03*
X258648200Y-40436800D03*
X256108200Y-40436800D03*
X253568200Y-40436800D03*
X251028200Y-40436800D03*
X248488200Y-40436800D03*
X245948200Y-40436800D03*
X243408200Y-40436800D03*
D12*
X201449000Y-50426600D03*
D11*
X173278800Y-47929800D03*
X175818800Y-47929800D03*
X178358800Y-47929800D03*
X180898800Y-47929800D03*
X183438800Y-47929800D03*
X185978800Y-47929800D03*
X188518800Y-47929800D03*
X188518800Y-40309800D03*
X185978800Y-40309800D03*
X183438800Y-40309800D03*
X180898800Y-40309800D03*
X178358800Y-40309800D03*
X175818800Y-40309800D03*
X173278800Y-40309800D03*
X104444800Y-98425000D03*
X106984800Y-98425000D03*
X109524800Y-98425000D03*
X112064800Y-98425000D03*
X114604800Y-98425000D03*
X117144800Y-98425000D03*
X119684800Y-98425000D03*
X119684800Y-90805000D03*
X117144800Y-90805000D03*
X114604800Y-90805000D03*
X112064800Y-90805000D03*
X109524800Y-90805000D03*
X106984800Y-90805000D03*
X104444800Y-90805000D03*
D12*
X196369000Y-50426600D03*
D11*
X58724800Y-98425000D03*
X61264800Y-98425000D03*
X63804800Y-98425000D03*
X66344800Y-98425000D03*
X68884800Y-98425000D03*
X71424800Y-98425000D03*
X73964800Y-98425000D03*
X73964800Y-90805000D03*
X71424800Y-90805000D03*
X68884800Y-90805000D03*
X66344800Y-90805000D03*
X63804800Y-90805000D03*
X61264800Y-90805000D03*
X58724800Y-90805000D03*
X150393400Y-98425000D03*
X152933400Y-98425000D03*
X155473400Y-98425000D03*
X158013400Y-98425000D03*
X160553400Y-98425000D03*
X163093400Y-98425000D03*
X165633400Y-98425000D03*
X168173400Y-98425000D03*
X168173400Y-90805000D03*
X165633400Y-90805000D03*
X163093400Y-90805000D03*
X160553400Y-90805000D03*
X158013400Y-90805000D03*
X155473400Y-90805000D03*
X152933400Y-90805000D03*
X150393400Y-90805000D03*
D12*
X107011800Y-100871000D03*
D11*
X127457200Y-73126600D03*
X129997200Y-73126600D03*
X132537200Y-73126600D03*
X135077200Y-73126600D03*
X137617200Y-73126600D03*
X140157200Y-73126600D03*
X142697200Y-73126600D03*
X142697200Y-65506600D03*
X140157200Y-65506600D03*
X137617200Y-65506600D03*
X135077200Y-65506600D03*
X132537200Y-65506600D03*
X129997200Y-65506600D03*
X127457200Y-65506600D03*
X196240400Y-98450400D03*
X198780400Y-98450400D03*
X201320400Y-98450400D03*
X203860400Y-98450400D03*
X206400400Y-98450400D03*
X208940400Y-98450400D03*
X211480400Y-98450400D03*
X214020400Y-98450400D03*
X214020400Y-90830400D03*
X211480400Y-90830400D03*
X208940400Y-90830400D03*
X206400400Y-90830400D03*
X203860400Y-90830400D03*
X201320400Y-90830400D03*
X198780400Y-90830400D03*
X196240400Y-90830400D03*
X127355600Y-98425000D03*
X129895600Y-98425000D03*
X132435600Y-98425000D03*
X134975600Y-98425000D03*
X137515600Y-98425000D03*
X140055600Y-98425000D03*
X142595600Y-98425000D03*
X145135600Y-98425000D03*
X145135600Y-90805000D03*
X142595600Y-90805000D03*
X140055600Y-90805000D03*
X137515600Y-90805000D03*
X134975600Y-90805000D03*
X132435600Y-90805000D03*
X129895600Y-90805000D03*
X127355600Y-90805000D03*
X150266400Y-123723400D03*
X152806400Y-123723400D03*
X155346400Y-123723400D03*
X157886400Y-123723400D03*
X160426400Y-123723400D03*
X162966400Y-123723400D03*
X165506400Y-123723400D03*
X168046400Y-123723400D03*
X168046400Y-116103400D03*
X165506400Y-116103400D03*
X162966400Y-116103400D03*
X160426400Y-116103400D03*
X157886400Y-116103400D03*
X155346400Y-116103400D03*
X152806400Y-116103400D03*
X150266400Y-116103400D03*
D12*
X114606400Y-88171000D03*
D13*
X38023800Y-46509800D03*
D14*
X35483800Y-65369800D03*
D15*
X38023800Y-63169800D03*
X40563800Y-65369800D03*
D11*
X196367400Y-48031400D03*
X198907400Y-48031400D03*
X201447400Y-48031400D03*
X203987400Y-48031400D03*
X206527400Y-48031400D03*
X209067400Y-48031400D03*
X211607400Y-48031400D03*
X211607400Y-40411400D03*
X209067400Y-40411400D03*
X206527400Y-40411400D03*
X203987400Y-40411400D03*
X201447400Y-40411400D03*
X198907400Y-40411400D03*
X196367400Y-40411400D03*
D12*
X96826400Y-88323400D03*
D16*
X25019000Y-30226000D03*
D11*
X59004200Y-47904400D03*
X61544200Y-47904400D03*
X64084200Y-47904400D03*
X66624200Y-47904400D03*
X69164200Y-47904400D03*
X71704200Y-47904400D03*
X74244200Y-47904400D03*
X74244200Y-40284400D03*
X71704200Y-40284400D03*
X69164200Y-40284400D03*
X66624200Y-40284400D03*
X64084200Y-40284400D03*
X61544200Y-40284400D03*
X59004200Y-40284400D03*
X173304200Y-73101200D03*
X175844200Y-73101200D03*
X178384200Y-73101200D03*
X180924200Y-73101200D03*
X183464200Y-73101200D03*
X186004200Y-73101200D03*
X188544200Y-73101200D03*
X188544200Y-65481200D03*
X186004200Y-65481200D03*
X183464200Y-65481200D03*
X180924200Y-65481200D03*
X178384200Y-65481200D03*
X175844200Y-65481200D03*
X173304200Y-65481200D03*
D12*
X94311800Y-88221800D03*
D11*
X104394000Y-123748800D03*
X106934000Y-123748800D03*
X109474000Y-123748800D03*
X112014000Y-123748800D03*
X114554000Y-123748800D03*
X117094000Y-123748800D03*
X119634000Y-123748800D03*
X122174000Y-123748800D03*
X122174000Y-116128800D03*
X119634000Y-116128800D03*
X117094000Y-116128800D03*
X114554000Y-116128800D03*
X112014000Y-116128800D03*
X109474000Y-116128800D03*
X106934000Y-116128800D03*
X104394000Y-116128800D03*
D12*
X117146400Y-88145600D03*
D11*
X104571800Y-73126600D03*
X107111800Y-73126600D03*
X109651800Y-73126600D03*
X112191800Y-73126600D03*
X114731800Y-73126600D03*
X117271800Y-73126600D03*
X119811800Y-73126600D03*
X119811800Y-65506600D03*
X117271800Y-65506600D03*
X114731800Y-65506600D03*
X112191800Y-65506600D03*
X109651800Y-65506600D03*
X107111800Y-65506600D03*
X104571800Y-65506600D03*
X104673400Y-47904400D03*
X107213400Y-47904400D03*
X109753400Y-47904400D03*
X112293400Y-47904400D03*
X114833400Y-47904400D03*
X117373400Y-47904400D03*
X119913400Y-47904400D03*
X119913400Y-40284400D03*
X117373400Y-40284400D03*
X114833400Y-40284400D03*
X112293400Y-40284400D03*
X109753400Y-40284400D03*
X107213400Y-40284400D03*
X104673400Y-40284400D03*
D17*
X59944000Y-155067000D03*
X63119000Y-155067000D03*
X66294000Y-155067000D03*
X69469000Y-155067000D03*
X72644000Y-155067000D03*
X75819000Y-155067000D03*
X78994000Y-155067000D03*
X82169000Y-155067000D03*
X85344000Y-155067000D03*
X88519000Y-155067000D03*
X91694000Y-155067000D03*
X94869000Y-155067000D03*
X98044000Y-155067000D03*
X101219000Y-155067000D03*
X104394000Y-155067000D03*
X107569000Y-155067000D03*
X110744000Y-155067000D03*
X113919000Y-155067000D03*
X117094000Y-155067000D03*
X120269000Y-155067000D03*
X123444000Y-155067000D03*
X126619000Y-155067000D03*
X129794000Y-155067000D03*
X132969000Y-155067000D03*
X136144000Y-155067000D03*
X139319000Y-155067000D03*
X142494000Y-155067000D03*
X145669000Y-155067000D03*
X148844000Y-155067000D03*
X152019000Y-155067000D03*
X155194000Y-155067000D03*
X158369000Y-155067000D03*
X161544000Y-155067000D03*
X164719000Y-155067000D03*
X167894000Y-155067000D03*
X171069000Y-155067000D03*
X174244000Y-155067000D03*
X177419000Y-155067000D03*
X180594000Y-155067000D03*
X183769000Y-155067000D03*
X186944000Y-155067000D03*
X190119000Y-155067000D03*
X193294000Y-155067000D03*
X196469000Y-155067000D03*
X199644000Y-155067000D03*
X202819000Y-155067000D03*
X205994000Y-155067000D03*
X209169000Y-155067000D03*
X212344000Y-155067000D03*
X215519000Y-155067000D03*
D11*
X244602000Y-98425000D03*
X247142000Y-98425000D03*
X249682000Y-98425000D03*
X252222000Y-98425000D03*
X254762000Y-98425000D03*
X257302000Y-98425000D03*
X259842000Y-98425000D03*
X259842000Y-90805000D03*
X257302000Y-90805000D03*
X254762000Y-90805000D03*
X252222000Y-90805000D03*
X249682000Y-90805000D03*
X247142000Y-90805000D03*
X244602000Y-90805000D03*
D12*
X206427400Y-50452000D03*
D11*
X81762600Y-47904400D03*
X84302600Y-47904400D03*
X86842600Y-47904400D03*
X89382600Y-47904400D03*
X91922600Y-47904400D03*
X94462600Y-47904400D03*
X97002600Y-47904400D03*
X97002600Y-40284400D03*
X94462600Y-40284400D03*
X91922600Y-40284400D03*
X89382600Y-40284400D03*
X86842600Y-40284400D03*
X84302600Y-40284400D03*
X81762600Y-40284400D03*
D12*
X109551800Y-100845600D03*
D11*
X196113400Y-123672600D03*
X198653400Y-123672600D03*
X201193400Y-123672600D03*
X203733400Y-123672600D03*
X206273400Y-123672600D03*
X208813400Y-123672600D03*
X211353400Y-123672600D03*
X211353400Y-116052600D03*
X208813400Y-116052600D03*
X206273400Y-116052600D03*
X203733400Y-116052600D03*
X201193400Y-116052600D03*
X198653400Y-116052600D03*
X196113400Y-116052600D03*
X196240400Y-73126600D03*
X198780400Y-73126600D03*
X201320400Y-73126600D03*
X203860400Y-73126600D03*
X206400400Y-73126600D03*
X208940400Y-73126600D03*
X211480400Y-73126600D03*
X214020400Y-73126600D03*
X214020400Y-65506600D03*
X211480400Y-65506600D03*
X208940400Y-65506600D03*
X206400400Y-65506600D03*
X203860400Y-65506600D03*
X201320400Y-65506600D03*
X198780400Y-65506600D03*
X196240400Y-65506600D03*
D12*
X106986400Y-88145600D03*
X198909000Y-50452000D03*
D11*
X81483200Y-123723400D03*
X84023200Y-123723400D03*
X86563200Y-123723400D03*
X89103200Y-123723400D03*
X91643200Y-123723400D03*
X94183200Y-123723400D03*
X96723200Y-123723400D03*
X99263200Y-123723400D03*
X99263200Y-116103400D03*
X96723200Y-116103400D03*
X94183200Y-116103400D03*
X91643200Y-116103400D03*
X89103200Y-116103400D03*
X86563200Y-116103400D03*
X84023200Y-116103400D03*
X81483200Y-116103400D03*
D12*
X209043600Y-50452000D03*
X104471800Y-100845600D03*
D16*
X266319000Y-30226000D03*
D12*
X112091800Y-100871000D03*
D16*
X25019000Y-145796000D03*
D12*
X203989000Y-37904400D03*
D11*
X58496200Y-123672600D03*
X61036200Y-123672600D03*
X63576200Y-123672600D03*
X66116200Y-123672600D03*
X68656200Y-123672600D03*
X71196200Y-123672600D03*
X73736200Y-123672600D03*
X73736200Y-116052600D03*
X71196200Y-116052600D03*
X68656200Y-116052600D03*
X66116200Y-116052600D03*
X63576200Y-116052600D03*
X61036200Y-116052600D03*
X58496200Y-116052600D03*
D12*
X119686400Y-88171000D03*
X114631800Y-100845600D03*
D11*
X150342600Y-73126600D03*
X152882600Y-73126600D03*
X155422600Y-73126600D03*
X157962600Y-73126600D03*
X160502600Y-73126600D03*
X163042600Y-73126600D03*
X165582600Y-73126600D03*
X165582600Y-65506600D03*
X163042600Y-65506600D03*
X160502600Y-65506600D03*
X157962600Y-65506600D03*
X155422600Y-65506600D03*
X152882600Y-65506600D03*
X150342600Y-65506600D03*
X150469600Y-47929800D03*
X153009600Y-47929800D03*
X155549600Y-47929800D03*
X158089600Y-47929800D03*
X160629600Y-47929800D03*
X163169600Y-47929800D03*
X165709600Y-47929800D03*
X165709600Y-40309800D03*
X163169600Y-40309800D03*
X160629600Y-40309800D03*
X158089600Y-40309800D03*
X155549600Y-40309800D03*
X153009600Y-40309800D03*
X150469600Y-40309800D03*
X219278200Y-48031400D03*
X221818200Y-48031400D03*
X224358200Y-48031400D03*
X226898200Y-48031400D03*
X229438200Y-48031400D03*
X231978200Y-48031400D03*
X234518200Y-48031400D03*
X237058200Y-48031400D03*
X237058200Y-40411400D03*
X234518200Y-40411400D03*
X231978200Y-40411400D03*
X229438200Y-40411400D03*
X226898200Y-40411400D03*
X224358200Y-40411400D03*
X221818200Y-40411400D03*
X219278200Y-40411400D03*
D12*
X203989000Y-50452000D03*
D11*
X219024200Y-123672600D03*
X221564200Y-123672600D03*
X224104200Y-123672600D03*
X226644200Y-123672600D03*
X229184200Y-123672600D03*
X231724200Y-123672600D03*
X234264200Y-123672600D03*
X234264200Y-116052600D03*
X231724200Y-116052600D03*
X229184200Y-116052600D03*
X226644200Y-116052600D03*
X224104200Y-116052600D03*
X221564200Y-116052600D03*
X219024200Y-116052600D03*
X127330200Y-123748800D03*
X129870200Y-123748800D03*
X132410200Y-123748800D03*
X134950200Y-123748800D03*
X137490200Y-123748800D03*
X140030200Y-123748800D03*
X142570200Y-123748800D03*
X145110200Y-123748800D03*
X145110200Y-116128800D03*
X142570200Y-116128800D03*
X140030200Y-116128800D03*
X137490200Y-116128800D03*
X134950200Y-116128800D03*
X132410200Y-116128800D03*
X129870200Y-116128800D03*
X127330200Y-116128800D03*
X219125800Y-73126600D03*
X221665800Y-73126600D03*
X224205800Y-73126600D03*
X226745800Y-73126600D03*
X229285800Y-73126600D03*
X231825800Y-73126600D03*
X234365800Y-73126600D03*
X236905800Y-73126600D03*
X236905800Y-65506600D03*
X234365800Y-65506600D03*
X231825800Y-65506600D03*
X229285800Y-65506600D03*
X226745800Y-65506600D03*
X224205800Y-65506600D03*
X221665800Y-65506600D03*
X219125800Y-65506600D03*
D12*
X109526400Y-88171000D03*
D11*
X244500400Y-123672600D03*
X247040400Y-123672600D03*
X249580400Y-123672600D03*
X252120400Y-123672600D03*
X254660400Y-123672600D03*
X257200400Y-123672600D03*
X259740400Y-123672600D03*
X259740400Y-116052600D03*
X257200400Y-116052600D03*
X254660400Y-116052600D03*
X252120400Y-116052600D03*
X249580400Y-116052600D03*
X247040400Y-116052600D03*
X244500400Y-116052600D03*
D12*
X112066400Y-88145600D03*
D11*
X127457200Y-47929800D03*
X129997200Y-47929800D03*
X132537200Y-47929800D03*
X135077200Y-47929800D03*
X137617200Y-47929800D03*
X140157200Y-47929800D03*
X142697200Y-47929800D03*
X142697200Y-40309800D03*
X140157200Y-40309800D03*
X137617200Y-40309800D03*
X135077200Y-40309800D03*
X132537200Y-40309800D03*
X129997200Y-40309800D03*
X127457200Y-40309800D03*
D16*
X266319000Y-145796000D03*
D11*
X173228000Y-123723400D03*
X175768000Y-123723400D03*
X178308000Y-123723400D03*
X180848000Y-123723400D03*
X183388000Y-123723400D03*
X185928000Y-123723400D03*
X188468000Y-123723400D03*
X191008000Y-123723400D03*
X191008000Y-116103400D03*
X188468000Y-116103400D03*
X185928000Y-116103400D03*
X183388000Y-116103400D03*
X180848000Y-116103400D03*
X178308000Y-116103400D03*
X175768000Y-116103400D03*
X173228000Y-116103400D03*
X35661600Y-123672600D03*
X38201600Y-123672600D03*
X40741600Y-123672600D03*
X43281600Y-123672600D03*
X45821600Y-123672600D03*
X48361600Y-123672600D03*
X50901600Y-123672600D03*
X50901600Y-116052600D03*
X48361600Y-116052600D03*
X45821600Y-116052600D03*
X43281600Y-116052600D03*
X40741600Y-116052600D03*
X38201600Y-116052600D03*
X35661600Y-116052600D03*
X81584800Y-73126600D03*
X84124800Y-73126600D03*
X86664800Y-73126600D03*
X89204800Y-73126600D03*
X91744800Y-73126600D03*
X94284800Y-73126600D03*
X96824800Y-73126600D03*
X96824800Y-65506600D03*
X94284800Y-65506600D03*
X91744800Y-65506600D03*
X89204800Y-65506600D03*
X86664800Y-65506600D03*
X84124800Y-65506600D03*
X81584800Y-65506600D03*
X35712400Y-98425000D03*
X38252400Y-98425000D03*
X40792400Y-98425000D03*
X43332400Y-98425000D03*
X45872400Y-98425000D03*
X48412400Y-98425000D03*
X50952400Y-98425000D03*
X50952400Y-90805000D03*
X48412400Y-90805000D03*
X45872400Y-90805000D03*
X43332400Y-90805000D03*
X40792400Y-90805000D03*
X38252400Y-90805000D03*
X35712400Y-90805000D03*
X173304200Y-98374200D03*
X175844200Y-98374200D03*
X178384200Y-98374200D03*
X180924200Y-98374200D03*
X183464200Y-98374200D03*
X186004200Y-98374200D03*
X188544200Y-98374200D03*
X191084200Y-98374200D03*
X191084200Y-90754200D03*
X188544200Y-90754200D03*
X186004200Y-90754200D03*
X183464200Y-90754200D03*
X180924200Y-90754200D03*
X178384200Y-90754200D03*
X175844200Y-90754200D03*
X173304200Y-90754200D03*
X58750200Y-73126600D03*
X61290200Y-73126600D03*
X63830200Y-73126600D03*
X66370200Y-73126600D03*
X68910200Y-73126600D03*
X71450200Y-73126600D03*
X73990200Y-73126600D03*
X73990200Y-65506600D03*
X71450200Y-65506600D03*
X68910200Y-65506600D03*
X66370200Y-65506600D03*
X63830200Y-65506600D03*
X61290200Y-65506600D03*
X58750200Y-65506600D03*
X219100400Y-98425000D03*
X221640400Y-98425000D03*
X224180400Y-98425000D03*
X226720400Y-98425000D03*
X229260400Y-98425000D03*
X231800400Y-98425000D03*
X234340400Y-98425000D03*
X234340400Y-90805000D03*
X231800400Y-90805000D03*
X229260400Y-90805000D03*
X226720400Y-90805000D03*
X224180400Y-90805000D03*
X221640400Y-90805000D03*
X219100400Y-90805000D03*
D12*
X117171800Y-100871000D03*
D18*
X264998200Y-68173600D03*
X158597600Y-77901800D03*
X248970800Y-140512800D03*
X133807200Y-86588600D03*
X203174600Y-60274200D03*
X216230200Y-49707800D03*
X156591000Y-88112600D03*
X230454200Y-87934800D03*
X234619800Y-107162600D03*
X120726200Y-84150200D03*
X181991000Y-70332600D03*
X169418000Y-65633600D03*
X228371400Y-130048000D03*
X73863200Y-101371400D03*
X133070600Y-35001200D03*
X265430000Y-50241200D03*
X217932000Y-37439600D03*
X218541600Y-105740200D03*
X174218600Y-146939000D03*
X29210000Y-62966600D03*
X207695800Y-68300600D03*
X242316000Y-137236200D03*
X170230800Y-114147600D03*
D19*
X29260800Y-88188800D03*
D18*
X115595400Y-81737200D03*
X125272800Y-54000400D03*
D20*
X82880200Y-28321000D03*
D18*
X161518600Y-140462000D03*
X225120200Y-35585400D03*
X126542800Y-146989800D03*
X66624200Y-108966000D03*
X204190600Y-146964400D03*
X173609000Y-77012800D03*
X70764400Y-79756000D03*
X169799000Y-36068000D03*
X240080800Y-126746000D03*
X260527800Y-139446000D03*
X212267800Y-144119600D03*
X56337200Y-43002200D03*
X45237400Y-103352600D03*
X58521600Y-148894800D03*
X123037600Y-100939600D03*
X86029800Y-138404600D03*
X140741400Y-111048800D03*
X86461600Y-85013800D03*
X102717600Y-148056600D03*
X113665000Y-146812000D03*
X94792800Y-80619600D03*
X64922400Y-84175600D03*
X75285600Y-130200400D03*
X67995800Y-135432800D03*
X140182600Y-85623400D03*
X265176000Y-43053000D03*
X116052600Y-68402200D03*
X127177800Y-107645200D03*
X191363600Y-130911600D03*
X189153800Y-131013200D03*
X159029400Y-142519400D03*
X128168400Y-110871000D03*
X205841600Y-132257800D03*
X66548000Y-102387400D03*
X121767600Y-110490000D03*
X117119400Y-132130800D03*
X100584000Y-48310800D03*
X110896400Y-85623400D03*
X262407400Y-35052000D03*
X155651200Y-145796000D03*
X169291000Y-47396400D03*
X201142600Y-84988400D03*
X47675800Y-85191600D03*
X48031400Y-70281800D03*
X227431600Y-36474400D03*
X67056000Y-80772000D03*
X182473600Y-139344400D03*
X111175800Y-130987800D03*
X129540000Y-146989800D03*
X173964600Y-132791200D03*
X180340000Y-86766400D03*
X110490000Y-107340400D03*
X113207800Y-70408800D03*
X105841800Y-148056600D03*
X259486400Y-51384200D03*
X216103200Y-148539200D03*
X100584000Y-38100000D03*
X205130400Y-95580200D03*
X172262800Y-61366400D03*
X154940000Y-59156600D03*
X92964000Y-106680000D03*
X85750400Y-55346600D03*
X151917400Y-111048800D03*
X150774400Y-104216200D03*
X81076800Y-83896200D03*
X208330800Y-102438200D03*
X195630800Y-105486200D03*
X171831000Y-134823200D03*
X184531000Y-93446600D03*
D19*
X29159200Y-101066600D03*
D18*
X155854400Y-135077200D03*
X184708800Y-126390400D03*
X220395800Y-104597200D03*
X182651400Y-105638600D03*
X194741800Y-76022200D03*
X107188000Y-78740000D03*
X63601600Y-87604600D03*
X107848400Y-60121800D03*
X169291000Y-40309800D03*
X157886400Y-106781600D03*
D20*
X98044000Y-33401000D03*
D18*
X136296400Y-70281800D03*
X81686400Y-138277600D03*
X156210000Y-79933800D03*
X136296400Y-95504000D03*
X230682800Y-128803400D03*
X198501000Y-146964400D03*
X169418000Y-72644000D03*
X218897200Y-102463600D03*
X259994400Y-141579600D03*
X98552000Y-134188200D03*
X180822600Y-146837400D03*
X206908400Y-86156800D03*
X144602200Y-80645000D03*
X218821000Y-55575200D03*
X231521000Y-80695800D03*
X177622200Y-146862800D03*
X71932800Y-82854800D03*
X147040600Y-135432800D03*
X187452000Y-137210800D03*
X131851400Y-134213600D03*
X192151000Y-146964400D03*
X264998200Y-93395800D03*
X195884800Y-84201000D03*
X258749800Y-143814800D03*
X245059200Y-134035800D03*
X88823800Y-81026000D03*
X192862200Y-114096800D03*
X161340800Y-103327200D03*
X150444200Y-56921400D03*
X50215800Y-103251000D03*
X198018400Y-104470200D03*
X83820000Y-138328400D03*
X52273200Y-60579000D03*
X131394200Y-33401000D03*
X129616200Y-35001200D03*
X138785600Y-93548200D03*
X247675400Y-83718400D03*
X139827000Y-80111600D03*
X164896800Y-135001000D03*
X76200000Y-139446000D03*
X86817200Y-58521600D03*
X95986600Y-135331200D03*
D20*
X210286600Y-28321000D03*
D18*
X233807000Y-104597200D03*
X137464800Y-147116800D03*
X69240400Y-102387400D03*
X264820400Y-100761800D03*
X146735800Y-79400400D03*
X108940600Y-148132800D03*
X153441400Y-129667000D03*
X201498200Y-103581200D03*
X183997600Y-87223600D03*
X167995600Y-146862800D03*
X177241200Y-110083600D03*
X264947400Y-126136400D03*
X101422200Y-108762800D03*
X264693400Y-118948200D03*
X181254400Y-131800600D03*
X91008200Y-136220200D03*
X217424000Y-147218400D03*
X219786200Y-35941000D03*
X160909000Y-79857600D03*
X217297000Y-110617000D03*
X233730800Y-101930200D03*
X205054200Y-70358000D03*
X153720800Y-133858000D03*
X108585000Y-133121400D03*
X90322400Y-84201000D03*
X29235400Y-91541600D03*
X202006200Y-146964400D03*
X214096600Y-106629200D03*
X193065400Y-123647200D03*
X83540600Y-128066800D03*
X141249400Y-51968400D03*
X60502800Y-105333800D03*
X143560800Y-86690200D03*
X130149600Y-53035200D03*
X168021000Y-80746600D03*
X162153600Y-108813600D03*
X119253000Y-132054600D03*
X120650000Y-81203800D03*
X195122800Y-146964400D03*
X73075800Y-131267200D03*
X61671200Y-103251000D03*
X149809200Y-135356600D03*
X102539800Y-132943600D03*
X107492800Y-81737200D03*
X156641800Y-148361400D03*
X47879000Y-62407800D03*
X161798000Y-93395800D03*
X31851600Y-137033000D03*
X123088400Y-112293400D03*
X99314000Y-101092000D03*
X135661400Y-61290200D03*
X241020600Y-59309000D03*
X130352800Y-127787400D03*
X29184600Y-95758000D03*
X65684400Y-136321800D03*
X177165000Y-141579600D03*
X40513000Y-143281400D03*
X188899800Y-146964400D03*
X116052600Y-85623400D03*
D20*
X93599000Y-33401000D03*
D18*
X159283400Y-95580200D03*
X29184600Y-121031000D03*
X255193800Y-136423400D03*
X253669800Y-142646400D03*
X146075400Y-101625400D03*
X55651400Y-133299200D03*
X138963400Y-68402200D03*
X97028000Y-78740000D03*
X148437600Y-38277800D03*
X106705400Y-83693000D03*
X66598800Y-87655400D03*
X222631000Y-61874400D03*
X31699200Y-130073400D03*
X250291600Y-137668000D03*
X92608400Y-83439000D03*
X262864600Y-108127800D03*
X154152600Y-105283000D03*
X207619600Y-93446600D03*
X179552600Y-126466600D03*
X171119800Y-146862800D03*
X73279000Y-111937800D03*
X176098200Y-128778000D03*
X185674000Y-146964400D03*
X142392400Y-81711800D03*
X90474800Y-118821200D03*
X220675200Y-85979000D03*
X69850000Y-53213000D03*
X184962800Y-138811000D03*
X124028200Y-81305400D03*
X84582000Y-106934000D03*
X44881800Y-141020800D03*
X78232000Y-63246000D03*
X57886600Y-137490200D03*
X89916000Y-51968400D03*
X61518800Y-139522200D03*
X29184600Y-98526600D03*
X254050800Y-109296200D03*
X122859800Y-78917800D03*
X147472400Y-59156600D03*
X62865000Y-146989800D03*
X150876000Y-78867000D03*
X59283600Y-86309200D03*
X116840000Y-146888200D03*
X133731000Y-83312000D03*
X136728200Y-56667400D03*
X103682800Y-61112400D03*
X163830000Y-81102200D03*
X105257600Y-112928400D03*
X220929200Y-101219000D03*
X146989800Y-82880200D03*
X86791800Y-80772000D03*
X71272400Y-58623200D03*
X91160600Y-57200800D03*
X189763400Y-88290400D03*
X210667600Y-147040600D03*
X124104400Y-105968800D03*
X174929800Y-80645000D03*
X208000600Y-146964400D03*
X237413800Y-127558800D03*
X37363400Y-82854800D03*
X56261000Y-35712400D03*
X208153000Y-132257800D03*
X123063000Y-127711200D03*
X213131400Y-112395000D03*
D19*
X29159200Y-126390400D03*
D18*
X99314000Y-106680000D03*
X143408400Y-112115600D03*
X184708800Y-68300600D03*
X182118000Y-95580200D03*
X163703000Y-34798000D03*
X88163400Y-137337800D03*
X113919000Y-132130800D03*
X236347000Y-125323600D03*
X150876000Y-129667000D03*
D20*
X78562200Y-33248600D03*
D18*
X265430000Y-75285600D03*
M02*
