M48
; DRILL file {KiCad (5.1.12)-1} date 10/15/22 16:15:45
; FORMAT={-:-/ absolute / metric / decimal}
; #@! TF.CreationDate,2022-10-15T16:15:45+01:00
; #@! TF.GenerationSoftware,Kicad,Pcbnew,(5.1.12)-1
; #@! TF.FileFunction,Plated,1,2,PTH
FMAT,2
METRIC
T1C0.559
T2C0.800
T3C1.100
T4C3.048
%
G90
G05
T1
X27.94Y-89.535
X27.94Y-93.98
X27.94Y-97.79
X27.94Y-101.6
X27.94Y-127.635
X31.115Y-99.06
X31.115Y-125.095
X31.115Y-132.08
X33.02Y-64.77
X35.56Y-112.395
X36.195Y-88.9
X37.465Y-132.08
X37.465Y-139.7
X41.275Y-132.08
X41.275Y-142.875
X42.545Y-106.68
X42.545Y-116.84
X44.45Y-133.35
X45.085Y-79.375
X45.085Y-108.585
X46.99Y-110.49
X48.895Y-111.125
X50.165Y-81.28
X51.435Y-116.84
X52.705Y-56.515
X53.34Y-75.565
X53.34Y-135.255
X53.975Y-64.135
X54.61Y-136.525
X55.88Y-61.595
X56.515Y-36.83
X56.515Y-45.085
X56.515Y-109.22
X59.055Y-109.22
X60.325Y-29.845
X60.96Y-63.5
X60.96Y-142.24
X61.595Y-105.41
X62.23Y-89.535
X64.135Y-104.775
X64.135Y-144.78
X65.405Y-56.515
X65.405Y-86.995
X65.405Y-140.97
X66.675Y-107.95
X67.945Y-116.84
X68.58Y-89.535
X68.58Y-135.89
X69.215Y-83.82
X69.85Y-59.69
X70.485Y-137.16
X71.12Y-61.595
X71.12Y-85.725
X71.12Y-109.855
X71.755Y-113.03
X72.39Y-88.9
X73.025Y-52.705
X73.66Y-142.24
X74.295Y-59.69
X76.2Y-52.705
X76.2Y-80.01
X76.835Y-120.015
X76.835Y-129.54
X76.835Y-143.51
X78.105Y-82.55
X78.74Y-119.38
X78.74Y-127.0
X79.375Y-130.81
X79.375Y-135.255
X79.375Y-143.51
X80.645Y-112.395
X82.55Y-31.115
X82.55Y-65.405
X82.55Y-83.82
X83.82Y-63.5
X83.82Y-91.44
X83.82Y-105.41
X85.09Y-88.9
X85.725Y-65.405
X86.995Y-131.445
X87.63Y-33.02
X87.63Y-114.935
X88.265Y-63.5
X88.9Y-46.99
X88.9Y-73.025
X88.9Y-73.025
X88.9Y-135.89
X89.535Y-116.205
X90.805Y-60.96
X91.44Y-44.45
X91.44Y-71.12
X92.71Y-83.82
X92.71Y-90.805
X93.345Y-109.855
X93.98Y-64.135
X96.52Y-64.77
X96.52Y-86.36
X97.79Y-83.185
X99.06Y-130.81
X99.695Y-51.435
X99.695Y-88.265
X101.6Y-108.585
X101.6Y-139.7
X102.235Y-62.865
X102.87Y-39.37
X106.045Y-55.245
X106.045Y-79.375
X106.045Y-132.715
X107.315Y-83.185
X107.95Y-105.41
X107.95Y-114.3
X109.855Y-87.63
X110.49Y-116.205
X111.125Y-60.325
X111.125Y-107.315
X111.76Y-133.35
X112.395Y-90.805
X112.395Y-108.585
X113.665Y-55.245
X114.3Y-73.025
X116.205Y-31.115
X116.205Y-56.515
X116.205Y-71.12
X118.745Y-26.67
X118.745Y-34.29
X119.38Y-116.84
X126.365Y-52.07
X126.365Y-87.63
X127.0Y-136.525
X129.54Y-85.725
X130.175Y-53.975
X130.81Y-106.045
X130.81Y-114.935
X132.08Y-53.975
X133.35Y-107.95
X133.985Y-53.975
X137.16Y-73.025
X139.065Y-116.205
X139.7Y-70.485
X140.97Y-114.935
X142.24Y-57.15
X142.875Y-112.395
X142.875Y-116.205
X144.78Y-78.105
X144.78Y-130.175
X145.415Y-133.35
X147.32Y-41.91
X147.32Y-48.26
X147.32Y-67.945
X147.32Y-74.295
X147.32Y-120.015
X147.32Y-126.365
X148.59Y-109.855
X148.59Y-133.35
X148.59Y-144.145
X149.225Y-38.735
X149.225Y-112.395
X149.86Y-116.205
X151.13Y-73.025
X151.13Y-139.7
X151.765Y-83.82
X151.765Y-91.44
X152.4Y-38.735
X153.035Y-80.645
X153.67Y-113.03
X153.67Y-141.605
X154.305Y-88.265
X154.94Y-91.44
X155.575Y-46.99
X156.21Y-78.74
X158.115Y-111.125
X158.75Y-45.085
X158.75Y-62.23
X160.02Y-88.9
X161.29Y-34.925
X161.29Y-37.465
X161.925Y-109.855
X162.56Y-53.975
X162.56Y-82.55
X162.56Y-141.605
X163.83Y-107.95
X165.1Y-81.28
X166.37Y-88.9
X166.37Y-106.68
X166.37Y-139.7
X167.64Y-81.28
X167.64Y-90.17
X167.64Y-113.665
X167.64Y-116.205
X167.64Y-130.81
X169.545Y-34.925
X169.545Y-144.78
X170.18Y-29.845
X170.18Y-104.775
X170.815Y-33.655
X170.815Y-115.57
X172.085Y-91.44
X172.085Y-112.395
X172.085Y-114.3
X172.085Y-132.08
X172.72Y-29.845
X172.72Y-141.605
X172.72Y-144.78
X173.99Y-57.15
X175.26Y-29.845
X175.26Y-105.41
X176.53Y-36.195
X176.53Y-132.08
X177.165Y-88.265
X178.435Y-106.68
X179.07Y-38.1
X179.07Y-89.535
X179.07Y-145.415
X179.705Y-34.925
X182.245Y-145.415
X182.88Y-33.02
X184.15Y-29.845
X184.785Y-132.08
X185.42Y-64.135
X185.42Y-89.535
X186.69Y-29.845
X186.69Y-114.935
X187.96Y-61.595
X187.96Y-141.605
X188.595Y-111.125
X189.23Y-29.845
X189.23Y-33.02
X189.23Y-35.56
X189.23Y-38.1
X191.77Y-89.535
X191.77Y-112.395
X193.04Y-62.865
X194.31Y-55.88
X195.58Y-52.705
X196.85Y-106.68
X198.12Y-88.9
X199.39Y-83.82
X200.66Y-79.375
X200.66Y-106.68
X201.93Y-83.82
X201.93Y-107.95
X201.93Y-132.08
X204.47Y-85.09
X204.47Y-115.57
X208.28Y-88.265
X209.55Y-86.36
X211.455Y-108.585
X212.725Y-110.49
X217.805Y-91.44
X220.98Y-106.045
X223.52Y-107.315
X226.06Y-108.585
X228.6Y-105.41
X233.68Y-91.44
X234.95Y-104.775
X239.395Y-103.505
X242.57Y-141.605
X247.65Y-142.875
X250.19Y-138.43
X251.46Y-125.095
X254.0Y-122.555
T2
X36.195Y-67.945
X36.195Y-75.565
X36.195Y-93.98
X36.195Y-101.6
X36.195Y-120.015
X36.195Y-127.635
X38.735Y-67.945
X38.735Y-75.565
X38.735Y-93.98
X38.735Y-101.6
X38.735Y-120.015
X38.735Y-127.635
X41.275Y-67.945
X41.275Y-75.565
X41.275Y-93.98
X41.275Y-101.6
X41.275Y-120.015
X41.275Y-127.635
X43.815Y-67.945
X43.815Y-75.565
X43.815Y-93.98
X43.815Y-101.6
X43.815Y-120.015
X43.815Y-127.635
X46.355Y-67.945
X46.355Y-75.565
X46.355Y-93.98
X46.355Y-101.6
X46.355Y-120.015
X46.355Y-127.635
X48.895Y-67.945
X48.895Y-75.565
X48.895Y-93.98
X48.895Y-101.6
X48.895Y-120.015
X48.895Y-127.635
X51.435Y-67.945
X51.435Y-75.565
X51.435Y-93.98
X51.435Y-101.6
X51.435Y-120.015
X51.435Y-127.635
X59.055Y-41.91
X59.055Y-49.53
X59.055Y-67.945
X59.055Y-75.565
X59.055Y-93.98
X59.055Y-101.6
X59.055Y-120.015
X59.055Y-127.635
X61.595Y-41.91
X61.595Y-49.53
X61.595Y-67.945
X61.595Y-75.565
X61.595Y-93.98
X61.595Y-101.6
X61.595Y-120.015
X61.595Y-127.635
X64.135Y-41.91
X64.135Y-49.53
X64.135Y-67.945
X64.135Y-75.565
X64.135Y-93.98
X64.135Y-101.6
X64.135Y-120.015
X64.135Y-127.635
X66.675Y-41.91
X66.675Y-49.53
X66.675Y-67.945
X66.675Y-75.565
X66.675Y-93.98
X66.675Y-101.6
X66.675Y-120.015
X66.675Y-127.635
X69.215Y-41.91
X69.215Y-49.53
X69.215Y-67.945
X69.215Y-75.565
X69.215Y-93.98
X69.215Y-101.6
X69.215Y-120.015
X69.215Y-127.635
X71.755Y-41.91
X71.755Y-49.53
X71.755Y-67.945
X71.755Y-75.565
X71.755Y-93.98
X71.755Y-101.6
X71.755Y-120.015
X71.755Y-127.635
X74.295Y-41.91
X74.295Y-49.53
X74.295Y-67.945
X74.295Y-75.565
X74.295Y-93.98
X74.295Y-101.6
X74.295Y-120.015
X74.295Y-127.635
X82.55Y-41.91
X82.55Y-49.53
X82.55Y-67.945
X82.55Y-75.565
X82.55Y-93.98
X82.55Y-101.6
X82.55Y-120.015
X82.55Y-127.635
X85.09Y-41.91
X85.09Y-49.53
X85.09Y-67.945
X85.09Y-75.565
X85.09Y-93.98
X85.09Y-101.6
X85.09Y-120.015
X85.09Y-127.635
X87.63Y-41.91
X87.63Y-49.53
X87.63Y-67.945
X87.63Y-75.565
X87.63Y-93.98
X87.63Y-101.6
X87.63Y-120.015
X87.63Y-127.635
X90.17Y-41.91
X90.17Y-49.53
X90.17Y-67.945
X90.17Y-75.565
X90.17Y-93.98
X90.17Y-101.6
X90.17Y-120.015
X90.17Y-127.635
X92.71Y-41.91
X92.71Y-49.53
X92.71Y-67.945
X92.71Y-75.565
X92.71Y-93.98
X92.71Y-101.6
X92.71Y-120.015
X92.71Y-127.635
X95.25Y-41.91
X95.25Y-49.53
X95.25Y-67.945
X95.25Y-75.565
X95.25Y-93.98
X95.25Y-101.6
X95.25Y-120.015
X95.25Y-127.635
X97.79Y-41.91
X97.79Y-49.53
X97.79Y-67.945
X97.79Y-75.565
X97.79Y-93.98
X97.79Y-101.6
X97.79Y-120.015
X97.79Y-127.635
X102.87Y-120.015
X102.87Y-127.635
X104.775Y-41.91
X104.775Y-49.53
X104.775Y-67.945
X104.775Y-75.565
X104.775Y-93.98
X104.775Y-101.6
X105.41Y-120.015
X105.41Y-127.635
X107.315Y-41.91
X107.315Y-49.53
X107.315Y-67.945
X107.315Y-75.565
X107.315Y-93.98
X107.315Y-101.6
X107.95Y-120.015
X107.95Y-127.635
X109.855Y-41.91
X109.855Y-49.53
X109.855Y-67.945
X109.855Y-75.565
X109.855Y-93.98
X109.855Y-101.6
X110.49Y-120.015
X110.49Y-127.635
X112.395Y-41.91
X112.395Y-49.53
X112.395Y-67.945
X112.395Y-75.565
X112.395Y-93.98
X112.395Y-101.6
X113.03Y-120.015
X113.03Y-127.635
X114.935Y-41.91
X114.935Y-49.53
X114.935Y-67.945
X114.935Y-75.565
X114.935Y-93.98
X114.935Y-101.6
X115.57Y-120.015
X115.57Y-127.635
X117.475Y-41.91
X117.475Y-49.53
X117.475Y-67.945
X117.475Y-75.565
X117.475Y-93.98
X117.475Y-101.6
X118.11Y-120.015
X118.11Y-127.635
X120.015Y-41.91
X120.015Y-49.53
X120.015Y-67.945
X120.015Y-75.565
X120.015Y-93.98
X120.015Y-101.6
X120.65Y-120.015
X120.65Y-127.635
X125.73Y-120.015
X125.73Y-127.635
X128.27Y-41.91
X128.27Y-49.53
X128.27Y-67.945
X128.27Y-75.565
X128.27Y-93.98
X128.27Y-101.6
X128.27Y-120.015
X128.27Y-127.635
X130.81Y-41.91
X130.81Y-49.53
X130.81Y-67.945
X130.81Y-75.565
X130.81Y-93.98
X130.81Y-101.6
X130.81Y-120.015
X130.81Y-127.635
X133.35Y-41.91
X133.35Y-49.53
X133.35Y-67.945
X133.35Y-75.565
X133.35Y-93.98
X133.35Y-101.6
X133.35Y-120.015
X133.35Y-127.635
X135.89Y-41.91
X135.89Y-49.53
X135.89Y-67.945
X135.89Y-75.565
X135.89Y-93.98
X135.89Y-101.6
X135.89Y-120.015
X135.89Y-127.635
X138.43Y-41.91
X138.43Y-49.53
X138.43Y-67.945
X138.43Y-75.565
X138.43Y-93.98
X138.43Y-101.6
X138.43Y-120.015
X138.43Y-127.635
X140.97Y-41.91
X140.97Y-49.53
X140.97Y-67.945
X140.97Y-75.565
X140.97Y-93.98
X140.97Y-101.6
X140.97Y-120.015
X140.97Y-127.635
X143.51Y-41.91
X143.51Y-49.53
X143.51Y-67.945
X143.51Y-75.565
X143.51Y-93.98
X143.51Y-101.6
X143.51Y-120.015
X143.51Y-127.635
X151.13Y-41.91
X151.13Y-49.53
X151.13Y-67.945
X151.13Y-75.565
X151.13Y-93.98
X151.13Y-101.6
X151.13Y-120.015
X151.13Y-127.635
X153.67Y-41.91
X153.67Y-49.53
X153.67Y-67.945
X153.67Y-75.565
X153.67Y-93.98
X153.67Y-101.6
X153.67Y-120.015
X153.67Y-127.635
X156.21Y-41.91
X156.21Y-49.53
X156.21Y-67.945
X156.21Y-75.565
X156.21Y-93.98
X156.21Y-101.6
X156.21Y-120.015
X156.21Y-127.635
X158.75Y-41.91
X158.75Y-49.53
X158.75Y-67.945
X158.75Y-75.565
X158.75Y-93.98
X158.75Y-101.6
X158.75Y-120.015
X158.75Y-127.635
X161.29Y-41.91
X161.29Y-49.53
X161.29Y-67.945
X161.29Y-75.565
X161.29Y-93.98
X161.29Y-101.6
X161.29Y-120.015
X161.29Y-127.635
X163.83Y-41.91
X163.83Y-49.53
X163.83Y-67.945
X163.83Y-75.565
X163.83Y-93.98
X163.83Y-101.6
X163.83Y-120.015
X163.83Y-127.635
X166.37Y-41.91
X166.37Y-49.53
X166.37Y-67.945
X166.37Y-75.565
X166.37Y-93.98
X166.37Y-101.6
X166.37Y-120.015
X166.37Y-127.635
X168.91Y-67.945
X168.91Y-75.565
X168.91Y-120.015
X168.91Y-127.635
X173.99Y-41.91
X173.99Y-49.53
X173.99Y-67.945
X173.99Y-75.565
X173.99Y-93.98
X173.99Y-101.6
X173.99Y-120.015
X173.99Y-127.635
X176.53Y-41.91
X176.53Y-49.53
X176.53Y-67.945
X176.53Y-75.565
X176.53Y-93.98
X176.53Y-101.6
X176.53Y-120.015
X176.53Y-127.635
X179.07Y-41.91
X179.07Y-49.53
X179.07Y-67.945
X179.07Y-75.565
X179.07Y-93.98
X179.07Y-101.6
X179.07Y-120.015
X179.07Y-127.635
X181.61Y-41.91
X181.61Y-49.53
X181.61Y-67.945
X181.61Y-75.565
X181.61Y-93.98
X181.61Y-101.6
X181.61Y-120.015
X181.61Y-127.635
X184.15Y-41.91
X184.15Y-49.53
X184.15Y-67.945
X184.15Y-75.565
X184.15Y-93.98
X184.15Y-101.6
X184.15Y-120.015
X184.15Y-127.635
X186.69Y-41.91
X186.69Y-49.53
X186.69Y-67.945
X186.69Y-75.565
X186.69Y-93.98
X186.69Y-101.6
X186.69Y-120.015
X186.69Y-127.635
X189.23Y-41.91
X189.23Y-49.53
X189.23Y-67.945
X189.23Y-75.565
X189.23Y-93.98
X189.23Y-101.6
X189.23Y-120.015
X189.23Y-127.635
X191.77Y-93.98
X191.77Y-101.6
X191.77Y-120.015
X191.77Y-127.635
X196.85Y-67.945
X196.85Y-75.565
X196.85Y-93.98
X196.85Y-101.6
X196.85Y-120.015
X196.85Y-127.635
X199.39Y-67.945
X199.39Y-75.565
X199.39Y-93.98
X199.39Y-101.6
X199.39Y-120.015
X199.39Y-127.635
X201.93Y-67.945
X201.93Y-75.565
X201.93Y-93.98
X201.93Y-101.6
X201.93Y-120.015
X201.93Y-127.635
X204.47Y-67.945
X204.47Y-75.565
X204.47Y-93.98
X204.47Y-101.6
X204.47Y-120.015
X204.47Y-127.635
X207.01Y-67.945
X207.01Y-75.565
X207.01Y-93.98
X207.01Y-101.6
X207.01Y-120.015
X207.01Y-127.635
X209.55Y-67.945
X209.55Y-75.565
X209.55Y-93.98
X209.55Y-101.6
X209.55Y-120.015
X209.55Y-127.635
X212.09Y-67.945
X212.09Y-75.565
X212.09Y-93.98
X212.09Y-101.6
X212.09Y-120.015
X212.09Y-127.635
X214.63Y-120.015
X214.63Y-127.635
X219.71Y-67.945
X219.71Y-75.565
X219.71Y-93.98
X219.71Y-101.6
X219.71Y-120.015
X219.71Y-127.635
X222.25Y-67.945
X222.25Y-75.565
X222.25Y-93.98
X222.25Y-101.6
X222.25Y-120.015
X222.25Y-127.635
X224.79Y-67.945
X224.79Y-75.565
X224.79Y-93.98
X224.79Y-101.6
X224.79Y-120.015
X224.79Y-127.635
X227.33Y-67.945
X227.33Y-75.565
X227.33Y-93.98
X227.33Y-101.6
X227.33Y-120.015
X227.33Y-127.635
X229.87Y-67.945
X229.87Y-75.565
X229.87Y-93.98
X229.87Y-101.6
X229.87Y-120.015
X229.87Y-127.635
X232.41Y-67.945
X232.41Y-75.565
X232.41Y-93.98
X232.41Y-101.6
X232.41Y-120.015
X232.41Y-127.635
X234.95Y-67.945
X234.95Y-75.565
X234.95Y-93.98
X234.95Y-101.6
X234.95Y-120.015
X234.95Y-127.635
X237.49Y-93.98
X237.49Y-101.6
X242.57Y-67.945
X242.57Y-75.565
X242.57Y-93.98
X242.57Y-101.6
X242.57Y-107.315
X242.57Y-114.935
X242.57Y-120.015
X242.57Y-127.635
X245.11Y-67.945
X245.11Y-75.565
X245.11Y-93.98
X245.11Y-101.6
X245.11Y-107.315
X245.11Y-114.935
X245.11Y-120.015
X245.11Y-127.635
X247.65Y-67.945
X247.65Y-75.565
X247.65Y-93.98
X247.65Y-101.6
X247.65Y-107.315
X247.65Y-114.935
X247.65Y-120.015
X247.65Y-127.635
X250.19Y-67.945
X250.19Y-75.565
X250.19Y-93.98
X250.19Y-101.6
X250.19Y-107.315
X250.19Y-114.935
X250.19Y-120.015
X250.19Y-127.635
X252.73Y-67.945
X252.73Y-75.565
X252.73Y-93.98
X252.73Y-101.6
X252.73Y-107.315
X252.73Y-114.935
X252.73Y-120.015
X252.73Y-127.635
X255.27Y-67.945
X255.27Y-75.565
X255.27Y-93.98
X255.27Y-101.6
X255.27Y-107.315
X255.27Y-114.935
X255.27Y-120.015
X255.27Y-127.635
X257.81Y-67.945
X257.81Y-75.565
X257.81Y-93.98
X257.81Y-101.6
X257.81Y-107.315
X257.81Y-114.935
X257.81Y-120.015
X257.81Y-127.635
X260.35Y-93.98
X260.35Y-101.6
X260.35Y-107.315
X260.35Y-114.935
X260.35Y-120.015
X260.35Y-127.635
T3
X36.195Y-60.62
X38.735Y-58.42
X41.275Y-60.62
T4
X26.67Y-27.94
X267.97Y-27.94
T0
M30
