G04 #@! TF.GenerationSoftware,KiCad,Pcbnew,(5.1.12)-1*
G04 #@! TF.CreationDate,2022-10-15T16:15:19+01:00*
G04 #@! TF.ProjectId,Dazzler,44617a7a-6c65-4722-9e6b-696361645f70,rev?*
G04 #@! TF.SameCoordinates,Original*
G04 #@! TF.FileFunction,Soldermask,Bot*
G04 #@! TF.FilePolarity,Negative*
%FSLAX46Y46*%
G04 Gerber Fmt 4.6, Leading zero omitted, Abs format (unit mm)*
G04 Created by KiCad (PCBNEW (5.1.12)-1) date 2022-10-15 16:15:19*
%MOMM*%
%LPD*%
G01*
G04 APERTURE LIST*
%ADD10O,2.413000X2.508000*%
%ADD11C,2.413000*%
%ADD12O,4.008000X4.008000*%
%ADD13O,2.108000X2.908000*%
%ADD14C,3.556000*%
G04 APERTURE END LIST*
D10*
X41275000Y-60620000D03*
X38735000Y-58420000D03*
D11*
X36195000Y-60620000D03*
D12*
X38735000Y-41760000D03*
G36*
G01*
X174790000Y-50984000D02*
X173190000Y-50984000D01*
G75*
G02*
X172936000Y-50730000I0J254000D01*
G01*
X172936000Y-48330000D01*
G75*
G02*
X173190000Y-48076000I254000J0D01*
G01*
X174790000Y-48076000D01*
G75*
G02*
X175044000Y-48330000I0J-254000D01*
G01*
X175044000Y-50730000D01*
G75*
G02*
X174790000Y-50984000I-254000J0D01*
G01*
G37*
D13*
X189230000Y-41910000D03*
X176530000Y-49530000D03*
X186690000Y-41910000D03*
X179070000Y-49530000D03*
X184150000Y-41910000D03*
X181610000Y-49530000D03*
X181610000Y-41910000D03*
X184150000Y-49530000D03*
X179070000Y-41910000D03*
X186690000Y-49530000D03*
X176530000Y-41910000D03*
X189230000Y-49530000D03*
X173990000Y-41910000D03*
G36*
G01*
X151930000Y-50984000D02*
X150330000Y-50984000D01*
G75*
G02*
X150076000Y-50730000I0J254000D01*
G01*
X150076000Y-48330000D01*
G75*
G02*
X150330000Y-48076000I254000J0D01*
G01*
X151930000Y-48076000D01*
G75*
G02*
X152184000Y-48330000I0J-254000D01*
G01*
X152184000Y-50730000D01*
G75*
G02*
X151930000Y-50984000I-254000J0D01*
G01*
G37*
X166370000Y-41910000D03*
X153670000Y-49530000D03*
X163830000Y-41910000D03*
X156210000Y-49530000D03*
X161290000Y-41910000D03*
X158750000Y-49530000D03*
X158750000Y-41910000D03*
X161290000Y-49530000D03*
X156210000Y-41910000D03*
X163830000Y-49530000D03*
X153670000Y-41910000D03*
X166370000Y-49530000D03*
X151130000Y-41910000D03*
G36*
G01*
X129070000Y-50984000D02*
X127470000Y-50984000D01*
G75*
G02*
X127216000Y-50730000I0J254000D01*
G01*
X127216000Y-48330000D01*
G75*
G02*
X127470000Y-48076000I254000J0D01*
G01*
X129070000Y-48076000D01*
G75*
G02*
X129324000Y-48330000I0J-254000D01*
G01*
X129324000Y-50730000D01*
G75*
G02*
X129070000Y-50984000I-254000J0D01*
G01*
G37*
X143510000Y-41910000D03*
X130810000Y-49530000D03*
X140970000Y-41910000D03*
X133350000Y-49530000D03*
X138430000Y-41910000D03*
X135890000Y-49530000D03*
X135890000Y-41910000D03*
X138430000Y-49530000D03*
X133350000Y-41910000D03*
X140970000Y-49530000D03*
X130810000Y-41910000D03*
X143510000Y-49530000D03*
X128270000Y-41910000D03*
G36*
G01*
X105575000Y-50984000D02*
X103975000Y-50984000D01*
G75*
G02*
X103721000Y-50730000I0J254000D01*
G01*
X103721000Y-48330000D01*
G75*
G02*
X103975000Y-48076000I254000J0D01*
G01*
X105575000Y-48076000D01*
G75*
G02*
X105829000Y-48330000I0J-254000D01*
G01*
X105829000Y-50730000D01*
G75*
G02*
X105575000Y-50984000I-254000J0D01*
G01*
G37*
X120015000Y-41910000D03*
X107315000Y-49530000D03*
X117475000Y-41910000D03*
X109855000Y-49530000D03*
X114935000Y-41910000D03*
X112395000Y-49530000D03*
X112395000Y-41910000D03*
X114935000Y-49530000D03*
X109855000Y-41910000D03*
X117475000Y-49530000D03*
X107315000Y-41910000D03*
X120015000Y-49530000D03*
X104775000Y-41910000D03*
G36*
G01*
X83350000Y-50984000D02*
X81750000Y-50984000D01*
G75*
G02*
X81496000Y-50730000I0J254000D01*
G01*
X81496000Y-48330000D01*
G75*
G02*
X81750000Y-48076000I254000J0D01*
G01*
X83350000Y-48076000D01*
G75*
G02*
X83604000Y-48330000I0J-254000D01*
G01*
X83604000Y-50730000D01*
G75*
G02*
X83350000Y-50984000I-254000J0D01*
G01*
G37*
X97790000Y-41910000D03*
X85090000Y-49530000D03*
X95250000Y-41910000D03*
X87630000Y-49530000D03*
X92710000Y-41910000D03*
X90170000Y-49530000D03*
X90170000Y-41910000D03*
X92710000Y-49530000D03*
X87630000Y-41910000D03*
X95250000Y-49530000D03*
X85090000Y-41910000D03*
X97790000Y-49530000D03*
X82550000Y-41910000D03*
G36*
G01*
X243370000Y-77019000D02*
X241770000Y-77019000D01*
G75*
G02*
X241516000Y-76765000I0J254000D01*
G01*
X241516000Y-74365000D01*
G75*
G02*
X241770000Y-74111000I254000J0D01*
G01*
X243370000Y-74111000D01*
G75*
G02*
X243624000Y-74365000I0J-254000D01*
G01*
X243624000Y-76765000D01*
G75*
G02*
X243370000Y-77019000I-254000J0D01*
G01*
G37*
X257810000Y-67945000D03*
X245110000Y-75565000D03*
X255270000Y-67945000D03*
X247650000Y-75565000D03*
X252730000Y-67945000D03*
X250190000Y-75565000D03*
X250190000Y-67945000D03*
X252730000Y-75565000D03*
X247650000Y-67945000D03*
X255270000Y-75565000D03*
X245110000Y-67945000D03*
X257810000Y-75565000D03*
X242570000Y-67945000D03*
G36*
G01*
X220510000Y-77019000D02*
X218910000Y-77019000D01*
G75*
G02*
X218656000Y-76765000I0J254000D01*
G01*
X218656000Y-74365000D01*
G75*
G02*
X218910000Y-74111000I254000J0D01*
G01*
X220510000Y-74111000D01*
G75*
G02*
X220764000Y-74365000I0J-254000D01*
G01*
X220764000Y-76765000D01*
G75*
G02*
X220510000Y-77019000I-254000J0D01*
G01*
G37*
X234950000Y-67945000D03*
X222250000Y-75565000D03*
X232410000Y-67945000D03*
X224790000Y-75565000D03*
X229870000Y-67945000D03*
X227330000Y-75565000D03*
X227330000Y-67945000D03*
X229870000Y-75565000D03*
X224790000Y-67945000D03*
X232410000Y-75565000D03*
X222250000Y-67945000D03*
X234950000Y-75565000D03*
X219710000Y-67945000D03*
G36*
G01*
X197650000Y-77019000D02*
X196050000Y-77019000D01*
G75*
G02*
X195796000Y-76765000I0J254000D01*
G01*
X195796000Y-74365000D01*
G75*
G02*
X196050000Y-74111000I254000J0D01*
G01*
X197650000Y-74111000D01*
G75*
G02*
X197904000Y-74365000I0J-254000D01*
G01*
X197904000Y-76765000D01*
G75*
G02*
X197650000Y-77019000I-254000J0D01*
G01*
G37*
X212090000Y-67945000D03*
X199390000Y-75565000D03*
X209550000Y-67945000D03*
X201930000Y-75565000D03*
X207010000Y-67945000D03*
X204470000Y-75565000D03*
X204470000Y-67945000D03*
X207010000Y-75565000D03*
X201930000Y-67945000D03*
X209550000Y-75565000D03*
X199390000Y-67945000D03*
X212090000Y-75565000D03*
X196850000Y-67945000D03*
G36*
G01*
X174790000Y-77019000D02*
X173190000Y-77019000D01*
G75*
G02*
X172936000Y-76765000I0J254000D01*
G01*
X172936000Y-74365000D01*
G75*
G02*
X173190000Y-74111000I254000J0D01*
G01*
X174790000Y-74111000D01*
G75*
G02*
X175044000Y-74365000I0J-254000D01*
G01*
X175044000Y-76765000D01*
G75*
G02*
X174790000Y-77019000I-254000J0D01*
G01*
G37*
X189230000Y-67945000D03*
X176530000Y-75565000D03*
X186690000Y-67945000D03*
X179070000Y-75565000D03*
X184150000Y-67945000D03*
X181610000Y-75565000D03*
X181610000Y-67945000D03*
X184150000Y-75565000D03*
X179070000Y-67945000D03*
X186690000Y-75565000D03*
X176530000Y-67945000D03*
X189230000Y-75565000D03*
X173990000Y-67945000D03*
G36*
G01*
X243370000Y-116389000D02*
X241770000Y-116389000D01*
G75*
G02*
X241516000Y-116135000I0J254000D01*
G01*
X241516000Y-113735000D01*
G75*
G02*
X241770000Y-113481000I254000J0D01*
G01*
X243370000Y-113481000D01*
G75*
G02*
X243624000Y-113735000I0J-254000D01*
G01*
X243624000Y-116135000D01*
G75*
G02*
X243370000Y-116389000I-254000J0D01*
G01*
G37*
X260350000Y-107315000D03*
X245110000Y-114935000D03*
X257810000Y-107315000D03*
X247650000Y-114935000D03*
X255270000Y-107315000D03*
X250190000Y-114935000D03*
X252730000Y-107315000D03*
X252730000Y-114935000D03*
X250190000Y-107315000D03*
X255270000Y-114935000D03*
X247650000Y-107315000D03*
X257810000Y-114935000D03*
X245110000Y-107315000D03*
X260350000Y-114935000D03*
X242570000Y-107315000D03*
X196850000Y-120015000D03*
X214630000Y-127635000D03*
X199390000Y-120015000D03*
X212090000Y-127635000D03*
X201930000Y-120015000D03*
X209550000Y-127635000D03*
X204470000Y-120015000D03*
X207010000Y-127635000D03*
X207010000Y-120015000D03*
X204470000Y-127635000D03*
X209550000Y-120015000D03*
X201930000Y-127635000D03*
X212090000Y-120015000D03*
X199390000Y-127635000D03*
X214630000Y-120015000D03*
G36*
G01*
X197650000Y-129089000D02*
X196050000Y-129089000D01*
G75*
G02*
X195796000Y-128835000I0J254000D01*
G01*
X195796000Y-126435000D01*
G75*
G02*
X196050000Y-126181000I254000J0D01*
G01*
X197650000Y-126181000D01*
G75*
G02*
X197904000Y-126435000I0J-254000D01*
G01*
X197904000Y-128835000D01*
G75*
G02*
X197650000Y-129089000I-254000J0D01*
G01*
G37*
X128270000Y-67945000D03*
X143510000Y-75565000D03*
X130810000Y-67945000D03*
X140970000Y-75565000D03*
X133350000Y-67945000D03*
X138430000Y-75565000D03*
X135890000Y-67945000D03*
X135890000Y-75565000D03*
X138430000Y-67945000D03*
X133350000Y-75565000D03*
X140970000Y-67945000D03*
X130810000Y-75565000D03*
X143510000Y-67945000D03*
G36*
G01*
X129070000Y-77019000D02*
X127470000Y-77019000D01*
G75*
G02*
X127216000Y-76765000I0J254000D01*
G01*
X127216000Y-74365000D01*
G75*
G02*
X127470000Y-74111000I254000J0D01*
G01*
X129070000Y-74111000D01*
G75*
G02*
X129324000Y-74365000I0J-254000D01*
G01*
X129324000Y-76765000D01*
G75*
G02*
X129070000Y-77019000I-254000J0D01*
G01*
G37*
X104775000Y-67945000D03*
X120015000Y-75565000D03*
X107315000Y-67945000D03*
X117475000Y-75565000D03*
X109855000Y-67945000D03*
X114935000Y-75565000D03*
X112395000Y-67945000D03*
X112395000Y-75565000D03*
X114935000Y-67945000D03*
X109855000Y-75565000D03*
X117475000Y-67945000D03*
X107315000Y-75565000D03*
X120015000Y-67945000D03*
G36*
G01*
X105575000Y-77019000D02*
X103975000Y-77019000D01*
G75*
G02*
X103721000Y-76765000I0J254000D01*
G01*
X103721000Y-74365000D01*
G75*
G02*
X103975000Y-74111000I254000J0D01*
G01*
X105575000Y-74111000D01*
G75*
G02*
X105829000Y-74365000I0J-254000D01*
G01*
X105829000Y-76765000D01*
G75*
G02*
X105575000Y-77019000I-254000J0D01*
G01*
G37*
X151130000Y-93980000D03*
X166370000Y-101600000D03*
X153670000Y-93980000D03*
X163830000Y-101600000D03*
X156210000Y-93980000D03*
X161290000Y-101600000D03*
X158750000Y-93980000D03*
X158750000Y-101600000D03*
X161290000Y-93980000D03*
X156210000Y-101600000D03*
X163830000Y-93980000D03*
X153670000Y-101600000D03*
X166370000Y-93980000D03*
G36*
G01*
X151930000Y-103054000D02*
X150330000Y-103054000D01*
G75*
G02*
X150076000Y-102800000I0J254000D01*
G01*
X150076000Y-100400000D01*
G75*
G02*
X150330000Y-100146000I254000J0D01*
G01*
X151930000Y-100146000D01*
G75*
G02*
X152184000Y-100400000I0J-254000D01*
G01*
X152184000Y-102800000D01*
G75*
G02*
X151930000Y-103054000I-254000J0D01*
G01*
G37*
X104775000Y-93980000D03*
X120015000Y-101600000D03*
X107315000Y-93980000D03*
X117475000Y-101600000D03*
X109855000Y-93980000D03*
X114935000Y-101600000D03*
X112395000Y-93980000D03*
X112395000Y-101600000D03*
X114935000Y-93980000D03*
X109855000Y-101600000D03*
X117475000Y-93980000D03*
X107315000Y-101600000D03*
X120015000Y-93980000D03*
G36*
G01*
X105575000Y-103054000D02*
X103975000Y-103054000D01*
G75*
G02*
X103721000Y-102800000I0J254000D01*
G01*
X103721000Y-100400000D01*
G75*
G02*
X103975000Y-100146000I254000J0D01*
G01*
X105575000Y-100146000D01*
G75*
G02*
X105829000Y-100400000I0J-254000D01*
G01*
X105829000Y-102800000D01*
G75*
G02*
X105575000Y-103054000I-254000J0D01*
G01*
G37*
X82550000Y-93980000D03*
X97790000Y-101600000D03*
X85090000Y-93980000D03*
X95250000Y-101600000D03*
X87630000Y-93980000D03*
X92710000Y-101600000D03*
X90170000Y-93980000D03*
X90170000Y-101600000D03*
X92710000Y-93980000D03*
X87630000Y-101600000D03*
X95250000Y-93980000D03*
X85090000Y-101600000D03*
X97790000Y-93980000D03*
G36*
G01*
X83350000Y-103054000D02*
X81750000Y-103054000D01*
G75*
G02*
X81496000Y-102800000I0J254000D01*
G01*
X81496000Y-100400000D01*
G75*
G02*
X81750000Y-100146000I254000J0D01*
G01*
X83350000Y-100146000D01*
G75*
G02*
X83604000Y-100400000I0J-254000D01*
G01*
X83604000Y-102800000D01*
G75*
G02*
X83350000Y-103054000I-254000J0D01*
G01*
G37*
G36*
G01*
X59855000Y-77019000D02*
X58255000Y-77019000D01*
G75*
G02*
X58001000Y-76765000I0J254000D01*
G01*
X58001000Y-74365000D01*
G75*
G02*
X58255000Y-74111000I254000J0D01*
G01*
X59855000Y-74111000D01*
G75*
G02*
X60109000Y-74365000I0J-254000D01*
G01*
X60109000Y-76765000D01*
G75*
G02*
X59855000Y-77019000I-254000J0D01*
G01*
G37*
X74295000Y-67945000D03*
X61595000Y-75565000D03*
X71755000Y-67945000D03*
X64135000Y-75565000D03*
X69215000Y-67945000D03*
X66675000Y-75565000D03*
X66675000Y-67945000D03*
X69215000Y-75565000D03*
X64135000Y-67945000D03*
X71755000Y-75565000D03*
X61595000Y-67945000D03*
X74295000Y-75565000D03*
X59055000Y-67945000D03*
G36*
G01*
X83350000Y-77019000D02*
X81750000Y-77019000D01*
G75*
G02*
X81496000Y-76765000I0J254000D01*
G01*
X81496000Y-74365000D01*
G75*
G02*
X81750000Y-74111000I254000J0D01*
G01*
X83350000Y-74111000D01*
G75*
G02*
X83604000Y-74365000I0J-254000D01*
G01*
X83604000Y-76765000D01*
G75*
G02*
X83350000Y-77019000I-254000J0D01*
G01*
G37*
X97790000Y-67945000D03*
X85090000Y-75565000D03*
X95250000Y-67945000D03*
X87630000Y-75565000D03*
X92710000Y-67945000D03*
X90170000Y-75565000D03*
X90170000Y-67945000D03*
X92710000Y-75565000D03*
X87630000Y-67945000D03*
X95250000Y-75565000D03*
X85090000Y-67945000D03*
X97790000Y-75565000D03*
X82550000Y-67945000D03*
G36*
G01*
X36995000Y-77019000D02*
X35395000Y-77019000D01*
G75*
G02*
X35141000Y-76765000I0J254000D01*
G01*
X35141000Y-74365000D01*
G75*
G02*
X35395000Y-74111000I254000J0D01*
G01*
X36995000Y-74111000D01*
G75*
G02*
X37249000Y-74365000I0J-254000D01*
G01*
X37249000Y-76765000D01*
G75*
G02*
X36995000Y-77019000I-254000J0D01*
G01*
G37*
X51435000Y-67945000D03*
X38735000Y-75565000D03*
X48895000Y-67945000D03*
X41275000Y-75565000D03*
X46355000Y-67945000D03*
X43815000Y-75565000D03*
X43815000Y-67945000D03*
X46355000Y-75565000D03*
X41275000Y-67945000D03*
X48895000Y-75565000D03*
X38735000Y-67945000D03*
X51435000Y-75565000D03*
X36195000Y-67945000D03*
X59055000Y-41910000D03*
X74295000Y-49530000D03*
X61595000Y-41910000D03*
X71755000Y-49530000D03*
X64135000Y-41910000D03*
X69215000Y-49530000D03*
X66675000Y-41910000D03*
X66675000Y-49530000D03*
X69215000Y-41910000D03*
X64135000Y-49530000D03*
X71755000Y-41910000D03*
X61595000Y-49530000D03*
X74295000Y-41910000D03*
G36*
G01*
X59855000Y-50984000D02*
X58255000Y-50984000D01*
G75*
G02*
X58001000Y-50730000I0J254000D01*
G01*
X58001000Y-48330000D01*
G75*
G02*
X58255000Y-48076000I254000J0D01*
G01*
X59855000Y-48076000D01*
G75*
G02*
X60109000Y-48330000I0J-254000D01*
G01*
X60109000Y-50730000D01*
G75*
G02*
X59855000Y-50984000I-254000J0D01*
G01*
G37*
G36*
G01*
X59855000Y-103054000D02*
X58255000Y-103054000D01*
G75*
G02*
X58001000Y-102800000I0J254000D01*
G01*
X58001000Y-100400000D01*
G75*
G02*
X58255000Y-100146000I254000J0D01*
G01*
X59855000Y-100146000D01*
G75*
G02*
X60109000Y-100400000I0J-254000D01*
G01*
X60109000Y-102800000D01*
G75*
G02*
X59855000Y-103054000I-254000J0D01*
G01*
G37*
X74295000Y-93980000D03*
X61595000Y-101600000D03*
X71755000Y-93980000D03*
X64135000Y-101600000D03*
X69215000Y-93980000D03*
X66675000Y-101600000D03*
X66675000Y-93980000D03*
X69215000Y-101600000D03*
X64135000Y-93980000D03*
X71755000Y-101600000D03*
X61595000Y-93980000D03*
X74295000Y-101600000D03*
X59055000Y-93980000D03*
G36*
G01*
X129070000Y-103054000D02*
X127470000Y-103054000D01*
G75*
G02*
X127216000Y-102800000I0J254000D01*
G01*
X127216000Y-100400000D01*
G75*
G02*
X127470000Y-100146000I254000J0D01*
G01*
X129070000Y-100146000D01*
G75*
G02*
X129324000Y-100400000I0J-254000D01*
G01*
X129324000Y-102800000D01*
G75*
G02*
X129070000Y-103054000I-254000J0D01*
G01*
G37*
X143510000Y-93980000D03*
X130810000Y-101600000D03*
X140970000Y-93980000D03*
X133350000Y-101600000D03*
X138430000Y-93980000D03*
X135890000Y-101600000D03*
X135890000Y-93980000D03*
X138430000Y-101600000D03*
X133350000Y-93980000D03*
X140970000Y-101600000D03*
X130810000Y-93980000D03*
X143510000Y-101600000D03*
X128270000Y-93980000D03*
G36*
G01*
X36995000Y-103054000D02*
X35395000Y-103054000D01*
G75*
G02*
X35141000Y-102800000I0J254000D01*
G01*
X35141000Y-100400000D01*
G75*
G02*
X35395000Y-100146000I254000J0D01*
G01*
X36995000Y-100146000D01*
G75*
G02*
X37249000Y-100400000I0J-254000D01*
G01*
X37249000Y-102800000D01*
G75*
G02*
X36995000Y-103054000I-254000J0D01*
G01*
G37*
X51435000Y-93980000D03*
X38735000Y-101600000D03*
X48895000Y-93980000D03*
X41275000Y-101600000D03*
X46355000Y-93980000D03*
X43815000Y-101600000D03*
X43815000Y-93980000D03*
X46355000Y-101600000D03*
X41275000Y-93980000D03*
X48895000Y-101600000D03*
X38735000Y-93980000D03*
X51435000Y-101600000D03*
X36195000Y-93980000D03*
X173990000Y-93980000D03*
X191770000Y-101600000D03*
X176530000Y-93980000D03*
X189230000Y-101600000D03*
X179070000Y-93980000D03*
X186690000Y-101600000D03*
X181610000Y-93980000D03*
X184150000Y-101600000D03*
X184150000Y-93980000D03*
X181610000Y-101600000D03*
X186690000Y-93980000D03*
X179070000Y-101600000D03*
X189230000Y-93980000D03*
X176530000Y-101600000D03*
X191770000Y-93980000D03*
G36*
G01*
X174790000Y-103054000D02*
X173190000Y-103054000D01*
G75*
G02*
X172936000Y-102800000I0J254000D01*
G01*
X172936000Y-100400000D01*
G75*
G02*
X173190000Y-100146000I254000J0D01*
G01*
X174790000Y-100146000D01*
G75*
G02*
X175044000Y-100400000I0J-254000D01*
G01*
X175044000Y-102800000D01*
G75*
G02*
X174790000Y-103054000I-254000J0D01*
G01*
G37*
X242570000Y-93980000D03*
X260350000Y-101600000D03*
X245110000Y-93980000D03*
X257810000Y-101600000D03*
X247650000Y-93980000D03*
X255270000Y-101600000D03*
X250190000Y-93980000D03*
X252730000Y-101600000D03*
X252730000Y-93980000D03*
X250190000Y-101600000D03*
X255270000Y-93980000D03*
X247650000Y-101600000D03*
X257810000Y-93980000D03*
X245110000Y-101600000D03*
X260350000Y-93980000D03*
G36*
G01*
X243370000Y-103054000D02*
X241770000Y-103054000D01*
G75*
G02*
X241516000Y-102800000I0J254000D01*
G01*
X241516000Y-100400000D01*
G75*
G02*
X241770000Y-100146000I254000J0D01*
G01*
X243370000Y-100146000D01*
G75*
G02*
X243624000Y-100400000I0J-254000D01*
G01*
X243624000Y-102800000D01*
G75*
G02*
X243370000Y-103054000I-254000J0D01*
G01*
G37*
X196850000Y-93980000D03*
X212090000Y-101600000D03*
X199390000Y-93980000D03*
X209550000Y-101600000D03*
X201930000Y-93980000D03*
X207010000Y-101600000D03*
X204470000Y-93980000D03*
X204470000Y-101600000D03*
X207010000Y-93980000D03*
X201930000Y-101600000D03*
X209550000Y-93980000D03*
X199390000Y-101600000D03*
X212090000Y-93980000D03*
G36*
G01*
X197650000Y-103054000D02*
X196050000Y-103054000D01*
G75*
G02*
X195796000Y-102800000I0J254000D01*
G01*
X195796000Y-100400000D01*
G75*
G02*
X196050000Y-100146000I254000J0D01*
G01*
X197650000Y-100146000D01*
G75*
G02*
X197904000Y-100400000I0J-254000D01*
G01*
X197904000Y-102800000D01*
G75*
G02*
X197650000Y-103054000I-254000J0D01*
G01*
G37*
X219710000Y-93980000D03*
X237490000Y-101600000D03*
X222250000Y-93980000D03*
X234950000Y-101600000D03*
X224790000Y-93980000D03*
X232410000Y-101600000D03*
X227330000Y-93980000D03*
X229870000Y-101600000D03*
X229870000Y-93980000D03*
X227330000Y-101600000D03*
X232410000Y-93980000D03*
X224790000Y-101600000D03*
X234950000Y-93980000D03*
X222250000Y-101600000D03*
X237490000Y-93980000D03*
G36*
G01*
X220510000Y-103054000D02*
X218910000Y-103054000D01*
G75*
G02*
X218656000Y-102800000I0J254000D01*
G01*
X218656000Y-100400000D01*
G75*
G02*
X218910000Y-100146000I254000J0D01*
G01*
X220510000Y-100146000D01*
G75*
G02*
X220764000Y-100400000I0J-254000D01*
G01*
X220764000Y-102800000D01*
G75*
G02*
X220510000Y-103054000I-254000J0D01*
G01*
G37*
G36*
G01*
X220510000Y-129089000D02*
X218910000Y-129089000D01*
G75*
G02*
X218656000Y-128835000I0J254000D01*
G01*
X218656000Y-126435000D01*
G75*
G02*
X218910000Y-126181000I254000J0D01*
G01*
X220510000Y-126181000D01*
G75*
G02*
X220764000Y-126435000I0J-254000D01*
G01*
X220764000Y-128835000D01*
G75*
G02*
X220510000Y-129089000I-254000J0D01*
G01*
G37*
X234950000Y-120015000D03*
X222250000Y-127635000D03*
X232410000Y-120015000D03*
X224790000Y-127635000D03*
X229870000Y-120015000D03*
X227330000Y-127635000D03*
X227330000Y-120015000D03*
X229870000Y-127635000D03*
X224790000Y-120015000D03*
X232410000Y-127635000D03*
X222250000Y-120015000D03*
X234950000Y-127635000D03*
X219710000Y-120015000D03*
G36*
G01*
X243370000Y-129089000D02*
X241770000Y-129089000D01*
G75*
G02*
X241516000Y-128835000I0J254000D01*
G01*
X241516000Y-126435000D01*
G75*
G02*
X241770000Y-126181000I254000J0D01*
G01*
X243370000Y-126181000D01*
G75*
G02*
X243624000Y-126435000I0J-254000D01*
G01*
X243624000Y-128835000D01*
G75*
G02*
X243370000Y-129089000I-254000J0D01*
G01*
G37*
X260350000Y-120015000D03*
X245110000Y-127635000D03*
X257810000Y-120015000D03*
X247650000Y-127635000D03*
X255270000Y-120015000D03*
X250190000Y-127635000D03*
X252730000Y-120015000D03*
X252730000Y-127635000D03*
X250190000Y-120015000D03*
X255270000Y-127635000D03*
X247650000Y-120015000D03*
X257810000Y-127635000D03*
X245110000Y-120015000D03*
X260350000Y-127635000D03*
X242570000Y-120015000D03*
G36*
G01*
X174790000Y-129089000D02*
X173190000Y-129089000D01*
G75*
G02*
X172936000Y-128835000I0J254000D01*
G01*
X172936000Y-126435000D01*
G75*
G02*
X173190000Y-126181000I254000J0D01*
G01*
X174790000Y-126181000D01*
G75*
G02*
X175044000Y-126435000I0J-254000D01*
G01*
X175044000Y-128835000D01*
G75*
G02*
X174790000Y-129089000I-254000J0D01*
G01*
G37*
X191770000Y-120015000D03*
X176530000Y-127635000D03*
X189230000Y-120015000D03*
X179070000Y-127635000D03*
X186690000Y-120015000D03*
X181610000Y-127635000D03*
X184150000Y-120015000D03*
X184150000Y-127635000D03*
X181610000Y-120015000D03*
X186690000Y-127635000D03*
X179070000Y-120015000D03*
X189230000Y-127635000D03*
X176530000Y-120015000D03*
X191770000Y-127635000D03*
X173990000Y-120015000D03*
G36*
G01*
X151930000Y-129089000D02*
X150330000Y-129089000D01*
G75*
G02*
X150076000Y-128835000I0J254000D01*
G01*
X150076000Y-126435000D01*
G75*
G02*
X150330000Y-126181000I254000J0D01*
G01*
X151930000Y-126181000D01*
G75*
G02*
X152184000Y-126435000I0J-254000D01*
G01*
X152184000Y-128835000D01*
G75*
G02*
X151930000Y-129089000I-254000J0D01*
G01*
G37*
X168910000Y-120015000D03*
X153670000Y-127635000D03*
X166370000Y-120015000D03*
X156210000Y-127635000D03*
X163830000Y-120015000D03*
X158750000Y-127635000D03*
X161290000Y-120015000D03*
X161290000Y-127635000D03*
X158750000Y-120015000D03*
X163830000Y-127635000D03*
X156210000Y-120015000D03*
X166370000Y-127635000D03*
X153670000Y-120015000D03*
X168910000Y-127635000D03*
X151130000Y-120015000D03*
G36*
G01*
X126530000Y-129089000D02*
X124930000Y-129089000D01*
G75*
G02*
X124676000Y-128835000I0J254000D01*
G01*
X124676000Y-126435000D01*
G75*
G02*
X124930000Y-126181000I254000J0D01*
G01*
X126530000Y-126181000D01*
G75*
G02*
X126784000Y-126435000I0J-254000D01*
G01*
X126784000Y-128835000D01*
G75*
G02*
X126530000Y-129089000I-254000J0D01*
G01*
G37*
X143510000Y-120015000D03*
X128270000Y-127635000D03*
X140970000Y-120015000D03*
X130810000Y-127635000D03*
X138430000Y-120015000D03*
X133350000Y-127635000D03*
X135890000Y-120015000D03*
X135890000Y-127635000D03*
X133350000Y-120015000D03*
X138430000Y-127635000D03*
X130810000Y-120015000D03*
X140970000Y-127635000D03*
X128270000Y-120015000D03*
X143510000Y-127635000D03*
X125730000Y-120015000D03*
G36*
G01*
X151930000Y-77019000D02*
X150330000Y-77019000D01*
G75*
G02*
X150076000Y-76765000I0J254000D01*
G01*
X150076000Y-74365000D01*
G75*
G02*
X150330000Y-74111000I254000J0D01*
G01*
X151930000Y-74111000D01*
G75*
G02*
X152184000Y-74365000I0J-254000D01*
G01*
X152184000Y-76765000D01*
G75*
G02*
X151930000Y-77019000I-254000J0D01*
G01*
G37*
X168910000Y-67945000D03*
X153670000Y-75565000D03*
X166370000Y-67945000D03*
X156210000Y-75565000D03*
X163830000Y-67945000D03*
X158750000Y-75565000D03*
X161290000Y-67945000D03*
X161290000Y-75565000D03*
X158750000Y-67945000D03*
X163830000Y-75565000D03*
X156210000Y-67945000D03*
X166370000Y-75565000D03*
X153670000Y-67945000D03*
X168910000Y-75565000D03*
X151130000Y-67945000D03*
X102870000Y-120015000D03*
X120650000Y-127635000D03*
X105410000Y-120015000D03*
X118110000Y-127635000D03*
X107950000Y-120015000D03*
X115570000Y-127635000D03*
X110490000Y-120015000D03*
X113030000Y-127635000D03*
X113030000Y-120015000D03*
X110490000Y-127635000D03*
X115570000Y-120015000D03*
X107950000Y-127635000D03*
X118110000Y-120015000D03*
X105410000Y-127635000D03*
X120650000Y-120015000D03*
G36*
G01*
X103670000Y-129089000D02*
X102070000Y-129089000D01*
G75*
G02*
X101816000Y-128835000I0J254000D01*
G01*
X101816000Y-126435000D01*
G75*
G02*
X102070000Y-126181000I254000J0D01*
G01*
X103670000Y-126181000D01*
G75*
G02*
X103924000Y-126435000I0J-254000D01*
G01*
X103924000Y-128835000D01*
G75*
G02*
X103670000Y-129089000I-254000J0D01*
G01*
G37*
G36*
G01*
X216027000Y-156972000D02*
X216027000Y-148590000D01*
G75*
G02*
X216281000Y-148336000I254000J0D01*
G01*
X219075000Y-148336000D01*
G75*
G02*
X219329000Y-148590000I0J-254000D01*
G01*
X219329000Y-156972000D01*
G75*
G02*
X219075000Y-157226000I-254000J0D01*
G01*
X216281000Y-157226000D01*
G75*
G02*
X216027000Y-156972000I0J254000D01*
G01*
G37*
G36*
G01*
X212852000Y-156972000D02*
X212852000Y-148590000D01*
G75*
G02*
X213106000Y-148336000I254000J0D01*
G01*
X214884000Y-148336000D01*
G75*
G02*
X215138000Y-148590000I0J-254000D01*
G01*
X215138000Y-156972000D01*
G75*
G02*
X214884000Y-157226000I-254000J0D01*
G01*
X213106000Y-157226000D01*
G75*
G02*
X212852000Y-156972000I0J254000D01*
G01*
G37*
G36*
G01*
X209677000Y-156972000D02*
X209677000Y-148590000D01*
G75*
G02*
X209931000Y-148336000I254000J0D01*
G01*
X211709000Y-148336000D01*
G75*
G02*
X211963000Y-148590000I0J-254000D01*
G01*
X211963000Y-156972000D01*
G75*
G02*
X211709000Y-157226000I-254000J0D01*
G01*
X209931000Y-157226000D01*
G75*
G02*
X209677000Y-156972000I0J254000D01*
G01*
G37*
G36*
G01*
X206502000Y-156972000D02*
X206502000Y-148590000D01*
G75*
G02*
X206756000Y-148336000I254000J0D01*
G01*
X208534000Y-148336000D01*
G75*
G02*
X208788000Y-148590000I0J-254000D01*
G01*
X208788000Y-156972000D01*
G75*
G02*
X208534000Y-157226000I-254000J0D01*
G01*
X206756000Y-157226000D01*
G75*
G02*
X206502000Y-156972000I0J254000D01*
G01*
G37*
G36*
G01*
X203327000Y-156972000D02*
X203327000Y-148590000D01*
G75*
G02*
X203581000Y-148336000I254000J0D01*
G01*
X205359000Y-148336000D01*
G75*
G02*
X205613000Y-148590000I0J-254000D01*
G01*
X205613000Y-156972000D01*
G75*
G02*
X205359000Y-157226000I-254000J0D01*
G01*
X203581000Y-157226000D01*
G75*
G02*
X203327000Y-156972000I0J254000D01*
G01*
G37*
G36*
G01*
X200152000Y-156972000D02*
X200152000Y-148590000D01*
G75*
G02*
X200406000Y-148336000I254000J0D01*
G01*
X202184000Y-148336000D01*
G75*
G02*
X202438000Y-148590000I0J-254000D01*
G01*
X202438000Y-156972000D01*
G75*
G02*
X202184000Y-157226000I-254000J0D01*
G01*
X200406000Y-157226000D01*
G75*
G02*
X200152000Y-156972000I0J254000D01*
G01*
G37*
G36*
G01*
X196977000Y-156972000D02*
X196977000Y-148590000D01*
G75*
G02*
X197231000Y-148336000I254000J0D01*
G01*
X199009000Y-148336000D01*
G75*
G02*
X199263000Y-148590000I0J-254000D01*
G01*
X199263000Y-156972000D01*
G75*
G02*
X199009000Y-157226000I-254000J0D01*
G01*
X197231000Y-157226000D01*
G75*
G02*
X196977000Y-156972000I0J254000D01*
G01*
G37*
G36*
G01*
X193802000Y-156972000D02*
X193802000Y-148590000D01*
G75*
G02*
X194056000Y-148336000I254000J0D01*
G01*
X195834000Y-148336000D01*
G75*
G02*
X196088000Y-148590000I0J-254000D01*
G01*
X196088000Y-156972000D01*
G75*
G02*
X195834000Y-157226000I-254000J0D01*
G01*
X194056000Y-157226000D01*
G75*
G02*
X193802000Y-156972000I0J254000D01*
G01*
G37*
G36*
G01*
X190627000Y-156972000D02*
X190627000Y-148590000D01*
G75*
G02*
X190881000Y-148336000I254000J0D01*
G01*
X192659000Y-148336000D01*
G75*
G02*
X192913000Y-148590000I0J-254000D01*
G01*
X192913000Y-156972000D01*
G75*
G02*
X192659000Y-157226000I-254000J0D01*
G01*
X190881000Y-157226000D01*
G75*
G02*
X190627000Y-156972000I0J254000D01*
G01*
G37*
G36*
G01*
X187452000Y-156972000D02*
X187452000Y-148590000D01*
G75*
G02*
X187706000Y-148336000I254000J0D01*
G01*
X189484000Y-148336000D01*
G75*
G02*
X189738000Y-148590000I0J-254000D01*
G01*
X189738000Y-156972000D01*
G75*
G02*
X189484000Y-157226000I-254000J0D01*
G01*
X187706000Y-157226000D01*
G75*
G02*
X187452000Y-156972000I0J254000D01*
G01*
G37*
G36*
G01*
X184277000Y-156972000D02*
X184277000Y-148590000D01*
G75*
G02*
X184531000Y-148336000I254000J0D01*
G01*
X186309000Y-148336000D01*
G75*
G02*
X186563000Y-148590000I0J-254000D01*
G01*
X186563000Y-156972000D01*
G75*
G02*
X186309000Y-157226000I-254000J0D01*
G01*
X184531000Y-157226000D01*
G75*
G02*
X184277000Y-156972000I0J254000D01*
G01*
G37*
G36*
G01*
X181102000Y-156972000D02*
X181102000Y-148590000D01*
G75*
G02*
X181356000Y-148336000I254000J0D01*
G01*
X183134000Y-148336000D01*
G75*
G02*
X183388000Y-148590000I0J-254000D01*
G01*
X183388000Y-156972000D01*
G75*
G02*
X183134000Y-157226000I-254000J0D01*
G01*
X181356000Y-157226000D01*
G75*
G02*
X181102000Y-156972000I0J254000D01*
G01*
G37*
G36*
G01*
X177927000Y-156972000D02*
X177927000Y-148590000D01*
G75*
G02*
X178181000Y-148336000I254000J0D01*
G01*
X179959000Y-148336000D01*
G75*
G02*
X180213000Y-148590000I0J-254000D01*
G01*
X180213000Y-156972000D01*
G75*
G02*
X179959000Y-157226000I-254000J0D01*
G01*
X178181000Y-157226000D01*
G75*
G02*
X177927000Y-156972000I0J254000D01*
G01*
G37*
G36*
G01*
X174752000Y-156972000D02*
X174752000Y-148590000D01*
G75*
G02*
X175006000Y-148336000I254000J0D01*
G01*
X176784000Y-148336000D01*
G75*
G02*
X177038000Y-148590000I0J-254000D01*
G01*
X177038000Y-156972000D01*
G75*
G02*
X176784000Y-157226000I-254000J0D01*
G01*
X175006000Y-157226000D01*
G75*
G02*
X174752000Y-156972000I0J254000D01*
G01*
G37*
G36*
G01*
X171577000Y-156972000D02*
X171577000Y-148590000D01*
G75*
G02*
X171831000Y-148336000I254000J0D01*
G01*
X173609000Y-148336000D01*
G75*
G02*
X173863000Y-148590000I0J-254000D01*
G01*
X173863000Y-156972000D01*
G75*
G02*
X173609000Y-157226000I-254000J0D01*
G01*
X171831000Y-157226000D01*
G75*
G02*
X171577000Y-156972000I0J254000D01*
G01*
G37*
G36*
G01*
X168402000Y-156972000D02*
X168402000Y-148590000D01*
G75*
G02*
X168656000Y-148336000I254000J0D01*
G01*
X170434000Y-148336000D01*
G75*
G02*
X170688000Y-148590000I0J-254000D01*
G01*
X170688000Y-156972000D01*
G75*
G02*
X170434000Y-157226000I-254000J0D01*
G01*
X168656000Y-157226000D01*
G75*
G02*
X168402000Y-156972000I0J254000D01*
G01*
G37*
G36*
G01*
X165227000Y-156972000D02*
X165227000Y-148590000D01*
G75*
G02*
X165481000Y-148336000I254000J0D01*
G01*
X167259000Y-148336000D01*
G75*
G02*
X167513000Y-148590000I0J-254000D01*
G01*
X167513000Y-156972000D01*
G75*
G02*
X167259000Y-157226000I-254000J0D01*
G01*
X165481000Y-157226000D01*
G75*
G02*
X165227000Y-156972000I0J254000D01*
G01*
G37*
G36*
G01*
X162052000Y-156972000D02*
X162052000Y-148590000D01*
G75*
G02*
X162306000Y-148336000I254000J0D01*
G01*
X164084000Y-148336000D01*
G75*
G02*
X164338000Y-148590000I0J-254000D01*
G01*
X164338000Y-156972000D01*
G75*
G02*
X164084000Y-157226000I-254000J0D01*
G01*
X162306000Y-157226000D01*
G75*
G02*
X162052000Y-156972000I0J254000D01*
G01*
G37*
G36*
G01*
X158877000Y-156972000D02*
X158877000Y-148590000D01*
G75*
G02*
X159131000Y-148336000I254000J0D01*
G01*
X160909000Y-148336000D01*
G75*
G02*
X161163000Y-148590000I0J-254000D01*
G01*
X161163000Y-156972000D01*
G75*
G02*
X160909000Y-157226000I-254000J0D01*
G01*
X159131000Y-157226000D01*
G75*
G02*
X158877000Y-156972000I0J254000D01*
G01*
G37*
G36*
G01*
X155702000Y-156972000D02*
X155702000Y-148590000D01*
G75*
G02*
X155956000Y-148336000I254000J0D01*
G01*
X157734000Y-148336000D01*
G75*
G02*
X157988000Y-148590000I0J-254000D01*
G01*
X157988000Y-156972000D01*
G75*
G02*
X157734000Y-157226000I-254000J0D01*
G01*
X155956000Y-157226000D01*
G75*
G02*
X155702000Y-156972000I0J254000D01*
G01*
G37*
G36*
G01*
X152527000Y-156972000D02*
X152527000Y-148590000D01*
G75*
G02*
X152781000Y-148336000I254000J0D01*
G01*
X154559000Y-148336000D01*
G75*
G02*
X154813000Y-148590000I0J-254000D01*
G01*
X154813000Y-156972000D01*
G75*
G02*
X154559000Y-157226000I-254000J0D01*
G01*
X152781000Y-157226000D01*
G75*
G02*
X152527000Y-156972000I0J254000D01*
G01*
G37*
G36*
G01*
X149352000Y-156972000D02*
X149352000Y-148590000D01*
G75*
G02*
X149606000Y-148336000I254000J0D01*
G01*
X151384000Y-148336000D01*
G75*
G02*
X151638000Y-148590000I0J-254000D01*
G01*
X151638000Y-156972000D01*
G75*
G02*
X151384000Y-157226000I-254000J0D01*
G01*
X149606000Y-157226000D01*
G75*
G02*
X149352000Y-156972000I0J254000D01*
G01*
G37*
G36*
G01*
X146177000Y-156972000D02*
X146177000Y-148590000D01*
G75*
G02*
X146431000Y-148336000I254000J0D01*
G01*
X148209000Y-148336000D01*
G75*
G02*
X148463000Y-148590000I0J-254000D01*
G01*
X148463000Y-156972000D01*
G75*
G02*
X148209000Y-157226000I-254000J0D01*
G01*
X146431000Y-157226000D01*
G75*
G02*
X146177000Y-156972000I0J254000D01*
G01*
G37*
G36*
G01*
X143002000Y-156972000D02*
X143002000Y-148590000D01*
G75*
G02*
X143256000Y-148336000I254000J0D01*
G01*
X145034000Y-148336000D01*
G75*
G02*
X145288000Y-148590000I0J-254000D01*
G01*
X145288000Y-156972000D01*
G75*
G02*
X145034000Y-157226000I-254000J0D01*
G01*
X143256000Y-157226000D01*
G75*
G02*
X143002000Y-156972000I0J254000D01*
G01*
G37*
G36*
G01*
X139827000Y-156972000D02*
X139827000Y-148590000D01*
G75*
G02*
X140081000Y-148336000I254000J0D01*
G01*
X141859000Y-148336000D01*
G75*
G02*
X142113000Y-148590000I0J-254000D01*
G01*
X142113000Y-156972000D01*
G75*
G02*
X141859000Y-157226000I-254000J0D01*
G01*
X140081000Y-157226000D01*
G75*
G02*
X139827000Y-156972000I0J254000D01*
G01*
G37*
G36*
G01*
X136652000Y-156972000D02*
X136652000Y-148590000D01*
G75*
G02*
X136906000Y-148336000I254000J0D01*
G01*
X138684000Y-148336000D01*
G75*
G02*
X138938000Y-148590000I0J-254000D01*
G01*
X138938000Y-156972000D01*
G75*
G02*
X138684000Y-157226000I-254000J0D01*
G01*
X136906000Y-157226000D01*
G75*
G02*
X136652000Y-156972000I0J254000D01*
G01*
G37*
G36*
G01*
X133477000Y-156972000D02*
X133477000Y-148590000D01*
G75*
G02*
X133731000Y-148336000I254000J0D01*
G01*
X135509000Y-148336000D01*
G75*
G02*
X135763000Y-148590000I0J-254000D01*
G01*
X135763000Y-156972000D01*
G75*
G02*
X135509000Y-157226000I-254000J0D01*
G01*
X133731000Y-157226000D01*
G75*
G02*
X133477000Y-156972000I0J254000D01*
G01*
G37*
G36*
G01*
X130302000Y-156972000D02*
X130302000Y-148590000D01*
G75*
G02*
X130556000Y-148336000I254000J0D01*
G01*
X132334000Y-148336000D01*
G75*
G02*
X132588000Y-148590000I0J-254000D01*
G01*
X132588000Y-156972000D01*
G75*
G02*
X132334000Y-157226000I-254000J0D01*
G01*
X130556000Y-157226000D01*
G75*
G02*
X130302000Y-156972000I0J254000D01*
G01*
G37*
G36*
G01*
X127127000Y-156972000D02*
X127127000Y-148590000D01*
G75*
G02*
X127381000Y-148336000I254000J0D01*
G01*
X129159000Y-148336000D01*
G75*
G02*
X129413000Y-148590000I0J-254000D01*
G01*
X129413000Y-156972000D01*
G75*
G02*
X129159000Y-157226000I-254000J0D01*
G01*
X127381000Y-157226000D01*
G75*
G02*
X127127000Y-156972000I0J254000D01*
G01*
G37*
G36*
G01*
X123952000Y-156972000D02*
X123952000Y-148590000D01*
G75*
G02*
X124206000Y-148336000I254000J0D01*
G01*
X125984000Y-148336000D01*
G75*
G02*
X126238000Y-148590000I0J-254000D01*
G01*
X126238000Y-156972000D01*
G75*
G02*
X125984000Y-157226000I-254000J0D01*
G01*
X124206000Y-157226000D01*
G75*
G02*
X123952000Y-156972000I0J254000D01*
G01*
G37*
G36*
G01*
X120777000Y-156972000D02*
X120777000Y-148590000D01*
G75*
G02*
X121031000Y-148336000I254000J0D01*
G01*
X122809000Y-148336000D01*
G75*
G02*
X123063000Y-148590000I0J-254000D01*
G01*
X123063000Y-156972000D01*
G75*
G02*
X122809000Y-157226000I-254000J0D01*
G01*
X121031000Y-157226000D01*
G75*
G02*
X120777000Y-156972000I0J254000D01*
G01*
G37*
G36*
G01*
X117602000Y-156972000D02*
X117602000Y-148590000D01*
G75*
G02*
X117856000Y-148336000I254000J0D01*
G01*
X119634000Y-148336000D01*
G75*
G02*
X119888000Y-148590000I0J-254000D01*
G01*
X119888000Y-156972000D01*
G75*
G02*
X119634000Y-157226000I-254000J0D01*
G01*
X117856000Y-157226000D01*
G75*
G02*
X117602000Y-156972000I0J254000D01*
G01*
G37*
G36*
G01*
X114427000Y-156972000D02*
X114427000Y-148590000D01*
G75*
G02*
X114681000Y-148336000I254000J0D01*
G01*
X116459000Y-148336000D01*
G75*
G02*
X116713000Y-148590000I0J-254000D01*
G01*
X116713000Y-156972000D01*
G75*
G02*
X116459000Y-157226000I-254000J0D01*
G01*
X114681000Y-157226000D01*
G75*
G02*
X114427000Y-156972000I0J254000D01*
G01*
G37*
G36*
G01*
X111252000Y-156972000D02*
X111252000Y-148590000D01*
G75*
G02*
X111506000Y-148336000I254000J0D01*
G01*
X113284000Y-148336000D01*
G75*
G02*
X113538000Y-148590000I0J-254000D01*
G01*
X113538000Y-156972000D01*
G75*
G02*
X113284000Y-157226000I-254000J0D01*
G01*
X111506000Y-157226000D01*
G75*
G02*
X111252000Y-156972000I0J254000D01*
G01*
G37*
G36*
G01*
X108077000Y-156972000D02*
X108077000Y-148590000D01*
G75*
G02*
X108331000Y-148336000I254000J0D01*
G01*
X110109000Y-148336000D01*
G75*
G02*
X110363000Y-148590000I0J-254000D01*
G01*
X110363000Y-156972000D01*
G75*
G02*
X110109000Y-157226000I-254000J0D01*
G01*
X108331000Y-157226000D01*
G75*
G02*
X108077000Y-156972000I0J254000D01*
G01*
G37*
G36*
G01*
X104902000Y-156972000D02*
X104902000Y-148590000D01*
G75*
G02*
X105156000Y-148336000I254000J0D01*
G01*
X106934000Y-148336000D01*
G75*
G02*
X107188000Y-148590000I0J-254000D01*
G01*
X107188000Y-156972000D01*
G75*
G02*
X106934000Y-157226000I-254000J0D01*
G01*
X105156000Y-157226000D01*
G75*
G02*
X104902000Y-156972000I0J254000D01*
G01*
G37*
G36*
G01*
X101727000Y-156972000D02*
X101727000Y-148590000D01*
G75*
G02*
X101981000Y-148336000I254000J0D01*
G01*
X103759000Y-148336000D01*
G75*
G02*
X104013000Y-148590000I0J-254000D01*
G01*
X104013000Y-156972000D01*
G75*
G02*
X103759000Y-157226000I-254000J0D01*
G01*
X101981000Y-157226000D01*
G75*
G02*
X101727000Y-156972000I0J254000D01*
G01*
G37*
G36*
G01*
X98552000Y-156972000D02*
X98552000Y-148590000D01*
G75*
G02*
X98806000Y-148336000I254000J0D01*
G01*
X100584000Y-148336000D01*
G75*
G02*
X100838000Y-148590000I0J-254000D01*
G01*
X100838000Y-156972000D01*
G75*
G02*
X100584000Y-157226000I-254000J0D01*
G01*
X98806000Y-157226000D01*
G75*
G02*
X98552000Y-156972000I0J254000D01*
G01*
G37*
G36*
G01*
X95377000Y-156972000D02*
X95377000Y-148590000D01*
G75*
G02*
X95631000Y-148336000I254000J0D01*
G01*
X97409000Y-148336000D01*
G75*
G02*
X97663000Y-148590000I0J-254000D01*
G01*
X97663000Y-156972000D01*
G75*
G02*
X97409000Y-157226000I-254000J0D01*
G01*
X95631000Y-157226000D01*
G75*
G02*
X95377000Y-156972000I0J254000D01*
G01*
G37*
G36*
G01*
X92202000Y-156972000D02*
X92202000Y-148590000D01*
G75*
G02*
X92456000Y-148336000I254000J0D01*
G01*
X94234000Y-148336000D01*
G75*
G02*
X94488000Y-148590000I0J-254000D01*
G01*
X94488000Y-156972000D01*
G75*
G02*
X94234000Y-157226000I-254000J0D01*
G01*
X92456000Y-157226000D01*
G75*
G02*
X92202000Y-156972000I0J254000D01*
G01*
G37*
G36*
G01*
X89027000Y-156972000D02*
X89027000Y-148590000D01*
G75*
G02*
X89281000Y-148336000I254000J0D01*
G01*
X91059000Y-148336000D01*
G75*
G02*
X91313000Y-148590000I0J-254000D01*
G01*
X91313000Y-156972000D01*
G75*
G02*
X91059000Y-157226000I-254000J0D01*
G01*
X89281000Y-157226000D01*
G75*
G02*
X89027000Y-156972000I0J254000D01*
G01*
G37*
G36*
G01*
X85852000Y-156972000D02*
X85852000Y-148590000D01*
G75*
G02*
X86106000Y-148336000I254000J0D01*
G01*
X87884000Y-148336000D01*
G75*
G02*
X88138000Y-148590000I0J-254000D01*
G01*
X88138000Y-156972000D01*
G75*
G02*
X87884000Y-157226000I-254000J0D01*
G01*
X86106000Y-157226000D01*
G75*
G02*
X85852000Y-156972000I0J254000D01*
G01*
G37*
G36*
G01*
X82677000Y-156972000D02*
X82677000Y-148590000D01*
G75*
G02*
X82931000Y-148336000I254000J0D01*
G01*
X84709000Y-148336000D01*
G75*
G02*
X84963000Y-148590000I0J-254000D01*
G01*
X84963000Y-156972000D01*
G75*
G02*
X84709000Y-157226000I-254000J0D01*
G01*
X82931000Y-157226000D01*
G75*
G02*
X82677000Y-156972000I0J254000D01*
G01*
G37*
G36*
G01*
X79502000Y-156972000D02*
X79502000Y-148590000D01*
G75*
G02*
X79756000Y-148336000I254000J0D01*
G01*
X81534000Y-148336000D01*
G75*
G02*
X81788000Y-148590000I0J-254000D01*
G01*
X81788000Y-156972000D01*
G75*
G02*
X81534000Y-157226000I-254000J0D01*
G01*
X79756000Y-157226000D01*
G75*
G02*
X79502000Y-156972000I0J254000D01*
G01*
G37*
G36*
G01*
X76327000Y-156972000D02*
X76327000Y-148590000D01*
G75*
G02*
X76581000Y-148336000I254000J0D01*
G01*
X78359000Y-148336000D01*
G75*
G02*
X78613000Y-148590000I0J-254000D01*
G01*
X78613000Y-156972000D01*
G75*
G02*
X78359000Y-157226000I-254000J0D01*
G01*
X76581000Y-157226000D01*
G75*
G02*
X76327000Y-156972000I0J254000D01*
G01*
G37*
G36*
G01*
X73152000Y-156972000D02*
X73152000Y-148590000D01*
G75*
G02*
X73406000Y-148336000I254000J0D01*
G01*
X75184000Y-148336000D01*
G75*
G02*
X75438000Y-148590000I0J-254000D01*
G01*
X75438000Y-156972000D01*
G75*
G02*
X75184000Y-157226000I-254000J0D01*
G01*
X73406000Y-157226000D01*
G75*
G02*
X73152000Y-156972000I0J254000D01*
G01*
G37*
G36*
G01*
X69977000Y-156972000D02*
X69977000Y-148590000D01*
G75*
G02*
X70231000Y-148336000I254000J0D01*
G01*
X72009000Y-148336000D01*
G75*
G02*
X72263000Y-148590000I0J-254000D01*
G01*
X72263000Y-156972000D01*
G75*
G02*
X72009000Y-157226000I-254000J0D01*
G01*
X70231000Y-157226000D01*
G75*
G02*
X69977000Y-156972000I0J254000D01*
G01*
G37*
G36*
G01*
X66802000Y-156972000D02*
X66802000Y-148590000D01*
G75*
G02*
X67056000Y-148336000I254000J0D01*
G01*
X68834000Y-148336000D01*
G75*
G02*
X69088000Y-148590000I0J-254000D01*
G01*
X69088000Y-156972000D01*
G75*
G02*
X68834000Y-157226000I-254000J0D01*
G01*
X67056000Y-157226000D01*
G75*
G02*
X66802000Y-156972000I0J254000D01*
G01*
G37*
G36*
G01*
X63627000Y-156972000D02*
X63627000Y-148590000D01*
G75*
G02*
X63881000Y-148336000I254000J0D01*
G01*
X65659000Y-148336000D01*
G75*
G02*
X65913000Y-148590000I0J-254000D01*
G01*
X65913000Y-156972000D01*
G75*
G02*
X65659000Y-157226000I-254000J0D01*
G01*
X63881000Y-157226000D01*
G75*
G02*
X63627000Y-156972000I0J254000D01*
G01*
G37*
G36*
G01*
X59436000Y-156972000D02*
X59436000Y-148590000D01*
G75*
G02*
X59690000Y-148336000I254000J0D01*
G01*
X62484000Y-148336000D01*
G75*
G02*
X62738000Y-148590000I0J-254000D01*
G01*
X62738000Y-156972000D01*
G75*
G02*
X62484000Y-157226000I-254000J0D01*
G01*
X59690000Y-157226000D01*
G75*
G02*
X59436000Y-156972000I0J254000D01*
G01*
G37*
X36195000Y-120015000D03*
X51435000Y-127635000D03*
X38735000Y-120015000D03*
X48895000Y-127635000D03*
X41275000Y-120015000D03*
X46355000Y-127635000D03*
X43815000Y-120015000D03*
X43815000Y-127635000D03*
X46355000Y-120015000D03*
X41275000Y-127635000D03*
X48895000Y-120015000D03*
X38735000Y-127635000D03*
X51435000Y-120015000D03*
G36*
G01*
X36995000Y-129089000D02*
X35395000Y-129089000D01*
G75*
G02*
X35141000Y-128835000I0J254000D01*
G01*
X35141000Y-126435000D01*
G75*
G02*
X35395000Y-126181000I254000J0D01*
G01*
X36995000Y-126181000D01*
G75*
G02*
X37249000Y-126435000I0J-254000D01*
G01*
X37249000Y-128835000D01*
G75*
G02*
X36995000Y-129089000I-254000J0D01*
G01*
G37*
X59055000Y-120015000D03*
X74295000Y-127635000D03*
X61595000Y-120015000D03*
X71755000Y-127635000D03*
X64135000Y-120015000D03*
X69215000Y-127635000D03*
X66675000Y-120015000D03*
X66675000Y-127635000D03*
X69215000Y-120015000D03*
X64135000Y-127635000D03*
X71755000Y-120015000D03*
X61595000Y-127635000D03*
X74295000Y-120015000D03*
G36*
G01*
X59855000Y-129089000D02*
X58255000Y-129089000D01*
G75*
G02*
X58001000Y-128835000I0J254000D01*
G01*
X58001000Y-126435000D01*
G75*
G02*
X58255000Y-126181000I254000J0D01*
G01*
X59855000Y-126181000D01*
G75*
G02*
X60109000Y-126435000I0J-254000D01*
G01*
X60109000Y-128835000D01*
G75*
G02*
X59855000Y-129089000I-254000J0D01*
G01*
G37*
X82550000Y-120015000D03*
X97790000Y-127635000D03*
X85090000Y-120015000D03*
X95250000Y-127635000D03*
X87630000Y-120015000D03*
X92710000Y-127635000D03*
X90170000Y-120015000D03*
X90170000Y-127635000D03*
X92710000Y-120015000D03*
X87630000Y-127635000D03*
X95250000Y-120015000D03*
X85090000Y-127635000D03*
X97790000Y-120015000D03*
G36*
G01*
X83350000Y-129089000D02*
X81750000Y-129089000D01*
G75*
G02*
X81496000Y-128835000I0J254000D01*
G01*
X81496000Y-126435000D01*
G75*
G02*
X81750000Y-126181000I254000J0D01*
G01*
X83350000Y-126181000D01*
G75*
G02*
X83604000Y-126435000I0J-254000D01*
G01*
X83604000Y-128835000D01*
G75*
G02*
X83350000Y-129089000I-254000J0D01*
G01*
G37*
D14*
X267970000Y-27940000D03*
X26670000Y-27940000D03*
M02*
