G04 #@! TF.GenerationSoftware,KiCad,Pcbnew,(5.1.12)-1*
G04 #@! TF.CreationDate,2022-10-15T16:15:19+01:00*
G04 #@! TF.ProjectId,Dazzler,44617a7a-6c65-4722-9e6b-696361645f70,rev?*
G04 #@! TF.SameCoordinates,Original*
G04 #@! TF.FileFunction,Copper,L2,Bot*
G04 #@! TF.FilePolarity,Positive*
%FSLAX46Y46*%
G04 Gerber Fmt 4.6, Leading zero omitted, Abs format (unit mm)*
G04 Created by KiCad (PCBNEW (5.1.12)-1) date 2022-10-15 16:15:19*
%MOMM*%
%LPD*%
G01*
G04 APERTURE LIST*
G04 #@! TA.AperFunction,ComponentPad*
%ADD10O,1.905000X2.000000*%
G04 #@! TD*
G04 #@! TA.AperFunction,ComponentPad*
%ADD11C,1.905000*%
G04 #@! TD*
G04 #@! TA.AperFunction,ComponentPad*
%ADD12R,1.600000X2.400000*%
G04 #@! TD*
G04 #@! TA.AperFunction,ComponentPad*
%ADD13O,1.600000X2.400000*%
G04 #@! TD*
G04 #@! TA.AperFunction,ConnectorPad*
%ADD14R,2.794000X8.382000*%
G04 #@! TD*
G04 #@! TA.AperFunction,ConnectorPad*
%ADD15R,1.778000X8.382000*%
G04 #@! TD*
G04 #@! TA.AperFunction,ComponentPad*
%ADD16C,3.048000*%
G04 #@! TD*
G04 #@! TA.AperFunction,ViaPad*
%ADD17C,0.889000*%
G04 #@! TD*
G04 #@! TA.AperFunction,ViaPad*
%ADD18C,1.500000*%
G04 #@! TD*
G04 #@! TA.AperFunction,ViaPad*
%ADD19C,1.600000*%
G04 #@! TD*
G04 APERTURE END LIST*
D10*
X41275000Y-60620000D03*
X38735000Y-58420000D03*
D11*
X36195000Y-60620000D03*
D12*
X173990000Y-49530000D03*
D13*
X189230000Y-41910000D03*
X176530000Y-49530000D03*
X186690000Y-41910000D03*
X179070000Y-49530000D03*
X184150000Y-41910000D03*
X181610000Y-49530000D03*
X181610000Y-41910000D03*
X184150000Y-49530000D03*
X179070000Y-41910000D03*
X186690000Y-49530000D03*
X176530000Y-41910000D03*
X189230000Y-49530000D03*
X173990000Y-41910000D03*
D12*
X151130000Y-49530000D03*
D13*
X166370000Y-41910000D03*
X153670000Y-49530000D03*
X163830000Y-41910000D03*
X156210000Y-49530000D03*
X161290000Y-41910000D03*
X158750000Y-49530000D03*
X158750000Y-41910000D03*
X161290000Y-49530000D03*
X156210000Y-41910000D03*
X163830000Y-49530000D03*
X153670000Y-41910000D03*
X166370000Y-49530000D03*
X151130000Y-41910000D03*
D12*
X128270000Y-49530000D03*
D13*
X143510000Y-41910000D03*
X130810000Y-49530000D03*
X140970000Y-41910000D03*
X133350000Y-49530000D03*
X138430000Y-41910000D03*
X135890000Y-49530000D03*
X135890000Y-41910000D03*
X138430000Y-49530000D03*
X133350000Y-41910000D03*
X140970000Y-49530000D03*
X130810000Y-41910000D03*
X143510000Y-49530000D03*
X128270000Y-41910000D03*
D12*
X104775000Y-49530000D03*
D13*
X120015000Y-41910000D03*
X107315000Y-49530000D03*
X117475000Y-41910000D03*
X109855000Y-49530000D03*
X114935000Y-41910000D03*
X112395000Y-49530000D03*
X112395000Y-41910000D03*
X114935000Y-49530000D03*
X109855000Y-41910000D03*
X117475000Y-49530000D03*
X107315000Y-41910000D03*
X120015000Y-49530000D03*
X104775000Y-41910000D03*
D12*
X82550000Y-49530000D03*
D13*
X97790000Y-41910000D03*
X85090000Y-49530000D03*
X95250000Y-41910000D03*
X87630000Y-49530000D03*
X92710000Y-41910000D03*
X90170000Y-49530000D03*
X90170000Y-41910000D03*
X92710000Y-49530000D03*
X87630000Y-41910000D03*
X95250000Y-49530000D03*
X85090000Y-41910000D03*
X97790000Y-49530000D03*
X82550000Y-41910000D03*
D12*
X242570000Y-75565000D03*
D13*
X257810000Y-67945000D03*
X245110000Y-75565000D03*
X255270000Y-67945000D03*
X247650000Y-75565000D03*
X252730000Y-67945000D03*
X250190000Y-75565000D03*
X250190000Y-67945000D03*
X252730000Y-75565000D03*
X247650000Y-67945000D03*
X255270000Y-75565000D03*
X245110000Y-67945000D03*
X257810000Y-75565000D03*
X242570000Y-67945000D03*
D12*
X219710000Y-75565000D03*
D13*
X234950000Y-67945000D03*
X222250000Y-75565000D03*
X232410000Y-67945000D03*
X224790000Y-75565000D03*
X229870000Y-67945000D03*
X227330000Y-75565000D03*
X227330000Y-67945000D03*
X229870000Y-75565000D03*
X224790000Y-67945000D03*
X232410000Y-75565000D03*
X222250000Y-67945000D03*
X234950000Y-75565000D03*
X219710000Y-67945000D03*
D12*
X196850000Y-75565000D03*
D13*
X212090000Y-67945000D03*
X199390000Y-75565000D03*
X209550000Y-67945000D03*
X201930000Y-75565000D03*
X207010000Y-67945000D03*
X204470000Y-75565000D03*
X204470000Y-67945000D03*
X207010000Y-75565000D03*
X201930000Y-67945000D03*
X209550000Y-75565000D03*
X199390000Y-67945000D03*
X212090000Y-75565000D03*
X196850000Y-67945000D03*
D12*
X173990000Y-75565000D03*
D13*
X189230000Y-67945000D03*
X176530000Y-75565000D03*
X186690000Y-67945000D03*
X179070000Y-75565000D03*
X184150000Y-67945000D03*
X181610000Y-75565000D03*
X181610000Y-67945000D03*
X184150000Y-75565000D03*
X179070000Y-67945000D03*
X186690000Y-75565000D03*
X176530000Y-67945000D03*
X189230000Y-75565000D03*
X173990000Y-67945000D03*
D12*
X242570000Y-114935000D03*
D13*
X260350000Y-107315000D03*
X245110000Y-114935000D03*
X257810000Y-107315000D03*
X247650000Y-114935000D03*
X255270000Y-107315000D03*
X250190000Y-114935000D03*
X252730000Y-107315000D03*
X252730000Y-114935000D03*
X250190000Y-107315000D03*
X255270000Y-114935000D03*
X247650000Y-107315000D03*
X257810000Y-114935000D03*
X245110000Y-107315000D03*
X260350000Y-114935000D03*
X242570000Y-107315000D03*
X196850000Y-120015000D03*
X214630000Y-127635000D03*
X199390000Y-120015000D03*
X212090000Y-127635000D03*
X201930000Y-120015000D03*
X209550000Y-127635000D03*
X204470000Y-120015000D03*
X207010000Y-127635000D03*
X207010000Y-120015000D03*
X204470000Y-127635000D03*
X209550000Y-120015000D03*
X201930000Y-127635000D03*
X212090000Y-120015000D03*
X199390000Y-127635000D03*
X214630000Y-120015000D03*
D12*
X196850000Y-127635000D03*
D13*
X128270000Y-67945000D03*
X143510000Y-75565000D03*
X130810000Y-67945000D03*
X140970000Y-75565000D03*
X133350000Y-67945000D03*
X138430000Y-75565000D03*
X135890000Y-67945000D03*
X135890000Y-75565000D03*
X138430000Y-67945000D03*
X133350000Y-75565000D03*
X140970000Y-67945000D03*
X130810000Y-75565000D03*
X143510000Y-67945000D03*
D12*
X128270000Y-75565000D03*
D13*
X104775000Y-67945000D03*
X120015000Y-75565000D03*
X107315000Y-67945000D03*
X117475000Y-75565000D03*
X109855000Y-67945000D03*
X114935000Y-75565000D03*
X112395000Y-67945000D03*
X112395000Y-75565000D03*
X114935000Y-67945000D03*
X109855000Y-75565000D03*
X117475000Y-67945000D03*
X107315000Y-75565000D03*
X120015000Y-67945000D03*
D12*
X104775000Y-75565000D03*
D13*
X151130000Y-93980000D03*
X166370000Y-101600000D03*
X153670000Y-93980000D03*
X163830000Y-101600000D03*
X156210000Y-93980000D03*
X161290000Y-101600000D03*
X158750000Y-93980000D03*
X158750000Y-101600000D03*
X161290000Y-93980000D03*
X156210000Y-101600000D03*
X163830000Y-93980000D03*
X153670000Y-101600000D03*
X166370000Y-93980000D03*
D12*
X151130000Y-101600000D03*
D13*
X104775000Y-93980000D03*
X120015000Y-101600000D03*
X107315000Y-93980000D03*
X117475000Y-101600000D03*
X109855000Y-93980000D03*
X114935000Y-101600000D03*
X112395000Y-93980000D03*
X112395000Y-101600000D03*
X114935000Y-93980000D03*
X109855000Y-101600000D03*
X117475000Y-93980000D03*
X107315000Y-101600000D03*
X120015000Y-93980000D03*
D12*
X104775000Y-101600000D03*
D13*
X82550000Y-93980000D03*
X97790000Y-101600000D03*
X85090000Y-93980000D03*
X95250000Y-101600000D03*
X87630000Y-93980000D03*
X92710000Y-101600000D03*
X90170000Y-93980000D03*
X90170000Y-101600000D03*
X92710000Y-93980000D03*
X87630000Y-101600000D03*
X95250000Y-93980000D03*
X85090000Y-101600000D03*
X97790000Y-93980000D03*
D12*
X82550000Y-101600000D03*
X59055000Y-75565000D03*
D13*
X74295000Y-67945000D03*
X61595000Y-75565000D03*
X71755000Y-67945000D03*
X64135000Y-75565000D03*
X69215000Y-67945000D03*
X66675000Y-75565000D03*
X66675000Y-67945000D03*
X69215000Y-75565000D03*
X64135000Y-67945000D03*
X71755000Y-75565000D03*
X61595000Y-67945000D03*
X74295000Y-75565000D03*
X59055000Y-67945000D03*
D12*
X82550000Y-75565000D03*
D13*
X97790000Y-67945000D03*
X85090000Y-75565000D03*
X95250000Y-67945000D03*
X87630000Y-75565000D03*
X92710000Y-67945000D03*
X90170000Y-75565000D03*
X90170000Y-67945000D03*
X92710000Y-75565000D03*
X87630000Y-67945000D03*
X95250000Y-75565000D03*
X85090000Y-67945000D03*
X97790000Y-75565000D03*
X82550000Y-67945000D03*
D12*
X36195000Y-75565000D03*
D13*
X51435000Y-67945000D03*
X38735000Y-75565000D03*
X48895000Y-67945000D03*
X41275000Y-75565000D03*
X46355000Y-67945000D03*
X43815000Y-75565000D03*
X43815000Y-67945000D03*
X46355000Y-75565000D03*
X41275000Y-67945000D03*
X48895000Y-75565000D03*
X38735000Y-67945000D03*
X51435000Y-75565000D03*
X36195000Y-67945000D03*
X59055000Y-41910000D03*
X74295000Y-49530000D03*
X61595000Y-41910000D03*
X71755000Y-49530000D03*
X64135000Y-41910000D03*
X69215000Y-49530000D03*
X66675000Y-41910000D03*
X66675000Y-49530000D03*
X69215000Y-41910000D03*
X64135000Y-49530000D03*
X71755000Y-41910000D03*
X61595000Y-49530000D03*
X74295000Y-41910000D03*
D12*
X59055000Y-49530000D03*
X59055000Y-101600000D03*
D13*
X74295000Y-93980000D03*
X61595000Y-101600000D03*
X71755000Y-93980000D03*
X64135000Y-101600000D03*
X69215000Y-93980000D03*
X66675000Y-101600000D03*
X66675000Y-93980000D03*
X69215000Y-101600000D03*
X64135000Y-93980000D03*
X71755000Y-101600000D03*
X61595000Y-93980000D03*
X74295000Y-101600000D03*
X59055000Y-93980000D03*
D12*
X128270000Y-101600000D03*
D13*
X143510000Y-93980000D03*
X130810000Y-101600000D03*
X140970000Y-93980000D03*
X133350000Y-101600000D03*
X138430000Y-93980000D03*
X135890000Y-101600000D03*
X135890000Y-93980000D03*
X138430000Y-101600000D03*
X133350000Y-93980000D03*
X140970000Y-101600000D03*
X130810000Y-93980000D03*
X143510000Y-101600000D03*
X128270000Y-93980000D03*
D12*
X36195000Y-101600000D03*
D13*
X51435000Y-93980000D03*
X38735000Y-101600000D03*
X48895000Y-93980000D03*
X41275000Y-101600000D03*
X46355000Y-93980000D03*
X43815000Y-101600000D03*
X43815000Y-93980000D03*
X46355000Y-101600000D03*
X41275000Y-93980000D03*
X48895000Y-101600000D03*
X38735000Y-93980000D03*
X51435000Y-101600000D03*
X36195000Y-93980000D03*
X173990000Y-93980000D03*
X191770000Y-101600000D03*
X176530000Y-93980000D03*
X189230000Y-101600000D03*
X179070000Y-93980000D03*
X186690000Y-101600000D03*
X181610000Y-93980000D03*
X184150000Y-101600000D03*
X184150000Y-93980000D03*
X181610000Y-101600000D03*
X186690000Y-93980000D03*
X179070000Y-101600000D03*
X189230000Y-93980000D03*
X176530000Y-101600000D03*
X191770000Y-93980000D03*
D12*
X173990000Y-101600000D03*
D13*
X242570000Y-93980000D03*
X260350000Y-101600000D03*
X245110000Y-93980000D03*
X257810000Y-101600000D03*
X247650000Y-93980000D03*
X255270000Y-101600000D03*
X250190000Y-93980000D03*
X252730000Y-101600000D03*
X252730000Y-93980000D03*
X250190000Y-101600000D03*
X255270000Y-93980000D03*
X247650000Y-101600000D03*
X257810000Y-93980000D03*
X245110000Y-101600000D03*
X260350000Y-93980000D03*
D12*
X242570000Y-101600000D03*
D13*
X196850000Y-93980000D03*
X212090000Y-101600000D03*
X199390000Y-93980000D03*
X209550000Y-101600000D03*
X201930000Y-93980000D03*
X207010000Y-101600000D03*
X204470000Y-93980000D03*
X204470000Y-101600000D03*
X207010000Y-93980000D03*
X201930000Y-101600000D03*
X209550000Y-93980000D03*
X199390000Y-101600000D03*
X212090000Y-93980000D03*
D12*
X196850000Y-101600000D03*
D13*
X219710000Y-93980000D03*
X237490000Y-101600000D03*
X222250000Y-93980000D03*
X234950000Y-101600000D03*
X224790000Y-93980000D03*
X232410000Y-101600000D03*
X227330000Y-93980000D03*
X229870000Y-101600000D03*
X229870000Y-93980000D03*
X227330000Y-101600000D03*
X232410000Y-93980000D03*
X224790000Y-101600000D03*
X234950000Y-93980000D03*
X222250000Y-101600000D03*
X237490000Y-93980000D03*
D12*
X219710000Y-101600000D03*
X219710000Y-127635000D03*
D13*
X234950000Y-120015000D03*
X222250000Y-127635000D03*
X232410000Y-120015000D03*
X224790000Y-127635000D03*
X229870000Y-120015000D03*
X227330000Y-127635000D03*
X227330000Y-120015000D03*
X229870000Y-127635000D03*
X224790000Y-120015000D03*
X232410000Y-127635000D03*
X222250000Y-120015000D03*
X234950000Y-127635000D03*
X219710000Y-120015000D03*
D12*
X242570000Y-127635000D03*
D13*
X260350000Y-120015000D03*
X245110000Y-127635000D03*
X257810000Y-120015000D03*
X247650000Y-127635000D03*
X255270000Y-120015000D03*
X250190000Y-127635000D03*
X252730000Y-120015000D03*
X252730000Y-127635000D03*
X250190000Y-120015000D03*
X255270000Y-127635000D03*
X247650000Y-120015000D03*
X257810000Y-127635000D03*
X245110000Y-120015000D03*
X260350000Y-127635000D03*
X242570000Y-120015000D03*
D12*
X173990000Y-127635000D03*
D13*
X191770000Y-120015000D03*
X176530000Y-127635000D03*
X189230000Y-120015000D03*
X179070000Y-127635000D03*
X186690000Y-120015000D03*
X181610000Y-127635000D03*
X184150000Y-120015000D03*
X184150000Y-127635000D03*
X181610000Y-120015000D03*
X186690000Y-127635000D03*
X179070000Y-120015000D03*
X189230000Y-127635000D03*
X176530000Y-120015000D03*
X191770000Y-127635000D03*
X173990000Y-120015000D03*
D12*
X151130000Y-127635000D03*
D13*
X168910000Y-120015000D03*
X153670000Y-127635000D03*
X166370000Y-120015000D03*
X156210000Y-127635000D03*
X163830000Y-120015000D03*
X158750000Y-127635000D03*
X161290000Y-120015000D03*
X161290000Y-127635000D03*
X158750000Y-120015000D03*
X163830000Y-127635000D03*
X156210000Y-120015000D03*
X166370000Y-127635000D03*
X153670000Y-120015000D03*
X168910000Y-127635000D03*
X151130000Y-120015000D03*
D12*
X125730000Y-127635000D03*
D13*
X143510000Y-120015000D03*
X128270000Y-127635000D03*
X140970000Y-120015000D03*
X130810000Y-127635000D03*
X138430000Y-120015000D03*
X133350000Y-127635000D03*
X135890000Y-120015000D03*
X135890000Y-127635000D03*
X133350000Y-120015000D03*
X138430000Y-127635000D03*
X130810000Y-120015000D03*
X140970000Y-127635000D03*
X128270000Y-120015000D03*
X143510000Y-127635000D03*
X125730000Y-120015000D03*
D12*
X151130000Y-75565000D03*
D13*
X168910000Y-67945000D03*
X153670000Y-75565000D03*
X166370000Y-67945000D03*
X156210000Y-75565000D03*
X163830000Y-67945000D03*
X158750000Y-75565000D03*
X161290000Y-67945000D03*
X161290000Y-75565000D03*
X158750000Y-67945000D03*
X163830000Y-75565000D03*
X156210000Y-67945000D03*
X166370000Y-75565000D03*
X153670000Y-67945000D03*
X168910000Y-75565000D03*
X151130000Y-67945000D03*
X102870000Y-120015000D03*
X120650000Y-127635000D03*
X105410000Y-120015000D03*
X118110000Y-127635000D03*
X107950000Y-120015000D03*
X115570000Y-127635000D03*
X110490000Y-120015000D03*
X113030000Y-127635000D03*
X113030000Y-120015000D03*
X110490000Y-127635000D03*
X115570000Y-120015000D03*
X107950000Y-127635000D03*
X118110000Y-120015000D03*
X105410000Y-127635000D03*
X120650000Y-120015000D03*
D12*
X102870000Y-127635000D03*
D14*
X217678000Y-152781000D03*
D15*
X213995000Y-152781000D03*
X210820000Y-152781000D03*
X207645000Y-152781000D03*
X204470000Y-152781000D03*
X201295000Y-152781000D03*
X198120000Y-152781000D03*
X194945000Y-152781000D03*
X191770000Y-152781000D03*
X188595000Y-152781000D03*
X185420000Y-152781000D03*
X182245000Y-152781000D03*
X179070000Y-152781000D03*
X175895000Y-152781000D03*
X172720000Y-152781000D03*
X169545000Y-152781000D03*
X166370000Y-152781000D03*
X163195000Y-152781000D03*
X160020000Y-152781000D03*
X156845000Y-152781000D03*
X153670000Y-152781000D03*
X150495000Y-152781000D03*
X147320000Y-152781000D03*
X144145000Y-152781000D03*
X140970000Y-152781000D03*
X137795000Y-152781000D03*
X134620000Y-152781000D03*
X131445000Y-152781000D03*
X128270000Y-152781000D03*
X125095000Y-152781000D03*
X121920000Y-152781000D03*
X118745000Y-152781000D03*
X115570000Y-152781000D03*
X112395000Y-152781000D03*
X109220000Y-152781000D03*
X106045000Y-152781000D03*
X102870000Y-152781000D03*
X99695000Y-152781000D03*
X96520000Y-152781000D03*
X93345000Y-152781000D03*
X90170000Y-152781000D03*
X86995000Y-152781000D03*
X83820000Y-152781000D03*
X80645000Y-152781000D03*
X77470000Y-152781000D03*
X74295000Y-152781000D03*
X71120000Y-152781000D03*
X67945000Y-152781000D03*
X64770000Y-152781000D03*
D14*
X61087000Y-152781000D03*
D13*
X36195000Y-120015000D03*
X51435000Y-127635000D03*
X38735000Y-120015000D03*
X48895000Y-127635000D03*
X41275000Y-120015000D03*
X46355000Y-127635000D03*
X43815000Y-120015000D03*
X43815000Y-127635000D03*
X46355000Y-120015000D03*
X41275000Y-127635000D03*
X48895000Y-120015000D03*
X38735000Y-127635000D03*
X51435000Y-120015000D03*
D12*
X36195000Y-127635000D03*
D13*
X59055000Y-120015000D03*
X74295000Y-127635000D03*
X61595000Y-120015000D03*
X71755000Y-127635000D03*
X64135000Y-120015000D03*
X69215000Y-127635000D03*
X66675000Y-120015000D03*
X66675000Y-127635000D03*
X69215000Y-120015000D03*
X64135000Y-127635000D03*
X71755000Y-120015000D03*
X61595000Y-127635000D03*
X74295000Y-120015000D03*
D12*
X59055000Y-127635000D03*
D13*
X82550000Y-120015000D03*
X97790000Y-127635000D03*
X85090000Y-120015000D03*
X95250000Y-127635000D03*
X87630000Y-120015000D03*
X92710000Y-127635000D03*
X90170000Y-120015000D03*
X90170000Y-127635000D03*
X92710000Y-120015000D03*
X87630000Y-127635000D03*
X95250000Y-120015000D03*
X85090000Y-127635000D03*
X97790000Y-120015000D03*
D12*
X82550000Y-127635000D03*
D16*
X267970000Y-27940000D03*
X26670000Y-27940000D03*
D17*
X250190000Y-138430000D03*
X247650000Y-142875000D03*
X242570000Y-141605000D03*
X254000000Y-122555000D03*
X251460000Y-125095000D03*
X201930000Y-132080000D03*
X184785000Y-132080000D03*
X176530000Y-132080000D03*
X172085000Y-132080000D03*
X167640000Y-130810000D03*
X187960000Y-141605000D03*
X179070000Y-145415000D03*
X182245000Y-145415000D03*
X169545000Y-144780000D03*
X172720000Y-144780000D03*
X172720000Y-141605000D03*
X166370000Y-139700000D03*
X162560000Y-141605000D03*
X153670000Y-141605000D03*
X151130000Y-139700000D03*
X148590000Y-144145000D03*
X147320000Y-126365000D03*
X147320000Y-120015000D03*
X144780000Y-130175000D03*
X145415000Y-133350000D03*
X127000000Y-136525000D03*
X106045000Y-132715000D03*
X111760000Y-133350000D03*
X119380000Y-116840000D03*
X107950000Y-114300000D03*
X110490000Y-116205000D03*
X86995000Y-131445000D03*
X88900000Y-135890000D03*
X99060000Y-130810000D03*
X79375000Y-130810000D03*
X76835000Y-129540000D03*
X79375000Y-143510000D03*
X76835000Y-143510000D03*
X73660000Y-142240000D03*
X70485000Y-137160000D03*
X68580000Y-135890000D03*
X65405000Y-140970000D03*
X64135000Y-144780000D03*
X60960000Y-142240000D03*
X31115000Y-132080000D03*
X37465000Y-132080000D03*
X41275000Y-132080000D03*
X44450000Y-133350000D03*
X37465000Y-139700000D03*
X41275000Y-142875000D03*
X31115000Y-125095000D03*
X42545000Y-116840000D03*
X51435000Y-116840000D03*
X67945000Y-116840000D03*
X71755000Y-113030000D03*
X76835000Y-120015000D03*
X78740000Y-119380000D03*
X78740000Y-127000000D03*
X80645000Y-112395000D03*
X87630000Y-114935000D03*
X89535000Y-116205000D03*
X93345000Y-109855000D03*
X101600000Y-108585000D03*
X107950000Y-105410000D03*
X111125000Y-107315000D03*
X112395000Y-108585000D03*
X35560000Y-112395000D03*
X42545000Y-106680000D03*
X45085000Y-108585000D03*
X46990000Y-110490000D03*
X48895000Y-111125000D03*
X79375000Y-135255000D03*
X53340000Y-135255000D03*
X54610000Y-136525000D03*
X59055000Y-109220000D03*
X56515000Y-109220000D03*
X53975000Y-64135000D03*
X55880000Y-61595000D03*
X60960000Y-63500000D03*
X53340000Y-75565000D03*
X50165000Y-81280000D03*
X45085000Y-79375000D03*
X36195000Y-88900000D03*
X27940000Y-97790000D03*
X62230000Y-89535000D03*
X65405000Y-86995000D03*
X68580000Y-89535000D03*
X69215000Y-83820000D03*
X71120000Y-85725000D03*
X72390000Y-88900000D03*
X76200000Y-80010000D03*
X78105000Y-82550000D03*
X82550000Y-83820000D03*
X83820000Y-91440000D03*
X85090000Y-88900000D03*
X92710000Y-90805000D03*
X96520000Y-86360000D03*
X97790000Y-83185000D03*
X92710000Y-83820000D03*
X99695000Y-88265000D03*
X106045000Y-79375000D03*
X107315000Y-83185000D03*
X109855000Y-87630000D03*
X116205000Y-71120000D03*
X114300000Y-73025000D03*
X91440000Y-71120000D03*
X88900000Y-73025000D03*
X88900000Y-73025000D03*
X96520000Y-64770000D03*
X93980000Y-64135000D03*
X90805000Y-60960000D03*
X88265000Y-63500000D03*
X85725000Y-65405000D03*
X82550000Y-65405000D03*
X83820000Y-63500000D03*
X61595000Y-105410000D03*
X64135000Y-104775000D03*
X66675000Y-107950000D03*
X71120000Y-109855000D03*
X83820000Y-105410000D03*
X101600000Y-139700000D03*
X27940000Y-89535000D03*
D18*
X27940000Y-127635000D03*
X27940000Y-101600000D03*
X27940000Y-93980000D03*
D17*
X31115000Y-99060000D03*
X142875000Y-116205000D03*
X139065000Y-116205000D03*
X140970000Y-114935000D03*
X142875000Y-112395000D03*
X130810000Y-114935000D03*
X130810000Y-106045000D03*
X133350000Y-107950000D03*
X149860000Y-116205000D03*
X153670000Y-113030000D03*
X158115000Y-111125000D03*
X161925000Y-109855000D03*
X163830000Y-107950000D03*
X166370000Y-106680000D03*
X170180000Y-104775000D03*
X167640000Y-116205000D03*
X167640000Y-113665000D03*
X170815000Y-115570000D03*
X172085000Y-114300000D03*
X172085000Y-112395000D03*
X175260000Y-105410000D03*
X178435000Y-106680000D03*
X186690000Y-114935000D03*
X188595000Y-111125000D03*
X191770000Y-112395000D03*
X196850000Y-106680000D03*
X200660000Y-106680000D03*
X201930000Y-107950000D03*
X204470000Y-115570000D03*
X211455000Y-108585000D03*
X212725000Y-110490000D03*
D19*
X148590000Y-133350000D03*
X149225000Y-112395000D03*
D17*
X148590000Y-109855000D03*
X172085000Y-91440000D03*
X220980000Y-106045000D03*
X223520000Y-107315000D03*
X226060000Y-108585000D03*
X228600000Y-105410000D03*
X234950000Y-104775000D03*
X239395000Y-103505000D03*
X233680000Y-91440000D03*
X217805000Y-91440000D03*
X191770000Y-89535000D03*
X185420000Y-89535000D03*
X179070000Y-89535000D03*
X177165000Y-88265000D03*
X167640000Y-90170000D03*
X166370000Y-88900000D03*
X160020000Y-88900000D03*
X154940000Y-91440000D03*
X151765000Y-91440000D03*
X154305000Y-88265000D03*
X126365000Y-87630000D03*
X129540000Y-85725000D03*
X52705000Y-56515000D03*
X60325000Y-29845000D03*
X65405000Y-56515000D03*
X71120000Y-61595000D03*
X69850000Y-59690000D03*
X74295000Y-59690000D03*
X73025000Y-52705000D03*
X76200000Y-52705000D03*
X99695000Y-51435000D03*
X88900000Y-46990000D03*
X91440000Y-44450000D03*
X82550000Y-31115000D03*
X87630000Y-33020000D03*
X102870000Y-39370000D03*
X102235000Y-62865000D03*
X106045000Y-55245000D03*
X111125000Y-60325000D03*
X116205000Y-56515000D03*
X113665000Y-55245000D03*
X118745000Y-34290000D03*
X116205000Y-31115000D03*
X118745000Y-26670000D03*
X56515000Y-36830000D03*
X56515000Y-45085000D03*
X33020000Y-64770000D03*
X126365000Y-52070000D03*
X130175000Y-53975000D03*
X132080000Y-53975000D03*
X133985000Y-53975000D03*
X142240000Y-57150000D03*
X137160000Y-73025000D03*
X139700000Y-70485000D03*
X144780000Y-78105000D03*
X147320000Y-74295000D03*
X147320000Y-67945000D03*
X151130000Y-73025000D03*
X153035000Y-80645000D03*
X151765000Y-83820000D03*
X156210000Y-78740000D03*
X162560000Y-82550000D03*
X165100000Y-81280000D03*
X167640000Y-81280000D03*
X158750000Y-62230000D03*
X162560000Y-53975000D03*
X155575000Y-46990000D03*
X158750000Y-45085000D03*
X149225000Y-38735000D03*
X152400000Y-38735000D03*
X147320000Y-41910000D03*
X147320000Y-48260000D03*
X161290000Y-37465000D03*
X161290000Y-34925000D03*
X173990000Y-57150000D03*
X185420000Y-64135000D03*
X187960000Y-61595000D03*
X189230000Y-38100000D03*
X189230000Y-35560000D03*
X189230000Y-33020000D03*
X189230000Y-29845000D03*
X186690000Y-29845000D03*
X184150000Y-29845000D03*
X182880000Y-33020000D03*
X176530000Y-36195000D03*
X179070000Y-38100000D03*
X179705000Y-34925000D03*
X169545000Y-34925000D03*
X170815000Y-33655000D03*
X170180000Y-29845000D03*
X172720000Y-29845000D03*
X175260000Y-29845000D03*
X193040000Y-62865000D03*
X194310000Y-55880000D03*
X195580000Y-52705000D03*
X198120000Y-88900000D03*
X200660000Y-79375000D03*
X209550000Y-86360000D03*
X208280000Y-88265000D03*
X204470000Y-85090000D03*
X199390000Y-83820000D03*
X201930000Y-83820000D03*
X112395000Y-90805000D03*
M02*
