%FSLAX45Y45*%
G04 Gerber Fmt 4.5, Leading zero omitted, Abs format (unit mm)*
G04 Created by KiCad (PCBNEW (5.1.12)-1) date 2022-10-15 16:15:47*
%MOMM*%
%LPD*%
G01*
G04 APERTURE LIST*
%TA.AperFunction,Profile*%
%ADD10C,0.152400*%
%TD*%
%ADD11C,0.200000*%
%ADD12C,0.300000*%
G04 APERTURE END LIST*
D10*
X22034500Y-14986000D02*
X22034500Y-15748000D01*
X2667000Y-2286000D02*
X2032000Y-2921000D01*
X26797000Y-2286000D02*
X2667000Y-2286000D01*
X27432000Y-2921000D02*
X26797000Y-2286000D01*
X2032000Y-2921000D02*
X2032000Y-14986000D01*
X5842000Y-14986000D02*
X2032000Y-14986000D01*
X5842000Y-15748000D02*
X5842000Y-14986000D01*
X22034500Y-15748000D02*
X5842000Y-15748000D01*
X27432000Y-14986000D02*
X22034500Y-14986000D01*
X27432000Y-14986000D02*
X27432000Y-2921000D01*
D11*
X2766060Y-8925560D02*
X2821940Y-8981440D01*
X2821940Y-8925560D02*
X2766060Y-8981440D01*
X2766060Y-9370060D02*
X2821940Y-9425940D01*
X2821940Y-9370060D02*
X2766060Y-9425940D01*
X2766060Y-9751060D02*
X2821940Y-9806940D01*
X2821940Y-9751060D02*
X2766060Y-9806940D01*
X2766060Y-10132060D02*
X2821940Y-10187940D01*
X2821940Y-10132060D02*
X2766060Y-10187940D01*
X2766060Y-12735560D02*
X2821940Y-12791440D01*
X2821940Y-12735560D02*
X2766060Y-12791440D01*
X3083560Y-9878060D02*
X3139440Y-9933940D01*
X3139440Y-9878060D02*
X3083560Y-9933940D01*
X3083560Y-12481560D02*
X3139440Y-12537440D01*
X3139440Y-12481560D02*
X3083560Y-12537440D01*
X3083560Y-13180060D02*
X3139440Y-13235940D01*
X3139440Y-13180060D02*
X3083560Y-13235940D01*
X3274060Y-6449060D02*
X3329940Y-6504940D01*
X3329940Y-6449060D02*
X3274060Y-6504940D01*
X3528060Y-11211560D02*
X3583940Y-11267440D01*
X3583940Y-11211560D02*
X3528060Y-11267440D01*
X3591560Y-8862060D02*
X3647440Y-8917940D01*
X3647440Y-8862060D02*
X3591560Y-8917940D01*
X3718560Y-13180060D02*
X3774440Y-13235940D01*
X3774440Y-13180060D02*
X3718560Y-13235940D01*
X3718560Y-13942060D02*
X3774440Y-13997940D01*
X3774440Y-13942060D02*
X3718560Y-13997940D01*
X4099560Y-13180060D02*
X4155440Y-13235940D01*
X4155440Y-13180060D02*
X4099560Y-13235940D01*
X4099560Y-14259560D02*
X4155440Y-14315440D01*
X4155440Y-14259560D02*
X4099560Y-14315440D01*
X4226560Y-10640060D02*
X4282440Y-10695940D01*
X4282440Y-10640060D02*
X4226560Y-10695940D01*
X4226560Y-11656060D02*
X4282440Y-11711940D01*
X4282440Y-11656060D02*
X4226560Y-11711940D01*
X4417060Y-13307060D02*
X4472940Y-13362940D01*
X4472940Y-13307060D02*
X4417060Y-13362940D01*
X4480560Y-7909560D02*
X4536440Y-7965440D01*
X4536440Y-7909560D02*
X4480560Y-7965440D01*
X4480560Y-10830560D02*
X4536440Y-10886440D01*
X4536440Y-10830560D02*
X4480560Y-10886440D01*
X4671060Y-11021060D02*
X4726940Y-11076940D01*
X4726940Y-11021060D02*
X4671060Y-11076940D01*
X4861560Y-11084560D02*
X4917440Y-11140440D01*
X4917440Y-11084560D02*
X4861560Y-11140440D01*
X4988560Y-8100060D02*
X5044440Y-8155940D01*
X5044440Y-8100060D02*
X4988560Y-8155940D01*
X5115560Y-11656060D02*
X5171440Y-11711940D01*
X5171440Y-11656060D02*
X5115560Y-11711940D01*
X5242560Y-5623560D02*
X5298440Y-5679440D01*
X5298440Y-5623560D02*
X5242560Y-5679440D01*
X5306060Y-7528560D02*
X5361940Y-7584440D01*
X5361940Y-7528560D02*
X5306060Y-7584440D01*
X5306060Y-13497560D02*
X5361940Y-13553440D01*
X5361940Y-13497560D02*
X5306060Y-13553440D01*
X5369560Y-6385560D02*
X5425440Y-6441440D01*
X5425440Y-6385560D02*
X5369560Y-6441440D01*
X5433060Y-13624560D02*
X5488940Y-13680440D01*
X5488940Y-13624560D02*
X5433060Y-13680440D01*
X5560060Y-6131560D02*
X5615940Y-6187440D01*
X5615940Y-6131560D02*
X5560060Y-6187440D01*
X5623560Y-3655060D02*
X5679440Y-3710940D01*
X5679440Y-3655060D02*
X5623560Y-3710940D01*
X5623560Y-4480560D02*
X5679440Y-4536440D01*
X5679440Y-4480560D02*
X5623560Y-4536440D01*
X5623560Y-10894060D02*
X5679440Y-10949940D01*
X5679440Y-10894060D02*
X5623560Y-10949940D01*
X5877560Y-10894060D02*
X5933440Y-10949940D01*
X5933440Y-10894060D02*
X5877560Y-10949940D01*
X6004560Y-2956560D02*
X6060440Y-3012440D01*
X6060440Y-2956560D02*
X6004560Y-3012440D01*
X6068060Y-6322060D02*
X6123940Y-6377940D01*
X6123940Y-6322060D02*
X6068060Y-6377940D01*
X6068060Y-14196060D02*
X6123940Y-14251940D01*
X6123940Y-14196060D02*
X6068060Y-14251940D01*
X6131560Y-10513060D02*
X6187440Y-10568940D01*
X6187440Y-10513060D02*
X6131560Y-10568940D01*
X6195060Y-8925560D02*
X6250940Y-8981440D01*
X6250940Y-8925560D02*
X6195060Y-8981440D01*
X6385560Y-10449560D02*
X6441440Y-10505440D01*
X6441440Y-10449560D02*
X6385560Y-10505440D01*
X6385560Y-14450060D02*
X6441440Y-14505940D01*
X6441440Y-14450060D02*
X6385560Y-14505940D01*
X6512560Y-5623560D02*
X6568440Y-5679440D01*
X6568440Y-5623560D02*
X6512560Y-5679440D01*
X6512560Y-8671560D02*
X6568440Y-8727440D01*
X6568440Y-8671560D02*
X6512560Y-8727440D01*
X6512560Y-14069060D02*
X6568440Y-14124940D01*
X6568440Y-14069060D02*
X6512560Y-14124940D01*
X6639560Y-10767060D02*
X6695440Y-10822940D01*
X6695440Y-10767060D02*
X6639560Y-10822940D01*
X6766560Y-11656060D02*
X6822440Y-11711940D01*
X6822440Y-11656060D02*
X6766560Y-11711940D01*
X6830060Y-8925560D02*
X6885940Y-8981440D01*
X6885940Y-8925560D02*
X6830060Y-8981440D01*
X6830060Y-13561060D02*
X6885940Y-13616940D01*
X6885940Y-13561060D02*
X6830060Y-13616940D01*
X6893560Y-8354060D02*
X6949440Y-8409940D01*
X6949440Y-8354060D02*
X6893560Y-8409940D01*
X6957060Y-5941060D02*
X7012940Y-5996940D01*
X7012940Y-5941060D02*
X6957060Y-5996940D01*
X7020560Y-13688060D02*
X7076440Y-13743940D01*
X7076440Y-13688060D02*
X7020560Y-13743940D01*
X7084060Y-6131560D02*
X7139940Y-6187440D01*
X7139940Y-6131560D02*
X7084060Y-6187440D01*
X7084060Y-8544560D02*
X7139940Y-8600440D01*
X7139940Y-8544560D02*
X7084060Y-8600440D01*
X7084060Y-10957560D02*
X7139940Y-11013440D01*
X7139940Y-10957560D02*
X7084060Y-11013440D01*
X7147560Y-11275060D02*
X7203440Y-11330940D01*
X7203440Y-11275060D02*
X7147560Y-11330940D01*
X7211060Y-8862060D02*
X7266940Y-8917940D01*
X7266940Y-8862060D02*
X7211060Y-8917940D01*
X7274560Y-5242560D02*
X7330440Y-5298440D01*
X7330440Y-5242560D02*
X7274560Y-5298440D01*
X7338060Y-14196060D02*
X7393940Y-14251940D01*
X7393940Y-14196060D02*
X7338060Y-14251940D01*
X7401560Y-5941060D02*
X7457440Y-5996940D01*
X7457440Y-5941060D02*
X7401560Y-5996940D01*
X7592060Y-5242560D02*
X7647940Y-5298440D01*
X7647940Y-5242560D02*
X7592060Y-5298440D01*
X7592060Y-7973060D02*
X7647940Y-8028940D01*
X7647940Y-7973060D02*
X7592060Y-8028940D01*
X7655560Y-11973560D02*
X7711440Y-12029440D01*
X7711440Y-11973560D02*
X7655560Y-12029440D01*
X7655560Y-12926060D02*
X7711440Y-12981940D01*
X7711440Y-12926060D02*
X7655560Y-12981940D01*
X7655560Y-14323060D02*
X7711440Y-14378940D01*
X7711440Y-14323060D02*
X7655560Y-14378940D01*
X7782560Y-8227060D02*
X7838440Y-8282940D01*
X7838440Y-8227060D02*
X7782560Y-8282940D01*
X7846060Y-11910060D02*
X7901940Y-11965940D01*
X7901940Y-11910060D02*
X7846060Y-11965940D01*
X7846060Y-12672060D02*
X7901940Y-12727940D01*
X7901940Y-12672060D02*
X7846060Y-12727940D01*
X7909560Y-13053060D02*
X7965440Y-13108940D01*
X7965440Y-13053060D02*
X7909560Y-13108940D01*
X7909560Y-13497560D02*
X7965440Y-13553440D01*
X7965440Y-13497560D02*
X7909560Y-13553440D01*
X7909560Y-14323060D02*
X7965440Y-14378940D01*
X7965440Y-14323060D02*
X7909560Y-14378940D01*
X8036560Y-11211560D02*
X8092440Y-11267440D01*
X8092440Y-11211560D02*
X8036560Y-11267440D01*
X8227060Y-3083560D02*
X8282940Y-3139440D01*
X8282940Y-3083560D02*
X8227060Y-3139440D01*
X8227060Y-6512560D02*
X8282940Y-6568440D01*
X8282940Y-6512560D02*
X8227060Y-6568440D01*
X8227060Y-8354060D02*
X8282940Y-8409940D01*
X8282940Y-8354060D02*
X8227060Y-8409940D01*
X8354060Y-6322060D02*
X8409940Y-6377940D01*
X8409940Y-6322060D02*
X8354060Y-6377940D01*
X8354060Y-9116060D02*
X8409940Y-9171940D01*
X8409940Y-9116060D02*
X8354060Y-9171940D01*
X8354060Y-10513060D02*
X8409940Y-10568940D01*
X8409940Y-10513060D02*
X8354060Y-10568940D01*
X8481060Y-8862060D02*
X8536940Y-8917940D01*
X8536940Y-8862060D02*
X8481060Y-8917940D01*
X8544560Y-6512560D02*
X8600440Y-6568440D01*
X8600440Y-6512560D02*
X8544560Y-6568440D01*
X8671560Y-13116560D02*
X8727440Y-13172440D01*
X8727440Y-13116560D02*
X8671560Y-13172440D01*
X8735060Y-3274060D02*
X8790940Y-3329940D01*
X8790940Y-3274060D02*
X8735060Y-3329940D01*
X8735060Y-11465560D02*
X8790940Y-11521440D01*
X8790940Y-11465560D02*
X8735060Y-11521440D01*
X8798560Y-6322060D02*
X8854440Y-6377940D01*
X8854440Y-6322060D02*
X8798560Y-6377940D01*
X8862060Y-4671060D02*
X8917940Y-4726940D01*
X8917940Y-4671060D02*
X8862060Y-4726940D01*
X8862060Y-7274560D02*
X8917940Y-7330440D01*
X8917940Y-7274560D02*
X8862060Y-7330440D01*
X8862060Y-7274560D02*
X8917940Y-7330440D01*
X8917940Y-7274560D02*
X8862060Y-7330440D01*
X8862060Y-13561060D02*
X8917940Y-13616940D01*
X8917940Y-13561060D02*
X8862060Y-13616940D01*
X8925560Y-11592560D02*
X8981440Y-11648440D01*
X8981440Y-11592560D02*
X8925560Y-11648440D01*
X9052560Y-6068060D02*
X9108440Y-6123940D01*
X9108440Y-6068060D02*
X9052560Y-6123940D01*
X9116060Y-4417060D02*
X9171940Y-4472940D01*
X9171940Y-4417060D02*
X9116060Y-4472940D01*
X9116060Y-7084060D02*
X9171940Y-7139940D01*
X9171940Y-7084060D02*
X9116060Y-7139940D01*
X9243060Y-8354060D02*
X9298940Y-8409940D01*
X9298940Y-8354060D02*
X9243060Y-8409940D01*
X9243060Y-9052560D02*
X9298940Y-9108440D01*
X9298940Y-9052560D02*
X9243060Y-9108440D01*
X9306560Y-10957560D02*
X9362440Y-11013440D01*
X9362440Y-10957560D02*
X9306560Y-11013440D01*
X9370060Y-6385560D02*
X9425940Y-6441440D01*
X9425940Y-6385560D02*
X9370060Y-6441440D01*
X9624060Y-6449060D02*
X9679940Y-6504940D01*
X9679940Y-6449060D02*
X9624060Y-6504940D01*
X9624060Y-8608060D02*
X9679940Y-8663940D01*
X9679940Y-8608060D02*
X9624060Y-8663940D01*
X9751060Y-8290560D02*
X9806940Y-8346440D01*
X9806940Y-8290560D02*
X9751060Y-8346440D01*
X9878060Y-13053060D02*
X9933940Y-13108940D01*
X9933940Y-13053060D02*
X9878060Y-13108940D01*
X9941560Y-5115560D02*
X9997440Y-5171440D01*
X9997440Y-5115560D02*
X9941560Y-5171440D01*
X9941560Y-8798560D02*
X9997440Y-8854440D01*
X9997440Y-8798560D02*
X9941560Y-8854440D01*
X10132060Y-10830560D02*
X10187940Y-10886440D01*
X10187940Y-10830560D02*
X10132060Y-10886440D01*
X10132060Y-13942060D02*
X10187940Y-13997940D01*
X10187940Y-13942060D02*
X10132060Y-13997940D01*
X10195560Y-6258560D02*
X10251440Y-6314440D01*
X10251440Y-6258560D02*
X10195560Y-6314440D01*
X10259060Y-3909060D02*
X10314940Y-3964940D01*
X10314940Y-3909060D02*
X10259060Y-3964940D01*
X10576560Y-5496560D02*
X10632440Y-5552440D01*
X10632440Y-5496560D02*
X10576560Y-5552440D01*
X10576560Y-7909560D02*
X10632440Y-7965440D01*
X10632440Y-7909560D02*
X10576560Y-7965440D01*
X10576560Y-13243560D02*
X10632440Y-13299440D01*
X10632440Y-13243560D02*
X10576560Y-13299440D01*
X10703560Y-8290560D02*
X10759440Y-8346440D01*
X10759440Y-8290560D02*
X10703560Y-8346440D01*
X10767060Y-10513060D02*
X10822940Y-10568940D01*
X10822940Y-10513060D02*
X10767060Y-10568940D01*
X10767060Y-11402060D02*
X10822940Y-11457940D01*
X10822940Y-11402060D02*
X10767060Y-11457940D01*
X10957560Y-8735060D02*
X11013440Y-8790940D01*
X11013440Y-8735060D02*
X10957560Y-8790940D01*
X11021060Y-11592560D02*
X11076940Y-11648440D01*
X11076940Y-11592560D02*
X11021060Y-11648440D01*
X11084560Y-6004560D02*
X11140440Y-6060440D01*
X11140440Y-6004560D02*
X11084560Y-6060440D01*
X11084560Y-10703560D02*
X11140440Y-10759440D01*
X11140440Y-10703560D02*
X11084560Y-10759440D01*
X11148060Y-13307060D02*
X11203940Y-13362940D01*
X11203940Y-13307060D02*
X11148060Y-13362940D01*
X11211560Y-9052560D02*
X11267440Y-9108440D01*
X11267440Y-9052560D02*
X11211560Y-9108440D01*
X11211560Y-10830560D02*
X11267440Y-10886440D01*
X11267440Y-10830560D02*
X11211560Y-10886440D01*
X11338560Y-5496560D02*
X11394440Y-5552440D01*
X11394440Y-5496560D02*
X11338560Y-5552440D01*
X11402060Y-7274560D02*
X11457940Y-7330440D01*
X11457940Y-7274560D02*
X11402060Y-7330440D01*
X11592560Y-3083560D02*
X11648440Y-3139440D01*
X11648440Y-3083560D02*
X11592560Y-3139440D01*
X11592560Y-5623560D02*
X11648440Y-5679440D01*
X11648440Y-5623560D02*
X11592560Y-5679440D01*
X11592560Y-7084060D02*
X11648440Y-7139940D01*
X11648440Y-7084060D02*
X11592560Y-7139940D01*
X11846560Y-2639060D02*
X11902440Y-2694940D01*
X11902440Y-2639060D02*
X11846560Y-2694940D01*
X11846560Y-3401060D02*
X11902440Y-3456940D01*
X11902440Y-3401060D02*
X11846560Y-3456940D01*
X11910060Y-11656060D02*
X11965940Y-11711940D01*
X11965940Y-11656060D02*
X11910060Y-11711940D01*
X12608560Y-5179060D02*
X12664440Y-5234940D01*
X12664440Y-5179060D02*
X12608560Y-5234940D01*
X12608560Y-8735060D02*
X12664440Y-8790940D01*
X12664440Y-8735060D02*
X12608560Y-8790940D01*
X12672060Y-13624560D02*
X12727940Y-13680440D01*
X12727940Y-13624560D02*
X12672060Y-13680440D01*
X12926060Y-8544560D02*
X12981940Y-8600440D01*
X12981940Y-8544560D02*
X12926060Y-8600440D01*
X12989560Y-5369560D02*
X13045440Y-5425440D01*
X13045440Y-5369560D02*
X12989560Y-5425440D01*
X13053060Y-10576560D02*
X13108940Y-10632440D01*
X13108940Y-10576560D02*
X13053060Y-10632440D01*
X13053060Y-11465560D02*
X13108940Y-11521440D01*
X13108940Y-11465560D02*
X13053060Y-11521440D01*
X13180060Y-5369560D02*
X13235940Y-5425440D01*
X13235940Y-5369560D02*
X13180060Y-5425440D01*
X13307060Y-10767060D02*
X13362940Y-10822940D01*
X13362940Y-10767060D02*
X13307060Y-10822940D01*
X13370560Y-5369560D02*
X13426440Y-5425440D01*
X13426440Y-5369560D02*
X13370560Y-5425440D01*
X13688060Y-7274560D02*
X13743940Y-7330440D01*
X13743940Y-7274560D02*
X13688060Y-7330440D01*
X13878560Y-11592560D02*
X13934440Y-11648440D01*
X13934440Y-11592560D02*
X13878560Y-11648440D01*
X13942060Y-7020560D02*
X13997940Y-7076440D01*
X13997940Y-7020560D02*
X13942060Y-7076440D01*
X14069060Y-11465560D02*
X14124940Y-11521440D01*
X14124940Y-11465560D02*
X14069060Y-11521440D01*
X14196060Y-5687060D02*
X14251940Y-5742940D01*
X14251940Y-5687060D02*
X14196060Y-5742940D01*
X14259560Y-11211560D02*
X14315440Y-11267440D01*
X14315440Y-11211560D02*
X14259560Y-11267440D01*
X14259560Y-11592560D02*
X14315440Y-11648440D01*
X14315440Y-11592560D02*
X14259560Y-11648440D01*
X14450060Y-7782560D02*
X14505940Y-7838440D01*
X14505940Y-7782560D02*
X14450060Y-7838440D01*
X14450060Y-12989560D02*
X14505940Y-13045440D01*
X14505940Y-12989560D02*
X14450060Y-13045440D01*
X14513560Y-13307060D02*
X14569440Y-13362940D01*
X14569440Y-13307060D02*
X14513560Y-13362940D01*
X14704060Y-4163060D02*
X14759940Y-4218940D01*
X14759940Y-4163060D02*
X14704060Y-4218940D01*
X14704060Y-4798060D02*
X14759940Y-4853940D01*
X14759940Y-4798060D02*
X14704060Y-4853940D01*
X14704060Y-6766560D02*
X14759940Y-6822440D01*
X14759940Y-6766560D02*
X14704060Y-6822440D01*
X14704060Y-7401560D02*
X14759940Y-7457440D01*
X14759940Y-7401560D02*
X14704060Y-7457440D01*
X14704060Y-11973560D02*
X14759940Y-12029440D01*
X14759940Y-11973560D02*
X14704060Y-12029440D01*
X14704060Y-12608560D02*
X14759940Y-12664440D01*
X14759940Y-12608560D02*
X14704060Y-12664440D01*
X14831060Y-10957560D02*
X14886940Y-11013440D01*
X14886940Y-10957560D02*
X14831060Y-11013440D01*
X14831060Y-13307060D02*
X14886940Y-13362940D01*
X14886940Y-13307060D02*
X14831060Y-13362940D01*
X14831060Y-14386560D02*
X14886940Y-14442440D01*
X14886940Y-14386560D02*
X14831060Y-14442440D01*
X14894560Y-3845560D02*
X14950440Y-3901440D01*
X14950440Y-3845560D02*
X14894560Y-3901440D01*
X14894560Y-11211560D02*
X14950440Y-11267440D01*
X14950440Y-11211560D02*
X14894560Y-11267440D01*
X14958060Y-11592560D02*
X15013940Y-11648440D01*
X15013940Y-11592560D02*
X14958060Y-11648440D01*
X15085060Y-7274560D02*
X15140940Y-7330440D01*
X15140940Y-7274560D02*
X15085060Y-7330440D01*
X15085060Y-13942060D02*
X15140940Y-13997940D01*
X15140940Y-13942060D02*
X15085060Y-13997940D01*
X15148560Y-8354060D02*
X15204440Y-8409940D01*
X15204440Y-8354060D02*
X15148560Y-8409940D01*
X15148560Y-9116060D02*
X15204440Y-9171940D01*
X15204440Y-9116060D02*
X15148560Y-9171940D01*
X15212060Y-3845560D02*
X15267940Y-3901440D01*
X15267940Y-3845560D02*
X15212060Y-3901440D01*
X15275560Y-8036560D02*
X15331440Y-8092440D01*
X15331440Y-8036560D02*
X15275560Y-8092440D01*
X15339060Y-11275060D02*
X15394940Y-11330940D01*
X15394940Y-11275060D02*
X15339060Y-11330940D01*
X15339060Y-14132560D02*
X15394940Y-14188440D01*
X15394940Y-14132560D02*
X15339060Y-14188440D01*
X15402560Y-8798560D02*
X15458440Y-8854440D01*
X15458440Y-8798560D02*
X15402560Y-8854440D01*
X15466060Y-9116060D02*
X15521940Y-9171940D01*
X15521940Y-9116060D02*
X15466060Y-9171940D01*
X15529560Y-4671060D02*
X15585440Y-4726940D01*
X15585440Y-4671060D02*
X15529560Y-4726940D01*
X15593060Y-7846060D02*
X15648940Y-7901940D01*
X15648940Y-7846060D02*
X15593060Y-7901940D01*
X15783560Y-11084560D02*
X15839440Y-11140440D01*
X15839440Y-11084560D02*
X15783560Y-11140440D01*
X15847060Y-4480560D02*
X15902940Y-4536440D01*
X15902940Y-4480560D02*
X15847060Y-4536440D01*
X15847060Y-6195060D02*
X15902940Y-6250940D01*
X15902940Y-6195060D02*
X15847060Y-6250940D01*
X15974060Y-8862060D02*
X16029940Y-8917940D01*
X16029940Y-8862060D02*
X15974060Y-8917940D01*
X16101060Y-3464560D02*
X16156940Y-3520440D01*
X16156940Y-3464560D02*
X16101060Y-3520440D01*
X16101060Y-3718560D02*
X16156940Y-3774440D01*
X16156940Y-3718560D02*
X16101060Y-3774440D01*
X16164560Y-10957560D02*
X16220440Y-11013440D01*
X16220440Y-10957560D02*
X16164560Y-11013440D01*
X16228060Y-5369560D02*
X16283940Y-5425440D01*
X16283940Y-5369560D02*
X16228060Y-5425440D01*
X16228060Y-8227060D02*
X16283940Y-8282940D01*
X16283940Y-8227060D02*
X16228060Y-8282940D01*
X16228060Y-14132560D02*
X16283940Y-14188440D01*
X16283940Y-14132560D02*
X16228060Y-14188440D01*
X16355060Y-10767060D02*
X16410940Y-10822940D01*
X16410940Y-10767060D02*
X16355060Y-10822940D01*
X16482060Y-8100060D02*
X16537940Y-8155940D01*
X16537940Y-8100060D02*
X16482060Y-8155940D01*
X16609060Y-8862060D02*
X16664940Y-8917940D01*
X16664940Y-8862060D02*
X16609060Y-8917940D01*
X16609060Y-10640060D02*
X16664940Y-10695940D01*
X16664940Y-10640060D02*
X16609060Y-10695940D01*
X16609060Y-13942060D02*
X16664940Y-13997940D01*
X16664940Y-13942060D02*
X16609060Y-13997940D01*
X16736060Y-8100060D02*
X16791940Y-8155940D01*
X16791940Y-8100060D02*
X16736060Y-8155940D01*
X16736060Y-8989060D02*
X16791940Y-9044940D01*
X16791940Y-8989060D02*
X16736060Y-9044940D01*
X16736060Y-11338560D02*
X16791940Y-11394440D01*
X16791940Y-11338560D02*
X16736060Y-11394440D01*
X16736060Y-11592560D02*
X16791940Y-11648440D01*
X16791940Y-11592560D02*
X16736060Y-11648440D01*
X16736060Y-13053060D02*
X16791940Y-13108940D01*
X16791940Y-13053060D02*
X16736060Y-13108940D01*
X16926560Y-3464560D02*
X16982440Y-3520440D01*
X16982440Y-3464560D02*
X16926560Y-3520440D01*
X16926560Y-14450060D02*
X16982440Y-14505940D01*
X16982440Y-14450060D02*
X16926560Y-14505940D01*
X16990060Y-2956560D02*
X17045940Y-3012440D01*
X17045940Y-2956560D02*
X16990060Y-3012440D01*
X16990060Y-10449560D02*
X17045940Y-10505440D01*
X17045940Y-10449560D02*
X16990060Y-10505440D01*
X17053560Y-3337560D02*
X17109440Y-3393440D01*
X17109440Y-3337560D02*
X17053560Y-3393440D01*
X17053560Y-11529060D02*
X17109440Y-11584940D01*
X17109440Y-11529060D02*
X17053560Y-11584940D01*
X17180560Y-9116060D02*
X17236440Y-9171940D01*
X17236440Y-9116060D02*
X17180560Y-9171940D01*
X17180560Y-11211560D02*
X17236440Y-11267440D01*
X17236440Y-11211560D02*
X17180560Y-11267440D01*
X17180560Y-11402060D02*
X17236440Y-11457940D01*
X17236440Y-11402060D02*
X17180560Y-11457940D01*
X17180560Y-13180060D02*
X17236440Y-13235940D01*
X17236440Y-13180060D02*
X17180560Y-13235940D01*
X17244060Y-2956560D02*
X17299940Y-3012440D01*
X17299940Y-2956560D02*
X17244060Y-3012440D01*
X17244060Y-14132560D02*
X17299940Y-14188440D01*
X17299940Y-14132560D02*
X17244060Y-14188440D01*
X17244060Y-14450060D02*
X17299940Y-14505940D01*
X17299940Y-14450060D02*
X17244060Y-14505940D01*
X17371060Y-5687060D02*
X17426940Y-5742940D01*
X17426940Y-5687060D02*
X17371060Y-5742940D01*
X17498060Y-2956560D02*
X17553940Y-3012440D01*
X17553940Y-2956560D02*
X17498060Y-3012440D01*
X17498060Y-10513060D02*
X17553940Y-10568940D01*
X17553940Y-10513060D02*
X17498060Y-10568940D01*
X17625060Y-3591560D02*
X17680940Y-3647440D01*
X17680940Y-3591560D02*
X17625060Y-3647440D01*
X17625060Y-13180060D02*
X17680940Y-13235940D01*
X17680940Y-13180060D02*
X17625060Y-13235940D01*
X17688560Y-8798560D02*
X17744440Y-8854440D01*
X17744440Y-8798560D02*
X17688560Y-8854440D01*
X17815560Y-10640060D02*
X17871440Y-10695940D01*
X17871440Y-10640060D02*
X17815560Y-10695940D01*
X17879060Y-3782060D02*
X17934940Y-3837940D01*
X17934940Y-3782060D02*
X17879060Y-3837940D01*
X17879060Y-8925560D02*
X17934940Y-8981440D01*
X17934940Y-8925560D02*
X17879060Y-8981440D01*
X17879060Y-14513560D02*
X17934940Y-14569440D01*
X17934940Y-14513560D02*
X17879060Y-14569440D01*
X17942560Y-3464560D02*
X17998440Y-3520440D01*
X17998440Y-3464560D02*
X17942560Y-3520440D01*
X18196560Y-14513560D02*
X18252440Y-14569440D01*
X18252440Y-14513560D02*
X18196560Y-14569440D01*
X18260060Y-3274060D02*
X18315940Y-3329940D01*
X18315940Y-3274060D02*
X18260060Y-3329940D01*
X18387060Y-2956560D02*
X18442940Y-3012440D01*
X18442940Y-2956560D02*
X18387060Y-3012440D01*
X18450560Y-13180060D02*
X18506440Y-13235940D01*
X18506440Y-13180060D02*
X18450560Y-13235940D01*
X18514060Y-6385560D02*
X18569940Y-6441440D01*
X18569940Y-6385560D02*
X18514060Y-6441440D01*
X18514060Y-8925560D02*
X18569940Y-8981440D01*
X18569940Y-8925560D02*
X18514060Y-8981440D01*
X18641060Y-2956560D02*
X18696940Y-3012440D01*
X18696940Y-2956560D02*
X18641060Y-3012440D01*
X18641060Y-11465560D02*
X18696940Y-11521440D01*
X18696940Y-11465560D02*
X18641060Y-11521440D01*
X18768060Y-6131560D02*
X18823940Y-6187440D01*
X18823940Y-6131560D02*
X18768060Y-6187440D01*
X18768060Y-14132560D02*
X18823940Y-14188440D01*
X18823940Y-14132560D02*
X18768060Y-14188440D01*
X18831560Y-11084560D02*
X18887440Y-11140440D01*
X18887440Y-11084560D02*
X18831560Y-11140440D01*
X18895060Y-2956560D02*
X18950940Y-3012440D01*
X18950940Y-2956560D02*
X18895060Y-3012440D01*
X18895060Y-3274060D02*
X18950940Y-3329940D01*
X18950940Y-3274060D02*
X18895060Y-3329940D01*
X18895060Y-3528060D02*
X18950940Y-3583940D01*
X18950940Y-3528060D02*
X18895060Y-3583940D01*
X18895060Y-3782060D02*
X18950940Y-3837940D01*
X18950940Y-3782060D02*
X18895060Y-3837940D01*
X19149060Y-8925560D02*
X19204940Y-8981440D01*
X19204940Y-8925560D02*
X19149060Y-8981440D01*
X19149060Y-11211560D02*
X19204940Y-11267440D01*
X19204940Y-11211560D02*
X19149060Y-11267440D01*
X19276060Y-6258560D02*
X19331940Y-6314440D01*
X19331940Y-6258560D02*
X19276060Y-6314440D01*
X19403060Y-5560060D02*
X19458940Y-5615940D01*
X19458940Y-5560060D02*
X19403060Y-5615940D01*
X19530060Y-5242560D02*
X19585940Y-5298440D01*
X19585940Y-5242560D02*
X19530060Y-5298440D01*
X19657060Y-10640060D02*
X19712940Y-10695940D01*
X19712940Y-10640060D02*
X19657060Y-10695940D01*
X19784060Y-8862060D02*
X19839940Y-8917940D01*
X19839940Y-8862060D02*
X19784060Y-8917940D01*
X19911060Y-8354060D02*
X19966940Y-8409940D01*
X19966940Y-8354060D02*
X19911060Y-8409940D01*
X20038060Y-7909560D02*
X20093940Y-7965440D01*
X20093940Y-7909560D02*
X20038060Y-7965440D01*
X20038060Y-10640060D02*
X20093940Y-10695940D01*
X20093940Y-10640060D02*
X20038060Y-10695940D01*
X20165060Y-8354060D02*
X20220940Y-8409940D01*
X20220940Y-8354060D02*
X20165060Y-8409940D01*
X20165060Y-10767060D02*
X20220940Y-10822940D01*
X20220940Y-10767060D02*
X20165060Y-10822940D01*
X20165060Y-13180060D02*
X20220940Y-13235940D01*
X20220940Y-13180060D02*
X20165060Y-13235940D01*
X20419060Y-8481060D02*
X20474940Y-8536940D01*
X20474940Y-8481060D02*
X20419060Y-8536940D01*
X20419060Y-11529060D02*
X20474940Y-11584940D01*
X20474940Y-11529060D02*
X20419060Y-11584940D01*
X20800060Y-8798560D02*
X20855940Y-8854440D01*
X20855940Y-8798560D02*
X20800060Y-8854440D01*
X20927060Y-8608060D02*
X20982940Y-8663940D01*
X20982940Y-8608060D02*
X20927060Y-8663940D01*
X21117560Y-10830560D02*
X21173440Y-10886440D01*
X21173440Y-10830560D02*
X21117560Y-10886440D01*
X21244560Y-11021060D02*
X21300440Y-11076940D01*
X21300440Y-11021060D02*
X21244560Y-11076940D01*
X21752560Y-9116060D02*
X21808440Y-9171940D01*
X21808440Y-9116060D02*
X21752560Y-9171940D01*
X22070060Y-10576560D02*
X22125940Y-10632440D01*
X22125940Y-10576560D02*
X22070060Y-10632440D01*
X22324060Y-10703560D02*
X22379940Y-10759440D01*
X22379940Y-10703560D02*
X22324060Y-10759440D01*
X22578060Y-10830560D02*
X22633940Y-10886440D01*
X22633940Y-10830560D02*
X22578060Y-10886440D01*
X22832060Y-10513060D02*
X22887940Y-10568940D01*
X22887940Y-10513060D02*
X22832060Y-10568940D01*
X23340060Y-9116060D02*
X23395940Y-9171940D01*
X23395940Y-9116060D02*
X23340060Y-9171940D01*
X23467060Y-10449560D02*
X23522940Y-10505440D01*
X23522940Y-10449560D02*
X23467060Y-10505440D01*
X23911560Y-10322560D02*
X23967440Y-10378440D01*
X23967440Y-10322560D02*
X23911560Y-10378440D01*
X24229060Y-14132560D02*
X24284940Y-14188440D01*
X24284940Y-14132560D02*
X24229060Y-14188440D01*
X24737060Y-14259560D02*
X24792940Y-14315440D01*
X24792940Y-14259560D02*
X24737060Y-14315440D01*
X24991060Y-13815060D02*
X25046940Y-13870940D01*
X25046940Y-13815060D02*
X24991060Y-13870940D01*
X25118060Y-12481560D02*
X25173940Y-12537440D01*
X25173940Y-12481560D02*
X25118060Y-12537440D01*
X25372060Y-12227560D02*
X25427940Y-12283440D01*
X25427940Y-12227560D02*
X25372060Y-12283440D01*
X3659500Y-6794500D02*
G75*
G03*
X3659500Y-6794500I-40000J0D01*
G01*
X3659500Y-7556500D02*
G75*
G03*
X3659500Y-7556500I-40000J0D01*
G01*
X3659500Y-9398000D02*
G75*
G03*
X3659500Y-9398000I-40000J0D01*
G01*
X3659500Y-10160000D02*
G75*
G03*
X3659500Y-10160000I-40000J0D01*
G01*
X3659500Y-12001500D02*
G75*
G03*
X3659500Y-12001500I-40000J0D01*
G01*
X3659500Y-12763500D02*
G75*
G03*
X3659500Y-12763500I-40000J0D01*
G01*
X3913500Y-6794500D02*
G75*
G03*
X3913500Y-6794500I-40000J0D01*
G01*
X3913500Y-7556500D02*
G75*
G03*
X3913500Y-7556500I-40000J0D01*
G01*
X3913500Y-9398000D02*
G75*
G03*
X3913500Y-9398000I-40000J0D01*
G01*
X3913500Y-10160000D02*
G75*
G03*
X3913500Y-10160000I-40000J0D01*
G01*
X3913500Y-12001500D02*
G75*
G03*
X3913500Y-12001500I-40000J0D01*
G01*
X3913500Y-12763500D02*
G75*
G03*
X3913500Y-12763500I-40000J0D01*
G01*
X4167500Y-6794500D02*
G75*
G03*
X4167500Y-6794500I-40000J0D01*
G01*
X4167500Y-7556500D02*
G75*
G03*
X4167500Y-7556500I-40000J0D01*
G01*
X4167500Y-9398000D02*
G75*
G03*
X4167500Y-9398000I-40000J0D01*
G01*
X4167500Y-10160000D02*
G75*
G03*
X4167500Y-10160000I-40000J0D01*
G01*
X4167500Y-12001500D02*
G75*
G03*
X4167500Y-12001500I-40000J0D01*
G01*
X4167500Y-12763500D02*
G75*
G03*
X4167500Y-12763500I-40000J0D01*
G01*
X4421500Y-6794500D02*
G75*
G03*
X4421500Y-6794500I-40000J0D01*
G01*
X4421500Y-7556500D02*
G75*
G03*
X4421500Y-7556500I-40000J0D01*
G01*
X4421500Y-9398000D02*
G75*
G03*
X4421500Y-9398000I-40000J0D01*
G01*
X4421500Y-10160000D02*
G75*
G03*
X4421500Y-10160000I-40000J0D01*
G01*
X4421500Y-12001500D02*
G75*
G03*
X4421500Y-12001500I-40000J0D01*
G01*
X4421500Y-12763500D02*
G75*
G03*
X4421500Y-12763500I-40000J0D01*
G01*
X4675500Y-6794500D02*
G75*
G03*
X4675500Y-6794500I-40000J0D01*
G01*
X4675500Y-7556500D02*
G75*
G03*
X4675500Y-7556500I-40000J0D01*
G01*
X4675500Y-9398000D02*
G75*
G03*
X4675500Y-9398000I-40000J0D01*
G01*
X4675500Y-10160000D02*
G75*
G03*
X4675500Y-10160000I-40000J0D01*
G01*
X4675500Y-12001500D02*
G75*
G03*
X4675500Y-12001500I-40000J0D01*
G01*
X4675500Y-12763500D02*
G75*
G03*
X4675500Y-12763500I-40000J0D01*
G01*
X4929500Y-6794500D02*
G75*
G03*
X4929500Y-6794500I-40000J0D01*
G01*
X4929500Y-7556500D02*
G75*
G03*
X4929500Y-7556500I-40000J0D01*
G01*
X4929500Y-9398000D02*
G75*
G03*
X4929500Y-9398000I-40000J0D01*
G01*
X4929500Y-10160000D02*
G75*
G03*
X4929500Y-10160000I-40000J0D01*
G01*
X4929500Y-12001500D02*
G75*
G03*
X4929500Y-12001500I-40000J0D01*
G01*
X4929500Y-12763500D02*
G75*
G03*
X4929500Y-12763500I-40000J0D01*
G01*
X5183500Y-6794500D02*
G75*
G03*
X5183500Y-6794500I-40000J0D01*
G01*
X5183500Y-7556500D02*
G75*
G03*
X5183500Y-7556500I-40000J0D01*
G01*
X5183500Y-9398000D02*
G75*
G03*
X5183500Y-9398000I-40000J0D01*
G01*
X5183500Y-10160000D02*
G75*
G03*
X5183500Y-10160000I-40000J0D01*
G01*
X5183500Y-12001500D02*
G75*
G03*
X5183500Y-12001500I-40000J0D01*
G01*
X5183500Y-12763500D02*
G75*
G03*
X5183500Y-12763500I-40000J0D01*
G01*
X5945500Y-4191000D02*
G75*
G03*
X5945500Y-4191000I-40000J0D01*
G01*
X5945500Y-4953000D02*
G75*
G03*
X5945500Y-4953000I-40000J0D01*
G01*
X5945500Y-6794500D02*
G75*
G03*
X5945500Y-6794500I-40000J0D01*
G01*
X5945500Y-7556500D02*
G75*
G03*
X5945500Y-7556500I-40000J0D01*
G01*
X5945500Y-9398000D02*
G75*
G03*
X5945500Y-9398000I-40000J0D01*
G01*
X5945500Y-10160000D02*
G75*
G03*
X5945500Y-10160000I-40000J0D01*
G01*
X5945500Y-12001500D02*
G75*
G03*
X5945500Y-12001500I-40000J0D01*
G01*
X5945500Y-12763500D02*
G75*
G03*
X5945500Y-12763500I-40000J0D01*
G01*
X6199500Y-4191000D02*
G75*
G03*
X6199500Y-4191000I-40000J0D01*
G01*
X6199500Y-4953000D02*
G75*
G03*
X6199500Y-4953000I-40000J0D01*
G01*
X6199500Y-6794500D02*
G75*
G03*
X6199500Y-6794500I-40000J0D01*
G01*
X6199500Y-7556500D02*
G75*
G03*
X6199500Y-7556500I-40000J0D01*
G01*
X6199500Y-9398000D02*
G75*
G03*
X6199500Y-9398000I-40000J0D01*
G01*
X6199500Y-10160000D02*
G75*
G03*
X6199500Y-10160000I-40000J0D01*
G01*
X6199500Y-12001500D02*
G75*
G03*
X6199500Y-12001500I-40000J0D01*
G01*
X6199500Y-12763500D02*
G75*
G03*
X6199500Y-12763500I-40000J0D01*
G01*
X6453500Y-4191000D02*
G75*
G03*
X6453500Y-4191000I-40000J0D01*
G01*
X6453500Y-4953000D02*
G75*
G03*
X6453500Y-4953000I-40000J0D01*
G01*
X6453500Y-6794500D02*
G75*
G03*
X6453500Y-6794500I-40000J0D01*
G01*
X6453500Y-7556500D02*
G75*
G03*
X6453500Y-7556500I-40000J0D01*
G01*
X6453500Y-9398000D02*
G75*
G03*
X6453500Y-9398000I-40000J0D01*
G01*
X6453500Y-10160000D02*
G75*
G03*
X6453500Y-10160000I-40000J0D01*
G01*
X6453500Y-12001500D02*
G75*
G03*
X6453500Y-12001500I-40000J0D01*
G01*
X6453500Y-12763500D02*
G75*
G03*
X6453500Y-12763500I-40000J0D01*
G01*
X6707500Y-4191000D02*
G75*
G03*
X6707500Y-4191000I-40000J0D01*
G01*
X6707500Y-4953000D02*
G75*
G03*
X6707500Y-4953000I-40000J0D01*
G01*
X6707500Y-6794500D02*
G75*
G03*
X6707500Y-6794500I-40000J0D01*
G01*
X6707500Y-7556500D02*
G75*
G03*
X6707500Y-7556500I-40000J0D01*
G01*
X6707500Y-9398000D02*
G75*
G03*
X6707500Y-9398000I-40000J0D01*
G01*
X6707500Y-10160000D02*
G75*
G03*
X6707500Y-10160000I-40000J0D01*
G01*
X6707500Y-12001500D02*
G75*
G03*
X6707500Y-12001500I-40000J0D01*
G01*
X6707500Y-12763500D02*
G75*
G03*
X6707500Y-12763500I-40000J0D01*
G01*
X6961500Y-4191000D02*
G75*
G03*
X6961500Y-4191000I-40000J0D01*
G01*
X6961500Y-4953000D02*
G75*
G03*
X6961500Y-4953000I-40000J0D01*
G01*
X6961500Y-6794500D02*
G75*
G03*
X6961500Y-6794500I-40000J0D01*
G01*
X6961500Y-7556500D02*
G75*
G03*
X6961500Y-7556500I-40000J0D01*
G01*
X6961500Y-9398000D02*
G75*
G03*
X6961500Y-9398000I-40000J0D01*
G01*
X6961500Y-10160000D02*
G75*
G03*
X6961500Y-10160000I-40000J0D01*
G01*
X6961500Y-12001500D02*
G75*
G03*
X6961500Y-12001500I-40000J0D01*
G01*
X6961500Y-12763500D02*
G75*
G03*
X6961500Y-12763500I-40000J0D01*
G01*
X7215500Y-4191000D02*
G75*
G03*
X7215500Y-4191000I-40000J0D01*
G01*
X7215500Y-4953000D02*
G75*
G03*
X7215500Y-4953000I-40000J0D01*
G01*
X7215500Y-6794500D02*
G75*
G03*
X7215500Y-6794500I-40000J0D01*
G01*
X7215500Y-7556500D02*
G75*
G03*
X7215500Y-7556500I-40000J0D01*
G01*
X7215500Y-9398000D02*
G75*
G03*
X7215500Y-9398000I-40000J0D01*
G01*
X7215500Y-10160000D02*
G75*
G03*
X7215500Y-10160000I-40000J0D01*
G01*
X7215500Y-12001500D02*
G75*
G03*
X7215500Y-12001500I-40000J0D01*
G01*
X7215500Y-12763500D02*
G75*
G03*
X7215500Y-12763500I-40000J0D01*
G01*
X7469500Y-4191000D02*
G75*
G03*
X7469500Y-4191000I-40000J0D01*
G01*
X7469500Y-4953000D02*
G75*
G03*
X7469500Y-4953000I-40000J0D01*
G01*
X7469500Y-6794500D02*
G75*
G03*
X7469500Y-6794500I-40000J0D01*
G01*
X7469500Y-7556500D02*
G75*
G03*
X7469500Y-7556500I-40000J0D01*
G01*
X7469500Y-9398000D02*
G75*
G03*
X7469500Y-9398000I-40000J0D01*
G01*
X7469500Y-10160000D02*
G75*
G03*
X7469500Y-10160000I-40000J0D01*
G01*
X7469500Y-12001500D02*
G75*
G03*
X7469500Y-12001500I-40000J0D01*
G01*
X7469500Y-12763500D02*
G75*
G03*
X7469500Y-12763500I-40000J0D01*
G01*
X8295000Y-4191000D02*
G75*
G03*
X8295000Y-4191000I-40000J0D01*
G01*
X8295000Y-4953000D02*
G75*
G03*
X8295000Y-4953000I-40000J0D01*
G01*
X8295000Y-6794500D02*
G75*
G03*
X8295000Y-6794500I-40000J0D01*
G01*
X8295000Y-7556500D02*
G75*
G03*
X8295000Y-7556500I-40000J0D01*
G01*
X8295000Y-9398000D02*
G75*
G03*
X8295000Y-9398000I-40000J0D01*
G01*
X8295000Y-10160000D02*
G75*
G03*
X8295000Y-10160000I-40000J0D01*
G01*
X8295000Y-12001500D02*
G75*
G03*
X8295000Y-12001500I-40000J0D01*
G01*
X8295000Y-12763500D02*
G75*
G03*
X8295000Y-12763500I-40000J0D01*
G01*
X8549000Y-4191000D02*
G75*
G03*
X8549000Y-4191000I-40000J0D01*
G01*
X8549000Y-4953000D02*
G75*
G03*
X8549000Y-4953000I-40000J0D01*
G01*
X8549000Y-6794500D02*
G75*
G03*
X8549000Y-6794500I-40000J0D01*
G01*
X8549000Y-7556500D02*
G75*
G03*
X8549000Y-7556500I-40000J0D01*
G01*
X8549000Y-9398000D02*
G75*
G03*
X8549000Y-9398000I-40000J0D01*
G01*
X8549000Y-10160000D02*
G75*
G03*
X8549000Y-10160000I-40000J0D01*
G01*
X8549000Y-12001500D02*
G75*
G03*
X8549000Y-12001500I-40000J0D01*
G01*
X8549000Y-12763500D02*
G75*
G03*
X8549000Y-12763500I-40000J0D01*
G01*
X8803000Y-4191000D02*
G75*
G03*
X8803000Y-4191000I-40000J0D01*
G01*
X8803000Y-4953000D02*
G75*
G03*
X8803000Y-4953000I-40000J0D01*
G01*
X8803000Y-6794500D02*
G75*
G03*
X8803000Y-6794500I-40000J0D01*
G01*
X8803000Y-7556500D02*
G75*
G03*
X8803000Y-7556500I-40000J0D01*
G01*
X8803000Y-9398000D02*
G75*
G03*
X8803000Y-9398000I-40000J0D01*
G01*
X8803000Y-10160000D02*
G75*
G03*
X8803000Y-10160000I-40000J0D01*
G01*
X8803000Y-12001500D02*
G75*
G03*
X8803000Y-12001500I-40000J0D01*
G01*
X8803000Y-12763500D02*
G75*
G03*
X8803000Y-12763500I-40000J0D01*
G01*
X9057000Y-4191000D02*
G75*
G03*
X9057000Y-4191000I-40000J0D01*
G01*
X9057000Y-4953000D02*
G75*
G03*
X9057000Y-4953000I-40000J0D01*
G01*
X9057000Y-6794500D02*
G75*
G03*
X9057000Y-6794500I-40000J0D01*
G01*
X9057000Y-7556500D02*
G75*
G03*
X9057000Y-7556500I-40000J0D01*
G01*
X9057000Y-9398000D02*
G75*
G03*
X9057000Y-9398000I-40000J0D01*
G01*
X9057000Y-10160000D02*
G75*
G03*
X9057000Y-10160000I-40000J0D01*
G01*
X9057000Y-12001500D02*
G75*
G03*
X9057000Y-12001500I-40000J0D01*
G01*
X9057000Y-12763500D02*
G75*
G03*
X9057000Y-12763500I-40000J0D01*
G01*
X9311000Y-4191000D02*
G75*
G03*
X9311000Y-4191000I-40000J0D01*
G01*
X9311000Y-4953000D02*
G75*
G03*
X9311000Y-4953000I-40000J0D01*
G01*
X9311000Y-6794500D02*
G75*
G03*
X9311000Y-6794500I-40000J0D01*
G01*
X9311000Y-7556500D02*
G75*
G03*
X9311000Y-7556500I-40000J0D01*
G01*
X9311000Y-9398000D02*
G75*
G03*
X9311000Y-9398000I-40000J0D01*
G01*
X9311000Y-10160000D02*
G75*
G03*
X9311000Y-10160000I-40000J0D01*
G01*
X9311000Y-12001500D02*
G75*
G03*
X9311000Y-12001500I-40000J0D01*
G01*
X9311000Y-12763500D02*
G75*
G03*
X9311000Y-12763500I-40000J0D01*
G01*
X9565000Y-4191000D02*
G75*
G03*
X9565000Y-4191000I-40000J0D01*
G01*
X9565000Y-4953000D02*
G75*
G03*
X9565000Y-4953000I-40000J0D01*
G01*
X9565000Y-6794500D02*
G75*
G03*
X9565000Y-6794500I-40000J0D01*
G01*
X9565000Y-7556500D02*
G75*
G03*
X9565000Y-7556500I-40000J0D01*
G01*
X9565000Y-9398000D02*
G75*
G03*
X9565000Y-9398000I-40000J0D01*
G01*
X9565000Y-10160000D02*
G75*
G03*
X9565000Y-10160000I-40000J0D01*
G01*
X9565000Y-12001500D02*
G75*
G03*
X9565000Y-12001500I-40000J0D01*
G01*
X9565000Y-12763500D02*
G75*
G03*
X9565000Y-12763500I-40000J0D01*
G01*
X9819000Y-4191000D02*
G75*
G03*
X9819000Y-4191000I-40000J0D01*
G01*
X9819000Y-4953000D02*
G75*
G03*
X9819000Y-4953000I-40000J0D01*
G01*
X9819000Y-6794500D02*
G75*
G03*
X9819000Y-6794500I-40000J0D01*
G01*
X9819000Y-7556500D02*
G75*
G03*
X9819000Y-7556500I-40000J0D01*
G01*
X9819000Y-9398000D02*
G75*
G03*
X9819000Y-9398000I-40000J0D01*
G01*
X9819000Y-10160000D02*
G75*
G03*
X9819000Y-10160000I-40000J0D01*
G01*
X9819000Y-12001500D02*
G75*
G03*
X9819000Y-12001500I-40000J0D01*
G01*
X9819000Y-12763500D02*
G75*
G03*
X9819000Y-12763500I-40000J0D01*
G01*
X10327000Y-12001500D02*
G75*
G03*
X10327000Y-12001500I-40000J0D01*
G01*
X10327000Y-12763500D02*
G75*
G03*
X10327000Y-12763500I-40000J0D01*
G01*
X10517500Y-4191000D02*
G75*
G03*
X10517500Y-4191000I-40000J0D01*
G01*
X10517500Y-4953000D02*
G75*
G03*
X10517500Y-4953000I-40000J0D01*
G01*
X10517500Y-6794500D02*
G75*
G03*
X10517500Y-6794500I-40000J0D01*
G01*
X10517500Y-7556500D02*
G75*
G03*
X10517500Y-7556500I-40000J0D01*
G01*
X10517500Y-9398000D02*
G75*
G03*
X10517500Y-9398000I-40000J0D01*
G01*
X10517500Y-10160000D02*
G75*
G03*
X10517500Y-10160000I-40000J0D01*
G01*
X10581000Y-12001500D02*
G75*
G03*
X10581000Y-12001500I-40000J0D01*
G01*
X10581000Y-12763500D02*
G75*
G03*
X10581000Y-12763500I-40000J0D01*
G01*
X10771500Y-4191000D02*
G75*
G03*
X10771500Y-4191000I-40000J0D01*
G01*
X10771500Y-4953000D02*
G75*
G03*
X10771500Y-4953000I-40000J0D01*
G01*
X10771500Y-6794500D02*
G75*
G03*
X10771500Y-6794500I-40000J0D01*
G01*
X10771500Y-7556500D02*
G75*
G03*
X10771500Y-7556500I-40000J0D01*
G01*
X10771500Y-9398000D02*
G75*
G03*
X10771500Y-9398000I-40000J0D01*
G01*
X10771500Y-10160000D02*
G75*
G03*
X10771500Y-10160000I-40000J0D01*
G01*
X10835000Y-12001500D02*
G75*
G03*
X10835000Y-12001500I-40000J0D01*
G01*
X10835000Y-12763500D02*
G75*
G03*
X10835000Y-12763500I-40000J0D01*
G01*
X11025500Y-4191000D02*
G75*
G03*
X11025500Y-4191000I-40000J0D01*
G01*
X11025500Y-4953000D02*
G75*
G03*
X11025500Y-4953000I-40000J0D01*
G01*
X11025500Y-6794500D02*
G75*
G03*
X11025500Y-6794500I-40000J0D01*
G01*
X11025500Y-7556500D02*
G75*
G03*
X11025500Y-7556500I-40000J0D01*
G01*
X11025500Y-9398000D02*
G75*
G03*
X11025500Y-9398000I-40000J0D01*
G01*
X11025500Y-10160000D02*
G75*
G03*
X11025500Y-10160000I-40000J0D01*
G01*
X11089000Y-12001500D02*
G75*
G03*
X11089000Y-12001500I-40000J0D01*
G01*
X11089000Y-12763500D02*
G75*
G03*
X11089000Y-12763500I-40000J0D01*
G01*
X11279500Y-4191000D02*
G75*
G03*
X11279500Y-4191000I-40000J0D01*
G01*
X11279500Y-4953000D02*
G75*
G03*
X11279500Y-4953000I-40000J0D01*
G01*
X11279500Y-6794500D02*
G75*
G03*
X11279500Y-6794500I-40000J0D01*
G01*
X11279500Y-7556500D02*
G75*
G03*
X11279500Y-7556500I-40000J0D01*
G01*
X11279500Y-9398000D02*
G75*
G03*
X11279500Y-9398000I-40000J0D01*
G01*
X11279500Y-10160000D02*
G75*
G03*
X11279500Y-10160000I-40000J0D01*
G01*
X11343000Y-12001500D02*
G75*
G03*
X11343000Y-12001500I-40000J0D01*
G01*
X11343000Y-12763500D02*
G75*
G03*
X11343000Y-12763500I-40000J0D01*
G01*
X11533500Y-4191000D02*
G75*
G03*
X11533500Y-4191000I-40000J0D01*
G01*
X11533500Y-4953000D02*
G75*
G03*
X11533500Y-4953000I-40000J0D01*
G01*
X11533500Y-6794500D02*
G75*
G03*
X11533500Y-6794500I-40000J0D01*
G01*
X11533500Y-7556500D02*
G75*
G03*
X11533500Y-7556500I-40000J0D01*
G01*
X11533500Y-9398000D02*
G75*
G03*
X11533500Y-9398000I-40000J0D01*
G01*
X11533500Y-10160000D02*
G75*
G03*
X11533500Y-10160000I-40000J0D01*
G01*
X11597000Y-12001500D02*
G75*
G03*
X11597000Y-12001500I-40000J0D01*
G01*
X11597000Y-12763500D02*
G75*
G03*
X11597000Y-12763500I-40000J0D01*
G01*
X11787500Y-4191000D02*
G75*
G03*
X11787500Y-4191000I-40000J0D01*
G01*
X11787500Y-4953000D02*
G75*
G03*
X11787500Y-4953000I-40000J0D01*
G01*
X11787500Y-6794500D02*
G75*
G03*
X11787500Y-6794500I-40000J0D01*
G01*
X11787500Y-7556500D02*
G75*
G03*
X11787500Y-7556500I-40000J0D01*
G01*
X11787500Y-9398000D02*
G75*
G03*
X11787500Y-9398000I-40000J0D01*
G01*
X11787500Y-10160000D02*
G75*
G03*
X11787500Y-10160000I-40000J0D01*
G01*
X11851000Y-12001500D02*
G75*
G03*
X11851000Y-12001500I-40000J0D01*
G01*
X11851000Y-12763500D02*
G75*
G03*
X11851000Y-12763500I-40000J0D01*
G01*
X12041500Y-4191000D02*
G75*
G03*
X12041500Y-4191000I-40000J0D01*
G01*
X12041500Y-4953000D02*
G75*
G03*
X12041500Y-4953000I-40000J0D01*
G01*
X12041500Y-6794500D02*
G75*
G03*
X12041500Y-6794500I-40000J0D01*
G01*
X12041500Y-7556500D02*
G75*
G03*
X12041500Y-7556500I-40000J0D01*
G01*
X12041500Y-9398000D02*
G75*
G03*
X12041500Y-9398000I-40000J0D01*
G01*
X12041500Y-10160000D02*
G75*
G03*
X12041500Y-10160000I-40000J0D01*
G01*
X12105000Y-12001500D02*
G75*
G03*
X12105000Y-12001500I-40000J0D01*
G01*
X12105000Y-12763500D02*
G75*
G03*
X12105000Y-12763500I-40000J0D01*
G01*
X12613000Y-12001500D02*
G75*
G03*
X12613000Y-12001500I-40000J0D01*
G01*
X12613000Y-12763500D02*
G75*
G03*
X12613000Y-12763500I-40000J0D01*
G01*
X12867000Y-4191000D02*
G75*
G03*
X12867000Y-4191000I-40000J0D01*
G01*
X12867000Y-4953000D02*
G75*
G03*
X12867000Y-4953000I-40000J0D01*
G01*
X12867000Y-6794500D02*
G75*
G03*
X12867000Y-6794500I-40000J0D01*
G01*
X12867000Y-7556500D02*
G75*
G03*
X12867000Y-7556500I-40000J0D01*
G01*
X12867000Y-9398000D02*
G75*
G03*
X12867000Y-9398000I-40000J0D01*
G01*
X12867000Y-10160000D02*
G75*
G03*
X12867000Y-10160000I-40000J0D01*
G01*
X12867000Y-12001500D02*
G75*
G03*
X12867000Y-12001500I-40000J0D01*
G01*
X12867000Y-12763500D02*
G75*
G03*
X12867000Y-12763500I-40000J0D01*
G01*
X13121000Y-4191000D02*
G75*
G03*
X13121000Y-4191000I-40000J0D01*
G01*
X13121000Y-4953000D02*
G75*
G03*
X13121000Y-4953000I-40000J0D01*
G01*
X13121000Y-6794500D02*
G75*
G03*
X13121000Y-6794500I-40000J0D01*
G01*
X13121000Y-7556500D02*
G75*
G03*
X13121000Y-7556500I-40000J0D01*
G01*
X13121000Y-9398000D02*
G75*
G03*
X13121000Y-9398000I-40000J0D01*
G01*
X13121000Y-10160000D02*
G75*
G03*
X13121000Y-10160000I-40000J0D01*
G01*
X13121000Y-12001500D02*
G75*
G03*
X13121000Y-12001500I-40000J0D01*
G01*
X13121000Y-12763500D02*
G75*
G03*
X13121000Y-12763500I-40000J0D01*
G01*
X13375000Y-4191000D02*
G75*
G03*
X13375000Y-4191000I-40000J0D01*
G01*
X13375000Y-4953000D02*
G75*
G03*
X13375000Y-4953000I-40000J0D01*
G01*
X13375000Y-6794500D02*
G75*
G03*
X13375000Y-6794500I-40000J0D01*
G01*
X13375000Y-7556500D02*
G75*
G03*
X13375000Y-7556500I-40000J0D01*
G01*
X13375000Y-9398000D02*
G75*
G03*
X13375000Y-9398000I-40000J0D01*
G01*
X13375000Y-10160000D02*
G75*
G03*
X13375000Y-10160000I-40000J0D01*
G01*
X13375000Y-12001500D02*
G75*
G03*
X13375000Y-12001500I-40000J0D01*
G01*
X13375000Y-12763500D02*
G75*
G03*
X13375000Y-12763500I-40000J0D01*
G01*
X13629000Y-4191000D02*
G75*
G03*
X13629000Y-4191000I-40000J0D01*
G01*
X13629000Y-4953000D02*
G75*
G03*
X13629000Y-4953000I-40000J0D01*
G01*
X13629000Y-6794500D02*
G75*
G03*
X13629000Y-6794500I-40000J0D01*
G01*
X13629000Y-7556500D02*
G75*
G03*
X13629000Y-7556500I-40000J0D01*
G01*
X13629000Y-9398000D02*
G75*
G03*
X13629000Y-9398000I-40000J0D01*
G01*
X13629000Y-10160000D02*
G75*
G03*
X13629000Y-10160000I-40000J0D01*
G01*
X13629000Y-12001500D02*
G75*
G03*
X13629000Y-12001500I-40000J0D01*
G01*
X13629000Y-12763500D02*
G75*
G03*
X13629000Y-12763500I-40000J0D01*
G01*
X13883000Y-4191000D02*
G75*
G03*
X13883000Y-4191000I-40000J0D01*
G01*
X13883000Y-4953000D02*
G75*
G03*
X13883000Y-4953000I-40000J0D01*
G01*
X13883000Y-6794500D02*
G75*
G03*
X13883000Y-6794500I-40000J0D01*
G01*
X13883000Y-7556500D02*
G75*
G03*
X13883000Y-7556500I-40000J0D01*
G01*
X13883000Y-9398000D02*
G75*
G03*
X13883000Y-9398000I-40000J0D01*
G01*
X13883000Y-10160000D02*
G75*
G03*
X13883000Y-10160000I-40000J0D01*
G01*
X13883000Y-12001500D02*
G75*
G03*
X13883000Y-12001500I-40000J0D01*
G01*
X13883000Y-12763500D02*
G75*
G03*
X13883000Y-12763500I-40000J0D01*
G01*
X14137000Y-4191000D02*
G75*
G03*
X14137000Y-4191000I-40000J0D01*
G01*
X14137000Y-4953000D02*
G75*
G03*
X14137000Y-4953000I-40000J0D01*
G01*
X14137000Y-6794500D02*
G75*
G03*
X14137000Y-6794500I-40000J0D01*
G01*
X14137000Y-7556500D02*
G75*
G03*
X14137000Y-7556500I-40000J0D01*
G01*
X14137000Y-9398000D02*
G75*
G03*
X14137000Y-9398000I-40000J0D01*
G01*
X14137000Y-10160000D02*
G75*
G03*
X14137000Y-10160000I-40000J0D01*
G01*
X14137000Y-12001500D02*
G75*
G03*
X14137000Y-12001500I-40000J0D01*
G01*
X14137000Y-12763500D02*
G75*
G03*
X14137000Y-12763500I-40000J0D01*
G01*
X14391000Y-4191000D02*
G75*
G03*
X14391000Y-4191000I-40000J0D01*
G01*
X14391000Y-4953000D02*
G75*
G03*
X14391000Y-4953000I-40000J0D01*
G01*
X14391000Y-6794500D02*
G75*
G03*
X14391000Y-6794500I-40000J0D01*
G01*
X14391000Y-7556500D02*
G75*
G03*
X14391000Y-7556500I-40000J0D01*
G01*
X14391000Y-9398000D02*
G75*
G03*
X14391000Y-9398000I-40000J0D01*
G01*
X14391000Y-10160000D02*
G75*
G03*
X14391000Y-10160000I-40000J0D01*
G01*
X14391000Y-12001500D02*
G75*
G03*
X14391000Y-12001500I-40000J0D01*
G01*
X14391000Y-12763500D02*
G75*
G03*
X14391000Y-12763500I-40000J0D01*
G01*
X15153000Y-4191000D02*
G75*
G03*
X15153000Y-4191000I-40000J0D01*
G01*
X15153000Y-4953000D02*
G75*
G03*
X15153000Y-4953000I-40000J0D01*
G01*
X15153000Y-6794500D02*
G75*
G03*
X15153000Y-6794500I-40000J0D01*
G01*
X15153000Y-7556500D02*
G75*
G03*
X15153000Y-7556500I-40000J0D01*
G01*
X15153000Y-9398000D02*
G75*
G03*
X15153000Y-9398000I-40000J0D01*
G01*
X15153000Y-10160000D02*
G75*
G03*
X15153000Y-10160000I-40000J0D01*
G01*
X15153000Y-12001500D02*
G75*
G03*
X15153000Y-12001500I-40000J0D01*
G01*
X15153000Y-12763500D02*
G75*
G03*
X15153000Y-12763500I-40000J0D01*
G01*
X15407000Y-4191000D02*
G75*
G03*
X15407000Y-4191000I-40000J0D01*
G01*
X15407000Y-4953000D02*
G75*
G03*
X15407000Y-4953000I-40000J0D01*
G01*
X15407000Y-6794500D02*
G75*
G03*
X15407000Y-6794500I-40000J0D01*
G01*
X15407000Y-7556500D02*
G75*
G03*
X15407000Y-7556500I-40000J0D01*
G01*
X15407000Y-9398000D02*
G75*
G03*
X15407000Y-9398000I-40000J0D01*
G01*
X15407000Y-10160000D02*
G75*
G03*
X15407000Y-10160000I-40000J0D01*
G01*
X15407000Y-12001500D02*
G75*
G03*
X15407000Y-12001500I-40000J0D01*
G01*
X15407000Y-12763500D02*
G75*
G03*
X15407000Y-12763500I-40000J0D01*
G01*
X15661000Y-4191000D02*
G75*
G03*
X15661000Y-4191000I-40000J0D01*
G01*
X15661000Y-4953000D02*
G75*
G03*
X15661000Y-4953000I-40000J0D01*
G01*
X15661000Y-6794500D02*
G75*
G03*
X15661000Y-6794500I-40000J0D01*
G01*
X15661000Y-7556500D02*
G75*
G03*
X15661000Y-7556500I-40000J0D01*
G01*
X15661000Y-9398000D02*
G75*
G03*
X15661000Y-9398000I-40000J0D01*
G01*
X15661000Y-10160000D02*
G75*
G03*
X15661000Y-10160000I-40000J0D01*
G01*
X15661000Y-12001500D02*
G75*
G03*
X15661000Y-12001500I-40000J0D01*
G01*
X15661000Y-12763500D02*
G75*
G03*
X15661000Y-12763500I-40000J0D01*
G01*
X15915000Y-4191000D02*
G75*
G03*
X15915000Y-4191000I-40000J0D01*
G01*
X15915000Y-4953000D02*
G75*
G03*
X15915000Y-4953000I-40000J0D01*
G01*
X15915000Y-6794500D02*
G75*
G03*
X15915000Y-6794500I-40000J0D01*
G01*
X15915000Y-7556500D02*
G75*
G03*
X15915000Y-7556500I-40000J0D01*
G01*
X15915000Y-9398000D02*
G75*
G03*
X15915000Y-9398000I-40000J0D01*
G01*
X15915000Y-10160000D02*
G75*
G03*
X15915000Y-10160000I-40000J0D01*
G01*
X15915000Y-12001500D02*
G75*
G03*
X15915000Y-12001500I-40000J0D01*
G01*
X15915000Y-12763500D02*
G75*
G03*
X15915000Y-12763500I-40000J0D01*
G01*
X16169000Y-4191000D02*
G75*
G03*
X16169000Y-4191000I-40000J0D01*
G01*
X16169000Y-4953000D02*
G75*
G03*
X16169000Y-4953000I-40000J0D01*
G01*
X16169000Y-6794500D02*
G75*
G03*
X16169000Y-6794500I-40000J0D01*
G01*
X16169000Y-7556500D02*
G75*
G03*
X16169000Y-7556500I-40000J0D01*
G01*
X16169000Y-9398000D02*
G75*
G03*
X16169000Y-9398000I-40000J0D01*
G01*
X16169000Y-10160000D02*
G75*
G03*
X16169000Y-10160000I-40000J0D01*
G01*
X16169000Y-12001500D02*
G75*
G03*
X16169000Y-12001500I-40000J0D01*
G01*
X16169000Y-12763500D02*
G75*
G03*
X16169000Y-12763500I-40000J0D01*
G01*
X16423000Y-4191000D02*
G75*
G03*
X16423000Y-4191000I-40000J0D01*
G01*
X16423000Y-4953000D02*
G75*
G03*
X16423000Y-4953000I-40000J0D01*
G01*
X16423000Y-6794500D02*
G75*
G03*
X16423000Y-6794500I-40000J0D01*
G01*
X16423000Y-7556500D02*
G75*
G03*
X16423000Y-7556500I-40000J0D01*
G01*
X16423000Y-9398000D02*
G75*
G03*
X16423000Y-9398000I-40000J0D01*
G01*
X16423000Y-10160000D02*
G75*
G03*
X16423000Y-10160000I-40000J0D01*
G01*
X16423000Y-12001500D02*
G75*
G03*
X16423000Y-12001500I-40000J0D01*
G01*
X16423000Y-12763500D02*
G75*
G03*
X16423000Y-12763500I-40000J0D01*
G01*
X16677000Y-4191000D02*
G75*
G03*
X16677000Y-4191000I-40000J0D01*
G01*
X16677000Y-4953000D02*
G75*
G03*
X16677000Y-4953000I-40000J0D01*
G01*
X16677000Y-6794500D02*
G75*
G03*
X16677000Y-6794500I-40000J0D01*
G01*
X16677000Y-7556500D02*
G75*
G03*
X16677000Y-7556500I-40000J0D01*
G01*
X16677000Y-9398000D02*
G75*
G03*
X16677000Y-9398000I-40000J0D01*
G01*
X16677000Y-10160000D02*
G75*
G03*
X16677000Y-10160000I-40000J0D01*
G01*
X16677000Y-12001500D02*
G75*
G03*
X16677000Y-12001500I-40000J0D01*
G01*
X16677000Y-12763500D02*
G75*
G03*
X16677000Y-12763500I-40000J0D01*
G01*
X16931000Y-6794500D02*
G75*
G03*
X16931000Y-6794500I-40000J0D01*
G01*
X16931000Y-7556500D02*
G75*
G03*
X16931000Y-7556500I-40000J0D01*
G01*
X16931000Y-12001500D02*
G75*
G03*
X16931000Y-12001500I-40000J0D01*
G01*
X16931000Y-12763500D02*
G75*
G03*
X16931000Y-12763500I-40000J0D01*
G01*
X17439000Y-4191000D02*
G75*
G03*
X17439000Y-4191000I-40000J0D01*
G01*
X17439000Y-4953000D02*
G75*
G03*
X17439000Y-4953000I-40000J0D01*
G01*
X17439000Y-6794500D02*
G75*
G03*
X17439000Y-6794500I-40000J0D01*
G01*
X17439000Y-7556500D02*
G75*
G03*
X17439000Y-7556500I-40000J0D01*
G01*
X17439000Y-9398000D02*
G75*
G03*
X17439000Y-9398000I-40000J0D01*
G01*
X17439000Y-10160000D02*
G75*
G03*
X17439000Y-10160000I-40000J0D01*
G01*
X17439000Y-12001500D02*
G75*
G03*
X17439000Y-12001500I-40000J0D01*
G01*
X17439000Y-12763500D02*
G75*
G03*
X17439000Y-12763500I-40000J0D01*
G01*
X17693000Y-4191000D02*
G75*
G03*
X17693000Y-4191000I-40000J0D01*
G01*
X17693000Y-4953000D02*
G75*
G03*
X17693000Y-4953000I-40000J0D01*
G01*
X17693000Y-6794500D02*
G75*
G03*
X17693000Y-6794500I-40000J0D01*
G01*
X17693000Y-7556500D02*
G75*
G03*
X17693000Y-7556500I-40000J0D01*
G01*
X17693000Y-9398000D02*
G75*
G03*
X17693000Y-9398000I-40000J0D01*
G01*
X17693000Y-10160000D02*
G75*
G03*
X17693000Y-10160000I-40000J0D01*
G01*
X17693000Y-12001500D02*
G75*
G03*
X17693000Y-12001500I-40000J0D01*
G01*
X17693000Y-12763500D02*
G75*
G03*
X17693000Y-12763500I-40000J0D01*
G01*
X17947000Y-4191000D02*
G75*
G03*
X17947000Y-4191000I-40000J0D01*
G01*
X17947000Y-4953000D02*
G75*
G03*
X17947000Y-4953000I-40000J0D01*
G01*
X17947000Y-6794500D02*
G75*
G03*
X17947000Y-6794500I-40000J0D01*
G01*
X17947000Y-7556500D02*
G75*
G03*
X17947000Y-7556500I-40000J0D01*
G01*
X17947000Y-9398000D02*
G75*
G03*
X17947000Y-9398000I-40000J0D01*
G01*
X17947000Y-10160000D02*
G75*
G03*
X17947000Y-10160000I-40000J0D01*
G01*
X17947000Y-12001500D02*
G75*
G03*
X17947000Y-12001500I-40000J0D01*
G01*
X17947000Y-12763500D02*
G75*
G03*
X17947000Y-12763500I-40000J0D01*
G01*
X18201000Y-4191000D02*
G75*
G03*
X18201000Y-4191000I-40000J0D01*
G01*
X18201000Y-4953000D02*
G75*
G03*
X18201000Y-4953000I-40000J0D01*
G01*
X18201000Y-6794500D02*
G75*
G03*
X18201000Y-6794500I-40000J0D01*
G01*
X18201000Y-7556500D02*
G75*
G03*
X18201000Y-7556500I-40000J0D01*
G01*
X18201000Y-9398000D02*
G75*
G03*
X18201000Y-9398000I-40000J0D01*
G01*
X18201000Y-10160000D02*
G75*
G03*
X18201000Y-10160000I-40000J0D01*
G01*
X18201000Y-12001500D02*
G75*
G03*
X18201000Y-12001500I-40000J0D01*
G01*
X18201000Y-12763500D02*
G75*
G03*
X18201000Y-12763500I-40000J0D01*
G01*
X18455000Y-4191000D02*
G75*
G03*
X18455000Y-4191000I-40000J0D01*
G01*
X18455000Y-4953000D02*
G75*
G03*
X18455000Y-4953000I-40000J0D01*
G01*
X18455000Y-6794500D02*
G75*
G03*
X18455000Y-6794500I-40000J0D01*
G01*
X18455000Y-7556500D02*
G75*
G03*
X18455000Y-7556500I-40000J0D01*
G01*
X18455000Y-9398000D02*
G75*
G03*
X18455000Y-9398000I-40000J0D01*
G01*
X18455000Y-10160000D02*
G75*
G03*
X18455000Y-10160000I-40000J0D01*
G01*
X18455000Y-12001500D02*
G75*
G03*
X18455000Y-12001500I-40000J0D01*
G01*
X18455000Y-12763500D02*
G75*
G03*
X18455000Y-12763500I-40000J0D01*
G01*
X18709000Y-4191000D02*
G75*
G03*
X18709000Y-4191000I-40000J0D01*
G01*
X18709000Y-4953000D02*
G75*
G03*
X18709000Y-4953000I-40000J0D01*
G01*
X18709000Y-6794500D02*
G75*
G03*
X18709000Y-6794500I-40000J0D01*
G01*
X18709000Y-7556500D02*
G75*
G03*
X18709000Y-7556500I-40000J0D01*
G01*
X18709000Y-9398000D02*
G75*
G03*
X18709000Y-9398000I-40000J0D01*
G01*
X18709000Y-10160000D02*
G75*
G03*
X18709000Y-10160000I-40000J0D01*
G01*
X18709000Y-12001500D02*
G75*
G03*
X18709000Y-12001500I-40000J0D01*
G01*
X18709000Y-12763500D02*
G75*
G03*
X18709000Y-12763500I-40000J0D01*
G01*
X18963000Y-4191000D02*
G75*
G03*
X18963000Y-4191000I-40000J0D01*
G01*
X18963000Y-4953000D02*
G75*
G03*
X18963000Y-4953000I-40000J0D01*
G01*
X18963000Y-6794500D02*
G75*
G03*
X18963000Y-6794500I-40000J0D01*
G01*
X18963000Y-7556500D02*
G75*
G03*
X18963000Y-7556500I-40000J0D01*
G01*
X18963000Y-9398000D02*
G75*
G03*
X18963000Y-9398000I-40000J0D01*
G01*
X18963000Y-10160000D02*
G75*
G03*
X18963000Y-10160000I-40000J0D01*
G01*
X18963000Y-12001500D02*
G75*
G03*
X18963000Y-12001500I-40000J0D01*
G01*
X18963000Y-12763500D02*
G75*
G03*
X18963000Y-12763500I-40000J0D01*
G01*
X19217000Y-9398000D02*
G75*
G03*
X19217000Y-9398000I-40000J0D01*
G01*
X19217000Y-10160000D02*
G75*
G03*
X19217000Y-10160000I-40000J0D01*
G01*
X19217000Y-12001500D02*
G75*
G03*
X19217000Y-12001500I-40000J0D01*
G01*
X19217000Y-12763500D02*
G75*
G03*
X19217000Y-12763500I-40000J0D01*
G01*
X19725000Y-6794500D02*
G75*
G03*
X19725000Y-6794500I-40000J0D01*
G01*
X19725000Y-7556500D02*
G75*
G03*
X19725000Y-7556500I-40000J0D01*
G01*
X19725000Y-9398000D02*
G75*
G03*
X19725000Y-9398000I-40000J0D01*
G01*
X19725000Y-10160000D02*
G75*
G03*
X19725000Y-10160000I-40000J0D01*
G01*
X19725000Y-12001500D02*
G75*
G03*
X19725000Y-12001500I-40000J0D01*
G01*
X19725000Y-12763500D02*
G75*
G03*
X19725000Y-12763500I-40000J0D01*
G01*
X19979000Y-6794500D02*
G75*
G03*
X19979000Y-6794500I-40000J0D01*
G01*
X19979000Y-7556500D02*
G75*
G03*
X19979000Y-7556500I-40000J0D01*
G01*
X19979000Y-9398000D02*
G75*
G03*
X19979000Y-9398000I-40000J0D01*
G01*
X19979000Y-10160000D02*
G75*
G03*
X19979000Y-10160000I-40000J0D01*
G01*
X19979000Y-12001500D02*
G75*
G03*
X19979000Y-12001500I-40000J0D01*
G01*
X19979000Y-12763500D02*
G75*
G03*
X19979000Y-12763500I-40000J0D01*
G01*
X20233000Y-6794500D02*
G75*
G03*
X20233000Y-6794500I-40000J0D01*
G01*
X20233000Y-7556500D02*
G75*
G03*
X20233000Y-7556500I-40000J0D01*
G01*
X20233000Y-9398000D02*
G75*
G03*
X20233000Y-9398000I-40000J0D01*
G01*
X20233000Y-10160000D02*
G75*
G03*
X20233000Y-10160000I-40000J0D01*
G01*
X20233000Y-12001500D02*
G75*
G03*
X20233000Y-12001500I-40000J0D01*
G01*
X20233000Y-12763500D02*
G75*
G03*
X20233000Y-12763500I-40000J0D01*
G01*
X20487000Y-6794500D02*
G75*
G03*
X20487000Y-6794500I-40000J0D01*
G01*
X20487000Y-7556500D02*
G75*
G03*
X20487000Y-7556500I-40000J0D01*
G01*
X20487000Y-9398000D02*
G75*
G03*
X20487000Y-9398000I-40000J0D01*
G01*
X20487000Y-10160000D02*
G75*
G03*
X20487000Y-10160000I-40000J0D01*
G01*
X20487000Y-12001500D02*
G75*
G03*
X20487000Y-12001500I-40000J0D01*
G01*
X20487000Y-12763500D02*
G75*
G03*
X20487000Y-12763500I-40000J0D01*
G01*
X20741000Y-6794500D02*
G75*
G03*
X20741000Y-6794500I-40000J0D01*
G01*
X20741000Y-7556500D02*
G75*
G03*
X20741000Y-7556500I-40000J0D01*
G01*
X20741000Y-9398000D02*
G75*
G03*
X20741000Y-9398000I-40000J0D01*
G01*
X20741000Y-10160000D02*
G75*
G03*
X20741000Y-10160000I-40000J0D01*
G01*
X20741000Y-12001500D02*
G75*
G03*
X20741000Y-12001500I-40000J0D01*
G01*
X20741000Y-12763500D02*
G75*
G03*
X20741000Y-12763500I-40000J0D01*
G01*
X20995000Y-6794500D02*
G75*
G03*
X20995000Y-6794500I-40000J0D01*
G01*
X20995000Y-7556500D02*
G75*
G03*
X20995000Y-7556500I-40000J0D01*
G01*
X20995000Y-9398000D02*
G75*
G03*
X20995000Y-9398000I-40000J0D01*
G01*
X20995000Y-10160000D02*
G75*
G03*
X20995000Y-10160000I-40000J0D01*
G01*
X20995000Y-12001500D02*
G75*
G03*
X20995000Y-12001500I-40000J0D01*
G01*
X20995000Y-12763500D02*
G75*
G03*
X20995000Y-12763500I-40000J0D01*
G01*
X21249000Y-6794500D02*
G75*
G03*
X21249000Y-6794500I-40000J0D01*
G01*
X21249000Y-7556500D02*
G75*
G03*
X21249000Y-7556500I-40000J0D01*
G01*
X21249000Y-9398000D02*
G75*
G03*
X21249000Y-9398000I-40000J0D01*
G01*
X21249000Y-10160000D02*
G75*
G03*
X21249000Y-10160000I-40000J0D01*
G01*
X21249000Y-12001500D02*
G75*
G03*
X21249000Y-12001500I-40000J0D01*
G01*
X21249000Y-12763500D02*
G75*
G03*
X21249000Y-12763500I-40000J0D01*
G01*
X21503000Y-12001500D02*
G75*
G03*
X21503000Y-12001500I-40000J0D01*
G01*
X21503000Y-12763500D02*
G75*
G03*
X21503000Y-12763500I-40000J0D01*
G01*
X22011000Y-6794500D02*
G75*
G03*
X22011000Y-6794500I-40000J0D01*
G01*
X22011000Y-7556500D02*
G75*
G03*
X22011000Y-7556500I-40000J0D01*
G01*
X22011000Y-9398000D02*
G75*
G03*
X22011000Y-9398000I-40000J0D01*
G01*
X22011000Y-10160000D02*
G75*
G03*
X22011000Y-10160000I-40000J0D01*
G01*
X22011000Y-12001500D02*
G75*
G03*
X22011000Y-12001500I-40000J0D01*
G01*
X22011000Y-12763500D02*
G75*
G03*
X22011000Y-12763500I-40000J0D01*
G01*
X22265000Y-6794500D02*
G75*
G03*
X22265000Y-6794500I-40000J0D01*
G01*
X22265000Y-7556500D02*
G75*
G03*
X22265000Y-7556500I-40000J0D01*
G01*
X22265000Y-9398000D02*
G75*
G03*
X22265000Y-9398000I-40000J0D01*
G01*
X22265000Y-10160000D02*
G75*
G03*
X22265000Y-10160000I-40000J0D01*
G01*
X22265000Y-12001500D02*
G75*
G03*
X22265000Y-12001500I-40000J0D01*
G01*
X22265000Y-12763500D02*
G75*
G03*
X22265000Y-12763500I-40000J0D01*
G01*
X22519000Y-6794500D02*
G75*
G03*
X22519000Y-6794500I-40000J0D01*
G01*
X22519000Y-7556500D02*
G75*
G03*
X22519000Y-7556500I-40000J0D01*
G01*
X22519000Y-9398000D02*
G75*
G03*
X22519000Y-9398000I-40000J0D01*
G01*
X22519000Y-10160000D02*
G75*
G03*
X22519000Y-10160000I-40000J0D01*
G01*
X22519000Y-12001500D02*
G75*
G03*
X22519000Y-12001500I-40000J0D01*
G01*
X22519000Y-12763500D02*
G75*
G03*
X22519000Y-12763500I-40000J0D01*
G01*
X22773000Y-6794500D02*
G75*
G03*
X22773000Y-6794500I-40000J0D01*
G01*
X22773000Y-7556500D02*
G75*
G03*
X22773000Y-7556500I-40000J0D01*
G01*
X22773000Y-9398000D02*
G75*
G03*
X22773000Y-9398000I-40000J0D01*
G01*
X22773000Y-10160000D02*
G75*
G03*
X22773000Y-10160000I-40000J0D01*
G01*
X22773000Y-12001500D02*
G75*
G03*
X22773000Y-12001500I-40000J0D01*
G01*
X22773000Y-12763500D02*
G75*
G03*
X22773000Y-12763500I-40000J0D01*
G01*
X23027000Y-6794500D02*
G75*
G03*
X23027000Y-6794500I-40000J0D01*
G01*
X23027000Y-7556500D02*
G75*
G03*
X23027000Y-7556500I-40000J0D01*
G01*
X23027000Y-9398000D02*
G75*
G03*
X23027000Y-9398000I-40000J0D01*
G01*
X23027000Y-10160000D02*
G75*
G03*
X23027000Y-10160000I-40000J0D01*
G01*
X23027000Y-12001500D02*
G75*
G03*
X23027000Y-12001500I-40000J0D01*
G01*
X23027000Y-12763500D02*
G75*
G03*
X23027000Y-12763500I-40000J0D01*
G01*
X23281000Y-6794500D02*
G75*
G03*
X23281000Y-6794500I-40000J0D01*
G01*
X23281000Y-7556500D02*
G75*
G03*
X23281000Y-7556500I-40000J0D01*
G01*
X23281000Y-9398000D02*
G75*
G03*
X23281000Y-9398000I-40000J0D01*
G01*
X23281000Y-10160000D02*
G75*
G03*
X23281000Y-10160000I-40000J0D01*
G01*
X23281000Y-12001500D02*
G75*
G03*
X23281000Y-12001500I-40000J0D01*
G01*
X23281000Y-12763500D02*
G75*
G03*
X23281000Y-12763500I-40000J0D01*
G01*
X23535000Y-6794500D02*
G75*
G03*
X23535000Y-6794500I-40000J0D01*
G01*
X23535000Y-7556500D02*
G75*
G03*
X23535000Y-7556500I-40000J0D01*
G01*
X23535000Y-9398000D02*
G75*
G03*
X23535000Y-9398000I-40000J0D01*
G01*
X23535000Y-10160000D02*
G75*
G03*
X23535000Y-10160000I-40000J0D01*
G01*
X23535000Y-12001500D02*
G75*
G03*
X23535000Y-12001500I-40000J0D01*
G01*
X23535000Y-12763500D02*
G75*
G03*
X23535000Y-12763500I-40000J0D01*
G01*
X23789000Y-9398000D02*
G75*
G03*
X23789000Y-9398000I-40000J0D01*
G01*
X23789000Y-10160000D02*
G75*
G03*
X23789000Y-10160000I-40000J0D01*
G01*
X24297000Y-6794500D02*
G75*
G03*
X24297000Y-6794500I-40000J0D01*
G01*
X24297000Y-7556500D02*
G75*
G03*
X24297000Y-7556500I-40000J0D01*
G01*
X24297000Y-9398000D02*
G75*
G03*
X24297000Y-9398000I-40000J0D01*
G01*
X24297000Y-10160000D02*
G75*
G03*
X24297000Y-10160000I-40000J0D01*
G01*
X24297000Y-10731500D02*
G75*
G03*
X24297000Y-10731500I-40000J0D01*
G01*
X24297000Y-11493500D02*
G75*
G03*
X24297000Y-11493500I-40000J0D01*
G01*
X24297000Y-12001500D02*
G75*
G03*
X24297000Y-12001500I-40000J0D01*
G01*
X24297000Y-12763500D02*
G75*
G03*
X24297000Y-12763500I-40000J0D01*
G01*
X24551000Y-6794500D02*
G75*
G03*
X24551000Y-6794500I-40000J0D01*
G01*
X24551000Y-7556500D02*
G75*
G03*
X24551000Y-7556500I-40000J0D01*
G01*
X24551000Y-9398000D02*
G75*
G03*
X24551000Y-9398000I-40000J0D01*
G01*
X24551000Y-10160000D02*
G75*
G03*
X24551000Y-10160000I-40000J0D01*
G01*
X24551000Y-10731500D02*
G75*
G03*
X24551000Y-10731500I-40000J0D01*
G01*
X24551000Y-11493500D02*
G75*
G03*
X24551000Y-11493500I-40000J0D01*
G01*
X24551000Y-12001500D02*
G75*
G03*
X24551000Y-12001500I-40000J0D01*
G01*
X24551000Y-12763500D02*
G75*
G03*
X24551000Y-12763500I-40000J0D01*
G01*
X24805000Y-6794500D02*
G75*
G03*
X24805000Y-6794500I-40000J0D01*
G01*
X24805000Y-7556500D02*
G75*
G03*
X24805000Y-7556500I-40000J0D01*
G01*
X24805000Y-9398000D02*
G75*
G03*
X24805000Y-9398000I-40000J0D01*
G01*
X24805000Y-10160000D02*
G75*
G03*
X24805000Y-10160000I-40000J0D01*
G01*
X24805000Y-10731500D02*
G75*
G03*
X24805000Y-10731500I-40000J0D01*
G01*
X24805000Y-11493500D02*
G75*
G03*
X24805000Y-11493500I-40000J0D01*
G01*
X24805000Y-12001500D02*
G75*
G03*
X24805000Y-12001500I-40000J0D01*
G01*
X24805000Y-12763500D02*
G75*
G03*
X24805000Y-12763500I-40000J0D01*
G01*
X25059000Y-6794500D02*
G75*
G03*
X25059000Y-6794500I-40000J0D01*
G01*
X25059000Y-7556500D02*
G75*
G03*
X25059000Y-7556500I-40000J0D01*
G01*
X25059000Y-9398000D02*
G75*
G03*
X25059000Y-9398000I-40000J0D01*
G01*
X25059000Y-10160000D02*
G75*
G03*
X25059000Y-10160000I-40000J0D01*
G01*
X25059000Y-10731500D02*
G75*
G03*
X25059000Y-10731500I-40000J0D01*
G01*
X25059000Y-11493500D02*
G75*
G03*
X25059000Y-11493500I-40000J0D01*
G01*
X25059000Y-12001500D02*
G75*
G03*
X25059000Y-12001500I-40000J0D01*
G01*
X25059000Y-12763500D02*
G75*
G03*
X25059000Y-12763500I-40000J0D01*
G01*
X25313000Y-6794500D02*
G75*
G03*
X25313000Y-6794500I-40000J0D01*
G01*
X25313000Y-7556500D02*
G75*
G03*
X25313000Y-7556500I-40000J0D01*
G01*
X25313000Y-9398000D02*
G75*
G03*
X25313000Y-9398000I-40000J0D01*
G01*
X25313000Y-10160000D02*
G75*
G03*
X25313000Y-10160000I-40000J0D01*
G01*
X25313000Y-10731500D02*
G75*
G03*
X25313000Y-10731500I-40000J0D01*
G01*
X25313000Y-11493500D02*
G75*
G03*
X25313000Y-11493500I-40000J0D01*
G01*
X25313000Y-12001500D02*
G75*
G03*
X25313000Y-12001500I-40000J0D01*
G01*
X25313000Y-12763500D02*
G75*
G03*
X25313000Y-12763500I-40000J0D01*
G01*
X25567000Y-6794500D02*
G75*
G03*
X25567000Y-6794500I-40000J0D01*
G01*
X25567000Y-7556500D02*
G75*
G03*
X25567000Y-7556500I-40000J0D01*
G01*
X25567000Y-9398000D02*
G75*
G03*
X25567000Y-9398000I-40000J0D01*
G01*
X25567000Y-10160000D02*
G75*
G03*
X25567000Y-10160000I-40000J0D01*
G01*
X25567000Y-10731500D02*
G75*
G03*
X25567000Y-10731500I-40000J0D01*
G01*
X25567000Y-11493500D02*
G75*
G03*
X25567000Y-11493500I-40000J0D01*
G01*
X25567000Y-12001500D02*
G75*
G03*
X25567000Y-12001500I-40000J0D01*
G01*
X25567000Y-12763500D02*
G75*
G03*
X25567000Y-12763500I-40000J0D01*
G01*
X25821000Y-6794500D02*
G75*
G03*
X25821000Y-6794500I-40000J0D01*
G01*
X25821000Y-7556500D02*
G75*
G03*
X25821000Y-7556500I-40000J0D01*
G01*
X25821000Y-9398000D02*
G75*
G03*
X25821000Y-9398000I-40000J0D01*
G01*
X25821000Y-10160000D02*
G75*
G03*
X25821000Y-10160000I-40000J0D01*
G01*
X25821000Y-10731500D02*
G75*
G03*
X25821000Y-10731500I-40000J0D01*
G01*
X25821000Y-11493500D02*
G75*
G03*
X25821000Y-11493500I-40000J0D01*
G01*
X25821000Y-12001500D02*
G75*
G03*
X25821000Y-12001500I-40000J0D01*
G01*
X25821000Y-12763500D02*
G75*
G03*
X25821000Y-12763500I-40000J0D01*
G01*
X26075000Y-9398000D02*
G75*
G03*
X26075000Y-9398000I-40000J0D01*
G01*
X26075000Y-10160000D02*
G75*
G03*
X26075000Y-10160000I-40000J0D01*
G01*
X26075000Y-10731500D02*
G75*
G03*
X26075000Y-10731500I-40000J0D01*
G01*
X26075000Y-11493500D02*
G75*
G03*
X26075000Y-11493500I-40000J0D01*
G01*
X26075000Y-12001500D02*
G75*
G03*
X26075000Y-12001500I-40000J0D01*
G01*
X26075000Y-12763500D02*
G75*
G03*
X26075000Y-12763500I-40000J0D01*
G01*
X3619500Y-6007000D02*
X3619500Y-6117000D01*
X3564500Y-6062000D02*
X3674500Y-6062000D01*
X3873500Y-5787000D02*
X3873500Y-5897000D01*
X3818500Y-5842000D02*
X3928500Y-5842000D01*
X4127500Y-6007000D02*
X4127500Y-6117000D01*
X4072500Y-6062000D02*
X4182500Y-6062000D01*
X2774764Y-2901764D02*
X2774764Y-2686236D01*
X2559236Y-2686236D01*
X2559236Y-2901764D01*
X2774764Y-2901764D01*
X26904764Y-2901764D02*
X26904764Y-2686236D01*
X26689236Y-2686236D01*
X26689236Y-2901764D01*
X26904764Y-2901764D01*
D12*
X2310808Y-16221334D02*
X2310808Y-15921334D01*
X2382237Y-15921334D01*
X2425094Y-15935620D01*
X2453666Y-15964191D01*
X2467951Y-15992763D01*
X2482237Y-16049906D01*
X2482237Y-16092763D01*
X2467951Y-16149906D01*
X2453666Y-16178477D01*
X2425094Y-16207049D01*
X2382237Y-16221334D01*
X2310808Y-16221334D01*
X2610808Y-16221334D02*
X2610808Y-16021334D01*
X2610808Y-16078477D02*
X2625094Y-16049906D01*
X2639380Y-16035620D01*
X2667951Y-16021334D01*
X2696523Y-16021334D01*
X2796523Y-16221334D02*
X2796523Y-16021334D01*
X2796523Y-15921334D02*
X2782237Y-15935620D01*
X2796523Y-15949906D01*
X2810808Y-15935620D01*
X2796523Y-15921334D01*
X2796523Y-15949906D01*
X2982237Y-16221334D02*
X2953666Y-16207049D01*
X2939380Y-16178477D01*
X2939380Y-15921334D01*
X3139380Y-16221334D02*
X3110808Y-16207049D01*
X3096523Y-16178477D01*
X3096523Y-15921334D01*
X3482237Y-16221334D02*
X3482237Y-15921334D01*
X3582237Y-16135620D01*
X3682237Y-15921334D01*
X3682237Y-16221334D01*
X3953666Y-16221334D02*
X3953666Y-16064191D01*
X3939380Y-16035620D01*
X3910808Y-16021334D01*
X3853666Y-16021334D01*
X3825094Y-16035620D01*
X3953666Y-16207049D02*
X3925094Y-16221334D01*
X3853666Y-16221334D01*
X3825094Y-16207049D01*
X3810808Y-16178477D01*
X3810808Y-16149906D01*
X3825094Y-16121334D01*
X3853666Y-16107049D01*
X3925094Y-16107049D01*
X3953666Y-16092763D01*
X4096523Y-16021334D02*
X4096523Y-16321334D01*
X4096523Y-16035620D02*
X4125094Y-16021334D01*
X4182237Y-16021334D01*
X4210808Y-16035620D01*
X4225094Y-16049906D01*
X4239380Y-16078477D01*
X4239380Y-16164191D01*
X4225094Y-16192763D01*
X4210808Y-16207049D01*
X4182237Y-16221334D01*
X4125094Y-16221334D01*
X4096523Y-16207049D01*
X4367951Y-16192763D02*
X4382237Y-16207049D01*
X4367951Y-16221334D01*
X4353666Y-16207049D01*
X4367951Y-16192763D01*
X4367951Y-16221334D01*
X4367951Y-16035620D02*
X4382237Y-16049906D01*
X4367951Y-16064191D01*
X4353666Y-16049906D01*
X4367951Y-16035620D01*
X4367951Y-16064191D01*
X1968500Y-16687680D02*
X2024380Y-16743560D01*
X2024380Y-16687680D02*
X1968500Y-16743560D01*
X2367951Y-16551334D02*
X2396523Y-16551334D01*
X2425094Y-16565620D01*
X2439380Y-16579906D01*
X2453666Y-16608477D01*
X2467951Y-16665620D01*
X2467951Y-16737049D01*
X2453666Y-16794192D01*
X2439380Y-16822763D01*
X2425094Y-16837049D01*
X2396523Y-16851334D01*
X2367951Y-16851334D01*
X2339380Y-16837049D01*
X2325094Y-16822763D01*
X2310808Y-16794192D01*
X2296523Y-16737049D01*
X2296523Y-16665620D01*
X2310808Y-16608477D01*
X2325094Y-16579906D01*
X2339380Y-16565620D01*
X2367951Y-16551334D01*
X2596523Y-16822763D02*
X2610808Y-16837049D01*
X2596523Y-16851334D01*
X2582237Y-16837049D01*
X2596523Y-16822763D01*
X2596523Y-16851334D01*
X2882237Y-16551334D02*
X2739380Y-16551334D01*
X2725094Y-16694191D01*
X2739380Y-16679906D01*
X2767951Y-16665620D01*
X2839380Y-16665620D01*
X2867951Y-16679906D01*
X2882237Y-16694191D01*
X2896523Y-16722763D01*
X2896523Y-16794192D01*
X2882237Y-16822763D01*
X2867951Y-16837049D01*
X2839380Y-16851334D01*
X2767951Y-16851334D01*
X2739380Y-16837049D01*
X2725094Y-16822763D01*
X3167951Y-16551334D02*
X3025094Y-16551334D01*
X3010808Y-16694191D01*
X3025094Y-16679906D01*
X3053666Y-16665620D01*
X3125094Y-16665620D01*
X3153666Y-16679906D01*
X3167951Y-16694191D01*
X3182237Y-16722763D01*
X3182237Y-16794192D01*
X3167951Y-16822763D01*
X3153666Y-16837049D01*
X3125094Y-16851334D01*
X3053666Y-16851334D01*
X3025094Y-16837049D01*
X3010808Y-16822763D01*
X3325094Y-16851334D02*
X3382237Y-16851334D01*
X3410808Y-16837049D01*
X3425094Y-16822763D01*
X3453666Y-16779906D01*
X3467951Y-16722763D01*
X3467951Y-16608477D01*
X3453666Y-16579906D01*
X3439380Y-16565620D01*
X3410808Y-16551334D01*
X3353666Y-16551334D01*
X3325094Y-16565620D01*
X3310808Y-16579906D01*
X3296523Y-16608477D01*
X3296523Y-16679906D01*
X3310808Y-16708477D01*
X3325094Y-16722763D01*
X3353666Y-16737049D01*
X3410808Y-16737049D01*
X3439380Y-16722763D01*
X3453666Y-16708477D01*
X3467951Y-16679906D01*
X3596523Y-16851334D02*
X3596523Y-16651334D01*
X3596523Y-16679906D02*
X3610808Y-16665620D01*
X3639380Y-16651334D01*
X3682237Y-16651334D01*
X3710808Y-16665620D01*
X3725094Y-16694191D01*
X3725094Y-16851334D01*
X3725094Y-16694191D02*
X3739380Y-16665620D01*
X3767951Y-16651334D01*
X3810808Y-16651334D01*
X3839380Y-16665620D01*
X3853666Y-16694191D01*
X3853666Y-16851334D01*
X3996523Y-16851334D02*
X3996523Y-16651334D01*
X3996523Y-16679906D02*
X4010808Y-16665620D01*
X4039380Y-16651334D01*
X4082237Y-16651334D01*
X4110808Y-16665620D01*
X4125094Y-16694191D01*
X4125094Y-16851334D01*
X4125094Y-16694191D02*
X4139380Y-16665620D01*
X4167951Y-16651334D01*
X4210808Y-16651334D01*
X4239380Y-16665620D01*
X4253666Y-16694191D01*
X4253666Y-16851334D01*
X4839380Y-16537049D02*
X4582237Y-16922763D01*
X5225094Y-16551334D02*
X5253666Y-16551334D01*
X5282237Y-16565620D01*
X5296523Y-16579906D01*
X5310808Y-16608477D01*
X5325094Y-16665620D01*
X5325094Y-16737049D01*
X5310808Y-16794192D01*
X5296523Y-16822763D01*
X5282237Y-16837049D01*
X5253666Y-16851334D01*
X5225094Y-16851334D01*
X5196523Y-16837049D01*
X5182237Y-16822763D01*
X5167951Y-16794192D01*
X5153666Y-16737049D01*
X5153666Y-16665620D01*
X5167951Y-16608477D01*
X5182237Y-16579906D01*
X5196523Y-16565620D01*
X5225094Y-16551334D01*
X5453666Y-16822763D02*
X5467951Y-16837049D01*
X5453666Y-16851334D01*
X5439380Y-16837049D01*
X5453666Y-16822763D01*
X5453666Y-16851334D01*
X5653666Y-16551334D02*
X5682237Y-16551334D01*
X5710808Y-16565620D01*
X5725094Y-16579906D01*
X5739380Y-16608477D01*
X5753666Y-16665620D01*
X5753666Y-16737049D01*
X5739380Y-16794192D01*
X5725094Y-16822763D01*
X5710808Y-16837049D01*
X5682237Y-16851334D01*
X5653666Y-16851334D01*
X5625094Y-16837049D01*
X5610808Y-16822763D01*
X5596523Y-16794192D01*
X5582237Y-16737049D01*
X5582237Y-16665620D01*
X5596523Y-16608477D01*
X5610808Y-16579906D01*
X5625094Y-16565620D01*
X5653666Y-16551334D01*
X5867951Y-16579906D02*
X5882237Y-16565620D01*
X5910808Y-16551334D01*
X5982237Y-16551334D01*
X6010808Y-16565620D01*
X6025094Y-16579906D01*
X6039380Y-16608477D01*
X6039380Y-16637049D01*
X6025094Y-16679906D01*
X5853666Y-16851334D01*
X6039380Y-16851334D01*
X6153666Y-16579906D02*
X6167951Y-16565620D01*
X6196523Y-16551334D01*
X6267951Y-16551334D01*
X6296523Y-16565620D01*
X6310808Y-16579906D01*
X6325094Y-16608477D01*
X6325094Y-16637049D01*
X6310808Y-16679906D01*
X6139380Y-16851334D01*
X6325094Y-16851334D01*
X6510808Y-16551334D02*
X6539380Y-16551334D01*
X6567951Y-16565620D01*
X6582237Y-16579906D01*
X6596523Y-16608477D01*
X6610808Y-16665620D01*
X6610808Y-16737049D01*
X6596523Y-16794192D01*
X6582237Y-16822763D01*
X6567951Y-16837049D01*
X6539380Y-16851334D01*
X6510808Y-16851334D01*
X6482237Y-16837049D01*
X6467951Y-16822763D01*
X6453666Y-16794192D01*
X6439380Y-16737049D01*
X6439380Y-16665620D01*
X6453666Y-16608477D01*
X6467951Y-16579906D01*
X6482237Y-16565620D01*
X6510808Y-16551334D01*
X6725094Y-16551334D02*
X6725094Y-16608477D01*
X6839380Y-16551334D02*
X6839380Y-16608477D01*
X7282237Y-16965620D02*
X7267951Y-16951334D01*
X7239380Y-16908477D01*
X7225094Y-16879906D01*
X7210808Y-16837049D01*
X7196523Y-16765620D01*
X7196523Y-16708477D01*
X7210808Y-16637049D01*
X7225094Y-16594191D01*
X7239380Y-16565620D01*
X7267951Y-16522763D01*
X7282237Y-16508477D01*
X7382237Y-16579906D02*
X7396523Y-16565620D01*
X7425094Y-16551334D01*
X7496523Y-16551334D01*
X7525094Y-16565620D01*
X7539380Y-16579906D01*
X7553666Y-16608477D01*
X7553666Y-16637049D01*
X7539380Y-16679906D01*
X7367951Y-16851334D01*
X7553666Y-16851334D01*
X7810808Y-16551334D02*
X7753666Y-16551334D01*
X7725094Y-16565620D01*
X7710808Y-16579906D01*
X7682237Y-16622763D01*
X7667951Y-16679906D01*
X7667951Y-16794192D01*
X7682237Y-16822763D01*
X7696523Y-16837049D01*
X7725094Y-16851334D01*
X7782237Y-16851334D01*
X7810808Y-16837049D01*
X7825094Y-16822763D01*
X7839380Y-16794192D01*
X7839380Y-16722763D01*
X7825094Y-16694191D01*
X7810808Y-16679906D01*
X7782237Y-16665620D01*
X7725094Y-16665620D01*
X7696523Y-16679906D01*
X7682237Y-16694191D01*
X7667951Y-16722763D01*
X8125094Y-16851334D02*
X7953666Y-16851334D01*
X8039380Y-16851334D02*
X8039380Y-16551334D01*
X8010808Y-16594191D01*
X7982237Y-16622763D01*
X7953666Y-16637049D01*
X8482237Y-16851334D02*
X8482237Y-16551334D01*
X8610808Y-16851334D02*
X8610808Y-16694191D01*
X8596523Y-16665620D01*
X8567951Y-16651334D01*
X8525094Y-16651334D01*
X8496523Y-16665620D01*
X8482237Y-16679906D01*
X8796523Y-16851334D02*
X8767951Y-16837049D01*
X8753666Y-16822763D01*
X8739380Y-16794192D01*
X8739380Y-16708477D01*
X8753666Y-16679906D01*
X8767951Y-16665620D01*
X8796523Y-16651334D01*
X8839380Y-16651334D01*
X8867951Y-16665620D01*
X8882237Y-16679906D01*
X8896523Y-16708477D01*
X8896523Y-16794192D01*
X8882237Y-16822763D01*
X8867951Y-16837049D01*
X8839380Y-16851334D01*
X8796523Y-16851334D01*
X9067951Y-16851334D02*
X9039380Y-16837049D01*
X9025094Y-16808477D01*
X9025094Y-16551334D01*
X9296523Y-16837049D02*
X9267951Y-16851334D01*
X9210808Y-16851334D01*
X9182237Y-16837049D01*
X9167951Y-16808477D01*
X9167951Y-16694191D01*
X9182237Y-16665620D01*
X9210808Y-16651334D01*
X9267951Y-16651334D01*
X9296523Y-16665620D01*
X9310808Y-16694191D01*
X9310808Y-16722763D01*
X9167951Y-16751334D01*
X9425094Y-16837049D02*
X9453666Y-16851334D01*
X9510808Y-16851334D01*
X9539380Y-16837049D01*
X9553666Y-16808477D01*
X9553666Y-16794192D01*
X9539380Y-16765620D01*
X9510808Y-16751334D01*
X9467951Y-16751334D01*
X9439380Y-16737049D01*
X9425094Y-16708477D01*
X9425094Y-16694191D01*
X9439380Y-16665620D01*
X9467951Y-16651334D01*
X9510808Y-16651334D01*
X9539380Y-16665620D01*
X9653666Y-16965620D02*
X9667951Y-16951334D01*
X9696523Y-16908477D01*
X9710808Y-16879906D01*
X9725094Y-16837049D01*
X9739380Y-16765620D01*
X9739380Y-16708477D01*
X9725094Y-16637049D01*
X9710808Y-16594191D01*
X9696523Y-16565620D01*
X9667951Y-16522763D01*
X9653666Y-16508477D01*
X2024380Y-17111620D02*
G75*
G03*
X2024380Y-17111620I-40000J0D01*
G01*
X2367951Y-16947334D02*
X2396523Y-16947334D01*
X2425094Y-16961620D01*
X2439380Y-16975906D01*
X2453666Y-17004477D01*
X2467951Y-17061620D01*
X2467951Y-17133049D01*
X2453666Y-17190192D01*
X2439380Y-17218763D01*
X2425094Y-17233049D01*
X2396523Y-17247334D01*
X2367951Y-17247334D01*
X2339380Y-17233049D01*
X2325094Y-17218763D01*
X2310808Y-17190192D01*
X2296523Y-17133049D01*
X2296523Y-17061620D01*
X2310808Y-17004477D01*
X2325094Y-16975906D01*
X2339380Y-16961620D01*
X2367951Y-16947334D01*
X2596523Y-17218763D02*
X2610808Y-17233049D01*
X2596523Y-17247334D01*
X2582237Y-17233049D01*
X2596523Y-17218763D01*
X2596523Y-17247334D01*
X2782237Y-17075906D02*
X2753666Y-17061620D01*
X2739380Y-17047334D01*
X2725094Y-17018763D01*
X2725094Y-17004477D01*
X2739380Y-16975906D01*
X2753666Y-16961620D01*
X2782237Y-16947334D01*
X2839380Y-16947334D01*
X2867951Y-16961620D01*
X2882237Y-16975906D01*
X2896523Y-17004477D01*
X2896523Y-17018763D01*
X2882237Y-17047334D01*
X2867951Y-17061620D01*
X2839380Y-17075906D01*
X2782237Y-17075906D01*
X2753666Y-17090192D01*
X2739380Y-17104477D01*
X2725094Y-17133049D01*
X2725094Y-17190192D01*
X2739380Y-17218763D01*
X2753666Y-17233049D01*
X2782237Y-17247334D01*
X2839380Y-17247334D01*
X2867951Y-17233049D01*
X2882237Y-17218763D01*
X2896523Y-17190192D01*
X2896523Y-17133049D01*
X2882237Y-17104477D01*
X2867951Y-17090192D01*
X2839380Y-17075906D01*
X3082237Y-16947334D02*
X3110808Y-16947334D01*
X3139380Y-16961620D01*
X3153666Y-16975906D01*
X3167951Y-17004477D01*
X3182237Y-17061620D01*
X3182237Y-17133049D01*
X3167951Y-17190192D01*
X3153666Y-17218763D01*
X3139380Y-17233049D01*
X3110808Y-17247334D01*
X3082237Y-17247334D01*
X3053666Y-17233049D01*
X3039380Y-17218763D01*
X3025094Y-17190192D01*
X3010808Y-17133049D01*
X3010808Y-17061620D01*
X3025094Y-17004477D01*
X3039380Y-16975906D01*
X3053666Y-16961620D01*
X3082237Y-16947334D01*
X3367951Y-16947334D02*
X3396523Y-16947334D01*
X3425094Y-16961620D01*
X3439380Y-16975906D01*
X3453666Y-17004477D01*
X3467951Y-17061620D01*
X3467951Y-17133049D01*
X3453666Y-17190192D01*
X3439380Y-17218763D01*
X3425094Y-17233049D01*
X3396523Y-17247334D01*
X3367951Y-17247334D01*
X3339380Y-17233049D01*
X3325094Y-17218763D01*
X3310808Y-17190192D01*
X3296523Y-17133049D01*
X3296523Y-17061620D01*
X3310808Y-17004477D01*
X3325094Y-16975906D01*
X3339380Y-16961620D01*
X3367951Y-16947334D01*
X3596523Y-17247334D02*
X3596523Y-17047334D01*
X3596523Y-17075906D02*
X3610808Y-17061620D01*
X3639380Y-17047334D01*
X3682237Y-17047334D01*
X3710808Y-17061620D01*
X3725094Y-17090192D01*
X3725094Y-17247334D01*
X3725094Y-17090192D02*
X3739380Y-17061620D01*
X3767951Y-17047334D01*
X3810808Y-17047334D01*
X3839380Y-17061620D01*
X3853666Y-17090192D01*
X3853666Y-17247334D01*
X3996523Y-17247334D02*
X3996523Y-17047334D01*
X3996523Y-17075906D02*
X4010808Y-17061620D01*
X4039380Y-17047334D01*
X4082237Y-17047334D01*
X4110808Y-17061620D01*
X4125094Y-17090192D01*
X4125094Y-17247334D01*
X4125094Y-17090192D02*
X4139380Y-17061620D01*
X4167951Y-17047334D01*
X4210808Y-17047334D01*
X4239380Y-17061620D01*
X4253666Y-17090192D01*
X4253666Y-17247334D01*
X4839380Y-16933049D02*
X4582237Y-17318763D01*
X5225094Y-16947334D02*
X5253666Y-16947334D01*
X5282237Y-16961620D01*
X5296523Y-16975906D01*
X5310808Y-17004477D01*
X5325094Y-17061620D01*
X5325094Y-17133049D01*
X5310808Y-17190192D01*
X5296523Y-17218763D01*
X5282237Y-17233049D01*
X5253666Y-17247334D01*
X5225094Y-17247334D01*
X5196523Y-17233049D01*
X5182237Y-17218763D01*
X5167951Y-17190192D01*
X5153666Y-17133049D01*
X5153666Y-17061620D01*
X5167951Y-17004477D01*
X5182237Y-16975906D01*
X5196523Y-16961620D01*
X5225094Y-16947334D01*
X5453666Y-17218763D02*
X5467951Y-17233049D01*
X5453666Y-17247334D01*
X5439380Y-17233049D01*
X5453666Y-17218763D01*
X5453666Y-17247334D01*
X5653666Y-16947334D02*
X5682237Y-16947334D01*
X5710808Y-16961620D01*
X5725094Y-16975906D01*
X5739380Y-17004477D01*
X5753666Y-17061620D01*
X5753666Y-17133049D01*
X5739380Y-17190192D01*
X5725094Y-17218763D01*
X5710808Y-17233049D01*
X5682237Y-17247334D01*
X5653666Y-17247334D01*
X5625094Y-17233049D01*
X5610808Y-17218763D01*
X5596523Y-17190192D01*
X5582237Y-17133049D01*
X5582237Y-17061620D01*
X5596523Y-17004477D01*
X5610808Y-16975906D01*
X5625094Y-16961620D01*
X5653666Y-16947334D01*
X5853666Y-16947334D02*
X6039380Y-16947334D01*
X5939380Y-17061620D01*
X5982237Y-17061620D01*
X6010808Y-17075906D01*
X6025094Y-17090192D01*
X6039380Y-17118763D01*
X6039380Y-17190192D01*
X6025094Y-17218763D01*
X6010808Y-17233049D01*
X5982237Y-17247334D01*
X5896523Y-17247334D01*
X5867951Y-17233049D01*
X5853666Y-17218763D01*
X6325094Y-17247334D02*
X6153666Y-17247334D01*
X6239380Y-17247334D02*
X6239380Y-16947334D01*
X6210808Y-16990192D01*
X6182237Y-17018763D01*
X6153666Y-17033049D01*
X6596523Y-16947334D02*
X6453666Y-16947334D01*
X6439380Y-17090192D01*
X6453666Y-17075906D01*
X6482237Y-17061620D01*
X6553666Y-17061620D01*
X6582237Y-17075906D01*
X6596523Y-17090192D01*
X6610808Y-17118763D01*
X6610808Y-17190192D01*
X6596523Y-17218763D01*
X6582237Y-17233049D01*
X6553666Y-17247334D01*
X6482237Y-17247334D01*
X6453666Y-17233049D01*
X6439380Y-17218763D01*
X6725094Y-16947334D02*
X6725094Y-17004477D01*
X6839380Y-16947334D02*
X6839380Y-17004477D01*
X7282237Y-17361620D02*
X7267951Y-17347334D01*
X7239380Y-17304477D01*
X7225094Y-17275906D01*
X7210808Y-17233049D01*
X7196523Y-17161620D01*
X7196523Y-17104477D01*
X7210808Y-17033049D01*
X7225094Y-16990192D01*
X7239380Y-16961620D01*
X7267951Y-16918763D01*
X7282237Y-16904477D01*
X7539380Y-16947334D02*
X7396523Y-16947334D01*
X7382237Y-17090192D01*
X7396523Y-17075906D01*
X7425094Y-17061620D01*
X7496523Y-17061620D01*
X7525094Y-17075906D01*
X7539380Y-17090192D01*
X7553666Y-17118763D01*
X7553666Y-17190192D01*
X7539380Y-17218763D01*
X7525094Y-17233049D01*
X7496523Y-17247334D01*
X7425094Y-17247334D01*
X7396523Y-17233049D01*
X7382237Y-17218763D01*
X7810808Y-17047334D02*
X7810808Y-17247334D01*
X7739380Y-16933049D02*
X7667951Y-17147334D01*
X7853666Y-17147334D01*
X8025094Y-16947334D02*
X8053666Y-16947334D01*
X8082237Y-16961620D01*
X8096523Y-16975906D01*
X8110808Y-17004477D01*
X8125094Y-17061620D01*
X8125094Y-17133049D01*
X8110808Y-17190192D01*
X8096523Y-17218763D01*
X8082237Y-17233049D01*
X8053666Y-17247334D01*
X8025094Y-17247334D01*
X7996523Y-17233049D01*
X7982237Y-17218763D01*
X7967951Y-17190192D01*
X7953666Y-17133049D01*
X7953666Y-17061620D01*
X7967951Y-17004477D01*
X7982237Y-16975906D01*
X7996523Y-16961620D01*
X8025094Y-16947334D01*
X8482237Y-17247334D02*
X8482237Y-16947334D01*
X8610808Y-17247334D02*
X8610808Y-17090192D01*
X8596523Y-17061620D01*
X8567951Y-17047334D01*
X8525094Y-17047334D01*
X8496523Y-17061620D01*
X8482237Y-17075906D01*
X8796523Y-17247334D02*
X8767951Y-17233049D01*
X8753666Y-17218763D01*
X8739380Y-17190192D01*
X8739380Y-17104477D01*
X8753666Y-17075906D01*
X8767951Y-17061620D01*
X8796523Y-17047334D01*
X8839380Y-17047334D01*
X8867951Y-17061620D01*
X8882237Y-17075906D01*
X8896523Y-17104477D01*
X8896523Y-17190192D01*
X8882237Y-17218763D01*
X8867951Y-17233049D01*
X8839380Y-17247334D01*
X8796523Y-17247334D01*
X9067951Y-17247334D02*
X9039380Y-17233049D01*
X9025094Y-17204477D01*
X9025094Y-16947334D01*
X9296523Y-17233049D02*
X9267951Y-17247334D01*
X9210808Y-17247334D01*
X9182237Y-17233049D01*
X9167951Y-17204477D01*
X9167951Y-17090192D01*
X9182237Y-17061620D01*
X9210808Y-17047334D01*
X9267951Y-17047334D01*
X9296523Y-17061620D01*
X9310808Y-17090192D01*
X9310808Y-17118763D01*
X9167951Y-17147334D01*
X9425094Y-17233049D02*
X9453666Y-17247334D01*
X9510808Y-17247334D01*
X9539380Y-17233049D01*
X9553666Y-17204477D01*
X9553666Y-17190192D01*
X9539380Y-17161620D01*
X9510808Y-17147334D01*
X9467951Y-17147334D01*
X9439380Y-17133049D01*
X9425094Y-17104477D01*
X9425094Y-17090192D01*
X9439380Y-17061620D01*
X9467951Y-17047334D01*
X9510808Y-17047334D01*
X9539380Y-17061620D01*
X9653666Y-17361620D02*
X9667951Y-17347334D01*
X9696523Y-17304477D01*
X9710808Y-17275906D01*
X9725094Y-17233049D01*
X9739380Y-17161620D01*
X9739380Y-17104477D01*
X9725094Y-17033049D01*
X9710808Y-16990192D01*
X9696523Y-16961620D01*
X9667951Y-16918763D01*
X9653666Y-16904477D01*
X1969380Y-17452620D02*
X1969380Y-17562620D01*
X1914380Y-17507620D02*
X2024380Y-17507620D01*
X2467951Y-17643334D02*
X2296523Y-17643334D01*
X2382237Y-17643334D02*
X2382237Y-17343334D01*
X2353666Y-17386192D01*
X2325094Y-17414763D01*
X2296523Y-17429049D01*
X2596523Y-17614763D02*
X2610808Y-17629049D01*
X2596523Y-17643334D01*
X2582237Y-17629049D01*
X2596523Y-17614763D01*
X2596523Y-17643334D01*
X2896523Y-17643334D02*
X2725094Y-17643334D01*
X2810808Y-17643334D02*
X2810808Y-17343334D01*
X2782237Y-17386192D01*
X2753666Y-17414763D01*
X2725094Y-17429049D01*
X3082237Y-17343334D02*
X3110808Y-17343334D01*
X3139380Y-17357620D01*
X3153666Y-17371906D01*
X3167951Y-17400477D01*
X3182237Y-17457620D01*
X3182237Y-17529049D01*
X3167951Y-17586192D01*
X3153666Y-17614763D01*
X3139380Y-17629049D01*
X3110808Y-17643334D01*
X3082237Y-17643334D01*
X3053666Y-17629049D01*
X3039380Y-17614763D01*
X3025094Y-17586192D01*
X3010808Y-17529049D01*
X3010808Y-17457620D01*
X3025094Y-17400477D01*
X3039380Y-17371906D01*
X3053666Y-17357620D01*
X3082237Y-17343334D01*
X3367951Y-17343334D02*
X3396523Y-17343334D01*
X3425094Y-17357620D01*
X3439380Y-17371906D01*
X3453666Y-17400477D01*
X3467951Y-17457620D01*
X3467951Y-17529049D01*
X3453666Y-17586192D01*
X3439380Y-17614763D01*
X3425094Y-17629049D01*
X3396523Y-17643334D01*
X3367951Y-17643334D01*
X3339380Y-17629049D01*
X3325094Y-17614763D01*
X3310808Y-17586192D01*
X3296523Y-17529049D01*
X3296523Y-17457620D01*
X3310808Y-17400477D01*
X3325094Y-17371906D01*
X3339380Y-17357620D01*
X3367951Y-17343334D01*
X3596523Y-17643334D02*
X3596523Y-17443334D01*
X3596523Y-17471906D02*
X3610808Y-17457620D01*
X3639380Y-17443334D01*
X3682237Y-17443334D01*
X3710808Y-17457620D01*
X3725094Y-17486192D01*
X3725094Y-17643334D01*
X3725094Y-17486192D02*
X3739380Y-17457620D01*
X3767951Y-17443334D01*
X3810808Y-17443334D01*
X3839380Y-17457620D01*
X3853666Y-17486192D01*
X3853666Y-17643334D01*
X3996523Y-17643334D02*
X3996523Y-17443334D01*
X3996523Y-17471906D02*
X4010808Y-17457620D01*
X4039380Y-17443334D01*
X4082237Y-17443334D01*
X4110808Y-17457620D01*
X4125094Y-17486192D01*
X4125094Y-17643334D01*
X4125094Y-17486192D02*
X4139380Y-17457620D01*
X4167951Y-17443334D01*
X4210808Y-17443334D01*
X4239380Y-17457620D01*
X4253666Y-17486192D01*
X4253666Y-17643334D01*
X4839380Y-17329049D02*
X4582237Y-17714763D01*
X5225094Y-17343334D02*
X5253666Y-17343334D01*
X5282237Y-17357620D01*
X5296523Y-17371906D01*
X5310808Y-17400477D01*
X5325094Y-17457620D01*
X5325094Y-17529049D01*
X5310808Y-17586192D01*
X5296523Y-17614763D01*
X5282237Y-17629049D01*
X5253666Y-17643334D01*
X5225094Y-17643334D01*
X5196523Y-17629049D01*
X5182237Y-17614763D01*
X5167951Y-17586192D01*
X5153666Y-17529049D01*
X5153666Y-17457620D01*
X5167951Y-17400477D01*
X5182237Y-17371906D01*
X5196523Y-17357620D01*
X5225094Y-17343334D01*
X5453666Y-17614763D02*
X5467951Y-17629049D01*
X5453666Y-17643334D01*
X5439380Y-17629049D01*
X5453666Y-17614763D01*
X5453666Y-17643334D01*
X5653666Y-17343334D02*
X5682237Y-17343334D01*
X5710808Y-17357620D01*
X5725094Y-17371906D01*
X5739380Y-17400477D01*
X5753666Y-17457620D01*
X5753666Y-17529049D01*
X5739380Y-17586192D01*
X5725094Y-17614763D01*
X5710808Y-17629049D01*
X5682237Y-17643334D01*
X5653666Y-17643334D01*
X5625094Y-17629049D01*
X5610808Y-17614763D01*
X5596523Y-17586192D01*
X5582237Y-17529049D01*
X5582237Y-17457620D01*
X5596523Y-17400477D01*
X5610808Y-17371906D01*
X5625094Y-17357620D01*
X5653666Y-17343334D01*
X6010808Y-17443334D02*
X6010808Y-17643334D01*
X5939380Y-17329049D02*
X5867951Y-17543334D01*
X6053666Y-17543334D01*
X6139380Y-17343334D02*
X6325094Y-17343334D01*
X6225094Y-17457620D01*
X6267951Y-17457620D01*
X6296523Y-17471906D01*
X6310808Y-17486192D01*
X6325094Y-17514763D01*
X6325094Y-17586192D01*
X6310808Y-17614763D01*
X6296523Y-17629049D01*
X6267951Y-17643334D01*
X6182237Y-17643334D01*
X6153666Y-17629049D01*
X6139380Y-17614763D01*
X6425094Y-17343334D02*
X6610808Y-17343334D01*
X6510808Y-17457620D01*
X6553666Y-17457620D01*
X6582237Y-17471906D01*
X6596523Y-17486192D01*
X6610808Y-17514763D01*
X6610808Y-17586192D01*
X6596523Y-17614763D01*
X6582237Y-17629049D01*
X6553666Y-17643334D01*
X6467951Y-17643334D01*
X6439380Y-17629049D01*
X6425094Y-17614763D01*
X6725094Y-17343334D02*
X6725094Y-17400477D01*
X6839380Y-17343334D02*
X6839380Y-17400477D01*
X7282237Y-17757620D02*
X7267951Y-17743334D01*
X7239380Y-17700477D01*
X7225094Y-17671906D01*
X7210808Y-17629049D01*
X7196523Y-17557620D01*
X7196523Y-17500477D01*
X7210808Y-17429049D01*
X7225094Y-17386192D01*
X7239380Y-17357620D01*
X7267951Y-17314763D01*
X7282237Y-17300477D01*
X7367951Y-17343334D02*
X7553666Y-17343334D01*
X7453666Y-17457620D01*
X7496523Y-17457620D01*
X7525094Y-17471906D01*
X7539380Y-17486192D01*
X7553666Y-17514763D01*
X7553666Y-17586192D01*
X7539380Y-17614763D01*
X7525094Y-17629049D01*
X7496523Y-17643334D01*
X7410808Y-17643334D01*
X7382237Y-17629049D01*
X7367951Y-17614763D01*
X7910808Y-17643334D02*
X7910808Y-17343334D01*
X8039380Y-17643334D02*
X8039380Y-17486192D01*
X8025094Y-17457620D01*
X7996523Y-17443334D01*
X7953666Y-17443334D01*
X7925094Y-17457620D01*
X7910808Y-17471906D01*
X8225094Y-17643334D02*
X8196523Y-17629049D01*
X8182237Y-17614763D01*
X8167951Y-17586192D01*
X8167951Y-17500477D01*
X8182237Y-17471906D01*
X8196523Y-17457620D01*
X8225094Y-17443334D01*
X8267951Y-17443334D01*
X8296523Y-17457620D01*
X8310808Y-17471906D01*
X8325094Y-17500477D01*
X8325094Y-17586192D01*
X8310808Y-17614763D01*
X8296523Y-17629049D01*
X8267951Y-17643334D01*
X8225094Y-17643334D01*
X8496523Y-17643334D02*
X8467951Y-17629049D01*
X8453666Y-17600477D01*
X8453666Y-17343334D01*
X8725094Y-17629049D02*
X8696523Y-17643334D01*
X8639380Y-17643334D01*
X8610808Y-17629049D01*
X8596523Y-17600477D01*
X8596523Y-17486192D01*
X8610808Y-17457620D01*
X8639380Y-17443334D01*
X8696523Y-17443334D01*
X8725094Y-17457620D01*
X8739380Y-17486192D01*
X8739380Y-17514763D01*
X8596523Y-17543334D01*
X8853666Y-17629049D02*
X8882237Y-17643334D01*
X8939380Y-17643334D01*
X8967951Y-17629049D01*
X8982237Y-17600477D01*
X8982237Y-17586192D01*
X8967951Y-17557620D01*
X8939380Y-17543334D01*
X8896523Y-17543334D01*
X8867951Y-17529049D01*
X8853666Y-17500477D01*
X8853666Y-17486192D01*
X8867951Y-17457620D01*
X8896523Y-17443334D01*
X8939380Y-17443334D01*
X8967951Y-17457620D01*
X9082237Y-17757620D02*
X9096523Y-17743334D01*
X9125094Y-17700477D01*
X9139380Y-17671906D01*
X9153666Y-17629049D01*
X9167951Y-17557620D01*
X9167951Y-17500477D01*
X9153666Y-17429049D01*
X9139380Y-17386192D01*
X9125094Y-17357620D01*
X9096523Y-17314763D01*
X9082237Y-17300477D01*
X1979744Y-18011384D02*
X1979744Y-17795856D01*
X1764216Y-17795856D01*
X1764216Y-18011384D01*
X1979744Y-18011384D01*
X2282237Y-17739334D02*
X2467951Y-17739334D01*
X2367951Y-17853620D01*
X2410808Y-17853620D01*
X2439380Y-17867906D01*
X2453666Y-17882192D01*
X2467951Y-17910763D01*
X2467951Y-17982192D01*
X2453666Y-18010763D01*
X2439380Y-18025049D01*
X2410808Y-18039334D01*
X2325094Y-18039334D01*
X2296523Y-18025049D01*
X2282237Y-18010763D01*
X2596523Y-18010763D02*
X2610808Y-18025049D01*
X2596523Y-18039334D01*
X2582237Y-18025049D01*
X2596523Y-18010763D01*
X2596523Y-18039334D01*
X2796523Y-17739334D02*
X2825094Y-17739334D01*
X2853666Y-17753620D01*
X2867951Y-17767906D01*
X2882237Y-17796477D01*
X2896523Y-17853620D01*
X2896523Y-17925049D01*
X2882237Y-17982192D01*
X2867951Y-18010763D01*
X2853666Y-18025049D01*
X2825094Y-18039334D01*
X2796523Y-18039334D01*
X2767951Y-18025049D01*
X2753666Y-18010763D01*
X2739380Y-17982192D01*
X2725094Y-17925049D01*
X2725094Y-17853620D01*
X2739380Y-17796477D01*
X2753666Y-17767906D01*
X2767951Y-17753620D01*
X2796523Y-17739334D01*
X3153666Y-17839334D02*
X3153666Y-18039334D01*
X3082237Y-17725049D02*
X3010808Y-17939334D01*
X3196523Y-17939334D01*
X3353666Y-17867906D02*
X3325094Y-17853620D01*
X3310808Y-17839334D01*
X3296523Y-17810763D01*
X3296523Y-17796477D01*
X3310808Y-17767906D01*
X3325094Y-17753620D01*
X3353666Y-17739334D01*
X3410808Y-17739334D01*
X3439380Y-17753620D01*
X3453666Y-17767906D01*
X3467951Y-17796477D01*
X3467951Y-17810763D01*
X3453666Y-17839334D01*
X3439380Y-17853620D01*
X3410808Y-17867906D01*
X3353666Y-17867906D01*
X3325094Y-17882192D01*
X3310808Y-17896477D01*
X3296523Y-17925049D01*
X3296523Y-17982192D01*
X3310808Y-18010763D01*
X3325094Y-18025049D01*
X3353666Y-18039334D01*
X3410808Y-18039334D01*
X3439380Y-18025049D01*
X3453666Y-18010763D01*
X3467951Y-17982192D01*
X3467951Y-17925049D01*
X3453666Y-17896477D01*
X3439380Y-17882192D01*
X3410808Y-17867906D01*
X3596523Y-18039334D02*
X3596523Y-17839334D01*
X3596523Y-17867906D02*
X3610808Y-17853620D01*
X3639380Y-17839334D01*
X3682237Y-17839334D01*
X3710808Y-17853620D01*
X3725094Y-17882192D01*
X3725094Y-18039334D01*
X3725094Y-17882192D02*
X3739380Y-17853620D01*
X3767951Y-17839334D01*
X3810808Y-17839334D01*
X3839380Y-17853620D01*
X3853666Y-17882192D01*
X3853666Y-18039334D01*
X3996523Y-18039334D02*
X3996523Y-17839334D01*
X3996523Y-17867906D02*
X4010808Y-17853620D01*
X4039380Y-17839334D01*
X4082237Y-17839334D01*
X4110808Y-17853620D01*
X4125094Y-17882192D01*
X4125094Y-18039334D01*
X4125094Y-17882192D02*
X4139380Y-17853620D01*
X4167951Y-17839334D01*
X4210808Y-17839334D01*
X4239380Y-17853620D01*
X4253666Y-17882192D01*
X4253666Y-18039334D01*
X4839380Y-17725049D02*
X4582237Y-18110763D01*
X5225094Y-17739334D02*
X5253666Y-17739334D01*
X5282237Y-17753620D01*
X5296523Y-17767906D01*
X5310808Y-17796477D01*
X5325094Y-17853620D01*
X5325094Y-17925049D01*
X5310808Y-17982192D01*
X5296523Y-18010763D01*
X5282237Y-18025049D01*
X5253666Y-18039334D01*
X5225094Y-18039334D01*
X5196523Y-18025049D01*
X5182237Y-18010763D01*
X5167951Y-17982192D01*
X5153666Y-17925049D01*
X5153666Y-17853620D01*
X5167951Y-17796477D01*
X5182237Y-17767906D01*
X5196523Y-17753620D01*
X5225094Y-17739334D01*
X5453666Y-18010763D02*
X5467951Y-18025049D01*
X5453666Y-18039334D01*
X5439380Y-18025049D01*
X5453666Y-18010763D01*
X5453666Y-18039334D01*
X5753666Y-18039334D02*
X5582237Y-18039334D01*
X5667951Y-18039334D02*
X5667951Y-17739334D01*
X5639380Y-17782192D01*
X5610808Y-17810763D01*
X5582237Y-17825049D01*
X5867951Y-17767906D02*
X5882237Y-17753620D01*
X5910808Y-17739334D01*
X5982237Y-17739334D01*
X6010808Y-17753620D01*
X6025094Y-17767906D01*
X6039380Y-17796477D01*
X6039380Y-17825049D01*
X6025094Y-17867906D01*
X5853666Y-18039334D01*
X6039380Y-18039334D01*
X6225094Y-17739334D02*
X6253666Y-17739334D01*
X6282237Y-17753620D01*
X6296523Y-17767906D01*
X6310808Y-17796477D01*
X6325094Y-17853620D01*
X6325094Y-17925049D01*
X6310808Y-17982192D01*
X6296523Y-18010763D01*
X6282237Y-18025049D01*
X6253666Y-18039334D01*
X6225094Y-18039334D01*
X6196523Y-18025049D01*
X6182237Y-18010763D01*
X6167951Y-17982192D01*
X6153666Y-17925049D01*
X6153666Y-17853620D01*
X6167951Y-17796477D01*
X6182237Y-17767906D01*
X6196523Y-17753620D01*
X6225094Y-17739334D01*
X6510808Y-17739334D02*
X6539380Y-17739334D01*
X6567951Y-17753620D01*
X6582237Y-17767906D01*
X6596523Y-17796477D01*
X6610808Y-17853620D01*
X6610808Y-17925049D01*
X6596523Y-17982192D01*
X6582237Y-18010763D01*
X6567951Y-18025049D01*
X6539380Y-18039334D01*
X6510808Y-18039334D01*
X6482237Y-18025049D01*
X6467951Y-18010763D01*
X6453666Y-17982192D01*
X6439380Y-17925049D01*
X6439380Y-17853620D01*
X6453666Y-17796477D01*
X6467951Y-17767906D01*
X6482237Y-17753620D01*
X6510808Y-17739334D01*
X6725094Y-17739334D02*
X6725094Y-17796477D01*
X6839380Y-17739334D02*
X6839380Y-17796477D01*
X7282237Y-18153620D02*
X7267951Y-18139334D01*
X7239380Y-18096477D01*
X7225094Y-18067906D01*
X7210808Y-18025049D01*
X7196523Y-17953620D01*
X7196523Y-17896477D01*
X7210808Y-17825049D01*
X7225094Y-17782192D01*
X7239380Y-17753620D01*
X7267951Y-17710763D01*
X7282237Y-17696477D01*
X7382237Y-17767906D02*
X7396523Y-17753620D01*
X7425094Y-17739334D01*
X7496523Y-17739334D01*
X7525094Y-17753620D01*
X7539380Y-17767906D01*
X7553666Y-17796477D01*
X7553666Y-17825049D01*
X7539380Y-17867906D01*
X7367951Y-18039334D01*
X7553666Y-18039334D01*
X7910808Y-18039334D02*
X7910808Y-17739334D01*
X8039380Y-18039334D02*
X8039380Y-17882192D01*
X8025094Y-17853620D01*
X7996523Y-17839334D01*
X7953666Y-17839334D01*
X7925094Y-17853620D01*
X7910808Y-17867906D01*
X8225094Y-18039334D02*
X8196523Y-18025049D01*
X8182237Y-18010763D01*
X8167951Y-17982192D01*
X8167951Y-17896477D01*
X8182237Y-17867906D01*
X8196523Y-17853620D01*
X8225094Y-17839334D01*
X8267951Y-17839334D01*
X8296523Y-17853620D01*
X8310808Y-17867906D01*
X8325094Y-17896477D01*
X8325094Y-17982192D01*
X8310808Y-18010763D01*
X8296523Y-18025049D01*
X8267951Y-18039334D01*
X8225094Y-18039334D01*
X8496523Y-18039334D02*
X8467951Y-18025049D01*
X8453666Y-17996477D01*
X8453666Y-17739334D01*
X8725094Y-18025049D02*
X8696523Y-18039334D01*
X8639380Y-18039334D01*
X8610808Y-18025049D01*
X8596523Y-17996477D01*
X8596523Y-17882192D01*
X8610808Y-17853620D01*
X8639380Y-17839334D01*
X8696523Y-17839334D01*
X8725094Y-17853620D01*
X8739380Y-17882192D01*
X8739380Y-17910763D01*
X8596523Y-17939334D01*
X8853666Y-18025049D02*
X8882237Y-18039334D01*
X8939380Y-18039334D01*
X8967951Y-18025049D01*
X8982237Y-17996477D01*
X8982237Y-17982192D01*
X8967951Y-17953620D01*
X8939380Y-17939334D01*
X8896523Y-17939334D01*
X8867951Y-17925049D01*
X8853666Y-17896477D01*
X8853666Y-17882192D01*
X8867951Y-17853620D01*
X8896523Y-17839334D01*
X8939380Y-17839334D01*
X8967951Y-17853620D01*
X9082237Y-18153620D02*
X9096523Y-18139334D01*
X9125094Y-18096477D01*
X9139380Y-18067906D01*
X9153666Y-18025049D01*
X9167951Y-17953620D01*
X9167951Y-17896477D01*
X9153666Y-17825049D01*
X9139380Y-17782192D01*
X9125094Y-17753620D01*
X9096523Y-17710763D01*
X9082237Y-17696477D01*
M02*
