%FSLAX45Y45*%
G04 Gerber Fmt 4.5, Leading zero omitted, Abs format (unit mm)*
G04 Created by KiCad (PCBNEW (5.1.12)-1) date 2022-10-15 16:15:47*
%MOMM*%
%LPD*%
G01*
G04 APERTURE LIST*
%TA.AperFunction,Profile*%
%ADD10C,0.152400*%
%TD*%
%ADD11C,0.200000*%
%ADD12C,0.300000*%
G04 APERTURE END LIST*
D10*
X22034500Y-14986000D02*
X22034500Y-15748000D01*
X2667000Y-2286000D02*
X2032000Y-2921000D01*
X26797000Y-2286000D02*
X2667000Y-2286000D01*
X27432000Y-2921000D02*
X26797000Y-2286000D01*
X2032000Y-2921000D02*
X2032000Y-14986000D01*
X5842000Y-14986000D02*
X2032000Y-14986000D01*
X5842000Y-15748000D02*
X5842000Y-14986000D01*
X22034500Y-15748000D02*
X5842000Y-15748000D01*
X27432000Y-14986000D02*
X22034500Y-14986000D01*
X27432000Y-14986000D02*
X27432000Y-2921000D01*
D11*
X3698500Y-4001000D02*
X4048500Y-4351000D01*
X4048500Y-4001000D02*
X3698500Y-4351000D01*
D12*
X2310808Y-16221334D02*
X2310808Y-15921334D01*
X2382237Y-15921334D01*
X2425094Y-15935620D01*
X2453666Y-15964191D01*
X2467951Y-15992763D01*
X2482237Y-16049906D01*
X2482237Y-16092763D01*
X2467951Y-16149906D01*
X2453666Y-16178477D01*
X2425094Y-16207049D01*
X2382237Y-16221334D01*
X2310808Y-16221334D01*
X2610808Y-16221334D02*
X2610808Y-16021334D01*
X2610808Y-16078477D02*
X2625094Y-16049906D01*
X2639380Y-16035620D01*
X2667951Y-16021334D01*
X2696523Y-16021334D01*
X2796523Y-16221334D02*
X2796523Y-16021334D01*
X2796523Y-15921334D02*
X2782237Y-15935620D01*
X2796523Y-15949906D01*
X2810808Y-15935620D01*
X2796523Y-15921334D01*
X2796523Y-15949906D01*
X2982237Y-16221334D02*
X2953666Y-16207049D01*
X2939380Y-16178477D01*
X2939380Y-15921334D01*
X3139380Y-16221334D02*
X3110808Y-16207049D01*
X3096523Y-16178477D01*
X3096523Y-15921334D01*
X3482237Y-16221334D02*
X3482237Y-15921334D01*
X3582237Y-16135620D01*
X3682237Y-15921334D01*
X3682237Y-16221334D01*
X3953666Y-16221334D02*
X3953666Y-16064191D01*
X3939380Y-16035620D01*
X3910808Y-16021334D01*
X3853666Y-16021334D01*
X3825094Y-16035620D01*
X3953666Y-16207049D02*
X3925094Y-16221334D01*
X3853666Y-16221334D01*
X3825094Y-16207049D01*
X3810808Y-16178477D01*
X3810808Y-16149906D01*
X3825094Y-16121334D01*
X3853666Y-16107049D01*
X3925094Y-16107049D01*
X3953666Y-16092763D01*
X4096523Y-16021334D02*
X4096523Y-16321334D01*
X4096523Y-16035620D02*
X4125094Y-16021334D01*
X4182237Y-16021334D01*
X4210808Y-16035620D01*
X4225094Y-16049906D01*
X4239380Y-16078477D01*
X4239380Y-16164191D01*
X4225094Y-16192763D01*
X4210808Y-16207049D01*
X4182237Y-16221334D01*
X4125094Y-16221334D01*
X4096523Y-16207049D01*
X4367951Y-16192763D02*
X4382237Y-16207049D01*
X4367951Y-16221334D01*
X4353666Y-16207049D01*
X4367951Y-16192763D01*
X4367951Y-16221334D01*
X4367951Y-16035620D02*
X4382237Y-16049906D01*
X4367951Y-16064191D01*
X4353666Y-16049906D01*
X4367951Y-16035620D01*
X4367951Y-16064191D01*
X1674380Y-16540620D02*
X2024380Y-16890620D01*
X2024380Y-16540620D02*
X1674380Y-16890620D01*
X2282237Y-16551334D02*
X2467951Y-16551334D01*
X2367951Y-16665620D01*
X2410808Y-16665620D01*
X2439380Y-16679906D01*
X2453666Y-16694191D01*
X2467951Y-16722763D01*
X2467951Y-16794192D01*
X2453666Y-16822763D01*
X2439380Y-16837049D01*
X2410808Y-16851334D01*
X2325094Y-16851334D01*
X2296523Y-16837049D01*
X2282237Y-16822763D01*
X2596523Y-16822763D02*
X2610808Y-16837049D01*
X2596523Y-16851334D01*
X2582237Y-16837049D01*
X2596523Y-16822763D01*
X2596523Y-16851334D01*
X2882237Y-16551334D02*
X2739380Y-16551334D01*
X2725094Y-16694191D01*
X2739380Y-16679906D01*
X2767951Y-16665620D01*
X2839380Y-16665620D01*
X2867951Y-16679906D01*
X2882237Y-16694191D01*
X2896523Y-16722763D01*
X2896523Y-16794192D01*
X2882237Y-16822763D01*
X2867951Y-16837049D01*
X2839380Y-16851334D01*
X2767951Y-16851334D01*
X2739380Y-16837049D01*
X2725094Y-16822763D01*
X3082237Y-16551334D02*
X3110808Y-16551334D01*
X3139380Y-16565620D01*
X3153666Y-16579906D01*
X3167951Y-16608477D01*
X3182237Y-16665620D01*
X3182237Y-16737049D01*
X3167951Y-16794192D01*
X3153666Y-16822763D01*
X3139380Y-16837049D01*
X3110808Y-16851334D01*
X3082237Y-16851334D01*
X3053666Y-16837049D01*
X3039380Y-16822763D01*
X3025094Y-16794192D01*
X3010808Y-16737049D01*
X3010808Y-16665620D01*
X3025094Y-16608477D01*
X3039380Y-16579906D01*
X3053666Y-16565620D01*
X3082237Y-16551334D01*
X3367951Y-16551334D02*
X3396523Y-16551334D01*
X3425094Y-16565620D01*
X3439380Y-16579906D01*
X3453666Y-16608477D01*
X3467951Y-16665620D01*
X3467951Y-16737049D01*
X3453666Y-16794192D01*
X3439380Y-16822763D01*
X3425094Y-16837049D01*
X3396523Y-16851334D01*
X3367951Y-16851334D01*
X3339380Y-16837049D01*
X3325094Y-16822763D01*
X3310808Y-16794192D01*
X3296523Y-16737049D01*
X3296523Y-16665620D01*
X3310808Y-16608477D01*
X3325094Y-16579906D01*
X3339380Y-16565620D01*
X3367951Y-16551334D01*
X3596523Y-16851334D02*
X3596523Y-16651334D01*
X3596523Y-16679906D02*
X3610808Y-16665620D01*
X3639380Y-16651334D01*
X3682237Y-16651334D01*
X3710808Y-16665620D01*
X3725094Y-16694191D01*
X3725094Y-16851334D01*
X3725094Y-16694191D02*
X3739380Y-16665620D01*
X3767951Y-16651334D01*
X3810808Y-16651334D01*
X3839380Y-16665620D01*
X3853666Y-16694191D01*
X3853666Y-16851334D01*
X3996523Y-16851334D02*
X3996523Y-16651334D01*
X3996523Y-16679906D02*
X4010808Y-16665620D01*
X4039380Y-16651334D01*
X4082237Y-16651334D01*
X4110808Y-16665620D01*
X4125094Y-16694191D01*
X4125094Y-16851334D01*
X4125094Y-16694191D02*
X4139380Y-16665620D01*
X4167951Y-16651334D01*
X4210808Y-16651334D01*
X4239380Y-16665620D01*
X4253666Y-16694191D01*
X4253666Y-16851334D01*
X4839380Y-16537049D02*
X4582237Y-16922763D01*
X5225094Y-16551334D02*
X5253666Y-16551334D01*
X5282237Y-16565620D01*
X5296523Y-16579906D01*
X5310808Y-16608477D01*
X5325094Y-16665620D01*
X5325094Y-16737049D01*
X5310808Y-16794192D01*
X5296523Y-16822763D01*
X5282237Y-16837049D01*
X5253666Y-16851334D01*
X5225094Y-16851334D01*
X5196523Y-16837049D01*
X5182237Y-16822763D01*
X5167951Y-16794192D01*
X5153666Y-16737049D01*
X5153666Y-16665620D01*
X5167951Y-16608477D01*
X5182237Y-16579906D01*
X5196523Y-16565620D01*
X5225094Y-16551334D01*
X5453666Y-16822763D02*
X5467951Y-16837049D01*
X5453666Y-16851334D01*
X5439380Y-16837049D01*
X5453666Y-16822763D01*
X5453666Y-16851334D01*
X5753666Y-16851334D02*
X5582237Y-16851334D01*
X5667951Y-16851334D02*
X5667951Y-16551334D01*
X5639380Y-16594191D01*
X5610808Y-16622763D01*
X5582237Y-16637049D01*
X5853666Y-16551334D02*
X6039380Y-16551334D01*
X5939380Y-16665620D01*
X5982237Y-16665620D01*
X6010808Y-16679906D01*
X6025094Y-16694191D01*
X6039380Y-16722763D01*
X6039380Y-16794192D01*
X6025094Y-16822763D01*
X6010808Y-16837049D01*
X5982237Y-16851334D01*
X5896523Y-16851334D01*
X5867951Y-16837049D01*
X5853666Y-16822763D01*
X6139380Y-16551334D02*
X6339380Y-16551334D01*
X6210808Y-16851334D01*
X6496523Y-16679906D02*
X6467951Y-16665620D01*
X6453666Y-16651334D01*
X6439380Y-16622763D01*
X6439380Y-16608477D01*
X6453666Y-16579906D01*
X6467951Y-16565620D01*
X6496523Y-16551334D01*
X6553666Y-16551334D01*
X6582237Y-16565620D01*
X6596523Y-16579906D01*
X6610808Y-16608477D01*
X6610808Y-16622763D01*
X6596523Y-16651334D01*
X6582237Y-16665620D01*
X6553666Y-16679906D01*
X6496523Y-16679906D01*
X6467951Y-16694191D01*
X6453666Y-16708477D01*
X6439380Y-16737049D01*
X6439380Y-16794192D01*
X6453666Y-16822763D01*
X6467951Y-16837049D01*
X6496523Y-16851334D01*
X6553666Y-16851334D01*
X6582237Y-16837049D01*
X6596523Y-16822763D01*
X6610808Y-16794192D01*
X6610808Y-16737049D01*
X6596523Y-16708477D01*
X6582237Y-16694191D01*
X6553666Y-16679906D01*
X6725094Y-16551334D02*
X6725094Y-16608477D01*
X6839380Y-16551334D02*
X6839380Y-16608477D01*
X7282237Y-16965620D02*
X7267951Y-16951334D01*
X7239380Y-16908477D01*
X7225094Y-16879906D01*
X7210808Y-16837049D01*
X7196523Y-16765620D01*
X7196523Y-16708477D01*
X7210808Y-16637049D01*
X7225094Y-16594191D01*
X7239380Y-16565620D01*
X7267951Y-16522763D01*
X7282237Y-16508477D01*
X7553666Y-16851334D02*
X7382237Y-16851334D01*
X7467951Y-16851334D02*
X7467951Y-16551334D01*
X7439380Y-16594191D01*
X7410808Y-16622763D01*
X7382237Y-16637049D01*
X7910808Y-16851334D02*
X7910808Y-16551334D01*
X8039380Y-16851334D02*
X8039380Y-16694191D01*
X8025094Y-16665620D01*
X7996523Y-16651334D01*
X7953666Y-16651334D01*
X7925094Y-16665620D01*
X7910808Y-16679906D01*
X8225094Y-16851334D02*
X8196523Y-16837049D01*
X8182237Y-16822763D01*
X8167951Y-16794192D01*
X8167951Y-16708477D01*
X8182237Y-16679906D01*
X8196523Y-16665620D01*
X8225094Y-16651334D01*
X8267951Y-16651334D01*
X8296523Y-16665620D01*
X8310808Y-16679906D01*
X8325094Y-16708477D01*
X8325094Y-16794192D01*
X8310808Y-16822763D01*
X8296523Y-16837049D01*
X8267951Y-16851334D01*
X8225094Y-16851334D01*
X8496523Y-16851334D02*
X8467951Y-16837049D01*
X8453666Y-16808477D01*
X8453666Y-16551334D01*
X8725094Y-16837049D02*
X8696523Y-16851334D01*
X8639380Y-16851334D01*
X8610808Y-16837049D01*
X8596523Y-16808477D01*
X8596523Y-16694191D01*
X8610808Y-16665620D01*
X8639380Y-16651334D01*
X8696523Y-16651334D01*
X8725094Y-16665620D01*
X8739380Y-16694191D01*
X8739380Y-16722763D01*
X8596523Y-16751334D01*
X8839380Y-16965620D02*
X8853666Y-16951334D01*
X8882237Y-16908477D01*
X8896523Y-16879906D01*
X8910808Y-16837049D01*
X8925094Y-16765620D01*
X8925094Y-16708477D01*
X8910808Y-16637049D01*
X8896523Y-16594191D01*
X8882237Y-16565620D01*
X8853666Y-16522763D01*
X8839380Y-16508477D01*
X9382237Y-16965620D02*
X9367951Y-16951334D01*
X9339380Y-16908477D01*
X9325094Y-16879906D01*
X9310808Y-16837049D01*
X9296523Y-16765620D01*
X9296523Y-16708477D01*
X9310808Y-16637049D01*
X9325094Y-16594191D01*
X9339380Y-16565620D01*
X9367951Y-16522763D01*
X9382237Y-16508477D01*
X9496523Y-16651334D02*
X9496523Y-16851334D01*
X9496523Y-16679906D02*
X9510808Y-16665620D01*
X9539380Y-16651334D01*
X9582237Y-16651334D01*
X9610808Y-16665620D01*
X9625094Y-16694191D01*
X9625094Y-16851334D01*
X9810808Y-16851334D02*
X9782237Y-16837049D01*
X9767951Y-16822763D01*
X9753666Y-16794192D01*
X9753666Y-16708477D01*
X9767951Y-16679906D01*
X9782237Y-16665620D01*
X9810808Y-16651334D01*
X9853666Y-16651334D01*
X9882237Y-16665620D01*
X9896523Y-16679906D01*
X9910808Y-16708477D01*
X9910808Y-16794192D01*
X9896523Y-16822763D01*
X9882237Y-16837049D01*
X9853666Y-16851334D01*
X9810808Y-16851334D01*
X9996523Y-16651334D02*
X10110808Y-16651334D01*
X10039380Y-16551334D02*
X10039380Y-16808477D01*
X10053666Y-16837049D01*
X10082237Y-16851334D01*
X10110808Y-16851334D01*
X10439380Y-16651334D02*
X10439380Y-16951334D01*
X10439380Y-16665620D02*
X10467951Y-16651334D01*
X10525094Y-16651334D01*
X10553666Y-16665620D01*
X10567951Y-16679906D01*
X10582237Y-16708477D01*
X10582237Y-16794192D01*
X10567951Y-16822763D01*
X10553666Y-16837049D01*
X10525094Y-16851334D01*
X10467951Y-16851334D01*
X10439380Y-16837049D01*
X10753666Y-16851334D02*
X10725094Y-16837049D01*
X10710808Y-16808477D01*
X10710808Y-16551334D01*
X10996523Y-16851334D02*
X10996523Y-16694191D01*
X10982237Y-16665620D01*
X10953666Y-16651334D01*
X10896523Y-16651334D01*
X10867951Y-16665620D01*
X10996523Y-16837049D02*
X10967951Y-16851334D01*
X10896523Y-16851334D01*
X10867951Y-16837049D01*
X10853666Y-16808477D01*
X10853666Y-16779906D01*
X10867951Y-16751334D01*
X10896523Y-16737049D01*
X10967951Y-16737049D01*
X10996523Y-16722763D01*
X11096523Y-16651334D02*
X11210808Y-16651334D01*
X11139380Y-16551334D02*
X11139380Y-16808477D01*
X11153666Y-16837049D01*
X11182237Y-16851334D01*
X11210808Y-16851334D01*
X11425094Y-16837049D02*
X11396523Y-16851334D01*
X11339380Y-16851334D01*
X11310808Y-16837049D01*
X11296523Y-16808477D01*
X11296523Y-16694191D01*
X11310808Y-16665620D01*
X11339380Y-16651334D01*
X11396523Y-16651334D01*
X11425094Y-16665620D01*
X11439380Y-16694191D01*
X11439380Y-16722763D01*
X11296523Y-16751334D01*
X11696523Y-16851334D02*
X11696523Y-16551334D01*
X11696523Y-16837049D02*
X11667951Y-16851334D01*
X11610808Y-16851334D01*
X11582237Y-16837049D01*
X11567951Y-16822763D01*
X11553666Y-16794192D01*
X11553666Y-16708477D01*
X11567951Y-16679906D01*
X11582237Y-16665620D01*
X11610808Y-16651334D01*
X11667951Y-16651334D01*
X11696523Y-16665620D01*
X11810808Y-16965620D02*
X11825094Y-16951334D01*
X11853666Y-16908477D01*
X11867951Y-16879906D01*
X11882237Y-16837049D01*
X11896523Y-16765620D01*
X11896523Y-16708477D01*
X11882237Y-16637049D01*
X11867951Y-16594191D01*
X11853666Y-16565620D01*
X11825094Y-16522763D01*
X11810808Y-16508477D01*
M02*
