G04 #@! TF.GenerationSoftware,KiCad,Pcbnew,8.0.6*
G04 #@! TF.CreationDate,2024-10-27T13:27:24-07:00*
G04 #@! TF.ProjectId,Dazzler1 Rev D,44617a7a-6c65-4723-9120-52657620442e,rev?*
G04 #@! TF.SameCoordinates,Original*
G04 #@! TF.FileFunction,Legend,Bot*
G04 #@! TF.FilePolarity,Positive*
%FSLAX46Y46*%
G04 Gerber Fmt 4.6, Leading zero omitted, Abs format (unit mm)*
G04 Created by KiCad (PCBNEW 8.0.6) date 2024-10-27 13:27:24*
%MOMM*%
%LPD*%
G01*
G04 APERTURE LIST*
%ADD10C,0.100000*%
G04 APERTURE END LIST*
D10*
X254689877Y-147327672D02*
X254356544Y-147327672D01*
X254756544Y-147527672D02*
X254523211Y-146827672D01*
X254523211Y-146827672D02*
X254289877Y-147527672D01*
X254056544Y-147527672D02*
X254056544Y-147061005D01*
X254056544Y-147194339D02*
X254023211Y-147127672D01*
X254023211Y-147127672D02*
X253989877Y-147094339D01*
X253989877Y-147094339D02*
X253923211Y-147061005D01*
X253923211Y-147061005D02*
X253856544Y-147061005D01*
X253723211Y-147061005D02*
X253456544Y-147061005D01*
X253623211Y-146827672D02*
X253623211Y-147427672D01*
X253623211Y-147427672D02*
X253589878Y-147494339D01*
X253589878Y-147494339D02*
X253523211Y-147527672D01*
X253523211Y-147527672D02*
X253456544Y-147527672D01*
X253289878Y-147061005D02*
X253156544Y-147527672D01*
X253156544Y-147527672D02*
X253023211Y-147194339D01*
X253023211Y-147194339D02*
X252889878Y-147527672D01*
X252889878Y-147527672D02*
X252756544Y-147061005D01*
X252389878Y-147527672D02*
X252456545Y-147494339D01*
X252456545Y-147494339D02*
X252489878Y-147461005D01*
X252489878Y-147461005D02*
X252523211Y-147394339D01*
X252523211Y-147394339D02*
X252523211Y-147194339D01*
X252523211Y-147194339D02*
X252489878Y-147127672D01*
X252489878Y-147127672D02*
X252456545Y-147094339D01*
X252456545Y-147094339D02*
X252389878Y-147061005D01*
X252389878Y-147061005D02*
X252289878Y-147061005D01*
X252289878Y-147061005D02*
X252223211Y-147094339D01*
X252223211Y-147094339D02*
X252189878Y-147127672D01*
X252189878Y-147127672D02*
X252156545Y-147194339D01*
X252156545Y-147194339D02*
X252156545Y-147394339D01*
X252156545Y-147394339D02*
X252189878Y-147461005D01*
X252189878Y-147461005D02*
X252223211Y-147494339D01*
X252223211Y-147494339D02*
X252289878Y-147527672D01*
X252289878Y-147527672D02*
X252389878Y-147527672D01*
X251856545Y-147527672D02*
X251856545Y-147061005D01*
X251856545Y-147194339D02*
X251823212Y-147127672D01*
X251823212Y-147127672D02*
X251789878Y-147094339D01*
X251789878Y-147094339D02*
X251723212Y-147061005D01*
X251723212Y-147061005D02*
X251656545Y-147061005D01*
X251423212Y-147527672D02*
X251423212Y-146827672D01*
X251356545Y-147261005D02*
X251156545Y-147527672D01*
X251156545Y-147061005D02*
X251423212Y-147327672D01*
X250323212Y-147527672D02*
X250323212Y-147061005D01*
X250323212Y-147194339D02*
X250289879Y-147127672D01*
X250289879Y-147127672D02*
X250256545Y-147094339D01*
X250256545Y-147094339D02*
X250189879Y-147061005D01*
X250189879Y-147061005D02*
X250123212Y-147061005D01*
X249623212Y-147494339D02*
X249689879Y-147527672D01*
X249689879Y-147527672D02*
X249823212Y-147527672D01*
X249823212Y-147527672D02*
X249889879Y-147494339D01*
X249889879Y-147494339D02*
X249923212Y-147427672D01*
X249923212Y-147427672D02*
X249923212Y-147161005D01*
X249923212Y-147161005D02*
X249889879Y-147094339D01*
X249889879Y-147094339D02*
X249823212Y-147061005D01*
X249823212Y-147061005D02*
X249689879Y-147061005D01*
X249689879Y-147061005D02*
X249623212Y-147094339D01*
X249623212Y-147094339D02*
X249589879Y-147161005D01*
X249589879Y-147161005D02*
X249589879Y-147227672D01*
X249589879Y-147227672D02*
X249923212Y-147294339D01*
X248989879Y-147494339D02*
X249056546Y-147527672D01*
X249056546Y-147527672D02*
X249189879Y-147527672D01*
X249189879Y-147527672D02*
X249256546Y-147494339D01*
X249256546Y-147494339D02*
X249289879Y-147461005D01*
X249289879Y-147461005D02*
X249323212Y-147394339D01*
X249323212Y-147394339D02*
X249323212Y-147194339D01*
X249323212Y-147194339D02*
X249289879Y-147127672D01*
X249289879Y-147127672D02*
X249256546Y-147094339D01*
X249256546Y-147094339D02*
X249189879Y-147061005D01*
X249189879Y-147061005D02*
X249056546Y-147061005D01*
X249056546Y-147061005D02*
X248989879Y-147094339D01*
X248689879Y-147527672D02*
X248689879Y-147061005D01*
X248689879Y-147194339D02*
X248656546Y-147127672D01*
X248656546Y-147127672D02*
X248623212Y-147094339D01*
X248623212Y-147094339D02*
X248556546Y-147061005D01*
X248556546Y-147061005D02*
X248489879Y-147061005D01*
X247989879Y-147494339D02*
X248056546Y-147527672D01*
X248056546Y-147527672D02*
X248189879Y-147527672D01*
X248189879Y-147527672D02*
X248256546Y-147494339D01*
X248256546Y-147494339D02*
X248289879Y-147427672D01*
X248289879Y-147427672D02*
X248289879Y-147161005D01*
X248289879Y-147161005D02*
X248256546Y-147094339D01*
X248256546Y-147094339D02*
X248189879Y-147061005D01*
X248189879Y-147061005D02*
X248056546Y-147061005D01*
X248056546Y-147061005D02*
X247989879Y-147094339D01*
X247989879Y-147094339D02*
X247956546Y-147161005D01*
X247956546Y-147161005D02*
X247956546Y-147227672D01*
X247956546Y-147227672D02*
X248289879Y-147294339D01*
X247356546Y-147527672D02*
X247356546Y-147161005D01*
X247356546Y-147161005D02*
X247389879Y-147094339D01*
X247389879Y-147094339D02*
X247456546Y-147061005D01*
X247456546Y-147061005D02*
X247589879Y-147061005D01*
X247589879Y-147061005D02*
X247656546Y-147094339D01*
X247356546Y-147494339D02*
X247423213Y-147527672D01*
X247423213Y-147527672D02*
X247589879Y-147527672D01*
X247589879Y-147527672D02*
X247656546Y-147494339D01*
X247656546Y-147494339D02*
X247689879Y-147427672D01*
X247689879Y-147427672D02*
X247689879Y-147361005D01*
X247689879Y-147361005D02*
X247656546Y-147294339D01*
X247656546Y-147294339D02*
X247589879Y-147261005D01*
X247589879Y-147261005D02*
X247423213Y-147261005D01*
X247423213Y-147261005D02*
X247356546Y-147227672D01*
X247123213Y-147061005D02*
X246856546Y-147061005D01*
X247023213Y-146827672D02*
X247023213Y-147427672D01*
X247023213Y-147427672D02*
X246989880Y-147494339D01*
X246989880Y-147494339D02*
X246923213Y-147527672D01*
X246923213Y-147527672D02*
X246856546Y-147527672D01*
X246356546Y-147494339D02*
X246423213Y-147527672D01*
X246423213Y-147527672D02*
X246556546Y-147527672D01*
X246556546Y-147527672D02*
X246623213Y-147494339D01*
X246623213Y-147494339D02*
X246656546Y-147427672D01*
X246656546Y-147427672D02*
X246656546Y-147161005D01*
X246656546Y-147161005D02*
X246623213Y-147094339D01*
X246623213Y-147094339D02*
X246556546Y-147061005D01*
X246556546Y-147061005D02*
X246423213Y-147061005D01*
X246423213Y-147061005D02*
X246356546Y-147094339D01*
X246356546Y-147094339D02*
X246323213Y-147161005D01*
X246323213Y-147161005D02*
X246323213Y-147227672D01*
X246323213Y-147227672D02*
X246656546Y-147294339D01*
X245723213Y-147527672D02*
X245723213Y-146827672D01*
X245723213Y-147494339D02*
X245789880Y-147527672D01*
X245789880Y-147527672D02*
X245923213Y-147527672D01*
X245923213Y-147527672D02*
X245989880Y-147494339D01*
X245989880Y-147494339D02*
X246023213Y-147461005D01*
X246023213Y-147461005D02*
X246056546Y-147394339D01*
X246056546Y-147394339D02*
X246056546Y-147194339D01*
X246056546Y-147194339D02*
X246023213Y-147127672D01*
X246023213Y-147127672D02*
X245989880Y-147094339D01*
X245989880Y-147094339D02*
X245923213Y-147061005D01*
X245923213Y-147061005D02*
X245789880Y-147061005D01*
X245789880Y-147061005D02*
X245723213Y-147094339D01*
X244856547Y-147527672D02*
X244856547Y-146827672D01*
X244856547Y-147094339D02*
X244789880Y-147061005D01*
X244789880Y-147061005D02*
X244656547Y-147061005D01*
X244656547Y-147061005D02*
X244589880Y-147094339D01*
X244589880Y-147094339D02*
X244556547Y-147127672D01*
X244556547Y-147127672D02*
X244523214Y-147194339D01*
X244523214Y-147194339D02*
X244523214Y-147394339D01*
X244523214Y-147394339D02*
X244556547Y-147461005D01*
X244556547Y-147461005D02*
X244589880Y-147494339D01*
X244589880Y-147494339D02*
X244656547Y-147527672D01*
X244656547Y-147527672D02*
X244789880Y-147527672D01*
X244789880Y-147527672D02*
X244856547Y-147494339D01*
X244289881Y-147061005D02*
X244123214Y-147527672D01*
X243956547Y-147061005D02*
X244123214Y-147527672D01*
X244123214Y-147527672D02*
X244189881Y-147694339D01*
X244189881Y-147694339D02*
X244223214Y-147727672D01*
X244223214Y-147727672D02*
X244289881Y-147761005D01*
X243156548Y-147527672D02*
X243156548Y-146827672D01*
X243156548Y-147161005D02*
X242756548Y-147161005D01*
X242756548Y-147527672D02*
X242756548Y-146827672D01*
X242123215Y-147061005D02*
X242123215Y-147527672D01*
X242423215Y-147061005D02*
X242423215Y-147427672D01*
X242423215Y-147427672D02*
X242389882Y-147494339D01*
X242389882Y-147494339D02*
X242323215Y-147527672D01*
X242323215Y-147527672D02*
X242223215Y-147527672D01*
X242223215Y-147527672D02*
X242156548Y-147494339D01*
X242156548Y-147494339D02*
X242123215Y-147461005D01*
X241489882Y-147061005D02*
X241489882Y-147627672D01*
X241489882Y-147627672D02*
X241523215Y-147694339D01*
X241523215Y-147694339D02*
X241556549Y-147727672D01*
X241556549Y-147727672D02*
X241623215Y-147761005D01*
X241623215Y-147761005D02*
X241723215Y-147761005D01*
X241723215Y-147761005D02*
X241789882Y-147727672D01*
X241489882Y-147494339D02*
X241556549Y-147527672D01*
X241556549Y-147527672D02*
X241689882Y-147527672D01*
X241689882Y-147527672D02*
X241756549Y-147494339D01*
X241756549Y-147494339D02*
X241789882Y-147461005D01*
X241789882Y-147461005D02*
X241823215Y-147394339D01*
X241823215Y-147394339D02*
X241823215Y-147194339D01*
X241823215Y-147194339D02*
X241789882Y-147127672D01*
X241789882Y-147127672D02*
X241756549Y-147094339D01*
X241756549Y-147094339D02*
X241689882Y-147061005D01*
X241689882Y-147061005D02*
X241556549Y-147061005D01*
X241556549Y-147061005D02*
X241489882Y-147094339D01*
X241056549Y-147527672D02*
X241123216Y-147494339D01*
X241123216Y-147494339D02*
X241156549Y-147461005D01*
X241156549Y-147461005D02*
X241189882Y-147394339D01*
X241189882Y-147394339D02*
X241189882Y-147194339D01*
X241189882Y-147194339D02*
X241156549Y-147127672D01*
X241156549Y-147127672D02*
X241123216Y-147094339D01*
X241123216Y-147094339D02*
X241056549Y-147061005D01*
X241056549Y-147061005D02*
X240956549Y-147061005D01*
X240956549Y-147061005D02*
X240889882Y-147094339D01*
X240889882Y-147094339D02*
X240856549Y-147127672D01*
X240856549Y-147127672D02*
X240823216Y-147194339D01*
X240823216Y-147194339D02*
X240823216Y-147394339D01*
X240823216Y-147394339D02*
X240856549Y-147461005D01*
X240856549Y-147461005D02*
X240889882Y-147494339D01*
X240889882Y-147494339D02*
X240956549Y-147527672D01*
X240956549Y-147527672D02*
X241056549Y-147527672D01*
X239989883Y-147527672D02*
X239989883Y-146827672D01*
X239989883Y-147161005D02*
X239589883Y-147161005D01*
X239589883Y-147527672D02*
X239589883Y-146827672D01*
X239156550Y-147527672D02*
X239223217Y-147494339D01*
X239223217Y-147494339D02*
X239256550Y-147461005D01*
X239256550Y-147461005D02*
X239289883Y-147394339D01*
X239289883Y-147394339D02*
X239289883Y-147194339D01*
X239289883Y-147194339D02*
X239256550Y-147127672D01*
X239256550Y-147127672D02*
X239223217Y-147094339D01*
X239223217Y-147094339D02*
X239156550Y-147061005D01*
X239156550Y-147061005D02*
X239056550Y-147061005D01*
X239056550Y-147061005D02*
X238989883Y-147094339D01*
X238989883Y-147094339D02*
X238956550Y-147127672D01*
X238956550Y-147127672D02*
X238923217Y-147194339D01*
X238923217Y-147194339D02*
X238923217Y-147394339D01*
X238923217Y-147394339D02*
X238956550Y-147461005D01*
X238956550Y-147461005D02*
X238989883Y-147494339D01*
X238989883Y-147494339D02*
X239056550Y-147527672D01*
X239056550Y-147527672D02*
X239156550Y-147527672D01*
X238523217Y-147527672D02*
X238589884Y-147494339D01*
X238589884Y-147494339D02*
X238623217Y-147427672D01*
X238623217Y-147427672D02*
X238623217Y-146827672D01*
X237956550Y-147527672D02*
X237956550Y-146827672D01*
X237956550Y-147494339D02*
X238023217Y-147527672D01*
X238023217Y-147527672D02*
X238156550Y-147527672D01*
X238156550Y-147527672D02*
X238223217Y-147494339D01*
X238223217Y-147494339D02*
X238256550Y-147461005D01*
X238256550Y-147461005D02*
X238289883Y-147394339D01*
X238289883Y-147394339D02*
X238289883Y-147194339D01*
X238289883Y-147194339D02*
X238256550Y-147127672D01*
X238256550Y-147127672D02*
X238223217Y-147094339D01*
X238223217Y-147094339D02*
X238156550Y-147061005D01*
X238156550Y-147061005D02*
X238023217Y-147061005D01*
X238023217Y-147061005D02*
X237956550Y-147094339D01*
X237356550Y-147494339D02*
X237423217Y-147527672D01*
X237423217Y-147527672D02*
X237556550Y-147527672D01*
X237556550Y-147527672D02*
X237623217Y-147494339D01*
X237623217Y-147494339D02*
X237656550Y-147427672D01*
X237656550Y-147427672D02*
X237656550Y-147161005D01*
X237656550Y-147161005D02*
X237623217Y-147094339D01*
X237623217Y-147094339D02*
X237556550Y-147061005D01*
X237556550Y-147061005D02*
X237423217Y-147061005D01*
X237423217Y-147061005D02*
X237356550Y-147094339D01*
X237356550Y-147094339D02*
X237323217Y-147161005D01*
X237323217Y-147161005D02*
X237323217Y-147227672D01*
X237323217Y-147227672D02*
X237656550Y-147294339D01*
X237023217Y-147061005D02*
X237023217Y-147527672D01*
X237023217Y-147127672D02*
X236989884Y-147094339D01*
X236989884Y-147094339D02*
X236923217Y-147061005D01*
X236923217Y-147061005D02*
X236823217Y-147061005D01*
X236823217Y-147061005D02*
X236756550Y-147094339D01*
X236756550Y-147094339D02*
X236723217Y-147161005D01*
X236723217Y-147161005D02*
X236723217Y-147527672D01*
X254656544Y-148654633D02*
X254656544Y-147954633D01*
X254656544Y-147954633D02*
X254389877Y-147954633D01*
X254389877Y-147954633D02*
X254323211Y-147987966D01*
X254323211Y-147987966D02*
X254289877Y-148021300D01*
X254289877Y-148021300D02*
X254256544Y-148087966D01*
X254256544Y-148087966D02*
X254256544Y-148187966D01*
X254256544Y-148187966D02*
X254289877Y-148254633D01*
X254289877Y-148254633D02*
X254323211Y-148287966D01*
X254323211Y-148287966D02*
X254389877Y-148321300D01*
X254389877Y-148321300D02*
X254656544Y-148321300D01*
X253556544Y-148587966D02*
X253589877Y-148621300D01*
X253589877Y-148621300D02*
X253689877Y-148654633D01*
X253689877Y-148654633D02*
X253756544Y-148654633D01*
X253756544Y-148654633D02*
X253856544Y-148621300D01*
X253856544Y-148621300D02*
X253923211Y-148554633D01*
X253923211Y-148554633D02*
X253956544Y-148487966D01*
X253956544Y-148487966D02*
X253989877Y-148354633D01*
X253989877Y-148354633D02*
X253989877Y-148254633D01*
X253989877Y-148254633D02*
X253956544Y-148121300D01*
X253956544Y-148121300D02*
X253923211Y-148054633D01*
X253923211Y-148054633D02*
X253856544Y-147987966D01*
X253856544Y-147987966D02*
X253756544Y-147954633D01*
X253756544Y-147954633D02*
X253689877Y-147954633D01*
X253689877Y-147954633D02*
X253589877Y-147987966D01*
X253589877Y-147987966D02*
X253556544Y-148021300D01*
X253023211Y-148287966D02*
X252923211Y-148321300D01*
X252923211Y-148321300D02*
X252889877Y-148354633D01*
X252889877Y-148354633D02*
X252856544Y-148421300D01*
X252856544Y-148421300D02*
X252856544Y-148521300D01*
X252856544Y-148521300D02*
X252889877Y-148587966D01*
X252889877Y-148587966D02*
X252923211Y-148621300D01*
X252923211Y-148621300D02*
X252989877Y-148654633D01*
X252989877Y-148654633D02*
X253256544Y-148654633D01*
X253256544Y-148654633D02*
X253256544Y-147954633D01*
X253256544Y-147954633D02*
X253023211Y-147954633D01*
X253023211Y-147954633D02*
X252956544Y-147987966D01*
X252956544Y-147987966D02*
X252923211Y-148021300D01*
X252923211Y-148021300D02*
X252889877Y-148087966D01*
X252889877Y-148087966D02*
X252889877Y-148154633D01*
X252889877Y-148154633D02*
X252923211Y-148221300D01*
X252923211Y-148221300D02*
X252956544Y-148254633D01*
X252956544Y-148254633D02*
X253023211Y-148287966D01*
X253023211Y-148287966D02*
X253256544Y-148287966D01*
X251689878Y-148654633D02*
X252023211Y-148654633D01*
X252023211Y-148654633D02*
X252023211Y-147954633D01*
X251156544Y-148654633D02*
X251156544Y-148287966D01*
X251156544Y-148287966D02*
X251189877Y-148221300D01*
X251189877Y-148221300D02*
X251256544Y-148187966D01*
X251256544Y-148187966D02*
X251389877Y-148187966D01*
X251389877Y-148187966D02*
X251456544Y-148221300D01*
X251156544Y-148621300D02*
X251223211Y-148654633D01*
X251223211Y-148654633D02*
X251389877Y-148654633D01*
X251389877Y-148654633D02*
X251456544Y-148621300D01*
X251456544Y-148621300D02*
X251489877Y-148554633D01*
X251489877Y-148554633D02*
X251489877Y-148487966D01*
X251489877Y-148487966D02*
X251456544Y-148421300D01*
X251456544Y-148421300D02*
X251389877Y-148387966D01*
X251389877Y-148387966D02*
X251223211Y-148387966D01*
X251223211Y-148387966D02*
X251156544Y-148354633D01*
X250889878Y-148187966D02*
X250723211Y-148654633D01*
X250556544Y-148187966D02*
X250723211Y-148654633D01*
X250723211Y-148654633D02*
X250789878Y-148821300D01*
X250789878Y-148821300D02*
X250823211Y-148854633D01*
X250823211Y-148854633D02*
X250889878Y-148887966D01*
X250189878Y-148654633D02*
X250256545Y-148621300D01*
X250256545Y-148621300D02*
X250289878Y-148587966D01*
X250289878Y-148587966D02*
X250323211Y-148521300D01*
X250323211Y-148521300D02*
X250323211Y-148321300D01*
X250323211Y-148321300D02*
X250289878Y-148254633D01*
X250289878Y-148254633D02*
X250256545Y-148221300D01*
X250256545Y-148221300D02*
X250189878Y-148187966D01*
X250189878Y-148187966D02*
X250089878Y-148187966D01*
X250089878Y-148187966D02*
X250023211Y-148221300D01*
X250023211Y-148221300D02*
X249989878Y-148254633D01*
X249989878Y-148254633D02*
X249956545Y-148321300D01*
X249956545Y-148321300D02*
X249956545Y-148521300D01*
X249956545Y-148521300D02*
X249989878Y-148587966D01*
X249989878Y-148587966D02*
X250023211Y-148621300D01*
X250023211Y-148621300D02*
X250089878Y-148654633D01*
X250089878Y-148654633D02*
X250189878Y-148654633D01*
X249356545Y-148187966D02*
X249356545Y-148654633D01*
X249656545Y-148187966D02*
X249656545Y-148554633D01*
X249656545Y-148554633D02*
X249623212Y-148621300D01*
X249623212Y-148621300D02*
X249556545Y-148654633D01*
X249556545Y-148654633D02*
X249456545Y-148654633D01*
X249456545Y-148654633D02*
X249389878Y-148621300D01*
X249389878Y-148621300D02*
X249356545Y-148587966D01*
X249123212Y-148187966D02*
X248856545Y-148187966D01*
X249023212Y-147954633D02*
X249023212Y-148554633D01*
X249023212Y-148554633D02*
X248989879Y-148621300D01*
X248989879Y-148621300D02*
X248923212Y-148654633D01*
X248923212Y-148654633D02*
X248856545Y-148654633D01*
X248089879Y-148654633D02*
X248089879Y-147954633D01*
X248089879Y-148221300D02*
X248023212Y-148187966D01*
X248023212Y-148187966D02*
X247889879Y-148187966D01*
X247889879Y-148187966D02*
X247823212Y-148221300D01*
X247823212Y-148221300D02*
X247789879Y-148254633D01*
X247789879Y-148254633D02*
X247756546Y-148321300D01*
X247756546Y-148321300D02*
X247756546Y-148521300D01*
X247756546Y-148521300D02*
X247789879Y-148587966D01*
X247789879Y-148587966D02*
X247823212Y-148621300D01*
X247823212Y-148621300D02*
X247889879Y-148654633D01*
X247889879Y-148654633D02*
X248023212Y-148654633D01*
X248023212Y-148654633D02*
X248089879Y-148621300D01*
X247523213Y-148187966D02*
X247356546Y-148654633D01*
X247189879Y-148187966D02*
X247356546Y-148654633D01*
X247356546Y-148654633D02*
X247423213Y-148821300D01*
X247423213Y-148821300D02*
X247456546Y-148854633D01*
X247456546Y-148854633D02*
X247523213Y-148887966D01*
X246023213Y-147987966D02*
X246089880Y-147954633D01*
X246089880Y-147954633D02*
X246189880Y-147954633D01*
X246189880Y-147954633D02*
X246289880Y-147987966D01*
X246289880Y-147987966D02*
X246356547Y-148054633D01*
X246356547Y-148054633D02*
X246389880Y-148121300D01*
X246389880Y-148121300D02*
X246423213Y-148254633D01*
X246423213Y-148254633D02*
X246423213Y-148354633D01*
X246423213Y-148354633D02*
X246389880Y-148487966D01*
X246389880Y-148487966D02*
X246356547Y-148554633D01*
X246356547Y-148554633D02*
X246289880Y-148621300D01*
X246289880Y-148621300D02*
X246189880Y-148654633D01*
X246189880Y-148654633D02*
X246123213Y-148654633D01*
X246123213Y-148654633D02*
X246023213Y-148621300D01*
X246023213Y-148621300D02*
X245989880Y-148587966D01*
X245989880Y-148587966D02*
X245989880Y-148354633D01*
X245989880Y-148354633D02*
X246123213Y-148354633D01*
X245389880Y-148654633D02*
X245389880Y-148287966D01*
X245389880Y-148287966D02*
X245423213Y-148221300D01*
X245423213Y-148221300D02*
X245489880Y-148187966D01*
X245489880Y-148187966D02*
X245623213Y-148187966D01*
X245623213Y-148187966D02*
X245689880Y-148221300D01*
X245389880Y-148621300D02*
X245456547Y-148654633D01*
X245456547Y-148654633D02*
X245623213Y-148654633D01*
X245623213Y-148654633D02*
X245689880Y-148621300D01*
X245689880Y-148621300D02*
X245723213Y-148554633D01*
X245723213Y-148554633D02*
X245723213Y-148487966D01*
X245723213Y-148487966D02*
X245689880Y-148421300D01*
X245689880Y-148421300D02*
X245623213Y-148387966D01*
X245623213Y-148387966D02*
X245456547Y-148387966D01*
X245456547Y-148387966D02*
X245389880Y-148354633D01*
X245056547Y-148654633D02*
X245056547Y-148187966D01*
X245056547Y-148321300D02*
X245023214Y-148254633D01*
X245023214Y-148254633D02*
X244989880Y-148221300D01*
X244989880Y-148221300D02*
X244923214Y-148187966D01*
X244923214Y-148187966D02*
X244856547Y-148187966D01*
X244689881Y-148187966D02*
X244523214Y-148654633D01*
X244356547Y-148187966D02*
X244523214Y-148654633D01*
X244523214Y-148654633D02*
X244589881Y-148821300D01*
X244589881Y-148821300D02*
X244623214Y-148854633D01*
X244623214Y-148854633D02*
X244689881Y-148887966D01*
X243156548Y-148587966D02*
X243189881Y-148621300D01*
X243189881Y-148621300D02*
X243289881Y-148654633D01*
X243289881Y-148654633D02*
X243356548Y-148654633D01*
X243356548Y-148654633D02*
X243456548Y-148621300D01*
X243456548Y-148621300D02*
X243523215Y-148554633D01*
X243523215Y-148554633D02*
X243556548Y-148487966D01*
X243556548Y-148487966D02*
X243589881Y-148354633D01*
X243589881Y-148354633D02*
X243589881Y-148254633D01*
X243589881Y-148254633D02*
X243556548Y-148121300D01*
X243556548Y-148121300D02*
X243523215Y-148054633D01*
X243523215Y-148054633D02*
X243456548Y-147987966D01*
X243456548Y-147987966D02*
X243356548Y-147954633D01*
X243356548Y-147954633D02*
X243289881Y-147954633D01*
X243289881Y-147954633D02*
X243189881Y-147987966D01*
X243189881Y-147987966D02*
X243156548Y-148021300D01*
X242756548Y-148654633D02*
X242823215Y-148621300D01*
X242823215Y-148621300D02*
X242856548Y-148554633D01*
X242856548Y-148554633D02*
X242856548Y-147954633D01*
X242189881Y-148654633D02*
X242189881Y-148287966D01*
X242189881Y-148287966D02*
X242223214Y-148221300D01*
X242223214Y-148221300D02*
X242289881Y-148187966D01*
X242289881Y-148187966D02*
X242423214Y-148187966D01*
X242423214Y-148187966D02*
X242489881Y-148221300D01*
X242189881Y-148621300D02*
X242256548Y-148654633D01*
X242256548Y-148654633D02*
X242423214Y-148654633D01*
X242423214Y-148654633D02*
X242489881Y-148621300D01*
X242489881Y-148621300D02*
X242523214Y-148554633D01*
X242523214Y-148554633D02*
X242523214Y-148487966D01*
X242523214Y-148487966D02*
X242489881Y-148421300D01*
X242489881Y-148421300D02*
X242423214Y-148387966D01*
X242423214Y-148387966D02*
X242256548Y-148387966D01*
X242256548Y-148387966D02*
X242189881Y-148354633D01*
X241856548Y-148654633D02*
X241856548Y-148187966D01*
X241856548Y-148321300D02*
X241823215Y-148254633D01*
X241823215Y-148254633D02*
X241789881Y-148221300D01*
X241789881Y-148221300D02*
X241723215Y-148187966D01*
X241723215Y-148187966D02*
X241656548Y-148187966D01*
X241423215Y-148654633D02*
X241423215Y-147954633D01*
X241356548Y-148387966D02*
X241156548Y-148654633D01*
X241156548Y-148187966D02*
X241423215Y-148454633D01*
X240323215Y-148387966D02*
X239789882Y-148387966D01*
X238923215Y-148654633D02*
X238923215Y-147954633D01*
X238923215Y-147954633D02*
X238523215Y-148654633D01*
X238523215Y-148654633D02*
X238523215Y-147954633D01*
X238089882Y-148654633D02*
X238156549Y-148621300D01*
X238156549Y-148621300D02*
X238189882Y-148587966D01*
X238189882Y-148587966D02*
X238223215Y-148521300D01*
X238223215Y-148521300D02*
X238223215Y-148321300D01*
X238223215Y-148321300D02*
X238189882Y-148254633D01*
X238189882Y-148254633D02*
X238156549Y-148221300D01*
X238156549Y-148221300D02*
X238089882Y-148187966D01*
X238089882Y-148187966D02*
X237989882Y-148187966D01*
X237989882Y-148187966D02*
X237923215Y-148221300D01*
X237923215Y-148221300D02*
X237889882Y-148254633D01*
X237889882Y-148254633D02*
X237856549Y-148321300D01*
X237856549Y-148321300D02*
X237856549Y-148521300D01*
X237856549Y-148521300D02*
X237889882Y-148587966D01*
X237889882Y-148587966D02*
X237923215Y-148621300D01*
X237923215Y-148621300D02*
X237989882Y-148654633D01*
X237989882Y-148654633D02*
X238089882Y-148654633D01*
X237556549Y-148654633D02*
X237556549Y-148187966D01*
X237556549Y-148321300D02*
X237523216Y-148254633D01*
X237523216Y-148254633D02*
X237489882Y-148221300D01*
X237489882Y-148221300D02*
X237423216Y-148187966D01*
X237423216Y-148187966D02*
X237356549Y-148187966D01*
X237223216Y-148187966D02*
X236956549Y-148187966D01*
X237123216Y-147954633D02*
X237123216Y-148554633D01*
X237123216Y-148554633D02*
X237089883Y-148621300D01*
X237089883Y-148621300D02*
X237023216Y-148654633D01*
X237023216Y-148654633D02*
X236956549Y-148654633D01*
X236723216Y-148654633D02*
X236723216Y-147954633D01*
X236423216Y-148654633D02*
X236423216Y-148287966D01*
X236423216Y-148287966D02*
X236456549Y-148221300D01*
X236456549Y-148221300D02*
X236523216Y-148187966D01*
X236523216Y-148187966D02*
X236623216Y-148187966D01*
X236623216Y-148187966D02*
X236689883Y-148221300D01*
X236689883Y-148221300D02*
X236723216Y-148254633D01*
X235623217Y-147954633D02*
X235456550Y-148654633D01*
X235456550Y-148654633D02*
X235323217Y-148154633D01*
X235323217Y-148154633D02*
X235189883Y-148654633D01*
X235189883Y-148654633D02*
X235023217Y-147954633D01*
X234489883Y-148621300D02*
X234556550Y-148654633D01*
X234556550Y-148654633D02*
X234689883Y-148654633D01*
X234689883Y-148654633D02*
X234756550Y-148621300D01*
X234756550Y-148621300D02*
X234789883Y-148554633D01*
X234789883Y-148554633D02*
X234789883Y-148287966D01*
X234789883Y-148287966D02*
X234756550Y-148221300D01*
X234756550Y-148221300D02*
X234689883Y-148187966D01*
X234689883Y-148187966D02*
X234556550Y-148187966D01*
X234556550Y-148187966D02*
X234489883Y-148221300D01*
X234489883Y-148221300D02*
X234456550Y-148287966D01*
X234456550Y-148287966D02*
X234456550Y-148354633D01*
X234456550Y-148354633D02*
X234789883Y-148421300D01*
X234189883Y-148621300D02*
X234123217Y-148654633D01*
X234123217Y-148654633D02*
X233989883Y-148654633D01*
X233989883Y-148654633D02*
X233923217Y-148621300D01*
X233923217Y-148621300D02*
X233889883Y-148554633D01*
X233889883Y-148554633D02*
X233889883Y-148521300D01*
X233889883Y-148521300D02*
X233923217Y-148454633D01*
X233923217Y-148454633D02*
X233989883Y-148421300D01*
X233989883Y-148421300D02*
X234089883Y-148421300D01*
X234089883Y-148421300D02*
X234156550Y-148387966D01*
X234156550Y-148387966D02*
X234189883Y-148321300D01*
X234189883Y-148321300D02*
X234189883Y-148287966D01*
X234189883Y-148287966D02*
X234156550Y-148221300D01*
X234156550Y-148221300D02*
X234089883Y-148187966D01*
X234089883Y-148187966D02*
X233989883Y-148187966D01*
X233989883Y-148187966D02*
X233923217Y-148221300D01*
X233689883Y-148187966D02*
X233423216Y-148187966D01*
X233589883Y-147954633D02*
X233589883Y-148554633D01*
X233589883Y-148554633D02*
X233556550Y-148621300D01*
X233556550Y-148621300D02*
X233489883Y-148654633D01*
X233489883Y-148654633D02*
X233423216Y-148654633D01*
X232256550Y-148587966D02*
X232289883Y-148621300D01*
X232289883Y-148621300D02*
X232389883Y-148654633D01*
X232389883Y-148654633D02*
X232456550Y-148654633D01*
X232456550Y-148654633D02*
X232556550Y-148621300D01*
X232556550Y-148621300D02*
X232623217Y-148554633D01*
X232623217Y-148554633D02*
X232656550Y-148487966D01*
X232656550Y-148487966D02*
X232689883Y-148354633D01*
X232689883Y-148354633D02*
X232689883Y-148254633D01*
X232689883Y-148254633D02*
X232656550Y-148121300D01*
X232656550Y-148121300D02*
X232623217Y-148054633D01*
X232623217Y-148054633D02*
X232556550Y-147987966D01*
X232556550Y-147987966D02*
X232456550Y-147954633D01*
X232456550Y-147954633D02*
X232389883Y-147954633D01*
X232389883Y-147954633D02*
X232289883Y-147987966D01*
X232289883Y-147987966D02*
X232256550Y-148021300D01*
X231856550Y-148654633D02*
X231923217Y-148621300D01*
X231923217Y-148621300D02*
X231956550Y-148587966D01*
X231956550Y-148587966D02*
X231989883Y-148521300D01*
X231989883Y-148521300D02*
X231989883Y-148321300D01*
X231989883Y-148321300D02*
X231956550Y-148254633D01*
X231956550Y-148254633D02*
X231923217Y-148221300D01*
X231923217Y-148221300D02*
X231856550Y-148187966D01*
X231856550Y-148187966D02*
X231756550Y-148187966D01*
X231756550Y-148187966D02*
X231689883Y-148221300D01*
X231689883Y-148221300D02*
X231656550Y-148254633D01*
X231656550Y-148254633D02*
X231623217Y-148321300D01*
X231623217Y-148321300D02*
X231623217Y-148521300D01*
X231623217Y-148521300D02*
X231656550Y-148587966D01*
X231656550Y-148587966D02*
X231689883Y-148621300D01*
X231689883Y-148621300D02*
X231756550Y-148654633D01*
X231756550Y-148654633D02*
X231856550Y-148654633D01*
X231323217Y-148654633D02*
X231323217Y-148187966D01*
X231323217Y-148254633D02*
X231289884Y-148221300D01*
X231289884Y-148221300D02*
X231223217Y-148187966D01*
X231223217Y-148187966D02*
X231123217Y-148187966D01*
X231123217Y-148187966D02*
X231056550Y-148221300D01*
X231056550Y-148221300D02*
X231023217Y-148287966D01*
X231023217Y-148287966D02*
X231023217Y-148654633D01*
X231023217Y-148287966D02*
X230989884Y-148221300D01*
X230989884Y-148221300D02*
X230923217Y-148187966D01*
X230923217Y-148187966D02*
X230823217Y-148187966D01*
X230823217Y-148187966D02*
X230756550Y-148221300D01*
X230756550Y-148221300D02*
X230723217Y-148287966D01*
X230723217Y-148287966D02*
X230723217Y-148654633D01*
X230389884Y-148187966D02*
X230389884Y-148887966D01*
X230389884Y-148221300D02*
X230323217Y-148187966D01*
X230323217Y-148187966D02*
X230189884Y-148187966D01*
X230189884Y-148187966D02*
X230123217Y-148221300D01*
X230123217Y-148221300D02*
X230089884Y-148254633D01*
X230089884Y-148254633D02*
X230056551Y-148321300D01*
X230056551Y-148321300D02*
X230056551Y-148521300D01*
X230056551Y-148521300D02*
X230089884Y-148587966D01*
X230089884Y-148587966D02*
X230123217Y-148621300D01*
X230123217Y-148621300D02*
X230189884Y-148654633D01*
X230189884Y-148654633D02*
X230323217Y-148654633D01*
X230323217Y-148654633D02*
X230389884Y-148621300D01*
X229456551Y-148187966D02*
X229456551Y-148654633D01*
X229756551Y-148187966D02*
X229756551Y-148554633D01*
X229756551Y-148554633D02*
X229723218Y-148621300D01*
X229723218Y-148621300D02*
X229656551Y-148654633D01*
X229656551Y-148654633D02*
X229556551Y-148654633D01*
X229556551Y-148654633D02*
X229489884Y-148621300D01*
X229489884Y-148621300D02*
X229456551Y-148587966D01*
X229223218Y-148187966D02*
X228956551Y-148187966D01*
X229123218Y-147954633D02*
X229123218Y-148554633D01*
X229123218Y-148554633D02*
X229089885Y-148621300D01*
X229089885Y-148621300D02*
X229023218Y-148654633D01*
X229023218Y-148654633D02*
X228956551Y-148654633D01*
X228456551Y-148621300D02*
X228523218Y-148654633D01*
X228523218Y-148654633D02*
X228656551Y-148654633D01*
X228656551Y-148654633D02*
X228723218Y-148621300D01*
X228723218Y-148621300D02*
X228756551Y-148554633D01*
X228756551Y-148554633D02*
X228756551Y-148287966D01*
X228756551Y-148287966D02*
X228723218Y-148221300D01*
X228723218Y-148221300D02*
X228656551Y-148187966D01*
X228656551Y-148187966D02*
X228523218Y-148187966D01*
X228523218Y-148187966D02*
X228456551Y-148221300D01*
X228456551Y-148221300D02*
X228423218Y-148287966D01*
X228423218Y-148287966D02*
X228423218Y-148354633D01*
X228423218Y-148354633D02*
X228756551Y-148421300D01*
X228123218Y-148654633D02*
X228123218Y-148187966D01*
X228123218Y-148321300D02*
X228089885Y-148254633D01*
X228089885Y-148254633D02*
X228056551Y-148221300D01*
X228056551Y-148221300D02*
X227989885Y-148187966D01*
X227989885Y-148187966D02*
X227923218Y-148187966D01*
X227156552Y-148654633D02*
X227156552Y-147954633D01*
X227156552Y-147954633D02*
X226923219Y-148454633D01*
X226923219Y-148454633D02*
X226689885Y-147954633D01*
X226689885Y-147954633D02*
X226689885Y-148654633D01*
X226056552Y-148187966D02*
X226056552Y-148654633D01*
X226356552Y-148187966D02*
X226356552Y-148554633D01*
X226356552Y-148554633D02*
X226323219Y-148621300D01*
X226323219Y-148621300D02*
X226256552Y-148654633D01*
X226256552Y-148654633D02*
X226156552Y-148654633D01*
X226156552Y-148654633D02*
X226089885Y-148621300D01*
X226089885Y-148621300D02*
X226056552Y-148587966D01*
X225756552Y-148621300D02*
X225689886Y-148654633D01*
X225689886Y-148654633D02*
X225556552Y-148654633D01*
X225556552Y-148654633D02*
X225489886Y-148621300D01*
X225489886Y-148621300D02*
X225456552Y-148554633D01*
X225456552Y-148554633D02*
X225456552Y-148521300D01*
X225456552Y-148521300D02*
X225489886Y-148454633D01*
X225489886Y-148454633D02*
X225556552Y-148421300D01*
X225556552Y-148421300D02*
X225656552Y-148421300D01*
X225656552Y-148421300D02*
X225723219Y-148387966D01*
X225723219Y-148387966D02*
X225756552Y-148321300D01*
X225756552Y-148321300D02*
X225756552Y-148287966D01*
X225756552Y-148287966D02*
X225723219Y-148221300D01*
X225723219Y-148221300D02*
X225656552Y-148187966D01*
X225656552Y-148187966D02*
X225556552Y-148187966D01*
X225556552Y-148187966D02*
X225489886Y-148221300D01*
X224889885Y-148621300D02*
X224956552Y-148654633D01*
X224956552Y-148654633D02*
X225089885Y-148654633D01*
X225089885Y-148654633D02*
X225156552Y-148621300D01*
X225156552Y-148621300D02*
X225189885Y-148554633D01*
X225189885Y-148554633D02*
X225189885Y-148287966D01*
X225189885Y-148287966D02*
X225156552Y-148221300D01*
X225156552Y-148221300D02*
X225089885Y-148187966D01*
X225089885Y-148187966D02*
X224956552Y-148187966D01*
X224956552Y-148187966D02*
X224889885Y-148221300D01*
X224889885Y-148221300D02*
X224856552Y-148287966D01*
X224856552Y-148287966D02*
X224856552Y-148354633D01*
X224856552Y-148354633D02*
X225189885Y-148421300D01*
X224256552Y-148187966D02*
X224256552Y-148654633D01*
X224556552Y-148187966D02*
X224556552Y-148554633D01*
X224556552Y-148554633D02*
X224523219Y-148621300D01*
X224523219Y-148621300D02*
X224456552Y-148654633D01*
X224456552Y-148654633D02*
X224356552Y-148654633D01*
X224356552Y-148654633D02*
X224289885Y-148621300D01*
X224289885Y-148621300D02*
X224256552Y-148587966D01*
X223923219Y-148654633D02*
X223923219Y-148187966D01*
X223923219Y-148254633D02*
X223889886Y-148221300D01*
X223889886Y-148221300D02*
X223823219Y-148187966D01*
X223823219Y-148187966D02*
X223723219Y-148187966D01*
X223723219Y-148187966D02*
X223656552Y-148221300D01*
X223656552Y-148221300D02*
X223623219Y-148287966D01*
X223623219Y-148287966D02*
X223623219Y-148654633D01*
X223623219Y-148287966D02*
X223589886Y-148221300D01*
X223589886Y-148221300D02*
X223523219Y-148187966D01*
X223523219Y-148187966D02*
X223423219Y-148187966D01*
X223423219Y-148187966D02*
X223356552Y-148221300D01*
X223356552Y-148221300D02*
X223323219Y-148287966D01*
X223323219Y-148287966D02*
X223323219Y-148654633D01*
X254123211Y-149514927D02*
X253589878Y-149514927D01*
X252389878Y-149781594D02*
X252723211Y-149781594D01*
X252723211Y-149781594D02*
X252723211Y-149081594D01*
X251889877Y-149748261D02*
X251956544Y-149781594D01*
X251956544Y-149781594D02*
X252089877Y-149781594D01*
X252089877Y-149781594D02*
X252156544Y-149748261D01*
X252156544Y-149748261D02*
X252189877Y-149681594D01*
X252189877Y-149681594D02*
X252189877Y-149414927D01*
X252189877Y-149414927D02*
X252156544Y-149348261D01*
X252156544Y-149348261D02*
X252089877Y-149314927D01*
X252089877Y-149314927D02*
X251956544Y-149314927D01*
X251956544Y-149314927D02*
X251889877Y-149348261D01*
X251889877Y-149348261D02*
X251856544Y-149414927D01*
X251856544Y-149414927D02*
X251856544Y-149481594D01*
X251856544Y-149481594D02*
X252189877Y-149548261D01*
X251556544Y-149781594D02*
X251556544Y-149314927D01*
X251556544Y-149081594D02*
X251589877Y-149114927D01*
X251589877Y-149114927D02*
X251556544Y-149148261D01*
X251556544Y-149148261D02*
X251523211Y-149114927D01*
X251523211Y-149114927D02*
X251556544Y-149081594D01*
X251556544Y-149081594D02*
X251556544Y-149148261D01*
X250923211Y-149314927D02*
X250923211Y-149881594D01*
X250923211Y-149881594D02*
X250956544Y-149948261D01*
X250956544Y-149948261D02*
X250989878Y-149981594D01*
X250989878Y-149981594D02*
X251056544Y-150014927D01*
X251056544Y-150014927D02*
X251156544Y-150014927D01*
X251156544Y-150014927D02*
X251223211Y-149981594D01*
X250923211Y-149748261D02*
X250989878Y-149781594D01*
X250989878Y-149781594D02*
X251123211Y-149781594D01*
X251123211Y-149781594D02*
X251189878Y-149748261D01*
X251189878Y-149748261D02*
X251223211Y-149714927D01*
X251223211Y-149714927D02*
X251256544Y-149648261D01*
X251256544Y-149648261D02*
X251256544Y-149448261D01*
X251256544Y-149448261D02*
X251223211Y-149381594D01*
X251223211Y-149381594D02*
X251189878Y-149348261D01*
X251189878Y-149348261D02*
X251123211Y-149314927D01*
X251123211Y-149314927D02*
X250989878Y-149314927D01*
X250989878Y-149314927D02*
X250923211Y-149348261D01*
X250589878Y-149781594D02*
X250589878Y-149081594D01*
X250289878Y-149781594D02*
X250289878Y-149414927D01*
X250289878Y-149414927D02*
X250323211Y-149348261D01*
X250323211Y-149348261D02*
X250389878Y-149314927D01*
X250389878Y-149314927D02*
X250489878Y-149314927D01*
X250489878Y-149314927D02*
X250556545Y-149348261D01*
X250556545Y-149348261D02*
X250589878Y-149381594D01*
X249423212Y-149514927D02*
X248889879Y-149514927D01*
X248023212Y-149781594D02*
X248023212Y-149081594D01*
X248023212Y-149081594D02*
X247789879Y-149581594D01*
X247789879Y-149581594D02*
X247556545Y-149081594D01*
X247556545Y-149081594D02*
X247556545Y-149781594D01*
X246923212Y-149781594D02*
X246923212Y-149414927D01*
X246923212Y-149414927D02*
X246956545Y-149348261D01*
X246956545Y-149348261D02*
X247023212Y-149314927D01*
X247023212Y-149314927D02*
X247156545Y-149314927D01*
X247156545Y-149314927D02*
X247223212Y-149348261D01*
X246923212Y-149748261D02*
X246989879Y-149781594D01*
X246989879Y-149781594D02*
X247156545Y-149781594D01*
X247156545Y-149781594D02*
X247223212Y-149748261D01*
X247223212Y-149748261D02*
X247256545Y-149681594D01*
X247256545Y-149681594D02*
X247256545Y-149614927D01*
X247256545Y-149614927D02*
X247223212Y-149548261D01*
X247223212Y-149548261D02*
X247156545Y-149514927D01*
X247156545Y-149514927D02*
X246989879Y-149514927D01*
X246989879Y-149514927D02*
X246923212Y-149481594D01*
X246589879Y-149314927D02*
X246589879Y-149781594D01*
X246589879Y-149381594D02*
X246556546Y-149348261D01*
X246556546Y-149348261D02*
X246489879Y-149314927D01*
X246489879Y-149314927D02*
X246389879Y-149314927D01*
X246389879Y-149314927D02*
X246323212Y-149348261D01*
X246323212Y-149348261D02*
X246289879Y-149414927D01*
X246289879Y-149414927D02*
X246289879Y-149781594D01*
X245656546Y-149748261D02*
X245723213Y-149781594D01*
X245723213Y-149781594D02*
X245856546Y-149781594D01*
X245856546Y-149781594D02*
X245923213Y-149748261D01*
X245923213Y-149748261D02*
X245956546Y-149714927D01*
X245956546Y-149714927D02*
X245989879Y-149648261D01*
X245989879Y-149648261D02*
X245989879Y-149448261D01*
X245989879Y-149448261D02*
X245956546Y-149381594D01*
X245956546Y-149381594D02*
X245923213Y-149348261D01*
X245923213Y-149348261D02*
X245856546Y-149314927D01*
X245856546Y-149314927D02*
X245723213Y-149314927D01*
X245723213Y-149314927D02*
X245656546Y-149348261D01*
X245356546Y-149781594D02*
X245356546Y-149081594D01*
X245056546Y-149781594D02*
X245056546Y-149414927D01*
X245056546Y-149414927D02*
X245089879Y-149348261D01*
X245089879Y-149348261D02*
X245156546Y-149314927D01*
X245156546Y-149314927D02*
X245256546Y-149314927D01*
X245256546Y-149314927D02*
X245323213Y-149348261D01*
X245323213Y-149348261D02*
X245356546Y-149381594D01*
X244456546Y-149748261D02*
X244523213Y-149781594D01*
X244523213Y-149781594D02*
X244656546Y-149781594D01*
X244656546Y-149781594D02*
X244723213Y-149748261D01*
X244723213Y-149748261D02*
X244756546Y-149681594D01*
X244756546Y-149681594D02*
X244756546Y-149414927D01*
X244756546Y-149414927D02*
X244723213Y-149348261D01*
X244723213Y-149348261D02*
X244656546Y-149314927D01*
X244656546Y-149314927D02*
X244523213Y-149314927D01*
X244523213Y-149314927D02*
X244456546Y-149348261D01*
X244456546Y-149348261D02*
X244423213Y-149414927D01*
X244423213Y-149414927D02*
X244423213Y-149481594D01*
X244423213Y-149481594D02*
X244756546Y-149548261D01*
X244156546Y-149748261D02*
X244089880Y-149781594D01*
X244089880Y-149781594D02*
X243956546Y-149781594D01*
X243956546Y-149781594D02*
X243889880Y-149748261D01*
X243889880Y-149748261D02*
X243856546Y-149681594D01*
X243856546Y-149681594D02*
X243856546Y-149648261D01*
X243856546Y-149648261D02*
X243889880Y-149581594D01*
X243889880Y-149581594D02*
X243956546Y-149548261D01*
X243956546Y-149548261D02*
X244056546Y-149548261D01*
X244056546Y-149548261D02*
X244123213Y-149514927D01*
X244123213Y-149514927D02*
X244156546Y-149448261D01*
X244156546Y-149448261D02*
X244156546Y-149414927D01*
X244156546Y-149414927D02*
X244123213Y-149348261D01*
X244123213Y-149348261D02*
X244056546Y-149314927D01*
X244056546Y-149314927D02*
X243956546Y-149314927D01*
X243956546Y-149314927D02*
X243889880Y-149348261D01*
X243656546Y-149314927D02*
X243389879Y-149314927D01*
X243556546Y-149081594D02*
X243556546Y-149681594D01*
X243556546Y-149681594D02*
X243523213Y-149748261D01*
X243523213Y-149748261D02*
X243456546Y-149781594D01*
X243456546Y-149781594D02*
X243389879Y-149781594D01*
X242889879Y-149748261D02*
X242956546Y-149781594D01*
X242956546Y-149781594D02*
X243089879Y-149781594D01*
X243089879Y-149781594D02*
X243156546Y-149748261D01*
X243156546Y-149748261D02*
X243189879Y-149681594D01*
X243189879Y-149681594D02*
X243189879Y-149414927D01*
X243189879Y-149414927D02*
X243156546Y-149348261D01*
X243156546Y-149348261D02*
X243089879Y-149314927D01*
X243089879Y-149314927D02*
X242956546Y-149314927D01*
X242956546Y-149314927D02*
X242889879Y-149348261D01*
X242889879Y-149348261D02*
X242856546Y-149414927D01*
X242856546Y-149414927D02*
X242856546Y-149481594D01*
X242856546Y-149481594D02*
X243189879Y-149548261D01*
X242556546Y-149781594D02*
X242556546Y-149314927D01*
X242556546Y-149448261D02*
X242523213Y-149381594D01*
X242523213Y-149381594D02*
X242489879Y-149348261D01*
X242489879Y-149348261D02*
X242423213Y-149314927D01*
X242423213Y-149314927D02*
X242356546Y-149314927D01*
X241589880Y-149081594D02*
X241589880Y-149648261D01*
X241589880Y-149648261D02*
X241556547Y-149714927D01*
X241556547Y-149714927D02*
X241523213Y-149748261D01*
X241523213Y-149748261D02*
X241456547Y-149781594D01*
X241456547Y-149781594D02*
X241323213Y-149781594D01*
X241323213Y-149781594D02*
X241256547Y-149748261D01*
X241256547Y-149748261D02*
X241223213Y-149714927D01*
X241223213Y-149714927D02*
X241189880Y-149648261D01*
X241189880Y-149648261D02*
X241189880Y-149081594D01*
X240856547Y-149781594D02*
X240856547Y-149081594D01*
X240456547Y-149781594D02*
X240756547Y-149381594D01*
X240456547Y-149081594D02*
X240856547Y-149481594D01*
X254256544Y-150908555D02*
X254489877Y-150575222D01*
X254656544Y-150908555D02*
X254656544Y-150208555D01*
X254656544Y-150208555D02*
X254389877Y-150208555D01*
X254389877Y-150208555D02*
X254323211Y-150241888D01*
X254323211Y-150241888D02*
X254289877Y-150275222D01*
X254289877Y-150275222D02*
X254256544Y-150341888D01*
X254256544Y-150341888D02*
X254256544Y-150441888D01*
X254256544Y-150441888D02*
X254289877Y-150508555D01*
X254289877Y-150508555D02*
X254323211Y-150541888D01*
X254323211Y-150541888D02*
X254389877Y-150575222D01*
X254389877Y-150575222D02*
X254656544Y-150575222D01*
X253689877Y-150875222D02*
X253756544Y-150908555D01*
X253756544Y-150908555D02*
X253889877Y-150908555D01*
X253889877Y-150908555D02*
X253956544Y-150875222D01*
X253956544Y-150875222D02*
X253989877Y-150808555D01*
X253989877Y-150808555D02*
X253989877Y-150541888D01*
X253989877Y-150541888D02*
X253956544Y-150475222D01*
X253956544Y-150475222D02*
X253889877Y-150441888D01*
X253889877Y-150441888D02*
X253756544Y-150441888D01*
X253756544Y-150441888D02*
X253689877Y-150475222D01*
X253689877Y-150475222D02*
X253656544Y-150541888D01*
X253656544Y-150541888D02*
X253656544Y-150608555D01*
X253656544Y-150608555D02*
X253989877Y-150675222D01*
X253423211Y-150441888D02*
X253256544Y-150908555D01*
X253256544Y-150908555D02*
X253089877Y-150441888D01*
X252289878Y-150908555D02*
X252289878Y-150208555D01*
X252289878Y-150208555D02*
X252123211Y-150208555D01*
X252123211Y-150208555D02*
X252023211Y-150241888D01*
X252023211Y-150241888D02*
X251956545Y-150308555D01*
X251956545Y-150308555D02*
X251923211Y-150375222D01*
X251923211Y-150375222D02*
X251889878Y-150508555D01*
X251889878Y-150508555D02*
X251889878Y-150608555D01*
X251889878Y-150608555D02*
X251923211Y-150741888D01*
X251923211Y-150741888D02*
X251956545Y-150808555D01*
X251956545Y-150808555D02*
X252023211Y-150875222D01*
X252023211Y-150875222D02*
X252123211Y-150908555D01*
X252123211Y-150908555D02*
X252289878Y-150908555D01*
X250756545Y-150875222D02*
X250823212Y-150908555D01*
X250823212Y-150908555D02*
X250956545Y-150908555D01*
X250956545Y-150908555D02*
X251023212Y-150875222D01*
X251023212Y-150875222D02*
X251056545Y-150841888D01*
X251056545Y-150841888D02*
X251089878Y-150775222D01*
X251089878Y-150775222D02*
X251089878Y-150575222D01*
X251089878Y-150575222D02*
X251056545Y-150508555D01*
X251056545Y-150508555D02*
X251023212Y-150475222D01*
X251023212Y-150475222D02*
X250956545Y-150441888D01*
X250956545Y-150441888D02*
X250823212Y-150441888D01*
X250823212Y-150441888D02*
X250756545Y-150475222D01*
X250456545Y-150908555D02*
X250456545Y-150208555D01*
X250156545Y-150908555D02*
X250156545Y-150541888D01*
X250156545Y-150541888D02*
X250189878Y-150475222D01*
X250189878Y-150475222D02*
X250256545Y-150441888D01*
X250256545Y-150441888D02*
X250356545Y-150441888D01*
X250356545Y-150441888D02*
X250423212Y-150475222D01*
X250423212Y-150475222D02*
X250456545Y-150508555D01*
X249523212Y-150908555D02*
X249523212Y-150541888D01*
X249523212Y-150541888D02*
X249556545Y-150475222D01*
X249556545Y-150475222D02*
X249623212Y-150441888D01*
X249623212Y-150441888D02*
X249756545Y-150441888D01*
X249756545Y-150441888D02*
X249823212Y-150475222D01*
X249523212Y-150875222D02*
X249589879Y-150908555D01*
X249589879Y-150908555D02*
X249756545Y-150908555D01*
X249756545Y-150908555D02*
X249823212Y-150875222D01*
X249823212Y-150875222D02*
X249856545Y-150808555D01*
X249856545Y-150808555D02*
X249856545Y-150741888D01*
X249856545Y-150741888D02*
X249823212Y-150675222D01*
X249823212Y-150675222D02*
X249756545Y-150641888D01*
X249756545Y-150641888D02*
X249589879Y-150641888D01*
X249589879Y-150641888D02*
X249523212Y-150608555D01*
X249189879Y-150441888D02*
X249189879Y-150908555D01*
X249189879Y-150508555D02*
X249156546Y-150475222D01*
X249156546Y-150475222D02*
X249089879Y-150441888D01*
X249089879Y-150441888D02*
X248989879Y-150441888D01*
X248989879Y-150441888D02*
X248923212Y-150475222D01*
X248923212Y-150475222D02*
X248889879Y-150541888D01*
X248889879Y-150541888D02*
X248889879Y-150908555D01*
X248256546Y-150441888D02*
X248256546Y-151008555D01*
X248256546Y-151008555D02*
X248289879Y-151075222D01*
X248289879Y-151075222D02*
X248323213Y-151108555D01*
X248323213Y-151108555D02*
X248389879Y-151141888D01*
X248389879Y-151141888D02*
X248489879Y-151141888D01*
X248489879Y-151141888D02*
X248556546Y-151108555D01*
X248256546Y-150875222D02*
X248323213Y-150908555D01*
X248323213Y-150908555D02*
X248456546Y-150908555D01*
X248456546Y-150908555D02*
X248523213Y-150875222D01*
X248523213Y-150875222D02*
X248556546Y-150841888D01*
X248556546Y-150841888D02*
X248589879Y-150775222D01*
X248589879Y-150775222D02*
X248589879Y-150575222D01*
X248589879Y-150575222D02*
X248556546Y-150508555D01*
X248556546Y-150508555D02*
X248523213Y-150475222D01*
X248523213Y-150475222D02*
X248456546Y-150441888D01*
X248456546Y-150441888D02*
X248323213Y-150441888D01*
X248323213Y-150441888D02*
X248256546Y-150475222D01*
X247656546Y-150875222D02*
X247723213Y-150908555D01*
X247723213Y-150908555D02*
X247856546Y-150908555D01*
X247856546Y-150908555D02*
X247923213Y-150875222D01*
X247923213Y-150875222D02*
X247956546Y-150808555D01*
X247956546Y-150808555D02*
X247956546Y-150541888D01*
X247956546Y-150541888D02*
X247923213Y-150475222D01*
X247923213Y-150475222D02*
X247856546Y-150441888D01*
X247856546Y-150441888D02*
X247723213Y-150441888D01*
X247723213Y-150441888D02*
X247656546Y-150475222D01*
X247656546Y-150475222D02*
X247623213Y-150541888D01*
X247623213Y-150541888D02*
X247623213Y-150608555D01*
X247623213Y-150608555D02*
X247956546Y-150675222D01*
X247356546Y-150875222D02*
X247289880Y-150908555D01*
X247289880Y-150908555D02*
X247156546Y-150908555D01*
X247156546Y-150908555D02*
X247089880Y-150875222D01*
X247089880Y-150875222D02*
X247056546Y-150808555D01*
X247056546Y-150808555D02*
X247056546Y-150775222D01*
X247056546Y-150775222D02*
X247089880Y-150708555D01*
X247089880Y-150708555D02*
X247156546Y-150675222D01*
X247156546Y-150675222D02*
X247256546Y-150675222D01*
X247256546Y-150675222D02*
X247323213Y-150641888D01*
X247323213Y-150641888D02*
X247356546Y-150575222D01*
X247356546Y-150575222D02*
X247356546Y-150541888D01*
X247356546Y-150541888D02*
X247323213Y-150475222D01*
X247323213Y-150475222D02*
X247256546Y-150441888D01*
X247256546Y-150441888D02*
X247156546Y-150441888D01*
X247156546Y-150441888D02*
X247089880Y-150475222D01*
X246223213Y-150908555D02*
X246223213Y-150208555D01*
X246223213Y-150475222D02*
X246156546Y-150441888D01*
X246156546Y-150441888D02*
X246023213Y-150441888D01*
X246023213Y-150441888D02*
X245956546Y-150475222D01*
X245956546Y-150475222D02*
X245923213Y-150508555D01*
X245923213Y-150508555D02*
X245889880Y-150575222D01*
X245889880Y-150575222D02*
X245889880Y-150775222D01*
X245889880Y-150775222D02*
X245923213Y-150841888D01*
X245923213Y-150841888D02*
X245956546Y-150875222D01*
X245956546Y-150875222D02*
X246023213Y-150908555D01*
X246023213Y-150908555D02*
X246156546Y-150908555D01*
X246156546Y-150908555D02*
X246223213Y-150875222D01*
X245656547Y-150441888D02*
X245489880Y-150908555D01*
X245323213Y-150441888D02*
X245489880Y-150908555D01*
X245489880Y-150908555D02*
X245556547Y-151075222D01*
X245556547Y-151075222D02*
X245589880Y-151108555D01*
X245589880Y-151108555D02*
X245656547Y-151141888D01*
X244556547Y-150708555D02*
X244223214Y-150708555D01*
X244623214Y-150908555D02*
X244389881Y-150208555D01*
X244389881Y-150208555D02*
X244156547Y-150908555D01*
X243923214Y-150441888D02*
X243923214Y-150908555D01*
X243923214Y-150508555D02*
X243889881Y-150475222D01*
X243889881Y-150475222D02*
X243823214Y-150441888D01*
X243823214Y-150441888D02*
X243723214Y-150441888D01*
X243723214Y-150441888D02*
X243656547Y-150475222D01*
X243656547Y-150475222D02*
X243623214Y-150541888D01*
X243623214Y-150541888D02*
X243623214Y-150908555D01*
X243323214Y-150875222D02*
X243256548Y-150908555D01*
X243256548Y-150908555D02*
X243123214Y-150908555D01*
X243123214Y-150908555D02*
X243056548Y-150875222D01*
X243056548Y-150875222D02*
X243023214Y-150808555D01*
X243023214Y-150808555D02*
X243023214Y-150775222D01*
X243023214Y-150775222D02*
X243056548Y-150708555D01*
X243056548Y-150708555D02*
X243123214Y-150675222D01*
X243123214Y-150675222D02*
X243223214Y-150675222D01*
X243223214Y-150675222D02*
X243289881Y-150641888D01*
X243289881Y-150641888D02*
X243323214Y-150575222D01*
X243323214Y-150575222D02*
X243323214Y-150541888D01*
X243323214Y-150541888D02*
X243289881Y-150475222D01*
X243289881Y-150475222D02*
X243223214Y-150441888D01*
X243223214Y-150441888D02*
X243123214Y-150441888D01*
X243123214Y-150441888D02*
X243056548Y-150475222D01*
X242423214Y-150441888D02*
X242423214Y-151008555D01*
X242423214Y-151008555D02*
X242456547Y-151075222D01*
X242456547Y-151075222D02*
X242489881Y-151108555D01*
X242489881Y-151108555D02*
X242556547Y-151141888D01*
X242556547Y-151141888D02*
X242656547Y-151141888D01*
X242656547Y-151141888D02*
X242723214Y-151108555D01*
X242423214Y-150875222D02*
X242489881Y-150908555D01*
X242489881Y-150908555D02*
X242623214Y-150908555D01*
X242623214Y-150908555D02*
X242689881Y-150875222D01*
X242689881Y-150875222D02*
X242723214Y-150841888D01*
X242723214Y-150841888D02*
X242756547Y-150775222D01*
X242756547Y-150775222D02*
X242756547Y-150575222D01*
X242756547Y-150575222D02*
X242723214Y-150508555D01*
X242723214Y-150508555D02*
X242689881Y-150475222D01*
X242689881Y-150475222D02*
X242623214Y-150441888D01*
X242623214Y-150441888D02*
X242489881Y-150441888D01*
X242489881Y-150441888D02*
X242423214Y-150475222D01*
X241789881Y-150908555D02*
X241789881Y-150541888D01*
X241789881Y-150541888D02*
X241823214Y-150475222D01*
X241823214Y-150475222D02*
X241889881Y-150441888D01*
X241889881Y-150441888D02*
X242023214Y-150441888D01*
X242023214Y-150441888D02*
X242089881Y-150475222D01*
X241789881Y-150875222D02*
X241856548Y-150908555D01*
X241856548Y-150908555D02*
X242023214Y-150908555D01*
X242023214Y-150908555D02*
X242089881Y-150875222D01*
X242089881Y-150875222D02*
X242123214Y-150808555D01*
X242123214Y-150808555D02*
X242123214Y-150741888D01*
X242123214Y-150741888D02*
X242089881Y-150675222D01*
X242089881Y-150675222D02*
X242023214Y-150641888D01*
X242023214Y-150641888D02*
X241856548Y-150641888D01*
X241856548Y-150641888D02*
X241789881Y-150608555D01*
X241456548Y-150908555D02*
X241456548Y-150441888D01*
X241456548Y-150575222D02*
X241423215Y-150508555D01*
X241423215Y-150508555D02*
X241389881Y-150475222D01*
X241389881Y-150475222D02*
X241323215Y-150441888D01*
X241323215Y-150441888D02*
X241256548Y-150441888D01*
X240489882Y-150908555D02*
X240489882Y-150208555D01*
X240089882Y-150908555D02*
X240389882Y-150508555D01*
X240089882Y-150208555D02*
X240489882Y-150608555D01*
X239489882Y-150441888D02*
X239489882Y-150908555D01*
X239789882Y-150441888D02*
X239789882Y-150808555D01*
X239789882Y-150808555D02*
X239756549Y-150875222D01*
X239756549Y-150875222D02*
X239689882Y-150908555D01*
X239689882Y-150908555D02*
X239589882Y-150908555D01*
X239589882Y-150908555D02*
X239523215Y-150875222D01*
X239523215Y-150875222D02*
X239489882Y-150841888D01*
X239756549Y-150208555D02*
X239723215Y-150241888D01*
X239723215Y-150241888D02*
X239756549Y-150275222D01*
X239756549Y-150275222D02*
X239789882Y-150241888D01*
X239789882Y-150241888D02*
X239756549Y-150208555D01*
X239756549Y-150208555D02*
X239756549Y-150275222D01*
X239489882Y-150208555D02*
X239456549Y-150241888D01*
X239456549Y-150241888D02*
X239489882Y-150275222D01*
X239489882Y-150275222D02*
X239523215Y-150241888D01*
X239523215Y-150241888D02*
X239489882Y-150208555D01*
X239489882Y-150208555D02*
X239489882Y-150275222D01*
X238856549Y-150875222D02*
X238923216Y-150908555D01*
X238923216Y-150908555D02*
X239056549Y-150908555D01*
X239056549Y-150908555D02*
X239123216Y-150875222D01*
X239123216Y-150875222D02*
X239156549Y-150841888D01*
X239156549Y-150841888D02*
X239189882Y-150775222D01*
X239189882Y-150775222D02*
X239189882Y-150575222D01*
X239189882Y-150575222D02*
X239156549Y-150508555D01*
X239156549Y-150508555D02*
X239123216Y-150475222D01*
X239123216Y-150475222D02*
X239056549Y-150441888D01*
X239056549Y-150441888D02*
X238923216Y-150441888D01*
X238923216Y-150441888D02*
X238856549Y-150475222D01*
X238556549Y-150908555D02*
X238556549Y-150208555D01*
X238489882Y-150641888D02*
X238289882Y-150908555D01*
X238289882Y-150441888D02*
X238556549Y-150708555D01*
X237723215Y-150875222D02*
X237789882Y-150908555D01*
X237789882Y-150908555D02*
X237923215Y-150908555D01*
X237923215Y-150908555D02*
X237989882Y-150875222D01*
X237989882Y-150875222D02*
X238023215Y-150808555D01*
X238023215Y-150808555D02*
X238023215Y-150541888D01*
X238023215Y-150541888D02*
X237989882Y-150475222D01*
X237989882Y-150475222D02*
X237923215Y-150441888D01*
X237923215Y-150441888D02*
X237789882Y-150441888D01*
X237789882Y-150441888D02*
X237723215Y-150475222D01*
X237723215Y-150475222D02*
X237689882Y-150541888D01*
X237689882Y-150541888D02*
X237689882Y-150608555D01*
X237689882Y-150608555D02*
X238023215Y-150675222D01*
X237423215Y-150875222D02*
X237356549Y-150908555D01*
X237356549Y-150908555D02*
X237223215Y-150908555D01*
X237223215Y-150908555D02*
X237156549Y-150875222D01*
X237156549Y-150875222D02*
X237123215Y-150808555D01*
X237123215Y-150808555D02*
X237123215Y-150775222D01*
X237123215Y-150775222D02*
X237156549Y-150708555D01*
X237156549Y-150708555D02*
X237223215Y-150675222D01*
X237223215Y-150675222D02*
X237323215Y-150675222D01*
X237323215Y-150675222D02*
X237389882Y-150641888D01*
X237389882Y-150641888D02*
X237423215Y-150575222D01*
X237423215Y-150575222D02*
X237423215Y-150541888D01*
X237423215Y-150541888D02*
X237389882Y-150475222D01*
X237389882Y-150475222D02*
X237323215Y-150441888D01*
X237323215Y-150441888D02*
X237223215Y-150441888D01*
X237223215Y-150441888D02*
X237156549Y-150475222D01*
M02*
