M48
; DRILL file {KiCad 8.0.6} date 2024-10-27T13:10:09-0700
; FORMAT={-:-/ absolute / inch / decimal}
; #@! TF.CreationDate,2024-10-27T13:10:09-07:00
; #@! TF.GenerationSoftware,Kicad,Pcbnew,8.0.6
; #@! TF.FileFunction,Plated,1,2,PTH
FMAT,2
INCH
; #@! TA.AperFunction,Plated,PTH,ComponentDrill
T1C0.0300
; #@! TA.AperFunction,Plated,PTH,ViaDrill
T2C0.0315
; #@! TA.AperFunction,Plated,PTH,ComponentDrill
T3C0.0315
; #@! TA.AperFunction,Plated,PTH,ViaDrill
T4C0.0400
; #@! TA.AperFunction,Plated,PTH,ViaDrill
T5C0.0433
; #@! TA.AperFunction,Plated,PTH,ComponentDrill
T6C0.0433
; #@! TA.AperFunction,Plated,PTH,ComponentDrill
T7C0.1200
%
G90
G05
T1
X4.0291Y-3.8333
X4.0321Y-4.1033
X5.8341Y-3.8353
X5.8391Y-4.1023
T2
X1.218Y-3.484
X1.222Y-4.131
X1.222Y-5.139
X1.224Y-2.492
X1.229Y-3.687
X1.234Y-3.933
X1.368Y-2.741
X1.368Y-4.029
X1.372Y-5.03
X1.373Y-3.031
X1.377Y-5.291
X1.449Y-4.501
X1.489Y-3.67
X1.521Y-5.285
X1.522Y-5.561
X1.669Y-5.296
X1.674Y-5.696
X1.719Y-4.738
X1.754Y-4.338
X1.789Y-5.33
X1.805Y-3.298
X1.842Y-4.421
X1.897Y-4.498
X1.992Y-4.533
X2.039Y-3.426
X2.074Y-4.724
X2.114Y-5.453
X2.147Y-3.143
X2.159Y-2.443
X2.194Y-2.751
X2.195Y-5.493
X2.278Y-2.62
X2.293Y-1.293
X2.296Y-1.565
X2.297Y-4.538
X2.302Y-1.945
X2.377Y-5.881
X2.394Y-4.536
X2.424Y-5.694
X2.444Y-1.311
X2.451Y-2.671
X2.482Y-4.341
X2.486Y-3.665
X2.544Y-5.808
X2.567Y-4.299
X2.619Y-3.57
X2.632Y-2.463
X2.652Y-5.64
X2.672Y-4.423
X2.729Y-4.728
X2.747Y-3.476
X2.755Y-3.671
X2.755Y-5.436
X2.804Y-2.54
X2.817Y-3.523
X2.844Y-5.475
X2.855Y-2.623
X2.874Y-4.46
X2.891Y-4.598
X2.91Y-3.601
X2.927Y-5.691
X2.944Y-2.273
X2.997Y-2.528
X3.04Y-3.308
X3.049Y-4.853
X3.07Y-2.273
X3.074Y-5.709
X3.079Y-5.188
X3.127Y-3.396
X3.152Y-5.086
X3.154Y-4.803
X3.175Y-5.433
X3.178Y-5.704
X3.182Y-5.26
X3.239Y-4.553
X3.277Y-2.706
X3.29Y-3.436
X3.292Y-1.132
X3.299Y-1.401
X3.312Y-4.328
X3.326Y-3.746
X3.339Y-2.638
X3.387Y-3.628
X3.407Y-2.704
X3.456Y-5.295
X3.492Y-2.581
X3.494Y-1.451
X3.502Y-4.621
X3.527Y-2.028
X3.529Y-3.03
X3.544Y-5.478
X3.56Y-5.036
X3.574Y-4.666
X3.597Y-2.481
X3.626Y-1.951
X3.629Y-4.953
X3.632Y-2.953
X3.657Y-3.434
X3.7Y-3.689
X3.707Y-4.424
X3.709Y-2.663
X3.807Y-3.511
X3.845Y-2.668
X3.854Y-3.359
X3.914Y-5.263
X3.949Y-2.228
X3.991Y-3.591
X4.039Y-4.383
X4.039Y-5.641
X4.064Y-2.623
X4.105Y-1.726
X4.197Y-5.311
X4.227Y-3.235
X4.277Y-2.391
X4.297Y-3.471
X4.297Y-4.628
X4.309Y-4.256
X4.374Y-4.68
X4.379Y-2.543
X4.379Y-3.643
X4.412Y-5.354
X4.419Y-4.381
X4.456Y-3.686
X4.489Y-4.424
X4.529Y-2.43
X4.532Y-3.031
X4.63Y-2.957
X4.654Y-2.466
X4.663Y-1.32
X4.746Y-4.678
X4.757Y-3.479
X4.774Y-1.266
X4.784Y-1.54
X5.012Y-2.223
X5.027Y-3.476
X5.032Y-5.478
X5.15Y-3.403
X5.156Y-2.343
X5.166Y-4.599
X5.207Y-4.38
X5.237Y-2.344
X5.291Y-4.425
X5.317Y-2.343
X5.431Y-3.032
X5.506Y-4.715
X5.535Y-2.952
X5.583Y-1.338
X5.599Y-4.588
X5.644Y-2.461
X5.659Y-4.676
X5.669Y-4.51
X5.717Y-3.246
X5.727Y-5.244
X5.729Y-1.334
X5.762Y-5.365
X5.832Y-1.843
X5.836Y-2.844
X5.839Y-3.118
X5.84Y-2.108
X5.842Y-4.838
X5.844Y-5.106
X5.861Y-4.338
X5.875Y-5.359
X5.878Y-4.444
X5.882Y-5.801
X5.944Y-1.691
X5.944Y-4.673
X5.964Y-5.581
X5.987Y-3.029
X5.994Y-3.733
X6.029Y-3.47
X6.034Y-1.333
X6.049Y-1.691
X6.054Y-3.353
X6.059Y-5.624
X6.074Y-4.549
X6.109Y-3.621
X6.134Y-3.738
X6.156Y-2.026
X6.189Y-3.308
X6.249Y-4.481
X6.276Y-1.951
X6.284Y-5.587
X6.299Y-2.558
X6.314Y-4.25
X6.354Y-3.663
X6.379Y-1.266
X6.384Y-1.545
X6.384Y-1.645
X6.404Y-4.426
X6.411Y-5.628
X6.416Y-2.306
X6.454Y-3.455
X6.474Y-4.346
X6.529Y-3.405
X6.569Y-4.301
X6.572Y-3.66
X6.604Y-5.578
X6.616Y-4.613
X6.617Y-3.41
X6.619Y-4.705
X6.639Y-3.708
X6.652Y-5.251
X6.679Y-1.516
X6.687Y-5.813
X6.734Y-1.346
X6.737Y-4.221
X6.744Y-1.461
X6.744Y-4.676
X6.779Y-5.298
X6.78Y-4.523
X6.782Y-4.603
X6.809Y-5.813
X6.821Y-5.631
X6.842Y-1.346
X6.844Y-3.741
X6.85Y-3.246
X6.897Y-2.425
X6.946Y-1.345
X6.964Y-4.383
X6.98Y-1.643
X6.982Y-5.293
X7.007Y-3.581
X7.065Y-5.813
X7.084Y-1.691
X7.086Y-3.625
X7.089Y-1.596
X7.092Y-4.42
X7.189Y-5.813
X7.192Y-3.343
X7.219Y-1.491
X7.289Y-1.346
X7.304Y-5.291
X7.326Y-2.693
X7.329Y-3.625
X7.338Y-3.341
X7.366Y-4.625
X7.394Y-1.345
X7.422Y-4.465
X7.424Y-5.628
X7.46Y-2.566
X7.489Y-1.495
X7.489Y-1.69
X7.49Y-1.596
X7.494Y-1.345
X7.549Y-4.508
X7.583Y-3.625
X7.584Y-2.025
X7.632Y-2.602
X7.659Y-1.67
X7.666Y-2.351
X7.667Y-1.946
X7.669Y-1.345
X7.714Y-2.22
X7.772Y-4.335
X7.789Y-1.946
X7.79Y-1.671
X7.814Y-3.613
X7.912Y-3.458
X7.934Y-1.346
X7.938Y-2.021
X7.939Y-1.47
X7.944Y-3.31
X7.962Y-4.341
X7.992Y-5.308
X8.012Y-3.455
X8.027Y-4.381
X8.041Y-2.183
X8.089Y-1.645
X8.104Y-4.656
X8.106Y-3.508
X8.182Y-3.598
X8.271Y-3.559
X8.317Y-4.421
X8.352Y-1.101
X8.359Y-1.645
X8.412Y-4.496
X8.493Y-1.935
X8.512Y-4.18
X8.561Y-4.567
X8.638Y-3.734
X8.639Y-1.814
X8.639Y-2.041
X8.639Y-2.44
X8.639Y-2.493
X8.646Y-1.337
X8.689Y-3.451
X8.722Y-4.376
X8.738Y-2.04
X8.739Y-2.44
X8.741Y-2.493
X8.745Y-3.644
X8.822Y-4.416
X8.839Y-2.04
X8.842Y-2.44
X8.842Y-2.496
X8.919Y-4.461
X8.939Y-2.041
X8.942Y-2.44
X8.942Y-2.493
X8.997Y-3.266
X9.024Y-4.341
X9.039Y-2.04
X9.042Y-2.44
X9.044Y-2.493
X9.05Y-4.6
X9.054Y-3.326
X9.119Y-3.373
X9.139Y-2.04
X9.14Y-1.241
X9.143Y-1.93
X9.145Y-2.44
X9.146Y-2.493
X9.191Y-5.285
X9.239Y-2.041
X9.24Y-3.741
X9.242Y-2.44
X9.242Y-2.493
X9.289Y-4.298
X9.29Y-4.685
X9.339Y-2.442
X9.34Y-2.496
X9.349Y-2.041
X9.442Y-2.44
X9.442Y-2.493
X9.444Y-2.041
X9.462Y-4.21
X9.544Y-2.041
X9.546Y-2.439
X9.547Y-2.493
X9.562Y-5.592
X9.579Y-3.346
X9.629Y-2.649
X9.639Y-2.44
X9.641Y-2.496
X9.644Y-2.041
X9.667Y-3.363
X9.739Y-2.04
X9.741Y-2.49
X9.742Y-2.441
X9.749Y-1.356
X9.757Y-3.533
X9.771Y-5.666
X9.839Y-1.596
X9.841Y-2.44
X9.844Y-1.356
X9.844Y-1.865
X9.844Y-2.041
X9.844Y-2.491
X9.87Y-5.488
X9.881Y-3.667
X9.934Y-1.355
X9.939Y-1.501
X9.943Y-5.037
X9.944Y-1.791
X9.945Y-1.896
X9.945Y-2.296
X9.967Y-3.475
X10.04Y-4.952
X10.044Y-1.791
X10.044Y-2.196
X10.062Y-3.623
X10.089Y-1.645
X10.091Y-1.249
X10.104Y-3.513
X10.134Y-2.501
X10.139Y-2.1
X10.14Y-1.995
X10.176Y-3.449
X10.191Y-1.248
X10.194Y-1.645
X10.194Y-2.296
X10.199Y-1.845
X10.289Y-2.196
X10.294Y-1.308
X10.294Y-1.695
X10.294Y-1.845
X10.294Y-2.396
X10.294Y-2.6
X10.344Y-3.63
X10.345Y-3.336
X10.345Y-3.481
X10.346Y-3.19
X10.385Y-1.84
X10.39Y-2.396
X10.395Y-2.196
X10.415Y-1.641
X10.484Y-2.395
X10.49Y-2.196
X10.539Y-1.996
X10.539Y-2.1
X10.539Y-2.501
X10.539Y-2.596
X10.541Y-2.734
X10.544Y-2.946
X10.544Y-3.24
X10.547Y-4.231
X10.547Y-4.948
X10.547Y-5.231
X10.548Y-3.941
X10.557Y-3.637
X10.595Y-2.301
T3
X1.471Y-3.838
X1.471Y-4.138
X1.473Y-4.841
X1.473Y-5.141
X1.474Y-2.845
X1.474Y-3.145
X1.571Y-3.838
X1.571Y-4.138
X1.573Y-4.841
X1.573Y-5.141
X1.574Y-2.845
X1.574Y-3.145
X1.671Y-3.838
X1.671Y-4.138
X1.673Y-4.841
X1.673Y-5.141
X1.674Y-2.845
X1.674Y-3.145
X1.771Y-3.838
X1.771Y-4.138
X1.773Y-4.841
X1.773Y-5.141
X1.774Y-2.845
X1.774Y-3.145
X1.871Y-3.838
X1.871Y-4.138
X1.873Y-4.841
X1.873Y-5.141
X1.874Y-2.845
X1.874Y-3.145
X1.971Y-3.838
X1.971Y-4.138
X1.973Y-4.841
X1.973Y-5.141
X1.974Y-2.845
X1.974Y-3.145
X2.071Y-3.838
X2.071Y-4.138
X2.073Y-4.841
X2.073Y-5.141
X2.074Y-2.845
X2.074Y-3.145
X2.374Y-1.843
X2.374Y-2.143
X2.377Y-2.842
X2.377Y-3.142
X2.379Y-4.841
X2.379Y-5.141
X2.381Y-3.835
X2.381Y-4.135
X2.474Y-1.843
X2.474Y-2.143
X2.477Y-2.842
X2.477Y-3.142
X2.479Y-4.841
X2.479Y-5.141
X2.481Y-3.835
X2.481Y-4.135
X2.574Y-1.843
X2.574Y-2.143
X2.577Y-2.842
X2.577Y-3.142
X2.579Y-4.841
X2.579Y-5.141
X2.581Y-3.835
X2.581Y-4.135
X2.674Y-1.843
X2.674Y-2.143
X2.677Y-2.842
X2.677Y-3.142
X2.679Y-4.841
X2.679Y-5.141
X2.681Y-3.835
X2.681Y-4.135
X2.774Y-1.843
X2.774Y-2.143
X2.777Y-2.842
X2.777Y-3.142
X2.779Y-4.841
X2.779Y-5.141
X2.781Y-3.835
X2.781Y-4.135
X2.874Y-1.843
X2.874Y-2.143
X2.877Y-2.842
X2.877Y-3.142
X2.879Y-4.841
X2.879Y-5.141
X2.881Y-3.835
X2.881Y-4.135
X2.974Y-1.843
X2.974Y-2.143
X2.977Y-2.842
X2.977Y-3.142
X2.979Y-4.841
X2.979Y-5.141
X2.981Y-3.835
X2.981Y-4.135
X3.278Y-2.845
X3.278Y-3.145
X3.278Y-4.843
X3.278Y-5.143
X3.279Y-1.843
X3.279Y-2.143
X3.283Y-3.838
X3.283Y-4.138
X3.378Y-2.845
X3.378Y-3.145
X3.378Y-4.843
X3.378Y-5.143
X3.379Y-1.843
X3.379Y-2.143
X3.383Y-3.838
X3.383Y-4.138
X3.478Y-2.845
X3.478Y-3.145
X3.478Y-4.843
X3.478Y-5.143
X3.479Y-1.843
X3.479Y-2.143
X3.483Y-3.838
X3.483Y-4.138
X3.578Y-2.845
X3.578Y-3.145
X3.578Y-4.843
X3.578Y-5.143
X3.579Y-1.843
X3.579Y-2.143
X3.583Y-3.838
X3.583Y-4.138
X3.678Y-2.845
X3.678Y-3.145
X3.678Y-4.843
X3.678Y-5.143
X3.679Y-1.843
X3.679Y-2.143
X3.683Y-3.838
X3.683Y-4.138
X3.778Y-2.845
X3.778Y-3.145
X3.778Y-4.843
X3.778Y-5.143
X3.779Y-1.843
X3.779Y-2.143
X3.783Y-3.838
X3.783Y-4.138
X3.878Y-2.845
X3.878Y-3.145
X3.878Y-4.843
X3.878Y-5.143
X3.879Y-1.843
X3.879Y-2.143
X3.883Y-3.838
X3.883Y-4.138
X4.08Y-4.839
X4.08Y-5.139
X4.176Y-1.843
X4.176Y-2.143
X4.178Y-3.839
X4.178Y-4.139
X4.18Y-2.842
X4.18Y-3.142
X4.18Y-4.839
X4.18Y-5.139
X4.276Y-1.843
X4.276Y-2.143
X4.278Y-3.839
X4.278Y-4.139
X4.28Y-2.842
X4.28Y-3.142
X4.28Y-4.839
X4.28Y-5.139
X4.376Y-1.843
X4.376Y-2.143
X4.378Y-3.839
X4.378Y-4.139
X4.38Y-2.842
X4.38Y-3.142
X4.38Y-4.839
X4.38Y-5.139
X4.476Y-1.843
X4.476Y-2.143
X4.478Y-3.839
X4.478Y-4.139
X4.48Y-2.842
X4.48Y-3.142
X4.48Y-4.839
X4.48Y-5.139
X4.576Y-1.843
X4.576Y-2.143
X4.578Y-3.839
X4.578Y-4.139
X4.58Y-2.842
X4.58Y-3.142
X4.58Y-4.839
X4.58Y-5.139
X4.676Y-1.843
X4.676Y-2.143
X4.678Y-3.839
X4.678Y-4.139
X4.68Y-2.842
X4.68Y-3.142
X4.68Y-4.839
X4.68Y-5.139
X4.776Y-1.843
X4.776Y-2.143
X4.778Y-3.839
X4.778Y-4.139
X4.78Y-2.842
X4.78Y-3.142
X4.78Y-4.839
X4.78Y-5.139
X4.982Y-4.84
X4.982Y-5.14
X5.079Y-1.844
X5.079Y-2.144
X5.082Y-4.84
X5.082Y-5.14
X5.084Y-2.843
X5.084Y-3.143
X5.084Y-3.838
X5.084Y-4.138
X5.179Y-1.844
X5.179Y-2.144
X5.182Y-4.84
X5.182Y-5.14
X5.184Y-2.843
X5.184Y-3.143
X5.184Y-3.838
X5.184Y-4.138
X5.279Y-1.844
X5.279Y-2.144
X5.282Y-4.84
X5.282Y-5.14
X5.284Y-2.843
X5.284Y-3.143
X5.284Y-3.838
X5.284Y-4.138
X5.379Y-1.844
X5.379Y-2.144
X5.382Y-4.84
X5.382Y-5.14
X5.384Y-2.843
X5.384Y-3.143
X5.384Y-3.838
X5.384Y-4.138
X5.479Y-1.844
X5.479Y-2.144
X5.482Y-4.84
X5.482Y-5.14
X5.484Y-2.843
X5.484Y-3.143
X5.484Y-3.838
X5.484Y-4.138
X5.579Y-1.844
X5.579Y-2.144
X5.582Y-4.84
X5.582Y-5.14
X5.584Y-2.843
X5.584Y-3.143
X5.584Y-3.838
X5.584Y-4.138
X5.679Y-1.844
X5.679Y-2.144
X5.682Y-4.84
X5.682Y-5.14
X5.684Y-2.843
X5.684Y-3.143
X5.684Y-3.838
X5.684Y-4.138
X5.984Y-1.843
X5.984Y-2.143
X5.985Y-3.841
X5.985Y-4.141
X5.987Y-4.842
X5.987Y-5.142
X5.988Y-2.846
X5.988Y-3.146
X6.084Y-1.843
X6.084Y-2.143
X6.085Y-3.841
X6.085Y-4.141
X6.087Y-4.842
X6.087Y-5.142
X6.088Y-2.846
X6.088Y-3.146
X6.184Y-1.843
X6.184Y-2.143
X6.185Y-3.841
X6.185Y-4.141
X6.187Y-4.842
X6.187Y-5.142
X6.188Y-2.846
X6.188Y-3.146
X6.284Y-1.843
X6.284Y-2.143
X6.285Y-3.841
X6.285Y-4.141
X6.287Y-4.842
X6.287Y-5.142
X6.288Y-2.846
X6.288Y-3.146
X6.384Y-1.843
X6.384Y-2.143
X6.385Y-3.841
X6.385Y-4.141
X6.387Y-4.842
X6.387Y-5.142
X6.388Y-2.846
X6.388Y-3.146
X6.484Y-1.843
X6.484Y-2.143
X6.485Y-3.841
X6.485Y-4.141
X6.487Y-4.842
X6.487Y-5.142
X6.488Y-2.846
X6.488Y-3.146
X6.584Y-1.843
X6.584Y-2.143
X6.585Y-3.841
X6.585Y-4.141
X6.587Y-4.842
X6.587Y-5.142
X6.588Y-2.846
X6.588Y-3.146
X6.687Y-4.842
X6.687Y-5.142
X6.688Y-2.846
X6.688Y-3.146
X6.888Y-1.846
X6.888Y-2.146
X6.888Y-4.843
X6.888Y-5.143
X6.889Y-3.839
X6.889Y-4.139
X6.89Y-2.843
X6.89Y-3.143
X6.988Y-1.846
X6.988Y-2.146
X6.988Y-4.843
X6.988Y-5.143
X6.989Y-3.839
X6.989Y-4.139
X6.99Y-2.843
X6.99Y-3.143
X7.088Y-1.846
X7.088Y-2.146
X7.088Y-4.843
X7.088Y-5.143
X7.089Y-3.839
X7.089Y-4.139
X7.09Y-2.843
X7.09Y-3.143
X7.188Y-1.846
X7.188Y-2.146
X7.188Y-4.843
X7.188Y-5.143
X7.189Y-3.839
X7.189Y-4.139
X7.19Y-2.843
X7.19Y-3.143
X7.288Y-1.846
X7.288Y-2.146
X7.288Y-4.843
X7.288Y-5.143
X7.289Y-3.839
X7.289Y-4.139
X7.29Y-2.843
X7.29Y-3.143
X7.388Y-1.846
X7.388Y-2.146
X7.388Y-4.843
X7.388Y-5.143
X7.389Y-3.839
X7.389Y-4.139
X7.39Y-2.843
X7.39Y-3.143
X7.488Y-1.846
X7.488Y-2.146
X7.488Y-4.843
X7.488Y-5.143
X7.489Y-3.839
X7.489Y-4.139
X7.49Y-2.843
X7.49Y-3.143
X7.588Y-4.843
X7.588Y-5.143
X7.589Y-3.839
X7.589Y-4.139
X7.786Y-4.842
X7.786Y-5.142
X7.788Y-3.841
X7.788Y-4.141
X7.792Y-2.846
X7.792Y-3.146
X7.886Y-4.842
X7.886Y-5.142
X7.888Y-3.841
X7.888Y-4.141
X7.892Y-2.846
X7.892Y-3.146
X7.986Y-4.842
X7.986Y-5.142
X7.988Y-3.841
X7.988Y-4.141
X7.992Y-2.846
X7.992Y-3.146
X8.086Y-4.842
X8.086Y-5.142
X8.088Y-3.841
X8.088Y-4.141
X8.092Y-2.846
X8.092Y-3.146
X8.186Y-4.842
X8.186Y-5.142
X8.188Y-3.841
X8.188Y-4.141
X8.192Y-2.846
X8.192Y-3.146
X8.286Y-4.842
X8.286Y-5.142
X8.288Y-3.841
X8.288Y-4.141
X8.292Y-2.846
X8.292Y-3.146
X8.386Y-4.842
X8.386Y-5.142
X8.388Y-3.841
X8.388Y-4.141
X8.392Y-2.846
X8.392Y-3.146
X8.486Y-4.842
X8.486Y-5.142
X8.688Y-4.844
X8.688Y-5.144
X8.69Y-3.841
X8.69Y-4.141
X8.694Y-2.845
X8.694Y-3.145
X8.788Y-4.844
X8.788Y-5.144
X8.79Y-3.841
X8.79Y-4.141
X8.794Y-2.845
X8.794Y-3.145
X8.888Y-4.844
X8.888Y-5.144
X8.89Y-3.841
X8.89Y-4.141
X8.894Y-2.845
X8.894Y-3.145
X8.988Y-4.844
X8.988Y-5.144
X8.99Y-3.841
X8.99Y-4.141
X8.994Y-2.845
X8.994Y-3.145
X9.088Y-4.844
X9.088Y-5.144
X9.09Y-3.841
X9.09Y-4.141
X9.094Y-2.845
X9.094Y-3.145
X9.188Y-4.844
X9.188Y-5.144
X9.19Y-3.841
X9.19Y-4.141
X9.194Y-2.845
X9.194Y-3.145
X9.288Y-4.844
X9.288Y-5.144
X9.29Y-3.841
X9.29Y-4.141
X9.294Y-2.845
X9.294Y-3.145
X9.39Y-3.841
X9.39Y-4.141
X9.592Y-4.345
X9.592Y-4.645
X9.592Y-4.838
X9.592Y-5.138
X9.594Y-2.845
X9.594Y-3.145
X9.594Y-3.841
X9.594Y-4.141
X9.692Y-4.345
X9.692Y-4.645
X9.692Y-4.838
X9.692Y-5.138
X9.694Y-2.845
X9.694Y-3.145
X9.694Y-3.841
X9.694Y-4.141
X9.792Y-4.345
X9.792Y-4.645
X9.792Y-4.838
X9.792Y-5.138
X9.794Y-2.845
X9.794Y-3.145
X9.794Y-3.841
X9.794Y-4.141
X9.892Y-4.345
X9.892Y-4.645
X9.892Y-4.838
X9.892Y-5.138
X9.894Y-2.845
X9.894Y-3.145
X9.894Y-3.841
X9.894Y-4.141
X9.992Y-4.345
X9.992Y-4.645
X9.992Y-4.838
X9.992Y-5.138
X9.994Y-2.845
X9.994Y-3.145
X9.994Y-3.841
X9.994Y-4.141
X10.092Y-4.345
X10.092Y-4.645
X10.092Y-4.838
X10.092Y-5.138
X10.094Y-2.845
X10.094Y-3.145
X10.094Y-3.841
X10.094Y-4.141
X10.192Y-4.345
X10.192Y-4.645
X10.192Y-4.838
X10.192Y-5.138
X10.194Y-2.845
X10.194Y-3.145
X10.194Y-3.841
X10.194Y-4.141
X10.292Y-4.345
X10.292Y-4.645
X10.292Y-4.838
X10.292Y-5.138
X10.294Y-3.841
X10.294Y-4.141
T4
X8.593Y-5.873
X8.633Y-5.787
T5
X8.089Y-1.337
X8.438Y-1.336
T6
X1.475Y-2.5856
X1.575Y-2.499
X1.675Y-2.5856
T7
X1.065Y-5.75
X1.071Y-1.2
X10.565Y-5.75
X10.572Y-1.251
X10.664Y-1.644
M30
