G04 #@! TF.GenerationSoftware,KiCad,Pcbnew,8.0.6*
G04 #@! TF.CreationDate,2024-10-27T13:27:24-07:00*
G04 #@! TF.ProjectId,Dazzler1 Rev D,44617a7a-6c65-4723-9120-52657620442e,rev?*
G04 #@! TF.SameCoordinates,Original*
G04 #@! TF.FileFunction,Soldermask,Top*
G04 #@! TF.FilePolarity,Negative*
%FSLAX46Y46*%
G04 Gerber Fmt 4.6, Leading zero omitted, Abs format (unit mm)*
G04 Created by KiCad (PCBNEW 8.0.6) date 2024-10-27 13:27:24*
%MOMM*%
%LPD*%
G01*
G04 APERTURE LIST*
%ADD10C,0.100000*%
%ADD11C,1.800000*%
%ADD12C,1.050000*%
%ADD13O,1.200000X2.400000*%
%ADD14C,3.048000*%
%ADD15O,1.200000X3.200000*%
%ADD16O,3.500000X3.500000*%
%ADD17C,1.905000*%
%ADD18O,1.905000X2.000000*%
%ADD19R,1.778000X8.382000*%
G04 APERTURE END LIST*
D10*
X57500000Y-149000000D02*
X220500000Y-149000000D01*
X220500000Y-160000000D01*
X57500000Y-160000000D01*
X57500000Y-149000000D01*
G36*
X57500000Y-149000000D02*
G01*
X220500000Y-149000000D01*
X220500000Y-160000000D01*
X57500000Y-160000000D01*
X57500000Y-149000000D01*
G37*
D11*
X61275800Y-149377400D02*
G75*
G02*
X59475800Y-149377400I-900000J0D01*
G01*
X59475800Y-149377400D02*
G75*
G02*
X61275800Y-149377400I900000J0D01*
G01*
X219162200Y-149174200D02*
G75*
G02*
X217362200Y-149174200I-900000J0D01*
G01*
X217362200Y-149174200D02*
G75*
G02*
X219162200Y-149174200I900000J0D01*
G01*
X220178200Y-146989800D02*
G75*
G02*
X218378200Y-146989800I-900000J0D01*
G01*
X218378200Y-146989800D02*
G75*
G02*
X220178200Y-146989800I900000J0D01*
G01*
X43445000Y-65674600D02*
G75*
G02*
X41645000Y-65674600I-900000J0D01*
G01*
X41645000Y-65674600D02*
G75*
G02*
X43445000Y-65674600I900000J0D01*
G01*
X40905000Y-63474600D02*
G75*
G02*
X39105000Y-63474600I-900000J0D01*
G01*
X39105000Y-63474600D02*
G75*
G02*
X40905000Y-63474600I900000J0D01*
G01*
X31938800Y-130530600D02*
G75*
G02*
X30138800Y-130530600I-900000J0D01*
G01*
X30138800Y-130530600D02*
G75*
G02*
X31938800Y-130530600I900000J0D01*
G01*
X31938800Y-104927400D02*
G75*
G02*
X30138800Y-104927400I-900000J0D01*
G01*
X30138800Y-104927400D02*
G75*
G02*
X31938800Y-104927400I900000J0D01*
G01*
X31837200Y-88493600D02*
G75*
G02*
X30037200Y-88493600I-900000J0D01*
G01*
X30037200Y-88493600D02*
G75*
G02*
X31837200Y-88493600I900000J0D01*
G01*
X31989600Y-63296800D02*
G75*
G02*
X30189600Y-63296800I-900000J0D01*
G01*
X30189600Y-63296800D02*
G75*
G02*
X31989600Y-63296800I900000J0D01*
G01*
X38365000Y-65674600D02*
G75*
G02*
X36565000Y-65674600I-900000J0D01*
G01*
X36565000Y-65674600D02*
G75*
G02*
X38365000Y-65674600I900000J0D01*
G01*
X216622200Y-49149000D02*
G75*
G02*
X214822200Y-49149000I-900000J0D01*
G01*
X214822200Y-49149000D02*
G75*
G02*
X216622200Y-49149000I900000J0D01*
G01*
X220330600Y-46075600D02*
G75*
G02*
X218530600Y-46075600I-900000J0D01*
G01*
X218530600Y-46075600D02*
G75*
G02*
X220330600Y-46075600I900000J0D01*
G01*
X233132200Y-49022000D02*
G75*
G02*
X231332200Y-49022000I-900000J0D01*
G01*
X231332200Y-49022000D02*
G75*
G02*
X233132200Y-49022000I900000J0D01*
G01*
X220330600Y-46075600D02*
G75*
G02*
X218530600Y-46075600I-900000J0D01*
G01*
X218530600Y-46075600D02*
G75*
G02*
X220330600Y-46075600I900000J0D01*
G01*
X220508400Y-33959800D02*
G75*
G02*
X218708400Y-33959800I-900000J0D01*
G01*
X218708400Y-33959800D02*
G75*
G02*
X220508400Y-33959800I900000J0D01*
G01*
D12*
X222546400Y-63322200D02*
G75*
G02*
X221496400Y-63322200I-525000J0D01*
G01*
X221496400Y-63322200D02*
G75*
G02*
X222546400Y-63322200I525000J0D01*
G01*
X55058800Y-79832200D02*
G75*
G02*
X54008800Y-79832200I-525000J0D01*
G01*
X54008800Y-79832200D02*
G75*
G02*
X55058800Y-79832200I525000J0D01*
G01*
X245482600Y-51841400D02*
G75*
G02*
X244432600Y-51841400I-525000J0D01*
G01*
X244432600Y-51841400D02*
G75*
G02*
X245482600Y-51841400I525000J0D01*
G01*
X148759400Y-72237600D02*
G75*
G02*
X147709400Y-72237600I-525000J0D01*
G01*
X147709400Y-72237600D02*
G75*
G02*
X148759400Y-72237600I525000J0D01*
G01*
X261992600Y-60858400D02*
G75*
G02*
X260942600Y-60858400I-525000J0D01*
G01*
X260942600Y-60858400D02*
G75*
G02*
X261992600Y-60858400I525000J0D01*
G01*
X253128000Y-48158400D02*
G75*
G02*
X252078000Y-48158400I-525000J0D01*
G01*
X252078000Y-48158400D02*
G75*
G02*
X253128000Y-48158400I525000J0D01*
G01*
X78731600Y-131775200D02*
G75*
G02*
X77681600Y-131775200I-525000J0D01*
G01*
X77681600Y-131775200D02*
G75*
G02*
X78731600Y-131775200I525000J0D01*
G01*
X170374800Y-147650200D02*
G75*
G02*
X169324800Y-147650200I-525000J0D01*
G01*
X169324800Y-147650200D02*
G75*
G02*
X170374800Y-147650200I525000J0D01*
G01*
X177817000Y-41732200D02*
G75*
G02*
X176767000Y-41732200I-525000J0D01*
G01*
X176767000Y-41732200D02*
G75*
G02*
X177817000Y-41732200I525000J0D01*
G01*
X237735600Y-62026800D02*
G75*
G02*
X236685600Y-62026800I-525000J0D01*
G01*
X236685600Y-62026800D02*
G75*
G02*
X237735600Y-62026800I525000J0D01*
G01*
X195063600Y-42418000D02*
G75*
G02*
X194013600Y-42418000I-525000J0D01*
G01*
X194013600Y-42418000D02*
G75*
G02*
X195063600Y-42418000I525000J0D01*
G01*
X222470200Y-51816000D02*
G75*
G02*
X221420200Y-51816000I-525000J0D01*
G01*
X221420200Y-51816000D02*
G75*
G02*
X222470200Y-51816000I525000J0D01*
G01*
X39158400Y-134239000D02*
G75*
G02*
X38108400Y-134239000I-525000J0D01*
G01*
X38108400Y-134239000D02*
G75*
G02*
X39158400Y-134239000I525000J0D01*
G01*
X227651800Y-63322200D02*
G75*
G02*
X226601800Y-63322200I-525000J0D01*
G01*
X226601800Y-63322200D02*
G75*
G02*
X227651800Y-63322200I525000J0D01*
G01*
X148657800Y-46812200D02*
G75*
G02*
X147607800Y-46812200I-525000J0D01*
G01*
X147607800Y-46812200D02*
G75*
G02*
X148657800Y-46812200I525000J0D01*
G01*
X245355600Y-61976000D02*
G75*
G02*
X244305600Y-61976000I-525000J0D01*
G01*
X244305600Y-61976000D02*
G75*
G02*
X245355600Y-61976000I525000J0D01*
G01*
X242942600Y-51841400D02*
G75*
G02*
X241892600Y-51841400I-525000J0D01*
G01*
X241892600Y-51841400D02*
G75*
G02*
X242942600Y-51841400I525000J0D01*
G01*
X268215600Y-65938400D02*
G75*
G02*
X267165600Y-65938400I-525000J0D01*
G01*
X267165600Y-65938400D02*
G75*
G02*
X268215600Y-65938400I525000J0D01*
G01*
X81347800Y-133604000D02*
G75*
G02*
X80297800Y-133604000I-525000J0D01*
G01*
X80297800Y-133604000D02*
G75*
G02*
X81347800Y-133604000I525000J0D01*
G01*
X185665600Y-34188400D02*
G75*
G02*
X184615600Y-34188400I-525000J0D01*
G01*
X184615600Y-34188400D02*
G75*
G02*
X185665600Y-34188400I525000J0D01*
G01*
X121784600Y-32156400D02*
G75*
G02*
X120734600Y-32156400I-525000J0D01*
G01*
X120734600Y-32156400D02*
G75*
G02*
X121784600Y-32156400I525000J0D01*
G01*
X190745600Y-37973000D02*
G75*
G02*
X189695600Y-37973000I-525000J0D01*
G01*
X189695600Y-37973000D02*
G75*
G02*
X190745600Y-37973000I525000J0D01*
G01*
X65142600Y-147523200D02*
G75*
G02*
X64092600Y-147523200I-525000J0D01*
G01*
X64092600Y-147523200D02*
G75*
G02*
X65142600Y-147523200I525000J0D01*
G01*
X205985600Y-41783000D02*
G75*
G02*
X204935600Y-41783000I-525000J0D01*
G01*
X204935600Y-41783000D02*
G75*
G02*
X205985600Y-41783000I525000J0D01*
G01*
X148962600Y-129692400D02*
G75*
G02*
X147912600Y-129692400I-525000J0D01*
G01*
X147912600Y-129692400D02*
G75*
G02*
X148962600Y-129692400I525000J0D01*
G01*
X253102600Y-45491400D02*
G75*
G02*
X252052600Y-45491400I-525000J0D01*
G01*
X252052600Y-45491400D02*
G75*
G02*
X253102600Y-45491400I525000J0D01*
G01*
X242993400Y-61950600D02*
G75*
G02*
X241943400Y-61950600I-525000J0D01*
G01*
X241943400Y-61950600D02*
G75*
G02*
X242993400Y-61950600I525000J0D01*
G01*
X162678600Y-41783000D02*
G75*
G02*
X161628600Y-41783000I-525000J0D01*
G01*
X161628600Y-41783000D02*
G75*
G02*
X162678600Y-41783000I525000J0D01*
G01*
X148835600Y-79197200D02*
G75*
G02*
X147785600Y-79197200I-525000J0D01*
G01*
X147785600Y-79197200D02*
G75*
G02*
X148835600Y-79197200I525000J0D01*
G01*
X255642600Y-55778400D02*
G75*
G02*
X254592600Y-55778400I-525000J0D01*
G01*
X254592600Y-55778400D02*
G75*
G02*
X255642600Y-55778400I525000J0D01*
G01*
X180585600Y-40538400D02*
G75*
G02*
X179535600Y-40538400I-525000J0D01*
G01*
X179535600Y-40538400D02*
G75*
G02*
X180585600Y-40538400I525000J0D01*
G01*
X225111800Y-61976000D02*
G75*
G02*
X224061800Y-61976000I-525000J0D01*
G01*
X224061800Y-61976000D02*
G75*
G02*
X225111800Y-61976000I525000J0D01*
G01*
X252848600Y-34417000D02*
G75*
G02*
X251798600Y-34417000I-525000J0D01*
G01*
X251798600Y-34417000D02*
G75*
G02*
X252848600Y-34417000I525000J0D01*
G01*
X92701600Y-125806200D02*
G75*
G02*
X91651600Y-125806200I-525000J0D01*
G01*
X91651600Y-125806200D02*
G75*
G02*
X92701600Y-125806200I525000J0D01*
G01*
X171568600Y-34188400D02*
G75*
G02*
X170518600Y-34188400I-525000J0D01*
G01*
X170518600Y-34188400D02*
G75*
G02*
X171568600Y-34188400I525000J0D01*
G01*
X261865600Y-55778400D02*
G75*
G02*
X260815600Y-55778400I-525000J0D01*
G01*
X260815600Y-55778400D02*
G75*
G02*
X261865600Y-55778400I525000J0D01*
G01*
X268418800Y-107467400D02*
G75*
G02*
X267368800Y-107467400I-525000J0D01*
G01*
X267368800Y-107467400D02*
G75*
G02*
X268418800Y-107467400I525000J0D01*
G01*
X230115600Y-51816000D02*
G75*
G02*
X229065600Y-51816000I-525000J0D01*
G01*
X229065600Y-51816000D02*
G75*
G02*
X230115600Y-51816000I525000J0D01*
G01*
X180458600Y-42951400D02*
G75*
G02*
X179408600Y-42951400I-525000J0D01*
G01*
X179408600Y-42951400D02*
G75*
G02*
X180458600Y-42951400I525000J0D01*
G01*
X259579600Y-46863000D02*
G75*
G02*
X258529600Y-46863000I-525000J0D01*
G01*
X258529600Y-46863000D02*
G75*
G02*
X259579600Y-46863000I525000J0D01*
G01*
X259376400Y-31699200D02*
G75*
G02*
X258326400Y-31699200I-525000J0D01*
G01*
X258326400Y-31699200D02*
G75*
G02*
X259376400Y-31699200I525000J0D01*
G01*
X225035600Y-51816000D02*
G75*
G02*
X223985600Y-51816000I-525000J0D01*
G01*
X223985600Y-51816000D02*
G75*
G02*
X225035600Y-51816000I525000J0D01*
G01*
X232833400Y-63322200D02*
G75*
G02*
X231783400Y-63322200I-525000J0D01*
G01*
X231783400Y-63322200D02*
G75*
G02*
X232833400Y-63322200I525000J0D01*
G01*
X261992600Y-43053000D02*
G75*
G02*
X260942600Y-43053000I-525000J0D01*
G01*
X260942600Y-43053000D02*
G75*
G02*
X261992600Y-43053000I525000J0D01*
G01*
X190745600Y-42926000D02*
G75*
G02*
X189695600Y-42926000I-525000J0D01*
G01*
X189695600Y-42926000D02*
G75*
G02*
X190745600Y-42926000I525000J0D01*
G01*
X261992600Y-66040000D02*
G75*
G02*
X260942600Y-66040000I-525000J0D01*
G01*
X260942600Y-66040000D02*
G75*
G02*
X261992600Y-66040000I525000J0D01*
G01*
X188332600Y-34163000D02*
G75*
G02*
X187282600Y-34163000I-525000J0D01*
G01*
X187282600Y-34163000D02*
G75*
G02*
X188332600Y-34163000I525000J0D01*
G01*
X256836400Y-31724600D02*
G75*
G02*
X255786400Y-31724600I-525000J0D01*
G01*
X255786400Y-31724600D02*
G75*
G02*
X256836400Y-31724600I525000J0D01*
G01*
X261992600Y-33223200D02*
G75*
G02*
X260942600Y-33223200I-525000J0D01*
G01*
X260942600Y-33223200D02*
G75*
G02*
X261992600Y-33223200I525000J0D01*
G01*
X35399200Y-76987400D02*
G75*
G02*
X34349200Y-76987400I-525000J0D01*
G01*
X34349200Y-76987400D02*
G75*
G02*
X35399200Y-76987400I525000J0D01*
G01*
X258081000Y-50673000D02*
G75*
G02*
X257031000Y-50673000I-525000J0D01*
G01*
X257031000Y-50673000D02*
G75*
G02*
X258081000Y-50673000I525000J0D01*
G01*
X162551600Y-32156400D02*
G75*
G02*
X161501600Y-32156400I-525000J0D01*
G01*
X161501600Y-32156400D02*
G75*
G02*
X162551600Y-32156400I525000J0D01*
G01*
X250562600Y-51841400D02*
G75*
G02*
X249512600Y-51841400I-525000J0D01*
G01*
X249512600Y-51841400D02*
G75*
G02*
X250562600Y-51841400I525000J0D01*
G01*
X62094600Y-144627600D02*
G75*
G02*
X61044600Y-144627600I-525000J0D01*
G01*
X61044600Y-144627600D02*
G75*
G02*
X62094600Y-144627600I525000J0D01*
G01*
X243018800Y-63322200D02*
G75*
G02*
X241968800Y-63322200I-525000J0D01*
G01*
X241968800Y-63322200D02*
G75*
G02*
X243018800Y-63322200I525000J0D01*
G01*
X261992600Y-46863000D02*
G75*
G02*
X260942600Y-46863000I-525000J0D01*
G01*
X260942600Y-46863000D02*
G75*
G02*
X261992600Y-46863000I525000J0D01*
G01*
X232655600Y-51816000D02*
G75*
G02*
X231605600Y-51816000I-525000J0D01*
G01*
X231605600Y-51816000D02*
G75*
G02*
X232655600Y-51816000I525000J0D01*
G01*
X268215600Y-53340000D02*
G75*
G02*
X267165600Y-53340000I-525000J0D01*
G01*
X267165600Y-53340000D02*
G75*
G02*
X268215600Y-53340000I525000J0D01*
G01*
X195266800Y-49428400D02*
G75*
G02*
X194216800Y-49428400I-525000J0D01*
G01*
X194216800Y-49428400D02*
G75*
G02*
X195266800Y-49428400I525000J0D01*
G01*
X173473600Y-147650200D02*
G75*
G02*
X172423600Y-147650200I-525000J0D01*
G01*
X172423600Y-147650200D02*
G75*
G02*
X173473600Y-147650200I525000J0D01*
G01*
X35373800Y-127762000D02*
G75*
G02*
X34323800Y-127762000I-525000J0D01*
G01*
X34323800Y-127762000D02*
G75*
G02*
X35373800Y-127762000I525000J0D01*
G01*
X247946400Y-63246000D02*
G75*
G02*
X246896400Y-63246000I-525000J0D01*
G01*
X246896400Y-63246000D02*
G75*
G02*
X247946400Y-63246000I525000J0D01*
G01*
X230242600Y-63322200D02*
G75*
G02*
X229192600Y-63322200I-525000J0D01*
G01*
X229192600Y-63322200D02*
G75*
G02*
X230242600Y-63322200I525000J0D01*
G01*
X240351800Y-63322200D02*
G75*
G02*
X239301800Y-63322200I-525000J0D01*
G01*
X239301800Y-63322200D02*
G75*
G02*
X240351800Y-63322200I525000J0D01*
G01*
X39183800Y-141249400D02*
G75*
G02*
X38133800Y-141249400I-525000J0D01*
G01*
X38133800Y-141249400D02*
G75*
G02*
X39183800Y-141249400I525000J0D01*
G01*
X268342600Y-74828400D02*
G75*
G02*
X267292600Y-74828400I-525000J0D01*
G01*
X267292600Y-74828400D02*
G75*
G02*
X268342600Y-74828400I525000J0D01*
G01*
X245406400Y-63398400D02*
G75*
G02*
X244356400Y-63398400I-525000J0D01*
G01*
X244356400Y-63398400D02*
G75*
G02*
X245406400Y-63398400I525000J0D01*
G01*
X247895600Y-51816000D02*
G75*
G02*
X246845600Y-51816000I-525000J0D01*
G01*
X246845600Y-51816000D02*
G75*
G02*
X247895600Y-51816000I525000J0D01*
G01*
X268418800Y-132867400D02*
G75*
G02*
X267368800Y-132867400I-525000J0D01*
G01*
X267368800Y-132867400D02*
G75*
G02*
X268418800Y-132867400I525000J0D01*
G01*
X237761000Y-63398400D02*
G75*
G02*
X236711000Y-63398400I-525000J0D01*
G01*
X236711000Y-63398400D02*
G75*
G02*
X237761000Y-63398400I525000J0D01*
G01*
X225111800Y-63398400D02*
G75*
G02*
X224061800Y-63398400I-525000J0D01*
G01*
X224061800Y-63398400D02*
G75*
G02*
X225111800Y-63398400I525000J0D01*
G01*
X269638000Y-58445400D02*
G75*
G02*
X268588000Y-58445400I-525000J0D01*
G01*
X268588000Y-58445400D02*
G75*
G02*
X269638000Y-58445400I525000J0D01*
G01*
X81246200Y-144881600D02*
G75*
G02*
X80196200Y-144881600I-525000J0D01*
G01*
X80196200Y-144881600D02*
G75*
G02*
X81246200Y-144881600I525000J0D01*
G01*
X88307400Y-134493000D02*
G75*
G02*
X87257400Y-134493000I-525000J0D01*
G01*
X87257400Y-134493000D02*
G75*
G02*
X88307400Y-134493000I525000J0D01*
G01*
X148911800Y-122885200D02*
G75*
G02*
X147861800Y-122885200I-525000J0D01*
G01*
X147861800Y-122885200D02*
G75*
G02*
X148911800Y-122885200I525000J0D01*
G01*
X235271800Y-61976000D02*
G75*
G02*
X234221800Y-61976000I-525000J0D01*
G01*
X234221800Y-61976000D02*
G75*
G02*
X235271800Y-61976000I525000J0D01*
G01*
X219955600Y-61976000D02*
G75*
G02*
X218905600Y-61976000I-525000J0D01*
G01*
X218905600Y-61976000D02*
G75*
G02*
X219955600Y-61976000I525000J0D01*
G01*
X198365600Y-49428400D02*
G75*
G02*
X197315600Y-49428400I-525000J0D01*
G01*
X197315600Y-49428400D02*
G75*
G02*
X198365600Y-49428400I525000J0D01*
G01*
X259452600Y-58318400D02*
G75*
G02*
X258402600Y-58318400I-525000J0D01*
G01*
X258402600Y-58318400D02*
G75*
G02*
X259452600Y-58318400I525000J0D01*
G01*
X258055600Y-53340000D02*
G75*
G02*
X257005600Y-53340000I-525000J0D01*
G01*
X257005600Y-53340000D02*
G75*
G02*
X258055600Y-53340000I525000J0D01*
G01*
X195317600Y-34163000D02*
G75*
G02*
X194267600Y-34163000I-525000J0D01*
G01*
X194267600Y-34163000D02*
G75*
G02*
X195317600Y-34163000I525000J0D01*
G01*
X227575600Y-51841400D02*
G75*
G02*
X226525600Y-51841400I-525000J0D01*
G01*
X226525600Y-51841400D02*
G75*
G02*
X227575600Y-51841400I525000J0D01*
G01*
X80636600Y-121996200D02*
G75*
G02*
X79586600Y-121996200I-525000J0D01*
G01*
X79586600Y-121996200D02*
G75*
G02*
X80636600Y-121996200I525000J0D01*
G01*
X250562600Y-63271400D02*
G75*
G02*
X249512600Y-63271400I-525000J0D01*
G01*
X249512600Y-63271400D02*
G75*
G02*
X250562600Y-63271400I525000J0D01*
G01*
X202048600Y-34188400D02*
G75*
G02*
X200998600Y-34188400I-525000J0D01*
G01*
X200998600Y-34188400D02*
G75*
G02*
X202048600Y-34188400I525000J0D01*
G01*
X255642600Y-45491400D02*
G75*
G02*
X254592600Y-45491400I-525000J0D01*
G01*
X254592600Y-45491400D02*
G75*
G02*
X255642600Y-45491400I525000J0D01*
G01*
X253128000Y-58318400D02*
G75*
G02*
X252078000Y-58318400I-525000J0D01*
G01*
X252078000Y-58318400D02*
G75*
G02*
X253128000Y-58318400I525000J0D01*
G01*
X80585800Y-129184400D02*
G75*
G02*
X79535800Y-129184400I-525000J0D01*
G01*
X79535800Y-129184400D02*
G75*
G02*
X80585800Y-129184400I525000J0D01*
G01*
X31868600Y-99898200D02*
G75*
G02*
X30818600Y-99898200I-525000J0D01*
G01*
X30818600Y-99898200D02*
G75*
G02*
X31868600Y-99898200I525000J0D01*
G01*
X109973600Y-108102400D02*
G75*
G02*
X108923600Y-108102400I-525000J0D01*
G01*
X108923600Y-108102400D02*
G75*
G02*
X109973600Y-108102400I525000J0D01*
G01*
X266818600Y-60833000D02*
G75*
G02*
X265768600Y-60833000I-525000J0D01*
G01*
X265768600Y-60833000D02*
G75*
G02*
X266818600Y-60833000I525000J0D01*
G01*
X235195600Y-51841400D02*
G75*
G02*
X234145600Y-51841400I-525000J0D01*
G01*
X234145600Y-51841400D02*
G75*
G02*
X235195600Y-51841400I525000J0D01*
G01*
X90949000Y-127914400D02*
G75*
G02*
X89899000Y-127914400I-525000J0D01*
G01*
X89899000Y-127914400D02*
G75*
G02*
X90949000Y-127914400I525000J0D01*
G01*
X268215600Y-63525400D02*
G75*
G02*
X267165600Y-63525400I-525000J0D01*
G01*
X267165600Y-63525400D02*
G75*
G02*
X268215600Y-63525400I525000J0D01*
G01*
X179976000Y-147650200D02*
G75*
G02*
X178926000Y-147650200I-525000J0D01*
G01*
X178926000Y-147650200D02*
G75*
G02*
X179976000Y-147650200I525000J0D01*
G01*
X202150200Y-51333400D02*
G75*
G02*
X201100200Y-51333400I-525000J0D01*
G01*
X201100200Y-51333400D02*
G75*
G02*
X202150200Y-51333400I525000J0D01*
G01*
X198391000Y-42443400D02*
G75*
G02*
X197341000Y-42443400I-525000J0D01*
G01*
X197341000Y-42443400D02*
G75*
G02*
X198391000Y-42443400I525000J0D01*
G01*
X250562600Y-34442400D02*
G75*
G02*
X249512600Y-34442400I-525000J0D01*
G01*
X249512600Y-34442400D02*
G75*
G02*
X250562600Y-34442400I525000J0D01*
G01*
X190771000Y-40538400D02*
G75*
G02*
X189721000Y-40538400I-525000J0D01*
G01*
X189721000Y-40538400D02*
G75*
G02*
X190771000Y-40538400I525000J0D01*
G01*
X202175600Y-37338000D02*
G75*
G02*
X201125600Y-37338000I-525000J0D01*
G01*
X201125600Y-37338000D02*
G75*
G02*
X202175600Y-37338000I525000J0D01*
G01*
X183125600Y-147650200D02*
G75*
G02*
X182075600Y-147650200I-525000J0D01*
G01*
X182075600Y-147650200D02*
G75*
G02*
X183125600Y-147650200I525000J0D01*
G01*
X212843600Y-41783000D02*
G75*
G02*
X211793600Y-41783000I-525000J0D01*
G01*
X211793600Y-41783000D02*
G75*
G02*
X212843600Y-41783000I525000J0D01*
G01*
X190872600Y-34163000D02*
G75*
G02*
X189822600Y-34163000I-525000J0D01*
G01*
X189822600Y-34163000D02*
G75*
G02*
X190872600Y-34163000I525000J0D01*
G01*
X219955600Y-63322200D02*
G75*
G02*
X218905600Y-63322200I-525000J0D01*
G01*
X218905600Y-63322200D02*
G75*
G02*
X219955600Y-63322200I525000J0D01*
G01*
X43044600Y-144678400D02*
G75*
G02*
X41994600Y-144678400I-525000J0D01*
G01*
X41994600Y-144678400D02*
G75*
G02*
X43044600Y-144678400I525000J0D01*
G01*
X78604600Y-145008600D02*
G75*
G02*
X77554600Y-145008600I-525000J0D01*
G01*
X77554600Y-145008600D02*
G75*
G02*
X78604600Y-145008600I525000J0D01*
G01*
X174311800Y-34188400D02*
G75*
G02*
X173261800Y-34188400I-525000J0D01*
G01*
X173261800Y-34188400D02*
G75*
G02*
X174311800Y-34188400I525000J0D01*
G01*
X74870800Y-144551400D02*
G75*
G02*
X73820800Y-144551400I-525000J0D01*
G01*
X73820800Y-144551400D02*
G75*
G02*
X74870800Y-144551400I525000J0D01*
G01*
X31741600Y-93649800D02*
G75*
G02*
X30691600Y-93649800I-525000J0D01*
G01*
X30691600Y-93649800D02*
G75*
G02*
X31741600Y-93649800I525000J0D01*
G01*
X268418800Y-125679200D02*
G75*
G02*
X267368800Y-125679200I-525000J0D01*
G01*
X267368800Y-125679200D02*
G75*
G02*
X268418800Y-125679200I525000J0D01*
G01*
X259452600Y-41783000D02*
G75*
G02*
X258402600Y-41783000I-525000J0D01*
G01*
X258402600Y-41783000D02*
G75*
G02*
X259452600Y-41783000I525000J0D01*
G01*
X264431000Y-60858400D02*
G75*
G02*
X263381000Y-60858400I-525000J0D01*
G01*
X263381000Y-60858400D02*
G75*
G02*
X264431000Y-60858400I525000J0D01*
G01*
X248149600Y-34442400D02*
G75*
G02*
X247099600Y-34442400I-525000J0D01*
G01*
X247099600Y-34442400D02*
G75*
G02*
X248149600Y-34442400I525000J0D01*
G01*
X268444200Y-100101400D02*
G75*
G02*
X267394200Y-100101400I-525000J0D01*
G01*
X267394200Y-100101400D02*
G75*
G02*
X268444200Y-100101400I525000J0D01*
G01*
X247971800Y-62001400D02*
G75*
G02*
X246921800Y-62001400I-525000J0D01*
G01*
X246921800Y-62001400D02*
G75*
G02*
X247971800Y-62001400I525000J0D01*
G01*
X268215600Y-50698400D02*
G75*
G02*
X267165600Y-50698400I-525000J0D01*
G01*
X267165600Y-50698400D02*
G75*
G02*
X268215600Y-50698400I525000J0D01*
G01*
X237989600Y-51841400D02*
G75*
G02*
X236939600Y-51841400I-525000J0D01*
G01*
X236939600Y-51841400D02*
G75*
G02*
X237989600Y-51841400I525000J0D01*
G01*
X252975600Y-38125400D02*
G75*
G02*
X251925600Y-38125400I-525000J0D01*
G01*
X251925600Y-38125400D02*
G75*
G02*
X252975600Y-38125400I525000J0D01*
G01*
X148861000Y-53543200D02*
G75*
G02*
X147811000Y-53543200I-525000J0D01*
G01*
X147811000Y-53543200D02*
G75*
G02*
X148861000Y-53543200I525000J0D01*
G01*
X222495600Y-61976000D02*
G75*
G02*
X221445600Y-61976000I-525000J0D01*
G01*
X221445600Y-61976000D02*
G75*
G02*
X222495600Y-61976000I525000J0D01*
G01*
X257928600Y-63525400D02*
G75*
G02*
X256878600Y-63525400I-525000J0D01*
G01*
X256878600Y-63525400D02*
G75*
G02*
X257928600Y-63525400I525000J0D01*
G01*
X240402600Y-51841400D02*
G75*
G02*
X239352600Y-51841400I-525000J0D01*
G01*
X239352600Y-51841400D02*
G75*
G02*
X240402600Y-51841400I525000J0D01*
G01*
X227651800Y-61976000D02*
G75*
G02*
X226601800Y-61976000I-525000J0D01*
G01*
X226601800Y-61976000D02*
G75*
G02*
X227651800Y-61976000I525000J0D01*
G01*
X42917600Y-134518400D02*
G75*
G02*
X41867600Y-134518400I-525000J0D01*
G01*
X41867600Y-134518400D02*
G75*
G02*
X42917600Y-134518400I525000J0D01*
G01*
X232808000Y-61976000D02*
G75*
G02*
X231758000Y-61976000I-525000J0D01*
G01*
X231758000Y-61976000D02*
G75*
G02*
X232808000Y-61976000I525000J0D01*
G01*
X256785600Y-41783000D02*
G75*
G02*
X255735600Y-41783000I-525000J0D01*
G01*
X255735600Y-41783000D02*
G75*
G02*
X256785600Y-41783000I525000J0D01*
G01*
X81170000Y-137998200D02*
G75*
G02*
X80120000Y-137998200I-525000J0D01*
G01*
X80120000Y-137998200D02*
G75*
G02*
X81170000Y-137998200I525000J0D01*
G01*
X58767200Y-32842200D02*
G75*
G02*
X57717200Y-32842200I-525000J0D01*
G01*
X57717200Y-32842200D02*
G75*
G02*
X58767200Y-32842200I525000J0D01*
G01*
X35272200Y-69621400D02*
G75*
G02*
X34222200Y-69621400I-525000J0D01*
G01*
X34222200Y-69621400D02*
G75*
G02*
X35272200Y-69621400I525000J0D01*
G01*
X250435600Y-40538400D02*
G75*
G02*
X249385600Y-40538400I-525000J0D01*
G01*
X249385600Y-40538400D02*
G75*
G02*
X250435600Y-40538400I525000J0D01*
G01*
X176953400Y-34163000D02*
G75*
G02*
X175903400Y-34163000I-525000J0D01*
G01*
X175903400Y-34163000D02*
G75*
G02*
X176953400Y-34163000I525000J0D01*
G01*
X266971000Y-55778400D02*
G75*
G02*
X265921000Y-55778400I-525000J0D01*
G01*
X265921000Y-55778400D02*
G75*
G02*
X266971000Y-55778400I525000J0D01*
G01*
X58843400Y-39751000D02*
G75*
G02*
X57793400Y-39751000I-525000J0D01*
G01*
X57793400Y-39751000D02*
G75*
G02*
X58843400Y-39751000I525000J0D01*
G01*
X219955600Y-51841400D02*
G75*
G02*
X218905600Y-51841400I-525000J0D01*
G01*
X218905600Y-51841400D02*
G75*
G02*
X219955600Y-51841400I525000J0D01*
G01*
X250486400Y-61976000D02*
G75*
G02*
X249436400Y-61976000I-525000J0D01*
G01*
X249436400Y-61976000D02*
G75*
G02*
X250486400Y-61976000I525000J0D01*
G01*
X230191800Y-61976000D02*
G75*
G02*
X229141800Y-61976000I-525000J0D01*
G01*
X229141800Y-61976000D02*
G75*
G02*
X230191800Y-61976000I525000J0D01*
G01*
X240351800Y-61976000D02*
G75*
G02*
X239301800Y-61976000I-525000J0D01*
G01*
X239301800Y-61976000D02*
G75*
G02*
X240351800Y-61976000I525000J0D01*
G01*
X250562600Y-47371000D02*
G75*
G02*
X249512600Y-47371000I-525000J0D01*
G01*
X249512600Y-47371000D02*
G75*
G02*
X250562600Y-47371000I525000J0D01*
G01*
X183887600Y-37871400D02*
G75*
G02*
X182837600Y-37871400I-525000J0D01*
G01*
X182837600Y-37871400D02*
G75*
G02*
X183887600Y-37871400I525000J0D01*
G01*
X264558000Y-55778400D02*
G75*
G02*
X263508000Y-55778400I-525000J0D01*
G01*
X263508000Y-55778400D02*
G75*
G02*
X264558000Y-55778400I525000J0D01*
G01*
X35500800Y-134391400D02*
G75*
G02*
X34450800Y-134391400I-525000J0D01*
G01*
X34450800Y-134391400D02*
G75*
G02*
X35500800Y-134391400I525000J0D01*
G01*
X122038600Y-39116000D02*
G75*
G02*
X120988600Y-39116000I-525000J0D01*
G01*
X120988600Y-39116000D02*
G75*
G02*
X122038600Y-39116000I525000J0D01*
G01*
X264304000Y-46736000D02*
G75*
G02*
X263254000Y-46736000I-525000J0D01*
G01*
X263254000Y-46736000D02*
G75*
G02*
X264304000Y-46736000I525000J0D01*
G01*
X162678600Y-39243000D02*
G75*
G02*
X161628600Y-39243000I-525000J0D01*
G01*
X161628600Y-39243000D02*
G75*
G02*
X162678600Y-39243000I525000J0D01*
G01*
X268342600Y-82296000D02*
G75*
G02*
X267292600Y-82296000I-525000J0D01*
G01*
X267292600Y-82296000D02*
G75*
G02*
X268342600Y-82296000I525000J0D01*
G01*
X235271800Y-63322200D02*
G75*
G02*
X234221800Y-63322200I-525000J0D01*
G01*
X234221800Y-63322200D02*
G75*
G02*
X235271800Y-63322200I525000J0D01*
G01*
D11*
X263663000Y-88417400D02*
G75*
G02*
X261863000Y-88417400I-900000J0D01*
G01*
X261863000Y-88417400D02*
G75*
G02*
X263663000Y-88417400I900000J0D01*
G01*
X206360600Y-33959800D02*
G75*
G02*
X204560600Y-33959800I-900000J0D01*
G01*
X204560600Y-33959800D02*
G75*
G02*
X206360600Y-33959800I900000J0D01*
G01*
X263688400Y-81026000D02*
G75*
G02*
X261888400Y-81026000I-900000J0D01*
G01*
X261888400Y-81026000D02*
G75*
G02*
X263688400Y-81026000I900000J0D01*
G01*
X215225200Y-33934400D02*
G75*
G02*
X213425200Y-33934400I-900000J0D01*
G01*
X213425200Y-33934400D02*
G75*
G02*
X215225200Y-33934400I900000J0D01*
G01*
X234351400Y-134239000D02*
G75*
G02*
X232551400Y-134239000I-900000J0D01*
G01*
X232551400Y-134239000D02*
G75*
G02*
X234351400Y-134239000I900000J0D01*
G01*
X142708200Y-33985200D02*
G75*
G02*
X140908200Y-33985200I-900000J0D01*
G01*
X140908200Y-33985200D02*
G75*
G02*
X142708200Y-33985200I900000J0D01*
G01*
X187285200Y-84861400D02*
G75*
G02*
X185485200Y-84861400I-900000J0D01*
G01*
X185485200Y-84861400D02*
G75*
G02*
X187285200Y-84861400I900000J0D01*
G01*
X150201200Y-112877600D02*
G75*
G02*
X148401200Y-112877600I-900000J0D01*
G01*
X148401200Y-112877600D02*
G75*
G02*
X150201200Y-112877600I900000J0D01*
G01*
X263637600Y-92202000D02*
G75*
G02*
X261837600Y-92202000I-900000J0D01*
G01*
X261837600Y-92202000D02*
G75*
G02*
X263637600Y-92202000I900000J0D01*
G01*
X154163600Y-33858200D02*
G75*
G02*
X152363600Y-33858200I-900000J0D01*
G01*
X152363600Y-33858200D02*
G75*
G02*
X154163600Y-33858200I900000J0D01*
G01*
X150125000Y-136118600D02*
G75*
G02*
X148325000Y-136118600I-900000J0D01*
G01*
X148325000Y-136118600D02*
G75*
G02*
X150125000Y-136118600I900000J0D01*
G01*
X230770000Y-116840000D02*
G75*
G02*
X228970000Y-116840000I-900000J0D01*
G01*
X228970000Y-116840000D02*
G75*
G02*
X230770000Y-116840000I900000J0D01*
G01*
X265441000Y-41681400D02*
G75*
G02*
X263641000Y-41681400I-900000J0D01*
G01*
X263641000Y-41681400D02*
G75*
G02*
X265441000Y-41681400I900000J0D01*
G01*
X218349400Y-116001800D02*
G75*
G02*
X216549400Y-116001800I-900000J0D01*
G01*
X216549400Y-116001800D02*
G75*
G02*
X218349400Y-116001800I900000J0D01*
G01*
X183576800Y-84912200D02*
G75*
G02*
X181776800Y-84912200I-900000J0D01*
G01*
X181776800Y-84912200D02*
G75*
G02*
X183576800Y-84912200I900000J0D01*
G01*
X146416600Y-33883600D02*
G75*
G02*
X144616600Y-33883600I-900000J0D01*
G01*
X144616600Y-33883600D02*
G75*
G02*
X146416600Y-33883600I900000J0D01*
G01*
X121727800Y-88366600D02*
G75*
G02*
X119927800Y-88366600I-900000J0D01*
G01*
X119927800Y-88366600D02*
G75*
G02*
X121727800Y-88366600I900000J0D01*
G01*
X223023000Y-92557600D02*
G75*
G02*
X221223000Y-92557600I-900000J0D01*
G01*
X221223000Y-92557600D02*
G75*
G02*
X223023000Y-92557600I900000J0D01*
G01*
X236866000Y-118999000D02*
G75*
G02*
X235066000Y-118999000I-900000J0D01*
G01*
X235066000Y-118999000D02*
G75*
G02*
X236866000Y-118999000I900000J0D01*
G01*
X263663000Y-84734400D02*
G75*
G02*
X261863000Y-84734400I-900000J0D01*
G01*
X261863000Y-84734400D02*
G75*
G02*
X263663000Y-84734400I900000J0D01*
G01*
X160513600Y-141909800D02*
G75*
G02*
X158713600Y-141909800I-900000J0D01*
G01*
X158713600Y-141909800D02*
G75*
G02*
X160513600Y-141909800I900000J0D01*
G01*
X84516800Y-28752800D02*
G75*
G02*
X82716800Y-28752800I-900000J0D01*
G01*
X82716800Y-28752800D02*
G75*
G02*
X84516800Y-28752800I900000J0D01*
G01*
X233056000Y-31521400D02*
G75*
G02*
X231256000Y-31521400I-900000J0D01*
G01*
X231256000Y-31521400D02*
G75*
G02*
X233056000Y-31521400I900000J0D01*
G01*
X213040800Y-27965400D02*
G75*
G02*
X211240800Y-27965400I-900000J0D01*
G01*
X211240800Y-27965400D02*
G75*
G02*
X213040800Y-27965400I900000J0D01*
G01*
X268641400Y-69443600D02*
G75*
G02*
X266841400Y-69443600I-900000J0D01*
G01*
X266841400Y-69443600D02*
G75*
G02*
X268641400Y-69443600I900000J0D01*
G01*
X269047800Y-92379800D02*
G75*
G02*
X267247800Y-92379800I-900000J0D01*
G01*
X267247800Y-92379800D02*
G75*
G02*
X269047800Y-92379800I900000J0D01*
G01*
X205141400Y-55448200D02*
G75*
G02*
X203341400Y-55448200I-900000J0D01*
G01*
X203341400Y-55448200D02*
G75*
G02*
X205141400Y-55448200I900000J0D01*
G01*
X217104800Y-106172000D02*
G75*
G02*
X215304800Y-106172000I-900000J0D01*
G01*
X215304800Y-106172000D02*
G75*
G02*
X217104800Y-106172000I900000J0D01*
G01*
D10*
X274599400Y-152196800D02*
X255752600Y-152146000D01*
X274548600Y-133807200D01*
X274599400Y-152196800D01*
G36*
X274599400Y-152196800D02*
G01*
X255752600Y-152146000D01*
X274548600Y-133807200D01*
X274599400Y-152196800D01*
G37*
X274599400Y-31800800D02*
X274599400Y-44678600D01*
X266598400Y-44678600D01*
X266598400Y-38582600D01*
X269341600Y-38582600D01*
X257403600Y-25501600D01*
X268300200Y-25501600D01*
X274599400Y-31800800D01*
G36*
X274599400Y-31800800D02*
G01*
X274599400Y-44678600D01*
X266598400Y-44678600D01*
X266598400Y-38582600D01*
X269341600Y-38582600D01*
X257403600Y-25501600D01*
X268300200Y-25501600D01*
X274599400Y-31800800D01*
G37*
X29540200Y-152273000D02*
X20828000Y-152349200D01*
X20802600Y-143764000D01*
X29540200Y-152273000D01*
G36*
X29540200Y-152273000D02*
G01*
X20828000Y-152349200D01*
X20802600Y-143764000D01*
X29540200Y-152273000D01*
G37*
X56819800Y-51536600D02*
X47269400Y-63017400D01*
X20777200Y-63017400D01*
X20777200Y-31800800D01*
X27076400Y-25501600D01*
X56819800Y-25501600D01*
X56819800Y-51536600D01*
G36*
X56819800Y-51536600D02*
G01*
X47269400Y-63017400D01*
X20777200Y-63017400D01*
X20777200Y-31800800D01*
X27076400Y-25501600D01*
X56819800Y-25501600D01*
X56819800Y-51536600D01*
G37*
D13*
X129133600Y-105105200D03*
X131673600Y-105105200D03*
X134213600Y-105105200D03*
X136753600Y-105105200D03*
X139293600Y-105105200D03*
X141833600Y-105105200D03*
X144373600Y-105105200D03*
X144373600Y-97485200D03*
X141833600Y-97485200D03*
X139293600Y-97485200D03*
X136753600Y-97485200D03*
X134213600Y-97485200D03*
X131673600Y-97485200D03*
X129133600Y-97485200D03*
D14*
X268351000Y-146050000D03*
D13*
X106172000Y-79806800D03*
X108712000Y-79806800D03*
X111252000Y-79806800D03*
X113792000Y-79806800D03*
X116332000Y-79806800D03*
X118872000Y-79806800D03*
X121412000Y-79806800D03*
X121412000Y-72186800D03*
X118872000Y-72186800D03*
X116332000Y-72186800D03*
X113792000Y-72186800D03*
X111252000Y-72186800D03*
X108712000Y-72186800D03*
X106172000Y-72186800D03*
X243636800Y-130505200D03*
X246176800Y-130505200D03*
X248716800Y-130505200D03*
X251256800Y-130505200D03*
X253796800Y-130505200D03*
X256336800Y-130505200D03*
X258876800Y-130505200D03*
X261416800Y-130505200D03*
X261416800Y-122885200D03*
X258876800Y-122885200D03*
X256336800Y-122885200D03*
X253796800Y-122885200D03*
X251256800Y-122885200D03*
X248716800Y-122885200D03*
X246176800Y-122885200D03*
X243636800Y-122885200D03*
X220675200Y-130657600D03*
X223215200Y-130657600D03*
X225755200Y-130657600D03*
X228295200Y-130657600D03*
X230835200Y-130657600D03*
X233375200Y-130657600D03*
X235915200Y-130657600D03*
X235915200Y-123037600D03*
X233375200Y-123037600D03*
X230835200Y-123037600D03*
X228295200Y-123037600D03*
X225755200Y-123037600D03*
X223215200Y-123037600D03*
X220675200Y-123037600D03*
X197916800Y-79908400D03*
X200456800Y-79908400D03*
X202996800Y-79908400D03*
X205536800Y-79908400D03*
X208076800Y-79908400D03*
X210616800Y-79908400D03*
X213156800Y-79908400D03*
X213156800Y-72288400D03*
X210616800Y-72288400D03*
X208076800Y-72288400D03*
X205536800Y-72288400D03*
X202996800Y-72288400D03*
X200456800Y-72288400D03*
X197916800Y-72288400D03*
X60426600Y-130581400D03*
X62966600Y-130581400D03*
X65506600Y-130581400D03*
X68046600Y-130581400D03*
X70586600Y-130581400D03*
X73126600Y-130581400D03*
X75666600Y-130581400D03*
X75666600Y-122961400D03*
X73126600Y-122961400D03*
X70586600Y-122961400D03*
X68046600Y-122961400D03*
X65506600Y-122961400D03*
X62966600Y-122961400D03*
X60426600Y-122961400D03*
X83388200Y-105105200D03*
X85928200Y-105105200D03*
X88468200Y-105105200D03*
X91008200Y-105105200D03*
X93548200Y-105105200D03*
X96088200Y-105105200D03*
X98628200Y-105105200D03*
X98628200Y-97485200D03*
X96088200Y-97485200D03*
X93548200Y-97485200D03*
X91008200Y-97485200D03*
X88468200Y-97485200D03*
X85928200Y-97485200D03*
X83388200Y-97485200D03*
D14*
X27051000Y-146050000D03*
D15*
X102414400Y-104223800D03*
X148312200Y-104198400D03*
D13*
X106070400Y-54432200D03*
X108610400Y-54432200D03*
X111150400Y-54432200D03*
X113690400Y-54432200D03*
X116230400Y-54432200D03*
X118770400Y-54432200D03*
X121310400Y-54432200D03*
X121310400Y-46812200D03*
X118770400Y-46812200D03*
X116230400Y-46812200D03*
X113690400Y-46812200D03*
X111150400Y-46812200D03*
X108610400Y-46812200D03*
X106070400Y-46812200D03*
X243687600Y-79883000D03*
X246227600Y-79883000D03*
X248767600Y-79883000D03*
X251307600Y-79883000D03*
X253847600Y-79883000D03*
X256387600Y-79883000D03*
X258927600Y-79883000D03*
X258927600Y-72263000D03*
X256387600Y-72263000D03*
X253847600Y-72263000D03*
X251307600Y-72263000D03*
X248767600Y-72263000D03*
X246227600Y-72263000D03*
X243687600Y-72263000D03*
X83261200Y-79883000D03*
X85801200Y-79883000D03*
X88341200Y-79883000D03*
X90881200Y-79883000D03*
X93421200Y-79883000D03*
X95961200Y-79883000D03*
X98501200Y-79883000D03*
X98501200Y-72263000D03*
X95961200Y-72263000D03*
X93421200Y-72263000D03*
X90881200Y-72263000D03*
X88341200Y-72263000D03*
X85801200Y-72263000D03*
X83261200Y-72263000D03*
D14*
X27203400Y-30480000D03*
D13*
X129133600Y-79832200D03*
X131673600Y-79832200D03*
X134213600Y-79832200D03*
X136753600Y-79832200D03*
X139293600Y-79832200D03*
X141833600Y-79832200D03*
X144373600Y-79832200D03*
X144373600Y-72212200D03*
X141833600Y-72212200D03*
X139293600Y-72212200D03*
X136753600Y-72212200D03*
X134213600Y-72212200D03*
X131673600Y-72212200D03*
X129133600Y-72212200D03*
D14*
X270865600Y-41757600D03*
D13*
X243636800Y-117983000D03*
X246176800Y-117983000D03*
X248716800Y-117983000D03*
X251256800Y-117983000D03*
X253796800Y-117983000D03*
X256336800Y-117983000D03*
X258876800Y-117983000D03*
X261416800Y-117983000D03*
X261416800Y-110363000D03*
X258876800Y-110363000D03*
X256336800Y-110363000D03*
X253796800Y-110363000D03*
X251256800Y-110363000D03*
X248716800Y-110363000D03*
X246176800Y-110363000D03*
X243636800Y-110363000D03*
X83286600Y-54432200D03*
X85826600Y-54432200D03*
X88366600Y-54432200D03*
X90906600Y-54432200D03*
X93446600Y-54432200D03*
X95986600Y-54432200D03*
X98526600Y-54432200D03*
X98526600Y-46812200D03*
X95986600Y-46812200D03*
X93446600Y-46812200D03*
X90906600Y-46812200D03*
X88366600Y-46812200D03*
X85826600Y-46812200D03*
X83286600Y-46812200D03*
D16*
X40005000Y-46814600D03*
D17*
X37465000Y-65674600D03*
D18*
X40005000Y-63474600D03*
X42545000Y-65674600D03*
D13*
X103632000Y-130530600D03*
X106172000Y-130530600D03*
X108712000Y-130530600D03*
X111252000Y-130530600D03*
X113792000Y-130530600D03*
X116332000Y-130530600D03*
X118872000Y-130530600D03*
X121412000Y-130530600D03*
X121412000Y-122910600D03*
X118872000Y-122910600D03*
X116332000Y-122910600D03*
X113792000Y-122910600D03*
X111252000Y-122910600D03*
X108712000Y-122910600D03*
X106172000Y-122910600D03*
X103632000Y-122910600D03*
X60375800Y-79806800D03*
X62915800Y-79806800D03*
X65455800Y-79806800D03*
X67995800Y-79806800D03*
X70535800Y-79806800D03*
X73075800Y-79806800D03*
X75615800Y-79806800D03*
X75615800Y-72186800D03*
X73075800Y-72186800D03*
X70535800Y-72186800D03*
X67995800Y-72186800D03*
X65455800Y-72186800D03*
X62915800Y-72186800D03*
X60375800Y-72186800D03*
X129006600Y-54457600D03*
X131546600Y-54457600D03*
X134086600Y-54457600D03*
X136626600Y-54457600D03*
X139166600Y-54457600D03*
X141706600Y-54457600D03*
X144246600Y-54457600D03*
X144246600Y-46837600D03*
X141706600Y-46837600D03*
X139166600Y-46837600D03*
X136626600Y-46837600D03*
X134086600Y-46837600D03*
X131546600Y-46837600D03*
X129006600Y-46837600D03*
X37439600Y-79883000D03*
X39979600Y-79883000D03*
X42519600Y-79883000D03*
X45059600Y-79883000D03*
X47599600Y-79883000D03*
X50139600Y-79883000D03*
X52679600Y-79883000D03*
X52679600Y-72263000D03*
X50139600Y-72263000D03*
X47599600Y-72263000D03*
X45059600Y-72263000D03*
X42519600Y-72263000D03*
X39979600Y-72263000D03*
X37439600Y-72263000D03*
D15*
X102338200Y-97365800D03*
D13*
X37363400Y-105105200D03*
X39903400Y-105105200D03*
X42443400Y-105105200D03*
X44983400Y-105105200D03*
X47523400Y-105105200D03*
X50063400Y-105105200D03*
X52603400Y-105105200D03*
X52603400Y-97485200D03*
X50063400Y-97485200D03*
X47523400Y-97485200D03*
X44983400Y-97485200D03*
X42443400Y-97485200D03*
X39903400Y-97485200D03*
X37363400Y-97485200D03*
X151993600Y-54432200D03*
X154533600Y-54432200D03*
X157073600Y-54432200D03*
X159613600Y-54432200D03*
X162153600Y-54432200D03*
X164693600Y-54432200D03*
X167233600Y-54432200D03*
X167233600Y-46812200D03*
X164693600Y-46812200D03*
X162153600Y-46812200D03*
X159613600Y-46812200D03*
X157073600Y-46812200D03*
X154533600Y-46812200D03*
X151993600Y-46812200D03*
X152019000Y-105181400D03*
X154559000Y-105181400D03*
X157099000Y-105181400D03*
X159639000Y-105181400D03*
X162179000Y-105181400D03*
X164719000Y-105181400D03*
X167259000Y-105181400D03*
X167259000Y-97561400D03*
X164719000Y-97561400D03*
X162179000Y-97561400D03*
X159639000Y-97561400D03*
X157099000Y-97561400D03*
X154559000Y-97561400D03*
X152019000Y-97561400D03*
X60299600Y-54432200D03*
X62839600Y-54432200D03*
X65379600Y-54432200D03*
X67919600Y-54432200D03*
X70459600Y-54432200D03*
X72999600Y-54432200D03*
X75539600Y-54432200D03*
X75539600Y-46812200D03*
X72999600Y-46812200D03*
X70459600Y-46812200D03*
X67919600Y-46812200D03*
X65379600Y-46812200D03*
X62839600Y-46812200D03*
X60299600Y-46812200D03*
D14*
X268528800Y-31775400D03*
D15*
X148185200Y-97416600D03*
D13*
X126542800Y-130556000D03*
X129082800Y-130556000D03*
X131622800Y-130556000D03*
X134162800Y-130556000D03*
X136702800Y-130556000D03*
X139242800Y-130556000D03*
X141782800Y-130556000D03*
X144322800Y-130556000D03*
X144322800Y-122936000D03*
X141782800Y-122936000D03*
X139242800Y-122936000D03*
X136702800Y-122936000D03*
X134162800Y-122936000D03*
X131622800Y-122936000D03*
X129082800Y-122936000D03*
X126542800Y-122936000D03*
X197764400Y-130606800D03*
X200304400Y-130606800D03*
X202844400Y-130606800D03*
X205384400Y-130606800D03*
X207924400Y-130606800D03*
X210464400Y-130606800D03*
X213004400Y-130606800D03*
X215544400Y-130606800D03*
X215544400Y-122986800D03*
X213004400Y-122986800D03*
X210464400Y-122986800D03*
X207924400Y-122986800D03*
X205384400Y-122986800D03*
X202844400Y-122986800D03*
X200304400Y-122986800D03*
X197764400Y-122986800D03*
X174955200Y-54508400D03*
X177495200Y-54508400D03*
X180035200Y-54508400D03*
X182575200Y-54508400D03*
X185115200Y-54508400D03*
X187655200Y-54508400D03*
X190195200Y-54508400D03*
X190195200Y-46888400D03*
X187655200Y-46888400D03*
X185115200Y-46888400D03*
X182575200Y-46888400D03*
X180035200Y-46888400D03*
X177495200Y-46888400D03*
X174955200Y-46888400D03*
X60477400Y-105029000D03*
X63017400Y-105029000D03*
X65557400Y-105029000D03*
X68097400Y-105029000D03*
X70637400Y-105029000D03*
X73177400Y-105029000D03*
X75717400Y-105029000D03*
X75717400Y-97409000D03*
X73177400Y-97409000D03*
X70637400Y-97409000D03*
X68097400Y-97409000D03*
X65557400Y-97409000D03*
X63017400Y-97409000D03*
X60477400Y-97409000D03*
X152095200Y-79908400D03*
X154635200Y-79908400D03*
X157175200Y-79908400D03*
X159715200Y-79908400D03*
X162255200Y-79908400D03*
X164795200Y-79908400D03*
X167335200Y-79908400D03*
X169875200Y-79908400D03*
X169875200Y-72288400D03*
X167335200Y-72288400D03*
X164795200Y-72288400D03*
X162255200Y-72288400D03*
X159715200Y-72288400D03*
X157175200Y-72288400D03*
X154635200Y-72288400D03*
X152095200Y-72288400D03*
X175006000Y-79832200D03*
X177546000Y-79832200D03*
X180086000Y-79832200D03*
X182626000Y-79832200D03*
X185166000Y-79832200D03*
X187706000Y-79832200D03*
X190246000Y-79832200D03*
X190246000Y-72212200D03*
X187706000Y-72212200D03*
X185166000Y-72212200D03*
X182626000Y-72212200D03*
X180086000Y-72212200D03*
X177546000Y-72212200D03*
X175006000Y-72212200D03*
X243687600Y-105181400D03*
X246227600Y-105181400D03*
X248767600Y-105181400D03*
X251307600Y-105181400D03*
X253847600Y-105181400D03*
X256387600Y-105181400D03*
X258927600Y-105181400D03*
X261467600Y-105181400D03*
X261467600Y-97561400D03*
X258927600Y-97561400D03*
X256387600Y-97561400D03*
X253847600Y-97561400D03*
X251307600Y-97561400D03*
X248767600Y-97561400D03*
X246227600Y-97561400D03*
X243687600Y-97561400D03*
X174955200Y-130632200D03*
X177495200Y-130632200D03*
X180035200Y-130632200D03*
X182575200Y-130632200D03*
X185115200Y-130632200D03*
X187655200Y-130632200D03*
X190195200Y-130632200D03*
X192735200Y-130632200D03*
X192735200Y-123012200D03*
X190195200Y-123012200D03*
X187655200Y-123012200D03*
X185115200Y-123012200D03*
X182575200Y-123012200D03*
X180035200Y-123012200D03*
X177495200Y-123012200D03*
X174955200Y-123012200D03*
X37414200Y-130581400D03*
X39954200Y-130581400D03*
X42494200Y-130581400D03*
X45034200Y-130581400D03*
X47574200Y-130581400D03*
X50114200Y-130581400D03*
X52654200Y-130581400D03*
X52654200Y-122961400D03*
X50114200Y-122961400D03*
X47574200Y-122961400D03*
X45034200Y-122961400D03*
X42494200Y-122961400D03*
X39954200Y-122961400D03*
X37414200Y-122961400D03*
X83261200Y-130632200D03*
X85801200Y-130632200D03*
X88341200Y-130632200D03*
X90881200Y-130632200D03*
X93421200Y-130632200D03*
X95961200Y-130632200D03*
X98501200Y-130632200D03*
X98501200Y-123012200D03*
X95961200Y-123012200D03*
X93421200Y-123012200D03*
X90881200Y-123012200D03*
X88341200Y-123012200D03*
X85801200Y-123012200D03*
X83261200Y-123012200D03*
X152069800Y-130606800D03*
X154609800Y-130606800D03*
X157149800Y-130606800D03*
X159689800Y-130606800D03*
X162229800Y-130606800D03*
X164769800Y-130606800D03*
X167309800Y-130606800D03*
X169849800Y-130606800D03*
X169849800Y-122986800D03*
X167309800Y-122986800D03*
X164769800Y-122986800D03*
X162229800Y-122986800D03*
X159689800Y-122986800D03*
X157149800Y-122986800D03*
X154609800Y-122986800D03*
X152069800Y-122986800D03*
X197815200Y-105181400D03*
X200355200Y-105181400D03*
X202895200Y-105181400D03*
X205435200Y-105181400D03*
X207975200Y-105181400D03*
X210515200Y-105181400D03*
X213055200Y-105181400D03*
X213055200Y-97561400D03*
X210515200Y-97561400D03*
X207975200Y-97561400D03*
X205435200Y-97561400D03*
X202895200Y-97561400D03*
X200355200Y-97561400D03*
X197815200Y-97561400D03*
X174980600Y-105130600D03*
X177520600Y-105130600D03*
X180060600Y-105130600D03*
X182600600Y-105130600D03*
X185140600Y-105130600D03*
X187680600Y-105130600D03*
X190220600Y-105130600D03*
X192760600Y-105130600D03*
X192760600Y-97510600D03*
X190220600Y-97510600D03*
X187680600Y-97510600D03*
X185140600Y-97510600D03*
X182600600Y-97510600D03*
X180060600Y-97510600D03*
X177520600Y-97510600D03*
X174980600Y-97510600D03*
D19*
X61976000Y-155321000D03*
X65151000Y-155321000D03*
X68326000Y-155321000D03*
X71501000Y-155321000D03*
X74676000Y-155321000D03*
X77851000Y-155321000D03*
X81026000Y-155321000D03*
X84201000Y-155321000D03*
X87376000Y-155321000D03*
X90551000Y-155321000D03*
X93726000Y-155321000D03*
X96901000Y-155321000D03*
X100076000Y-155321000D03*
X103251000Y-155321000D03*
X106426000Y-155321000D03*
X109601000Y-155321000D03*
X112776000Y-155321000D03*
X115951000Y-155321000D03*
X119126000Y-155321000D03*
X122301000Y-155321000D03*
X125476000Y-155321000D03*
X128651000Y-155321000D03*
X131826000Y-155321000D03*
X135001000Y-155321000D03*
X138176000Y-155321000D03*
X141351000Y-155321000D03*
X144526000Y-155321000D03*
X147701000Y-155321000D03*
X150876000Y-155321000D03*
X154051000Y-155321000D03*
X157226000Y-155321000D03*
X160401000Y-155321000D03*
X163576000Y-155321000D03*
X166751000Y-155321000D03*
X169926000Y-155321000D03*
X173101000Y-155321000D03*
X176276000Y-155321000D03*
X179451000Y-155321000D03*
X182626000Y-155321000D03*
X185801000Y-155321000D03*
X188976000Y-155321000D03*
X192151000Y-155321000D03*
X195326000Y-155321000D03*
X198501000Y-155321000D03*
X201676000Y-155321000D03*
X204851000Y-155321000D03*
X208026000Y-155321000D03*
X211201000Y-155321000D03*
X214376000Y-155321000D03*
X217551000Y-155321000D03*
D13*
X106121200Y-105130600D03*
X108661200Y-105130600D03*
X111201200Y-105130600D03*
X113741200Y-105130600D03*
X116281200Y-105130600D03*
X118821200Y-105130600D03*
X121361200Y-105130600D03*
X121361200Y-97510600D03*
X118821200Y-97510600D03*
X116281200Y-97510600D03*
X113741200Y-97510600D03*
X111201200Y-97510600D03*
X108661200Y-97510600D03*
X106121200Y-97510600D03*
X220827600Y-79883000D03*
X223367600Y-79883000D03*
X225907600Y-79883000D03*
X228447600Y-79883000D03*
X230987600Y-79883000D03*
X233527600Y-79883000D03*
X236067600Y-79883000D03*
X236067600Y-72263000D03*
X233527600Y-72263000D03*
X230987600Y-72263000D03*
X228447600Y-72263000D03*
X225907600Y-72263000D03*
X223367600Y-72263000D03*
X220827600Y-72263000D03*
X220726000Y-105181400D03*
X223266000Y-105181400D03*
X225806000Y-105181400D03*
X228346000Y-105181400D03*
X230886000Y-105181400D03*
X233426000Y-105181400D03*
X235966000Y-105181400D03*
X238506000Y-105181400D03*
X238506000Y-97561400D03*
X235966000Y-97561400D03*
X233426000Y-97561400D03*
X230886000Y-97561400D03*
X228346000Y-97561400D03*
X225806000Y-97561400D03*
X223266000Y-97561400D03*
X220726000Y-97561400D03*
M02*
