G04 #@! TF.GenerationSoftware,KiCad,Pcbnew,8.0.6*
G04 #@! TF.CreationDate,2024-10-27T13:27:22-07:00*
G04 #@! TF.ProjectId,Dazzler1 Rev D,44617a7a-6c65-4723-9120-52657620442e,rev?*
G04 #@! TF.SameCoordinates,Original*
G04 #@! TF.FileFunction,Copper,L1,Top*
G04 #@! TF.FilePolarity,Positive*
%FSLAX46Y46*%
G04 Gerber Fmt 4.6, Leading zero omitted, Abs format (unit mm)*
G04 Created by KiCad (PCBNEW 8.0.6) date 2024-10-27 13:27:22*
%MOMM*%
%LPD*%
G01*
G04 APERTURE LIST*
G04 #@! TA.AperFunction,NonConductor*
%ADD10C,0.100000*%
G04 #@! TD*
G04 #@! TA.AperFunction,ComponentPad*
%ADD11O,1.200000X2.400000*%
G04 #@! TD*
G04 #@! TA.AperFunction,ComponentPad*
%ADD12C,3.048000*%
G04 #@! TD*
G04 #@! TA.AperFunction,ComponentPad*
%ADD13O,1.200000X3.200000*%
G04 #@! TD*
G04 #@! TA.AperFunction,ComponentPad*
%ADD14C,1.905000*%
G04 #@! TD*
G04 #@! TA.AperFunction,ComponentPad*
%ADD15O,1.905000X2.000000*%
G04 #@! TD*
G04 #@! TA.AperFunction,ConnectorPad*
%ADD16R,1.778000X8.382000*%
G04 #@! TD*
G04 #@! TA.AperFunction,ViaPad*
%ADD17C,1.600000*%
G04 #@! TD*
G04 #@! TA.AperFunction,ViaPad*
%ADD18C,3.100000*%
G04 #@! TD*
G04 #@! TA.AperFunction,ViaPad*
%ADD19C,2.032000*%
G04 #@! TD*
G04 #@! TA.AperFunction,ViaPad*
%ADD20C,2.100000*%
G04 #@! TD*
G04 #@! TA.AperFunction,ViaPad*
%ADD21C,3.300000*%
G04 #@! TD*
G04 #@! TA.AperFunction,Conductor*
%ADD22C,0.370000*%
G04 #@! TD*
G04 #@! TA.AperFunction,Conductor*
%ADD23C,0.508000*%
G04 #@! TD*
G04 #@! TA.AperFunction,Conductor*
%ADD24C,1.524000*%
G04 #@! TD*
G04 #@! TA.AperFunction,Conductor*
%ADD25C,0.609600*%
G04 #@! TD*
G04 #@! TA.AperFunction,Conductor*
%ADD26C,1.380000*%
G04 #@! TD*
G04 #@! TA.AperFunction,Conductor*
%ADD27C,2.032000*%
G04 #@! TD*
G04 #@! TA.AperFunction,Conductor*
%ADD28C,1.016000*%
G04 #@! TD*
G04 #@! TA.AperFunction,Conductor*
%ADD29C,1.370000*%
G04 #@! TD*
G04 #@! TA.AperFunction,Conductor*
%ADD30C,1.360000*%
G04 #@! TD*
G04 APERTURE END LIST*
D10*
X268300200Y-25527000D02*
X274599400Y-31800800D01*
X274599400Y-152273000D01*
X219430600Y-152273000D01*
X216839800Y-152120600D01*
X216839800Y-151155400D01*
X218719400Y-148209000D01*
X220167200Y-146177000D01*
X220802200Y-145770600D01*
X262382000Y-145770600D01*
X269468600Y-138861800D01*
X269519400Y-44653200D01*
X266649200Y-44653200D01*
X266649200Y-38633400D01*
X269468600Y-38633400D01*
X262966200Y-31597600D01*
X59055000Y-31597600D01*
X57429400Y-33096200D01*
X56743600Y-33782000D01*
X56769000Y-51536600D01*
X47142400Y-62915800D01*
X20777200Y-62915800D01*
X20777200Y-31800800D01*
X27101800Y-25476200D01*
X268300200Y-25527000D01*
G04 #@! TA.AperFunction,NonConductor*
G36*
X268300200Y-25527000D02*
G01*
X274599400Y-31800800D01*
X274599400Y-152273000D01*
X219430600Y-152273000D01*
X216839800Y-152120600D01*
X216839800Y-151155400D01*
X218719400Y-148209000D01*
X220167200Y-146177000D01*
X220802200Y-145770600D01*
X262382000Y-145770600D01*
X269468600Y-138861800D01*
X269519400Y-44653200D01*
X266649200Y-44653200D01*
X266649200Y-38633400D01*
X269468600Y-38633400D01*
X262966200Y-31597600D01*
X59055000Y-31597600D01*
X57429400Y-33096200D01*
X56743600Y-33782000D01*
X56769000Y-51536600D01*
X47142400Y-62915800D01*
X20777200Y-62915800D01*
X20777200Y-31800800D01*
X27101800Y-25476200D01*
X268300200Y-25527000D01*
G37*
G04 #@! TD.AperFunction*
X29819600Y-87884000D02*
X30861000Y-87909400D01*
X30861000Y-89204800D01*
X29895800Y-89204800D01*
X29870400Y-103581200D01*
X29489400Y-103835200D01*
X29133800Y-104343200D01*
X29108400Y-105105200D01*
X29235400Y-105740200D01*
X29514800Y-106197400D01*
X29845000Y-106451400D01*
X29870400Y-129057400D01*
X29591000Y-129311400D01*
X29337000Y-129692400D01*
X29235400Y-130022600D01*
X29133800Y-130454400D01*
X29235400Y-131140200D01*
X29641800Y-131673600D01*
X29845000Y-131851400D01*
X29845000Y-137033000D01*
X39725600Y-146685000D01*
X58420000Y-146659600D01*
X62357000Y-150596600D01*
X62357000Y-152501600D01*
X60350400Y-152527000D01*
X60350400Y-151892000D01*
X57632600Y-149352000D01*
X38404800Y-149352000D01*
X23114000Y-134391400D01*
X23190200Y-65024000D01*
X29743400Y-65024000D01*
X29819600Y-87884000D01*
G04 #@! TA.AperFunction,NonConductor*
G36*
X29819600Y-87884000D02*
G01*
X30861000Y-87909400D01*
X30861000Y-89204800D01*
X29895800Y-89204800D01*
X29870400Y-103581200D01*
X29489400Y-103835200D01*
X29133800Y-104343200D01*
X29108400Y-105105200D01*
X29235400Y-105740200D01*
X29514800Y-106197400D01*
X29845000Y-106451400D01*
X29870400Y-129057400D01*
X29591000Y-129311400D01*
X29337000Y-129692400D01*
X29235400Y-130022600D01*
X29133800Y-130454400D01*
X29235400Y-131140200D01*
X29641800Y-131673600D01*
X29845000Y-131851400D01*
X29845000Y-137033000D01*
X39725600Y-146685000D01*
X58420000Y-146659600D01*
X62357000Y-150596600D01*
X62357000Y-152501600D01*
X60350400Y-152527000D01*
X60350400Y-151892000D01*
X57632600Y-149352000D01*
X38404800Y-149352000D01*
X23114000Y-134391400D01*
X23190200Y-65024000D01*
X29743400Y-65024000D01*
X29819600Y-87884000D01*
G37*
G04 #@! TD.AperFunction*
D11*
X129133600Y-105105200D03*
X131673600Y-105105200D03*
X134213600Y-105105200D03*
X136753600Y-105105200D03*
X139293600Y-105105200D03*
X141833600Y-105105200D03*
X144373600Y-105105200D03*
X144373600Y-97485200D03*
X141833600Y-97485200D03*
X139293600Y-97485200D03*
X136753600Y-97485200D03*
X134213600Y-97485200D03*
X131673600Y-97485200D03*
X129133600Y-97485200D03*
D12*
X268351000Y-146050000D03*
D11*
X106172000Y-79806800D03*
X108712000Y-79806800D03*
X111252000Y-79806800D03*
X113792000Y-79806800D03*
X116332000Y-79806800D03*
X118872000Y-79806800D03*
X121412000Y-79806800D03*
X121412000Y-72186800D03*
X118872000Y-72186800D03*
X116332000Y-72186800D03*
X113792000Y-72186800D03*
X111252000Y-72186800D03*
X108712000Y-72186800D03*
X106172000Y-72186800D03*
X243636800Y-130505200D03*
X246176800Y-130505200D03*
X248716800Y-130505200D03*
X251256800Y-130505200D03*
X253796800Y-130505200D03*
X256336800Y-130505200D03*
X258876800Y-130505200D03*
X261416800Y-130505200D03*
X261416800Y-122885200D03*
X258876800Y-122885200D03*
X256336800Y-122885200D03*
X253796800Y-122885200D03*
X251256800Y-122885200D03*
X248716800Y-122885200D03*
X246176800Y-122885200D03*
X243636800Y-122885200D03*
X220675200Y-130657600D03*
X223215200Y-130657600D03*
X225755200Y-130657600D03*
X228295200Y-130657600D03*
X230835200Y-130657600D03*
X233375200Y-130657600D03*
X235915200Y-130657600D03*
X235915200Y-123037600D03*
X233375200Y-123037600D03*
X230835200Y-123037600D03*
X228295200Y-123037600D03*
X225755200Y-123037600D03*
X223215200Y-123037600D03*
X220675200Y-123037600D03*
X197916800Y-79908400D03*
X200456800Y-79908400D03*
X202996800Y-79908400D03*
X205536800Y-79908400D03*
X208076800Y-79908400D03*
X210616800Y-79908400D03*
X213156800Y-79908400D03*
X213156800Y-72288400D03*
X210616800Y-72288400D03*
X208076800Y-72288400D03*
X205536800Y-72288400D03*
X202996800Y-72288400D03*
X200456800Y-72288400D03*
X197916800Y-72288400D03*
X60426600Y-130581400D03*
X62966600Y-130581400D03*
X65506600Y-130581400D03*
X68046600Y-130581400D03*
X70586600Y-130581400D03*
X73126600Y-130581400D03*
X75666600Y-130581400D03*
X75666600Y-122961400D03*
X73126600Y-122961400D03*
X70586600Y-122961400D03*
X68046600Y-122961400D03*
X65506600Y-122961400D03*
X62966600Y-122961400D03*
X60426600Y-122961400D03*
X83388200Y-105105200D03*
X85928200Y-105105200D03*
X88468200Y-105105200D03*
X91008200Y-105105200D03*
X93548200Y-105105200D03*
X96088200Y-105105200D03*
X98628200Y-105105200D03*
X98628200Y-97485200D03*
X96088200Y-97485200D03*
X93548200Y-97485200D03*
X91008200Y-97485200D03*
X88468200Y-97485200D03*
X85928200Y-97485200D03*
X83388200Y-97485200D03*
D12*
X27051000Y-146050000D03*
D13*
X102414400Y-104223800D03*
X148312200Y-104198400D03*
D11*
X106070400Y-54432200D03*
X108610400Y-54432200D03*
X111150400Y-54432200D03*
X113690400Y-54432200D03*
X116230400Y-54432200D03*
X118770400Y-54432200D03*
X121310400Y-54432200D03*
X121310400Y-46812200D03*
X118770400Y-46812200D03*
X116230400Y-46812200D03*
X113690400Y-46812200D03*
X111150400Y-46812200D03*
X108610400Y-46812200D03*
X106070400Y-46812200D03*
X243687600Y-79883000D03*
X246227600Y-79883000D03*
X248767600Y-79883000D03*
X251307600Y-79883000D03*
X253847600Y-79883000D03*
X256387600Y-79883000D03*
X258927600Y-79883000D03*
X258927600Y-72263000D03*
X256387600Y-72263000D03*
X253847600Y-72263000D03*
X251307600Y-72263000D03*
X248767600Y-72263000D03*
X246227600Y-72263000D03*
X243687600Y-72263000D03*
X83261200Y-79883000D03*
X85801200Y-79883000D03*
X88341200Y-79883000D03*
X90881200Y-79883000D03*
X93421200Y-79883000D03*
X95961200Y-79883000D03*
X98501200Y-79883000D03*
X98501200Y-72263000D03*
X95961200Y-72263000D03*
X93421200Y-72263000D03*
X90881200Y-72263000D03*
X88341200Y-72263000D03*
X85801200Y-72263000D03*
X83261200Y-72263000D03*
D12*
X27203400Y-30480000D03*
D11*
X129133600Y-79832200D03*
X131673600Y-79832200D03*
X134213600Y-79832200D03*
X136753600Y-79832200D03*
X139293600Y-79832200D03*
X141833600Y-79832200D03*
X144373600Y-79832200D03*
X144373600Y-72212200D03*
X141833600Y-72212200D03*
X139293600Y-72212200D03*
X136753600Y-72212200D03*
X134213600Y-72212200D03*
X131673600Y-72212200D03*
X129133600Y-72212200D03*
D12*
X270865600Y-41757600D03*
D11*
X243636800Y-117983000D03*
X246176800Y-117983000D03*
X248716800Y-117983000D03*
X251256800Y-117983000D03*
X253796800Y-117983000D03*
X256336800Y-117983000D03*
X258876800Y-117983000D03*
X261416800Y-117983000D03*
X261416800Y-110363000D03*
X258876800Y-110363000D03*
X256336800Y-110363000D03*
X253796800Y-110363000D03*
X251256800Y-110363000D03*
X248716800Y-110363000D03*
X246176800Y-110363000D03*
X243636800Y-110363000D03*
X83286600Y-54432200D03*
X85826600Y-54432200D03*
X88366600Y-54432200D03*
X90906600Y-54432200D03*
X93446600Y-54432200D03*
X95986600Y-54432200D03*
X98526600Y-54432200D03*
X98526600Y-46812200D03*
X95986600Y-46812200D03*
X93446600Y-46812200D03*
X90906600Y-46812200D03*
X88366600Y-46812200D03*
X85826600Y-46812200D03*
X83286600Y-46812200D03*
D14*
X37465000Y-65674600D03*
D15*
X40005000Y-63474600D03*
X42545000Y-65674600D03*
D11*
X103632000Y-130530600D03*
X106172000Y-130530600D03*
X108712000Y-130530600D03*
X111252000Y-130530600D03*
X113792000Y-130530600D03*
X116332000Y-130530600D03*
X118872000Y-130530600D03*
X121412000Y-130530600D03*
X121412000Y-122910600D03*
X118872000Y-122910600D03*
X116332000Y-122910600D03*
X113792000Y-122910600D03*
X111252000Y-122910600D03*
X108712000Y-122910600D03*
X106172000Y-122910600D03*
X103632000Y-122910600D03*
X60375800Y-79806800D03*
X62915800Y-79806800D03*
X65455800Y-79806800D03*
X67995800Y-79806800D03*
X70535800Y-79806800D03*
X73075800Y-79806800D03*
X75615800Y-79806800D03*
X75615800Y-72186800D03*
X73075800Y-72186800D03*
X70535800Y-72186800D03*
X67995800Y-72186800D03*
X65455800Y-72186800D03*
X62915800Y-72186800D03*
X60375800Y-72186800D03*
X129006600Y-54457600D03*
X131546600Y-54457600D03*
X134086600Y-54457600D03*
X136626600Y-54457600D03*
X139166600Y-54457600D03*
X141706600Y-54457600D03*
X144246600Y-54457600D03*
X144246600Y-46837600D03*
X141706600Y-46837600D03*
X139166600Y-46837600D03*
X136626600Y-46837600D03*
X134086600Y-46837600D03*
X131546600Y-46837600D03*
X129006600Y-46837600D03*
X37439600Y-79883000D03*
X39979600Y-79883000D03*
X42519600Y-79883000D03*
X45059600Y-79883000D03*
X47599600Y-79883000D03*
X50139600Y-79883000D03*
X52679600Y-79883000D03*
X52679600Y-72263000D03*
X50139600Y-72263000D03*
X47599600Y-72263000D03*
X45059600Y-72263000D03*
X42519600Y-72263000D03*
X39979600Y-72263000D03*
X37439600Y-72263000D03*
D13*
X102338200Y-97365800D03*
D11*
X37363400Y-105105200D03*
X39903400Y-105105200D03*
X42443400Y-105105200D03*
X44983400Y-105105200D03*
X47523400Y-105105200D03*
X50063400Y-105105200D03*
X52603400Y-105105200D03*
X52603400Y-97485200D03*
X50063400Y-97485200D03*
X47523400Y-97485200D03*
X44983400Y-97485200D03*
X42443400Y-97485200D03*
X39903400Y-97485200D03*
X37363400Y-97485200D03*
X151993600Y-54432200D03*
X154533600Y-54432200D03*
X157073600Y-54432200D03*
X159613600Y-54432200D03*
X162153600Y-54432200D03*
X164693600Y-54432200D03*
X167233600Y-54432200D03*
X167233600Y-46812200D03*
X164693600Y-46812200D03*
X162153600Y-46812200D03*
X159613600Y-46812200D03*
X157073600Y-46812200D03*
X154533600Y-46812200D03*
X151993600Y-46812200D03*
X152019000Y-105181400D03*
X154559000Y-105181400D03*
X157099000Y-105181400D03*
X159639000Y-105181400D03*
X162179000Y-105181400D03*
X164719000Y-105181400D03*
X167259000Y-105181400D03*
X167259000Y-97561400D03*
X164719000Y-97561400D03*
X162179000Y-97561400D03*
X159639000Y-97561400D03*
X157099000Y-97561400D03*
X154559000Y-97561400D03*
X152019000Y-97561400D03*
X60299600Y-54432200D03*
X62839600Y-54432200D03*
X65379600Y-54432200D03*
X67919600Y-54432200D03*
X70459600Y-54432200D03*
X72999600Y-54432200D03*
X75539600Y-54432200D03*
X75539600Y-46812200D03*
X72999600Y-46812200D03*
X70459600Y-46812200D03*
X67919600Y-46812200D03*
X65379600Y-46812200D03*
X62839600Y-46812200D03*
X60299600Y-46812200D03*
D12*
X268528800Y-31775400D03*
D13*
X148185200Y-97416600D03*
D11*
X126542800Y-130556000D03*
X129082800Y-130556000D03*
X131622800Y-130556000D03*
X134162800Y-130556000D03*
X136702800Y-130556000D03*
X139242800Y-130556000D03*
X141782800Y-130556000D03*
X144322800Y-130556000D03*
X144322800Y-122936000D03*
X141782800Y-122936000D03*
X139242800Y-122936000D03*
X136702800Y-122936000D03*
X134162800Y-122936000D03*
X131622800Y-122936000D03*
X129082800Y-122936000D03*
X126542800Y-122936000D03*
X197764400Y-130606800D03*
X200304400Y-130606800D03*
X202844400Y-130606800D03*
X205384400Y-130606800D03*
X207924400Y-130606800D03*
X210464400Y-130606800D03*
X213004400Y-130606800D03*
X215544400Y-130606800D03*
X215544400Y-122986800D03*
X213004400Y-122986800D03*
X210464400Y-122986800D03*
X207924400Y-122986800D03*
X205384400Y-122986800D03*
X202844400Y-122986800D03*
X200304400Y-122986800D03*
X197764400Y-122986800D03*
X174955200Y-54508400D03*
X177495200Y-54508400D03*
X180035200Y-54508400D03*
X182575200Y-54508400D03*
X185115200Y-54508400D03*
X187655200Y-54508400D03*
X190195200Y-54508400D03*
X190195200Y-46888400D03*
X187655200Y-46888400D03*
X185115200Y-46888400D03*
X182575200Y-46888400D03*
X180035200Y-46888400D03*
X177495200Y-46888400D03*
X174955200Y-46888400D03*
X60477400Y-105029000D03*
X63017400Y-105029000D03*
X65557400Y-105029000D03*
X68097400Y-105029000D03*
X70637400Y-105029000D03*
X73177400Y-105029000D03*
X75717400Y-105029000D03*
X75717400Y-97409000D03*
X73177400Y-97409000D03*
X70637400Y-97409000D03*
X68097400Y-97409000D03*
X65557400Y-97409000D03*
X63017400Y-97409000D03*
X60477400Y-97409000D03*
X152095200Y-79908400D03*
X154635200Y-79908400D03*
X157175200Y-79908400D03*
X159715200Y-79908400D03*
X162255200Y-79908400D03*
X164795200Y-79908400D03*
X167335200Y-79908400D03*
X169875200Y-79908400D03*
X169875200Y-72288400D03*
X167335200Y-72288400D03*
X164795200Y-72288400D03*
X162255200Y-72288400D03*
X159715200Y-72288400D03*
X157175200Y-72288400D03*
X154635200Y-72288400D03*
X152095200Y-72288400D03*
X175006000Y-79832200D03*
X177546000Y-79832200D03*
X180086000Y-79832200D03*
X182626000Y-79832200D03*
X185166000Y-79832200D03*
X187706000Y-79832200D03*
X190246000Y-79832200D03*
X190246000Y-72212200D03*
X187706000Y-72212200D03*
X185166000Y-72212200D03*
X182626000Y-72212200D03*
X180086000Y-72212200D03*
X177546000Y-72212200D03*
X175006000Y-72212200D03*
X243687600Y-105181400D03*
X246227600Y-105181400D03*
X248767600Y-105181400D03*
X251307600Y-105181400D03*
X253847600Y-105181400D03*
X256387600Y-105181400D03*
X258927600Y-105181400D03*
X261467600Y-105181400D03*
X261467600Y-97561400D03*
X258927600Y-97561400D03*
X256387600Y-97561400D03*
X253847600Y-97561400D03*
X251307600Y-97561400D03*
X248767600Y-97561400D03*
X246227600Y-97561400D03*
X243687600Y-97561400D03*
X174955200Y-130632200D03*
X177495200Y-130632200D03*
X180035200Y-130632200D03*
X182575200Y-130632200D03*
X185115200Y-130632200D03*
X187655200Y-130632200D03*
X190195200Y-130632200D03*
X192735200Y-130632200D03*
X192735200Y-123012200D03*
X190195200Y-123012200D03*
X187655200Y-123012200D03*
X185115200Y-123012200D03*
X182575200Y-123012200D03*
X180035200Y-123012200D03*
X177495200Y-123012200D03*
X174955200Y-123012200D03*
X37414200Y-130581400D03*
X39954200Y-130581400D03*
X42494200Y-130581400D03*
X45034200Y-130581400D03*
X47574200Y-130581400D03*
X50114200Y-130581400D03*
X52654200Y-130581400D03*
X52654200Y-122961400D03*
X50114200Y-122961400D03*
X47574200Y-122961400D03*
X45034200Y-122961400D03*
X42494200Y-122961400D03*
X39954200Y-122961400D03*
X37414200Y-122961400D03*
X83261200Y-130632200D03*
X85801200Y-130632200D03*
X88341200Y-130632200D03*
X90881200Y-130632200D03*
X93421200Y-130632200D03*
X95961200Y-130632200D03*
X98501200Y-130632200D03*
X98501200Y-123012200D03*
X95961200Y-123012200D03*
X93421200Y-123012200D03*
X90881200Y-123012200D03*
X88341200Y-123012200D03*
X85801200Y-123012200D03*
X83261200Y-123012200D03*
X152069800Y-130606800D03*
X154609800Y-130606800D03*
X157149800Y-130606800D03*
X159689800Y-130606800D03*
X162229800Y-130606800D03*
X164769800Y-130606800D03*
X167309800Y-130606800D03*
X169849800Y-130606800D03*
X169849800Y-122986800D03*
X167309800Y-122986800D03*
X164769800Y-122986800D03*
X162229800Y-122986800D03*
X159689800Y-122986800D03*
X157149800Y-122986800D03*
X154609800Y-122986800D03*
X152069800Y-122986800D03*
X197815200Y-105181400D03*
X200355200Y-105181400D03*
X202895200Y-105181400D03*
X205435200Y-105181400D03*
X207975200Y-105181400D03*
X210515200Y-105181400D03*
X213055200Y-105181400D03*
X213055200Y-97561400D03*
X210515200Y-97561400D03*
X207975200Y-97561400D03*
X205435200Y-97561400D03*
X202895200Y-97561400D03*
X200355200Y-97561400D03*
X197815200Y-97561400D03*
X174980600Y-105130600D03*
X177520600Y-105130600D03*
X180060600Y-105130600D03*
X182600600Y-105130600D03*
X185140600Y-105130600D03*
X187680600Y-105130600D03*
X190220600Y-105130600D03*
X192760600Y-105130600D03*
X192760600Y-97510600D03*
X190220600Y-97510600D03*
X187680600Y-97510600D03*
X185140600Y-97510600D03*
X182600600Y-97510600D03*
X180060600Y-97510600D03*
X177520600Y-97510600D03*
X174980600Y-97510600D03*
D16*
X61976000Y-155321000D03*
X65151000Y-155321000D03*
X68326000Y-155321000D03*
X71501000Y-155321000D03*
X74676000Y-155321000D03*
X77851000Y-155321000D03*
X81026000Y-155321000D03*
X84201000Y-155321000D03*
X87376000Y-155321000D03*
X90551000Y-155321000D03*
X93726000Y-155321000D03*
X96901000Y-155321000D03*
X100076000Y-155321000D03*
X103251000Y-155321000D03*
X106426000Y-155321000D03*
X109601000Y-155321000D03*
X112776000Y-155321000D03*
X115951000Y-155321000D03*
X119126000Y-155321000D03*
X122301000Y-155321000D03*
X125476000Y-155321000D03*
X128651000Y-155321000D03*
X131826000Y-155321000D03*
X135001000Y-155321000D03*
X138176000Y-155321000D03*
X141351000Y-155321000D03*
X144526000Y-155321000D03*
X147701000Y-155321000D03*
X150876000Y-155321000D03*
X154051000Y-155321000D03*
X157226000Y-155321000D03*
X160401000Y-155321000D03*
X163576000Y-155321000D03*
X166751000Y-155321000D03*
X169926000Y-155321000D03*
X173101000Y-155321000D03*
X176276000Y-155321000D03*
X179451000Y-155321000D03*
X182626000Y-155321000D03*
X185801000Y-155321000D03*
X188976000Y-155321000D03*
X192151000Y-155321000D03*
X195326000Y-155321000D03*
X198501000Y-155321000D03*
X201676000Y-155321000D03*
X204851000Y-155321000D03*
X208026000Y-155321000D03*
X211201000Y-155321000D03*
X214376000Y-155321000D03*
X217551000Y-155321000D03*
D11*
X106121200Y-105130600D03*
X108661200Y-105130600D03*
X111201200Y-105130600D03*
X113741200Y-105130600D03*
X116281200Y-105130600D03*
X118821200Y-105130600D03*
X121361200Y-105130600D03*
X121361200Y-97510600D03*
X118821200Y-97510600D03*
X116281200Y-97510600D03*
X113741200Y-97510600D03*
X111201200Y-97510600D03*
X108661200Y-97510600D03*
X106121200Y-97510600D03*
X220827600Y-79883000D03*
X223367600Y-79883000D03*
X225907600Y-79883000D03*
X228447600Y-79883000D03*
X230987600Y-79883000D03*
X233527600Y-79883000D03*
X236067600Y-79883000D03*
X236067600Y-72263000D03*
X233527600Y-72263000D03*
X230987600Y-72263000D03*
X228447600Y-72263000D03*
X225907600Y-72263000D03*
X223367600Y-72263000D03*
X220827600Y-72263000D03*
X220726000Y-105181400D03*
X223266000Y-105181400D03*
X225806000Y-105181400D03*
X228346000Y-105181400D03*
X230886000Y-105181400D03*
X233426000Y-105181400D03*
X235966000Y-105181400D03*
X238506000Y-105181400D03*
X238506000Y-97561400D03*
X235966000Y-97561400D03*
X233426000Y-97561400D03*
X230886000Y-97561400D03*
X228346000Y-97561400D03*
X225806000Y-97561400D03*
X223266000Y-97561400D03*
X220726000Y-97561400D03*
D17*
X234746800Y-63322200D03*
X256641600Y-89230200D03*
X267817600Y-82296000D03*
X162153600Y-39243000D03*
X263779000Y-46736000D03*
X143738600Y-118770400D03*
X121513600Y-39116000D03*
X139852400Y-119761000D03*
X66522600Y-90678000D03*
X131216400Y-116814600D03*
X34975800Y-134391400D03*
D18*
X216204800Y-106172000D03*
D19*
X219278200Y-146989800D03*
D17*
X228523800Y-82956400D03*
X264033000Y-55778400D03*
X183362600Y-37871400D03*
X250037600Y-47371000D03*
X239826800Y-61976000D03*
X192608200Y-92075000D03*
X159410400Y-49555400D03*
X168122600Y-119507000D03*
X229666800Y-61976000D03*
X249961400Y-61976000D03*
X192633600Y-51435000D03*
X186080400Y-68402200D03*
X250698000Y-139395200D03*
X219430600Y-51841400D03*
X176885600Y-111328200D03*
X58318400Y-39751000D03*
D18*
X204241400Y-55448200D03*
D17*
X266446000Y-55778400D03*
D18*
X268147800Y-92379800D03*
D17*
X210083400Y-90398600D03*
X176428400Y-34163000D03*
X249910600Y-40538400D03*
D19*
X218262200Y-149174200D03*
D17*
X34747200Y-69621400D03*
X167741600Y-141681200D03*
X58242200Y-32842200D03*
X80645000Y-137998200D03*
X256260600Y-41783000D03*
X232283000Y-61976000D03*
X84810600Y-67005200D03*
X42392600Y-134518400D03*
X227126800Y-61976000D03*
X239877600Y-51841400D03*
X62255400Y-67843400D03*
X172212000Y-114884200D03*
X257403600Y-63525400D03*
X79425800Y-86258400D03*
X221970600Y-61976000D03*
X213664800Y-114198400D03*
X164439600Y-110388400D03*
X148336000Y-53543200D03*
X37820600Y-93218000D03*
X191744600Y-114503200D03*
X252450600Y-38125400D03*
D18*
X267741400Y-69443600D03*
D17*
X145211800Y-82448400D03*
X237464600Y-51841400D03*
X235940600Y-109169200D03*
X267690600Y-50698400D03*
X247446800Y-62001400D03*
D20*
X31089600Y-63296800D03*
D17*
X173837600Y-95021400D03*
X73431400Y-116789200D03*
X202996800Y-134823200D03*
X267919200Y-100101400D03*
X203504800Y-87757000D03*
X100304600Y-56591200D03*
X229971600Y-84480400D03*
X86029800Y-92151200D03*
X134391400Y-112395000D03*
X185521600Y-134391400D03*
X65201800Y-109194600D03*
X258470400Y-87604600D03*
X247624600Y-34442400D03*
X179984400Y-92075000D03*
X155803600Y-94945200D03*
X205841600Y-118262400D03*
X263906000Y-60858400D03*
X142214600Y-116535200D03*
D18*
X212140800Y-27965400D03*
D17*
X200964800Y-87833200D03*
X162966400Y-58572400D03*
X153136600Y-88138000D03*
X36804600Y-114325400D03*
X258927600Y-41783000D03*
X267893800Y-125679200D03*
D18*
X232156000Y-31521400D03*
D17*
X161391600Y-93040200D03*
X113182400Y-93624400D03*
X162839400Y-142951200D03*
X140589000Y-74980800D03*
X31216600Y-93649800D03*
D20*
X30937200Y-88493600D03*
D17*
X74345800Y-144551400D03*
D18*
X83616800Y-28752800D03*
D17*
X234696000Y-95021400D03*
X248183400Y-143916400D03*
X150977600Y-118694200D03*
X112064800Y-135991600D03*
X109143800Y-88163400D03*
X88747600Y-36855400D03*
X69316600Y-120091200D03*
X173786800Y-34188400D03*
D18*
X159613600Y-141909800D03*
D17*
X245541800Y-85420200D03*
X150977600Y-42951400D03*
X67868800Y-112344200D03*
X78079600Y-145008600D03*
X154279600Y-115544600D03*
X165836600Y-86487000D03*
X42519600Y-144678400D03*
X219430600Y-63322200D03*
X190347600Y-34163000D03*
D18*
X262763000Y-84734400D03*
D17*
X252552200Y-127939800D03*
X212318600Y-41783000D03*
X182600600Y-147650200D03*
X83235800Y-68732400D03*
X201650600Y-37338000D03*
X190246000Y-40538400D03*
X250037600Y-34442400D03*
X197866000Y-42443400D03*
X118440200Y-33528000D03*
X127685800Y-88290400D03*
X201625200Y-51333400D03*
D18*
X235966000Y-118999000D03*
D17*
X179451000Y-147650200D03*
X169646600Y-38506400D03*
X267690600Y-63525400D03*
X229209600Y-110261400D03*
X90424000Y-127914400D03*
X96697800Y-89179400D03*
X234670600Y-51841400D03*
X266293600Y-60833000D03*
X109448600Y-108102400D03*
X111226600Y-64592200D03*
X127812800Y-139141200D03*
X31343600Y-99898200D03*
X72517000Y-66624200D03*
X80060800Y-129184400D03*
X94157800Y-112369600D03*
X252603000Y-58318400D03*
X133019800Y-59537600D03*
X255117600Y-45491400D03*
X201523600Y-34188400D03*
X219405200Y-94843600D03*
X69977000Y-138074400D03*
X94208600Y-67640200D03*
X250037600Y-63271400D03*
X255016000Y-125780800D03*
X80111600Y-121996200D03*
X156362400Y-51460400D03*
D18*
X222123000Y-92557600D03*
D17*
X97663000Y-67767200D03*
D18*
X120827800Y-88366600D03*
D17*
X173990000Y-82448400D03*
X88950800Y-117373400D03*
X46786800Y-112293400D03*
X227050600Y-51841400D03*
X194792600Y-34163000D03*
X257530600Y-53340000D03*
X258927600Y-58318400D03*
X86537800Y-68681600D03*
X166928800Y-92964000D03*
X197840600Y-49428400D03*
X219430600Y-61976000D03*
X234746800Y-61976000D03*
X250977400Y-93141800D03*
X148386800Y-122885200D03*
X153898600Y-142849600D03*
X89636600Y-76962000D03*
X87782400Y-134493000D03*
X80721200Y-144881600D03*
X269113000Y-58445400D03*
X83794600Y-35585400D03*
X224586800Y-63398400D03*
X237236000Y-63398400D03*
X84480400Y-95148400D03*
X189484000Y-65176400D03*
X171119800Y-107213400D03*
X267893800Y-132867400D03*
X247370600Y-51816000D03*
X51790600Y-87020400D03*
X84124800Y-109931200D03*
X83566000Y-87274400D03*
X244881400Y-63398400D03*
X109143800Y-117551200D03*
X267817600Y-74828400D03*
X195935600Y-56388000D03*
X38658800Y-141249400D03*
X168630600Y-94183200D03*
X50596800Y-115138200D03*
X173253400Y-143027400D03*
X69977000Y-93243400D03*
X198475600Y-91770200D03*
X77444600Y-123266200D03*
X197408800Y-110109000D03*
X130962400Y-59512200D03*
X239826800Y-63322200D03*
X171297600Y-118770400D03*
X168960800Y-133375400D03*
D20*
X31038800Y-104927400D03*
D17*
X229717600Y-63322200D03*
X203885800Y-111277400D03*
D21*
X219430600Y-46075600D03*
D17*
X211251800Y-112293400D03*
X172262800Y-116916200D03*
X247421400Y-63246000D03*
X34848800Y-127762000D03*
X172948600Y-147650200D03*
X89585800Y-51511200D03*
D18*
X145516600Y-33883600D03*
D17*
X194741800Y-49428400D03*
X267690600Y-53340000D03*
X90017600Y-139141200D03*
X58470800Y-49403000D03*
X232130600Y-51816000D03*
X103225600Y-66624200D03*
X247827800Y-89738200D03*
X152069800Y-76936600D03*
X261467600Y-46863000D03*
X194716400Y-59715400D03*
X242493800Y-63322200D03*
X220700600Y-87655400D03*
X61569600Y-144627600D03*
X135051800Y-59512200D03*
X250037600Y-51841400D03*
X88696800Y-65557400D03*
X162026600Y-32156400D03*
X117602000Y-75107800D03*
X60807600Y-115214400D03*
X82270600Y-115646200D03*
X153644600Y-42951400D03*
X132257800Y-111252000D03*
X92252800Y-75006200D03*
X92887800Y-87223600D03*
X91363800Y-63017400D03*
X93980000Y-93700600D03*
X177977800Y-90957400D03*
X55753000Y-139522200D03*
X257556000Y-50673000D03*
X112242600Y-111277400D03*
X102590600Y-111328200D03*
X34874200Y-76987400D03*
X155168600Y-91973400D03*
X127304800Y-56464200D03*
X148869400Y-110185200D03*
X261467600Y-33223200D03*
X45440600Y-135382000D03*
X76123800Y-64211200D03*
X256311400Y-31724600D03*
X53695600Y-138506200D03*
X187807600Y-34163000D03*
X261467600Y-66040000D03*
D18*
X182676800Y-84912200D03*
D17*
X193852800Y-66090800D03*
X190220600Y-42926000D03*
D18*
X217449400Y-116001800D03*
D17*
X107365800Y-82169000D03*
X261467600Y-43053000D03*
X232308400Y-63322200D03*
D18*
X264541000Y-41681400D03*
D17*
X73914000Y-91465400D03*
X52679600Y-119989600D03*
X143992600Y-114554000D03*
X242874800Y-142036800D03*
X168046400Y-117170200D03*
X104267000Y-43840400D03*
X186156600Y-92075000D03*
X58343800Y-115265200D03*
X207822800Y-91389200D03*
X115036600Y-61722000D03*
X162661600Y-112420400D03*
D18*
X229870000Y-116840000D03*
D17*
X63042800Y-110261400D03*
D18*
X149225000Y-136118600D03*
D17*
X160375600Y-107950000D03*
X187096400Y-117475000D03*
X152247600Y-94818200D03*
X66852800Y-62560200D03*
X146354800Y-136271000D03*
X72999600Y-113284000D03*
X244576600Y-67284600D03*
X224510600Y-51816000D03*
X48183800Y-114249200D03*
X258851400Y-31699200D03*
X259054600Y-46863000D03*
X179933600Y-42951400D03*
X229590600Y-51816000D03*
X267893800Y-107467400D03*
X261340600Y-55778400D03*
X171043600Y-34188400D03*
X92176600Y-125806200D03*
X157200600Y-84023200D03*
X101371400Y-91211400D03*
X67360800Y-143256000D03*
X111099600Y-118872000D03*
X221538800Y-111150400D03*
X252323600Y-34417000D03*
X188569600Y-142951200D03*
X57861200Y-66548000D03*
X77216000Y-84023200D03*
X34747200Y-102336600D03*
X224586800Y-61976000D03*
X130810000Y-86436200D03*
X180060600Y-40538400D03*
X255117600Y-55778400D03*
X148310600Y-79197200D03*
X72237600Y-139065000D03*
X162153600Y-41783000D03*
X242468400Y-61950600D03*
X201777600Y-84074000D03*
X252577600Y-45491400D03*
X77978000Y-57734200D03*
X148437600Y-129692400D03*
X111226600Y-92532200D03*
X205460600Y-41783000D03*
X253161800Y-88265000D03*
X64617600Y-147523200D03*
X102590600Y-143281400D03*
X190220600Y-37973000D03*
X231622600Y-85674200D03*
X121259600Y-32156400D03*
D18*
X153263600Y-33858200D03*
D17*
X180136800Y-112268000D03*
X151485600Y-141757400D03*
X185140600Y-34188400D03*
X80822800Y-133604000D03*
X71221600Y-64516000D03*
X145465800Y-133197600D03*
X267690600Y-65938400D03*
X118211600Y-62636400D03*
X202234800Y-110261400D03*
X74777600Y-57734200D03*
X242417600Y-51841400D03*
X44551600Y-110185200D03*
X244830600Y-61976000D03*
X148132800Y-46812200D03*
D18*
X262737600Y-92202000D03*
X149301200Y-112877600D03*
X186385200Y-84861400D03*
D17*
X171297600Y-37109400D03*
D21*
X219608400Y-33959800D03*
D17*
X159994600Y-64973200D03*
X166852600Y-109245400D03*
X149402800Y-147345400D03*
X227126800Y-63322200D03*
X175183800Y-61595000D03*
X163931600Y-87757000D03*
X115112800Y-76987400D03*
D18*
X141808200Y-33985200D03*
D17*
X92100400Y-49555400D03*
X243306600Y-84988400D03*
X38633400Y-134239000D03*
X205892400Y-89103200D03*
D20*
X232232200Y-49022000D03*
D17*
X255574800Y-92024200D03*
D18*
X233451400Y-134239000D03*
D17*
X221945200Y-51816000D03*
X158724600Y-113817400D03*
X188518800Y-113411000D03*
X194538600Y-42418000D03*
D20*
X215722200Y-49149000D03*
D17*
X54838600Y-62052200D03*
D18*
X214325200Y-33934400D03*
D17*
X177342800Y-134442200D03*
X106603800Y-134899400D03*
D18*
X262788400Y-81026000D03*
X205460600Y-33959800D03*
D17*
X237210600Y-62026800D03*
X168071800Y-86614000D03*
X45847000Y-83769200D03*
X172186600Y-134569200D03*
X240334800Y-106934000D03*
X114020600Y-112369600D03*
X108635800Y-60731400D03*
D18*
X262763000Y-88417400D03*
D17*
X153771600Y-85166200D03*
X143357600Y-62509400D03*
X55727600Y-69875400D03*
X63144400Y-93091000D03*
X177292000Y-41732200D03*
X226542600Y-113309400D03*
X97891600Y-85318600D03*
X99415600Y-133680200D03*
X169849800Y-147650200D03*
X78206600Y-131775200D03*
X90779600Y-118516400D03*
X252603000Y-48158400D03*
X120548400Y-118821200D03*
X261467600Y-60858400D03*
X224078800Y-112166400D03*
X148234400Y-72237600D03*
X244957600Y-51841400D03*
X137947400Y-77012800D03*
D20*
X31038800Y-130530600D03*
X60375800Y-149377400D03*
D17*
X54533800Y-79832200D03*
X222021400Y-63322200D03*
X71551800Y-89484200D03*
X69773800Y-88290400D03*
X43662600Y-120345200D03*
X62077600Y-33299400D03*
D22*
X163499800Y-121005600D02*
X163372800Y-142087600D01*
X144348200Y-121234200D02*
X144373600Y-120523000D01*
X111099600Y-118872000D02*
X111074200Y-121513600D01*
X169113200Y-93522800D02*
X173482000Y-69773800D01*
X98526600Y-95580200D02*
X98501200Y-86055200D01*
X208076800Y-72288400D02*
X208076800Y-73761600D01*
X134315200Y-121412000D02*
X138074400Y-106654600D01*
X162153600Y-46812200D02*
X162280600Y-48082200D01*
X172542200Y-62382400D02*
X172567600Y-68376800D01*
X137998200Y-103555800D02*
X139242800Y-98933000D01*
X246227600Y-72263000D02*
X246202200Y-73787000D01*
X235966000Y-97561400D02*
X236321600Y-96012000D01*
X95986600Y-54432200D02*
X96342200Y-55930800D01*
X213106000Y-115087400D02*
X213664800Y-114198400D01*
X156692600Y-81153000D02*
X157175200Y-79908400D01*
X202996800Y-134823200D02*
X203708000Y-133934200D01*
X186537600Y-114071400D02*
X188950600Y-116408200D01*
X60426600Y-130581400D02*
X60299600Y-124409200D01*
X114020600Y-106680000D02*
X113741200Y-105130600D01*
X94640400Y-113766600D02*
X94589600Y-113411000D01*
X230835200Y-123037600D02*
X231140000Y-117779800D01*
X66675000Y-70916800D02*
X64185800Y-55829200D01*
X62687200Y-115620800D02*
X58928000Y-121310400D01*
X245541800Y-85420200D02*
X246202200Y-84912200D01*
X44983400Y-97485200D02*
X44983400Y-105105200D01*
X247446800Y-78105000D02*
X247523000Y-81305400D01*
X205867000Y-81127600D02*
X211861400Y-88849200D01*
D23*
X193802000Y-42240200D02*
X192622656Y-42657544D01*
D22*
X135432800Y-126034800D02*
X136753600Y-124358400D01*
X112217200Y-49682400D02*
X104851200Y-49657000D01*
X210515200Y-66395600D02*
X206832200Y-70586600D01*
X83286600Y-54432200D02*
X83032600Y-55829200D01*
X159918400Y-73736200D02*
X160807400Y-78079600D01*
X160934400Y-92303600D02*
X161391600Y-93040200D01*
X104724200Y-113106200D02*
X104724200Y-96012000D01*
X211048600Y-78333600D02*
X210616800Y-79908400D01*
X159689800Y-98856800D02*
X159639000Y-97561400D01*
X210515200Y-103886000D02*
X210515200Y-105181400D01*
X88671400Y-55880000D02*
X88366600Y-54432200D01*
X186080400Y-68402200D02*
X186385200Y-67792600D01*
X41148000Y-103682800D02*
X39954200Y-99034600D01*
X187655200Y-99034600D02*
X186385200Y-103378000D01*
X188849000Y-141732000D02*
X188569600Y-142951200D01*
X58775600Y-114274600D02*
X58902600Y-113106200D01*
X145211800Y-82448400D02*
X145796000Y-81915000D01*
X141808200Y-111709200D02*
X143637000Y-113690400D01*
X254939800Y-126517400D02*
X253898400Y-129184400D01*
X155168600Y-91973400D02*
X155321000Y-91160600D01*
X129082800Y-106375200D02*
X129159000Y-118897400D01*
X160578800Y-48158400D02*
X160248600Y-47879000D01*
X132638800Y-58674000D02*
X133019800Y-59537600D01*
X137947400Y-77012800D02*
X138150600Y-75946000D01*
X96342200Y-55930800D02*
X99974400Y-70408800D01*
X164744400Y-78460600D02*
X164795200Y-79908400D01*
X73177400Y-106476800D02*
X73177400Y-105029000D01*
X83794600Y-35585400D02*
X83286600Y-36474400D01*
X75209400Y-116636800D02*
X74422000Y-120954800D01*
X223367600Y-79883000D02*
X223342200Y-78841600D01*
X153898600Y-142849600D02*
X154228800Y-142011400D01*
X153644600Y-42951400D02*
X153289000Y-42113200D01*
X181178200Y-38658800D02*
X183794400Y-42418000D01*
X145745200Y-82981800D02*
X145821400Y-92456000D01*
D24*
X34757410Y-104891790D02*
X34848800Y-127762000D01*
D22*
X95935800Y-98806000D02*
X96088200Y-97485200D01*
X157099000Y-73634600D02*
X157175200Y-72288400D01*
X202234800Y-110261400D02*
X201726800Y-110998000D01*
X93192600Y-106248200D02*
X93548200Y-105105200D01*
X74396600Y-90601800D02*
X74345800Y-58547000D01*
X182575200Y-123012200D02*
X182549800Y-121513600D01*
X185140600Y-34188400D02*
X183591200Y-36169600D01*
X183591200Y-36169600D02*
X181152800Y-36169600D01*
X189052200Y-52400200D02*
X190042800Y-48336200D01*
X87071200Y-71297800D02*
X87122000Y-73355200D01*
X186385200Y-67792600D02*
X186385200Y-65024000D01*
X209296000Y-99034600D02*
X208026000Y-103682800D01*
X42494200Y-122961400D02*
X42900600Y-124307600D01*
X62077600Y-33299400D02*
X61620400Y-34010600D01*
X77216000Y-84023200D02*
X76987400Y-84836000D01*
X183896000Y-70434200D02*
X183896000Y-73685400D01*
X235940600Y-109169200D02*
X235966000Y-105181400D01*
X224078800Y-112166400D02*
X224434400Y-111455200D01*
X174675800Y-80492600D02*
X172618400Y-80543400D01*
X159639000Y-65709800D02*
X159689800Y-70916800D01*
X71882000Y-103301800D02*
X71882000Y-106756200D01*
X73914000Y-91465400D02*
X74396600Y-90601800D01*
X121208800Y-36423600D02*
X121386600Y-38150800D01*
X160909000Y-73964800D02*
X162102800Y-78486000D01*
X178689000Y-45008800D02*
X176326800Y-42976800D01*
X71780400Y-52628800D02*
X75361800Y-48209200D01*
X162229800Y-111607600D02*
X162331400Y-110998000D01*
X94665800Y-68351400D02*
X94208600Y-67640200D01*
X177292000Y-41732200D02*
X177977800Y-42087800D01*
X74472800Y-103149400D02*
X74498200Y-106578400D01*
X145745200Y-37388800D02*
X145745200Y-35534600D01*
X114020600Y-112369600D02*
X113944400Y-111429800D01*
X114223800Y-56819800D02*
X115620800Y-61087000D01*
X155803600Y-48412400D02*
X155803600Y-45085000D01*
X177977800Y-90957400D02*
X178536600Y-89916000D01*
X71882000Y-138074400D02*
X72237600Y-139065000D01*
X146939000Y-102133400D02*
X144881600Y-98907600D01*
X174980600Y-105130600D02*
X175031400Y-106527600D01*
X96697800Y-89179400D02*
X97155000Y-90043000D01*
X73152000Y-55803800D02*
X72999600Y-54432200D01*
X201726800Y-110998000D02*
X201574400Y-111328200D01*
X234696000Y-95021400D02*
X234848400Y-99110800D01*
X258851400Y-108762800D02*
X257632200Y-106553000D01*
X154381200Y-141452600D02*
X154482800Y-140792200D01*
X255168400Y-99085400D02*
X254050800Y-103530400D01*
X257632200Y-103454200D02*
X258699000Y-99161600D01*
X116281200Y-105130600D02*
X116205000Y-103682800D01*
X154482800Y-121564400D02*
X154482800Y-116509800D01*
X51460400Y-78130400D02*
X52806600Y-73660000D01*
X86029800Y-92151200D02*
X86106000Y-93014800D01*
X158267400Y-81381600D02*
X158318200Y-81737200D01*
X255574800Y-92024200D02*
X255066800Y-92481400D01*
X86106000Y-93014800D02*
X86055200Y-96088200D01*
X154330400Y-43408600D02*
X153644600Y-42951400D01*
X136804400Y-48183800D02*
X136804400Y-52933600D01*
X168630600Y-94183200D02*
X169113200Y-93522800D01*
X239395000Y-64211200D02*
X239826800Y-63322200D01*
X202895200Y-97561400D02*
X202869800Y-92633800D01*
X208407000Y-92075000D02*
X209169000Y-95707200D01*
X221132400Y-77114400D02*
X218795600Y-77114400D01*
X168605200Y-96647000D02*
X169062400Y-95046800D01*
X66446400Y-143103600D02*
X67360800Y-143256000D01*
X83286600Y-46812200D02*
X83667600Y-47929800D01*
X167005000Y-92125800D02*
X166928800Y-92964000D01*
X103225600Y-66624200D02*
X103809800Y-65938400D01*
X170611800Y-61341000D02*
X170611800Y-39954200D01*
X94691200Y-73583800D02*
X94665800Y-68351400D01*
X121513600Y-121386600D02*
X121412000Y-122910600D01*
X136804400Y-52933600D02*
X136626600Y-54457600D01*
X97332800Y-69215000D02*
X97282000Y-73812400D01*
X66725800Y-73660000D02*
X66675000Y-70916800D01*
X83667600Y-47929800D02*
X88366600Y-52959000D01*
X150596600Y-113766600D02*
X149301200Y-112877600D01*
X64287400Y-103606600D02*
X65786000Y-100609400D01*
X167335200Y-140512800D02*
X167335200Y-140106400D01*
X48818800Y-103149400D02*
X48793400Y-112598200D01*
X173507400Y-144526000D02*
X170434000Y-146888200D01*
X195935600Y-56388000D02*
X196265800Y-57073800D01*
X93929200Y-131978400D02*
X96697800Y-135153400D01*
X127914400Y-69799200D02*
X128219200Y-70180200D01*
X90627200Y-124434600D02*
X90881200Y-123012200D01*
X160883600Y-103657400D02*
X159689800Y-98856800D01*
X80568800Y-137160000D02*
X78714600Y-132537200D01*
X154305000Y-124282200D02*
X149885400Y-129844800D01*
X66675000Y-121920000D02*
X65684400Y-110032800D01*
X160985200Y-121716800D02*
X160985200Y-124993400D01*
X74345800Y-58547000D02*
X74777600Y-57734200D01*
X70332600Y-137261600D02*
X70332600Y-131927600D01*
X67894200Y-98729800D02*
X68097400Y-97409000D01*
X73025000Y-81254600D02*
X71958200Y-88671400D01*
X129006600Y-70866000D02*
X129133600Y-72212200D01*
X116255800Y-73634600D02*
X116332000Y-72186800D01*
X201726800Y-77673200D02*
X201726800Y-81305400D01*
X202539600Y-111988600D02*
X202641200Y-111734600D01*
X164541200Y-51943000D02*
X164668200Y-52222400D01*
X96697800Y-135153400D02*
X99999800Y-135153400D01*
X233476800Y-73787000D02*
X233527600Y-72263000D01*
X171500800Y-60960000D02*
X172542200Y-62382400D01*
X130352800Y-87274400D02*
X130810000Y-86436200D01*
X53695600Y-138506200D02*
X54102000Y-137515600D01*
X233730800Y-78689200D02*
X236728000Y-74930000D01*
X92887800Y-87223600D02*
X93370400Y-86537800D01*
X159613600Y-54432200D02*
X159639000Y-52832000D01*
X90779600Y-48133000D02*
X90906600Y-46812200D01*
X210515200Y-97561400D02*
X210693000Y-95961200D01*
D25*
X268579600Y-132765800D02*
X270027400Y-132689600D01*
D22*
X118440200Y-33528000D02*
X119253000Y-33909000D01*
X86537800Y-68681600D02*
X86918800Y-69646800D01*
X118211600Y-62636400D02*
X118745000Y-62204600D01*
X201574400Y-124510800D02*
X201549000Y-121513600D01*
X113690400Y-94361000D02*
X113182400Y-93624400D01*
X201752200Y-54330600D02*
X203174600Y-54330600D01*
X65684400Y-110032800D02*
X65201800Y-109194600D01*
X130835400Y-58978800D02*
X130759200Y-58623200D01*
X202895200Y-105181400D02*
X202895200Y-97561400D01*
X181305200Y-121488200D02*
X177520600Y-107162600D01*
X164668200Y-106603800D02*
X164719000Y-105181400D01*
X144322800Y-120015000D02*
X144246600Y-119608600D01*
X217525600Y-143510000D02*
X215773000Y-144500600D01*
X153771600Y-85166200D02*
X153974800Y-84201000D01*
X75488800Y-98882200D02*
X74472800Y-103149400D01*
X149885400Y-137541000D02*
X149225000Y-136118600D01*
X127812800Y-124485400D02*
X126593600Y-129260600D01*
X183794400Y-42418000D02*
X183819800Y-48387000D01*
X126771400Y-131826000D02*
X126542800Y-130556000D01*
X182676800Y-84912200D02*
X182727600Y-83388200D01*
X42316400Y-70739000D02*
X42519600Y-72263000D01*
X76123800Y-64211200D02*
X75514200Y-64871600D01*
X251231400Y-138303000D02*
X251231400Y-137998200D01*
X160578800Y-107213400D02*
X160807400Y-106832400D01*
X186410600Y-124358400D02*
X186410600Y-121513600D01*
X228396800Y-98983800D02*
X227101400Y-103073200D01*
X84582000Y-98933000D02*
X83464400Y-103759000D01*
X121412000Y-72186800D02*
X121513600Y-70561200D01*
X251307600Y-92329000D02*
X250977400Y-93141800D01*
X168503600Y-85775800D02*
X168071800Y-86614000D01*
X196494400Y-81457800D02*
X200787000Y-83769200D01*
D26*
X47193200Y-65709800D02*
X58445400Y-52501800D01*
D22*
X234746800Y-63322200D02*
X231876600Y-68630800D01*
X104851200Y-49657000D02*
X104698800Y-82169000D01*
X134137400Y-106426000D02*
X134213600Y-105105200D01*
X167335200Y-140106400D02*
X167309800Y-130606800D01*
X94691200Y-121081800D02*
X94665800Y-114223800D01*
X215773000Y-144500600D02*
X173507400Y-144526000D01*
X109143800Y-117551200D02*
X108788200Y-118440200D01*
X232206800Y-84912200D02*
X232232200Y-77851000D01*
X154203400Y-73456800D02*
X152374600Y-75996800D01*
X168630600Y-120345200D02*
X168122600Y-119507000D01*
X65786000Y-100609400D02*
X66954400Y-100584000D01*
X90855800Y-78282800D02*
X90881200Y-79883000D01*
X73075800Y-79806800D02*
X73025000Y-81254600D01*
X42900600Y-124307600D02*
X46278800Y-128905000D01*
X67284600Y-74650600D02*
X66725800Y-73660000D01*
X199085200Y-99187000D02*
X198983600Y-92532200D01*
X216687400Y-67767200D02*
X229209600Y-67716400D01*
X149885400Y-146532600D02*
X149885400Y-137541000D01*
X98501200Y-130632200D02*
X98425000Y-128955800D01*
X255066800Y-92481400D02*
X255168400Y-99085400D01*
X83566000Y-87274400D02*
X83286600Y-86360000D01*
X247523000Y-99212400D02*
X247523000Y-90652600D01*
X75361800Y-48209200D02*
X75539600Y-46812200D01*
X185140600Y-53060600D02*
X186410600Y-48234600D01*
X163626800Y-86842600D02*
X163449000Y-78054200D01*
X130454400Y-124587000D02*
X131673600Y-125984000D01*
X185089800Y-103555800D02*
X185140600Y-105130600D01*
X177495200Y-130632200D02*
X177368200Y-133578600D01*
X221945200Y-51816000D02*
X222377000Y-52247800D01*
X257606800Y-73888600D02*
X257581400Y-70688200D01*
X130327400Y-99339400D02*
X130352800Y-87274400D01*
X253161800Y-88265000D02*
X253644400Y-88849200D01*
X154482800Y-132156200D02*
X154609800Y-130606800D01*
X250063000Y-103276400D02*
X251104400Y-99034600D01*
X46786800Y-112293400D02*
X46278800Y-112953800D01*
X52527200Y-96037400D02*
X52603400Y-97485200D01*
X200304400Y-130606800D02*
X200329800Y-129184400D01*
X45440600Y-135382000D02*
X45288200Y-134416800D01*
X66827400Y-61620400D02*
X66852800Y-62560200D01*
X173380400Y-146888200D02*
X174904400Y-145719800D01*
X165836600Y-86487000D02*
X167005000Y-92125800D01*
X40208200Y-81153000D02*
X42240200Y-95961200D01*
X192760600Y-97510600D02*
X192709800Y-92938600D01*
X242214400Y-143510000D02*
X217525600Y-143510000D01*
X112496600Y-70612000D02*
X111302800Y-65557400D01*
X93980000Y-93700600D02*
X93548200Y-94462600D01*
X75336400Y-92405200D02*
X70586600Y-96113600D01*
X139217400Y-66471800D02*
X141655800Y-70916800D01*
X257403600Y-63525400D02*
X257276600Y-62839600D01*
X132969000Y-110718600D02*
X132943600Y-103352600D01*
X64262000Y-70332600D02*
X64135000Y-86233000D01*
X177571400Y-78638400D02*
X182321200Y-73634600D01*
X57327800Y-80416400D02*
X55397400Y-91998800D01*
X60299600Y-124409200D02*
X60426600Y-122961400D01*
X159994600Y-64973200D02*
X159639000Y-65709800D01*
X42494200Y-130581400D02*
X42443400Y-131953000D01*
D23*
X194538600Y-42418000D02*
X193802000Y-42240200D01*
D22*
X141655800Y-70916800D02*
X141833600Y-72212200D01*
X65455800Y-96012000D02*
X65557400Y-97409000D01*
X217754200Y-68630800D02*
X211048600Y-78333600D01*
X188188600Y-112725200D02*
X187756800Y-106680000D01*
X169849800Y-130606800D02*
X169849800Y-129032000D01*
X168605200Y-77851000D02*
X168503600Y-85775800D01*
X231140000Y-117779800D02*
X229870000Y-116840000D01*
X162915600Y-38862000D02*
X170434000Y-35001200D01*
X39878000Y-106603800D02*
X39903400Y-105105200D01*
X236321600Y-92481400D02*
X223697800Y-92481400D01*
X258876800Y-110363000D02*
X258851400Y-108762800D01*
X172262800Y-116916200D02*
X172796200Y-117576600D01*
X67894200Y-128905000D02*
X66675000Y-124282200D01*
X111277400Y-98882200D02*
X112471200Y-103809800D01*
X118872000Y-122910600D02*
X118999000Y-129133600D01*
X258064000Y-88265000D02*
X261391400Y-96037400D01*
X65201800Y-109194600D02*
X65557400Y-108280200D01*
X216382600Y-145745200D02*
X216636600Y-145745200D01*
X37363400Y-115189000D02*
X36804600Y-114325400D01*
X113639600Y-124460000D02*
X112547400Y-129184400D01*
X58928000Y-121310400D02*
X58775600Y-136652000D01*
X154559000Y-105181400D02*
X154559000Y-103581200D01*
X66954400Y-100584000D02*
X67894200Y-98729800D01*
X118745000Y-62204600D02*
X116687600Y-55854600D01*
X178943000Y-65176400D02*
X178765200Y-52628800D01*
X116205000Y-103682800D02*
X112522000Y-99136200D01*
X253898400Y-129184400D02*
X253796800Y-130505200D01*
X169849800Y-129032000D02*
X168630600Y-124383800D01*
X177774600Y-103911400D02*
X177520600Y-105130600D01*
X109601000Y-93649800D02*
X109550200Y-88925400D01*
X165989000Y-106629200D02*
X165989000Y-103581200D01*
X246227600Y-72263000D02*
X246151400Y-70815200D01*
X47498000Y-103682800D02*
X46228000Y-99263200D01*
X96088200Y-105105200D02*
X96037400Y-103403400D01*
X154279600Y-81254600D02*
X154635200Y-79908400D01*
X159562800Y-81330800D02*
X160934400Y-92303600D01*
X94589600Y-113411000D02*
X94157800Y-112369600D01*
X251206000Y-132054600D02*
X251256800Y-130505200D01*
X177368200Y-133578600D02*
X177342800Y-134442200D01*
X67894200Y-111506000D02*
X68148200Y-106400600D01*
X70586600Y-96113600D02*
X70637400Y-97409000D01*
X176733200Y-110337600D02*
X176885600Y-111328200D01*
X236321600Y-96012000D02*
X236321600Y-92481400D01*
X180060600Y-97510600D02*
X179781200Y-99034600D01*
X46228000Y-99263200D02*
X46228000Y-95859600D01*
X233476800Y-98882200D02*
X232206800Y-102946200D01*
X90525600Y-73558400D02*
X90881200Y-72263000D01*
X73304400Y-96037400D02*
X73177400Y-97409000D01*
X63779400Y-93522800D02*
X64211200Y-95758000D01*
X47523400Y-97485200D02*
X47574200Y-98806000D01*
X109601000Y-87325200D02*
X110032800Y-78308200D01*
X112471200Y-73609200D02*
X112496600Y-70612000D01*
X84531200Y-73812400D02*
X84607400Y-70637400D01*
X95961200Y-66649600D02*
X88671400Y-55880000D01*
D26*
X58470800Y-49403000D02*
X58318400Y-39751000D01*
D22*
X133400800Y-125044200D02*
X132969000Y-124485400D01*
X144322800Y-122936000D02*
X144348200Y-121234200D01*
X258699000Y-99161600D02*
X258927600Y-97561400D01*
D24*
X34757410Y-104891790D02*
X31038800Y-104927400D01*
D22*
X238506000Y-97561400D02*
X238810800Y-99161600D01*
X83235800Y-68732400D02*
X83261200Y-70739000D01*
X187706000Y-129159000D02*
X186410600Y-124358400D01*
X47574200Y-98806000D02*
X48818800Y-103149400D01*
X165989000Y-103581200D02*
X164820600Y-99034600D01*
X162306000Y-73736200D02*
X162255200Y-72288400D01*
D25*
X267893800Y-132867400D02*
X268579600Y-132765800D01*
D22*
X236728000Y-74930000D02*
X241808000Y-64084200D01*
X99872800Y-132105400D02*
X99695000Y-132740400D01*
X166039800Y-70535800D02*
X166014400Y-74269600D01*
X172567600Y-68376800D02*
X168275000Y-68351400D01*
X117348000Y-76022200D02*
X116382800Y-78333600D01*
X228346000Y-97561400D02*
X228396800Y-98983800D01*
X140335000Y-75742800D02*
X140589000Y-74980800D01*
X195376800Y-82092800D02*
X195326000Y-60502800D01*
X62839600Y-54432200D02*
X62890400Y-55956200D01*
X177977800Y-42087800D02*
X179832000Y-45491400D01*
X177317400Y-99136200D02*
X176250600Y-103022400D01*
X73126600Y-117652800D02*
X73126600Y-122961400D01*
X109169200Y-55727600D02*
X109753400Y-56819800D01*
X182575200Y-46888400D02*
X182346600Y-45415200D01*
X73126600Y-98755200D02*
X71882000Y-103301800D01*
X38735000Y-70358000D02*
X39954200Y-68275200D01*
X213080600Y-95961200D02*
X213055200Y-97561400D01*
X177698400Y-40995600D02*
X177292000Y-41732200D01*
X213004400Y-122986800D02*
X213131400Y-121437400D01*
X154482800Y-140792200D02*
X154482800Y-132156200D01*
X164795200Y-72288400D02*
X164846000Y-67157600D01*
X174904400Y-145719800D02*
X216382600Y-145745200D01*
X251790200Y-93776800D02*
X252425200Y-96113600D01*
X197916800Y-79908400D02*
X198145400Y-78257400D01*
X63169800Y-103632000D02*
X63017400Y-105029000D01*
X224434400Y-111455200D02*
X224485200Y-103174800D01*
X191744600Y-114503200D02*
X191566800Y-113842800D01*
X43688000Y-107569000D02*
X44272200Y-109321600D01*
X209829400Y-65252600D02*
X205511400Y-70789800D01*
X201574400Y-111328200D02*
X200329800Y-121564400D01*
X173482000Y-87452200D02*
X173456600Y-83388200D01*
X157175200Y-79908400D02*
X157099000Y-78435200D01*
X118770400Y-70612000D02*
X118872000Y-72186800D01*
X92964000Y-126060200D02*
X92176600Y-125806200D01*
X154533600Y-54432200D02*
X154482800Y-52679600D01*
X219075000Y-95859600D02*
X219405200Y-94843600D01*
X201549000Y-121513600D02*
X202539600Y-111988600D01*
X159588200Y-96189800D02*
X159639000Y-97561400D01*
D27*
X61468000Y-155321000D02*
X61468000Y-153235014D01*
D22*
X70586600Y-122961400D02*
X70485000Y-124434600D01*
X111201200Y-70612000D02*
X108204000Y-61442600D01*
X111302800Y-65557400D02*
X111226600Y-64592200D01*
X43611800Y-119380000D02*
X41148000Y-106553000D01*
X229666800Y-81356200D02*
X229641400Y-78308200D01*
X51790600Y-87020400D02*
X51485800Y-81102200D01*
X171297600Y-37109400D02*
X171551600Y-37922200D01*
X45034200Y-110744000D02*
X45034200Y-122961400D01*
X54356000Y-80772000D02*
X52527200Y-96037400D01*
X177520600Y-97510600D02*
X177317400Y-99136200D01*
X71805800Y-63220600D02*
X71907400Y-62763400D01*
X149529800Y-109550200D02*
X148869400Y-110185200D01*
X130962400Y-59512200D02*
X130835400Y-58978800D01*
X210693000Y-95961200D02*
X210667600Y-92049600D01*
X120091200Y-48183800D02*
X118999000Y-53035200D01*
X172212000Y-114884200D02*
X172440600Y-113919000D01*
X153339800Y-96164400D02*
X153187400Y-110109000D01*
X211785200Y-99034600D02*
X210515200Y-103886000D01*
X158724600Y-113817400D02*
X158216600Y-113131600D01*
X109448600Y-108102400D02*
X109753400Y-107264200D01*
X46990000Y-133096000D02*
X48945800Y-133096000D01*
X239928400Y-103225600D02*
X239928400Y-105994200D01*
X139166600Y-73482200D02*
X139293600Y-72212200D01*
X178536600Y-89916000D02*
X180035200Y-81102200D01*
X176326800Y-42976800D02*
X174091600Y-35153600D01*
D27*
X268147800Y-92379800D02*
X270408400Y-92405200D01*
D22*
X185115200Y-42468800D02*
X185115200Y-45618400D01*
X47523400Y-105105200D02*
X47498000Y-103682800D01*
X127787400Y-57378600D02*
X127838200Y-57810400D01*
X83286600Y-36474400D02*
X83286600Y-46812200D01*
X71856600Y-121640600D02*
X71831200Y-124409200D01*
X248513600Y-106553000D02*
X248767600Y-105181400D01*
D24*
X34747200Y-102336600D02*
X34757410Y-104891790D01*
D22*
X243636800Y-117983000D02*
X243636800Y-110363000D01*
X263779000Y-46736000D02*
X264287000Y-47244000D01*
X65303400Y-124256800D02*
X65506600Y-122961400D01*
X57861200Y-66548000D02*
X57378600Y-67259200D01*
X106400600Y-55727600D02*
X106070400Y-54432200D01*
X186410600Y-48234600D02*
X186359800Y-38100000D01*
X109143800Y-88163400D02*
X109601000Y-87325200D01*
X186385200Y-103378000D02*
X186537600Y-114071400D01*
X211734400Y-124764800D02*
X212928200Y-128955800D01*
X182473600Y-98933000D02*
X182600600Y-97510600D01*
X169849800Y-147650200D02*
X169926000Y-155321000D01*
X175183800Y-61595000D02*
X175158400Y-64058800D01*
X163398200Y-52476400D02*
X160909000Y-48463200D01*
X183362600Y-37871400D02*
X185115200Y-42468800D01*
X69443600Y-119176800D02*
X70256400Y-106502200D01*
X162966400Y-58572400D02*
X163423600Y-57810400D01*
X233426000Y-97561400D02*
X233476800Y-98882200D01*
X248767600Y-78435200D02*
X248767600Y-79883000D01*
X63144400Y-93091000D02*
X63779400Y-93522800D01*
X127838200Y-57810400D02*
X127914400Y-69799200D01*
X115112800Y-76987400D02*
X115239800Y-76123800D01*
X73126600Y-129184400D02*
X73126600Y-130581400D01*
X213156800Y-89077800D02*
X213080600Y-95961200D01*
X48107600Y-67233800D02*
X45364400Y-67310000D01*
X66598800Y-89738200D02*
X65455800Y-86944200D01*
X159689800Y-122986800D02*
X159562800Y-121691400D01*
X134137400Y-99009200D02*
X134213600Y-97485200D01*
X63017400Y-129108200D02*
X65303400Y-124256800D01*
X172669200Y-60629800D02*
X172669200Y-56972200D01*
X108610400Y-54432200D02*
X109169200Y-55727600D01*
X154609800Y-122986800D02*
X154305000Y-124282200D01*
X157124400Y-55905400D02*
X158267400Y-69723000D01*
X113792000Y-122910600D02*
X113639600Y-124460000D01*
X229616000Y-102844600D02*
X230759000Y-98958400D01*
X45288200Y-134416800D02*
X44932600Y-132003800D01*
X115620800Y-61087000D02*
X115036600Y-61722000D01*
X70586600Y-94183200D02*
X69977000Y-93243400D01*
X38633400Y-121310400D02*
X37363400Y-115189000D01*
X243687600Y-99110800D02*
X243687600Y-97561400D01*
X144881600Y-98907600D02*
X144373600Y-97485200D01*
X220802200Y-86690200D02*
X220827600Y-79883000D01*
X139242800Y-122936000D02*
X139217400Y-121716800D01*
X224485200Y-103174800D02*
X225704400Y-99060000D01*
X98552000Y-121640600D02*
X98501200Y-123012200D01*
X157073600Y-54432200D02*
X157124400Y-55905400D01*
X255092200Y-81305400D02*
X255168400Y-78206600D01*
X171678600Y-107975400D02*
X171119800Y-107213400D01*
X40589200Y-68732400D02*
X41224200Y-70434200D01*
X205409800Y-118999000D02*
X205384400Y-122986800D01*
X218795600Y-77114400D02*
X213156800Y-89077800D01*
X188950600Y-116408200D02*
X188950600Y-141274800D01*
X38608000Y-125095000D02*
X38633400Y-121310400D01*
X89585800Y-51511200D02*
X89789000Y-50495200D01*
X90017600Y-139141200D02*
X89687400Y-138201400D01*
X180111400Y-96012000D02*
X180060600Y-97510600D01*
X196265800Y-57073800D02*
X196418200Y-57454800D01*
X70485000Y-124434600D02*
X71831200Y-129184400D01*
X68326000Y-90297000D02*
X66878200Y-87223600D01*
X109931200Y-103784400D02*
X108762800Y-99136200D01*
X93675200Y-126771400D02*
X92964000Y-126060200D01*
X50139600Y-121589800D02*
X50114200Y-122961400D01*
X210413600Y-89585800D02*
X210083400Y-90398600D01*
X223697800Y-92481400D02*
X222123000Y-92557600D01*
X88087200Y-133705600D02*
X88366600Y-132003800D01*
X66700400Y-78155800D02*
X65481200Y-73533000D01*
X190169800Y-121259600D02*
X190246000Y-106680000D01*
X171475400Y-67132200D02*
X171475400Y-62687200D01*
X251104400Y-73583800D02*
X248767600Y-78435200D01*
X164846000Y-67157600D02*
X171475400Y-67132200D01*
X71374000Y-116687600D02*
X71856600Y-121640600D01*
X70586600Y-130581400D02*
X70510400Y-129184400D01*
X102590600Y-143281400D02*
X102158800Y-142595600D01*
X205536800Y-79908400D02*
X205867000Y-81127600D01*
X200507600Y-87071200D02*
X200964800Y-87833200D01*
X99999800Y-135153400D02*
X101015800Y-133883400D01*
X83261200Y-129286000D02*
X83261200Y-130632200D01*
D24*
X192611869Y-34006931D02*
X192608200Y-31064200D01*
D22*
X75666600Y-122961400D02*
X75692000Y-121513600D01*
X65405000Y-81102200D02*
X65455800Y-79806800D01*
X152019000Y-105181400D02*
X152095200Y-99034600D01*
X111252000Y-72186800D02*
X111201200Y-70612000D01*
X95986600Y-46812200D02*
X96189800Y-48234600D01*
X182499000Y-53162200D02*
X182575200Y-54508400D01*
X246253000Y-144729200D02*
X246176800Y-130505200D01*
X118999000Y-53035200D02*
X118770400Y-54432200D01*
X85801200Y-79883000D02*
X85826600Y-78130400D01*
X174066200Y-54559200D02*
X174955200Y-54508400D01*
X252526800Y-99695000D02*
X251333000Y-103733600D01*
X144246600Y-46837600D02*
X144195800Y-48234600D01*
X260146800Y-99034600D02*
X260223000Y-95808800D01*
X106603800Y-134899400D02*
X106222800Y-134035800D01*
X186410600Y-121513600D02*
X182905400Y-106603800D01*
X206832200Y-70586600D02*
X206832200Y-73710800D01*
X187833000Y-78486000D02*
X187706000Y-79832200D01*
X52806600Y-73660000D02*
X52679600Y-72263000D01*
X103632000Y-122910600D02*
X103733600Y-124231400D01*
X41148000Y-106553000D02*
X41148000Y-103682800D01*
X140563600Y-124358400D02*
X140589000Y-121208800D01*
X257632200Y-106553000D02*
X257632200Y-103454200D01*
X83286600Y-78359000D02*
X83261200Y-79883000D01*
X260223000Y-95808800D02*
X257505200Y-89585800D01*
X169722800Y-133019800D02*
X171373800Y-132511800D01*
X113944400Y-111429800D02*
X114020600Y-106680000D01*
X158318200Y-81737200D02*
X158648400Y-82575400D01*
X164820600Y-99034600D02*
X164719000Y-97561400D01*
X181330600Y-106857800D02*
X181305200Y-103352600D01*
X65557400Y-108280200D02*
X65557400Y-105029000D01*
X258470400Y-87604600D02*
X258064000Y-88265000D01*
X89687400Y-138201400D02*
X89636600Y-129133600D01*
X41275000Y-121361200D02*
X41275000Y-124866400D01*
X186385200Y-65024000D02*
X188950600Y-56362600D01*
D24*
X34791391Y-93516191D02*
X31216600Y-93649800D01*
D22*
X144373600Y-72212200D02*
X144272000Y-70891400D01*
X130403600Y-127609600D02*
X138734800Y-127457200D01*
X104698800Y-82169000D02*
X103682800Y-96418400D01*
X187655200Y-46888400D02*
X187731400Y-45161200D01*
X258953000Y-69545200D02*
X258927600Y-72263000D01*
X163499800Y-106502200D02*
X161340800Y-109524800D01*
X170611800Y-39954200D02*
X170230800Y-39192200D01*
X160807400Y-78079600D02*
X160807400Y-81534000D01*
X252425200Y-96113600D02*
X252526800Y-99695000D01*
X107899200Y-60477400D02*
X106400600Y-55727600D01*
X60807600Y-115214400D02*
X60401200Y-114325400D01*
X69977000Y-138074400D02*
X70332600Y-137261600D01*
X197815200Y-105181400D02*
X197967600Y-109347000D01*
X136753600Y-124358400D02*
X136702800Y-122936000D01*
X121513600Y-39116000D02*
X120167400Y-44958000D01*
X113741200Y-97510600D02*
X113690400Y-94361000D01*
X141833600Y-97485200D02*
X141782800Y-98806000D01*
X129133600Y-105105200D02*
X129082800Y-106375200D01*
X62839600Y-98882200D02*
X61696600Y-103555800D01*
X257581400Y-70688200D02*
X248234200Y-63728600D01*
X257225800Y-54330600D02*
X257530600Y-53340000D01*
X248615200Y-142900400D02*
X248183400Y-143916400D01*
X150977600Y-42951400D02*
X150672800Y-43688000D01*
X233883200Y-69646800D02*
X227253800Y-69646800D01*
X261391400Y-96037400D02*
X261467600Y-97561400D01*
X69062600Y-87122000D02*
X68859400Y-86334600D01*
X121513600Y-70561200D02*
X118973600Y-63042800D01*
X74422000Y-120954800D02*
X74422000Y-124104400D01*
X90601800Y-127050800D02*
X90627200Y-124434600D01*
X95885000Y-78155800D02*
X94691200Y-73583800D01*
X180009800Y-106603800D02*
X180060600Y-105130600D01*
X133680200Y-73482200D02*
X129438400Y-78587600D01*
X83261200Y-70739000D02*
X83261200Y-72263000D01*
X89255600Y-116509800D02*
X88950800Y-117373400D01*
X115747800Y-61442600D02*
X118770400Y-70612000D01*
X75387200Y-83388200D02*
X75336400Y-92405200D01*
X65455800Y-86944200D02*
X65405000Y-81102200D01*
X113614200Y-73507600D02*
X112522000Y-78232000D01*
X141782800Y-130556000D02*
X141960600Y-128981200D01*
X205435200Y-89966800D02*
X205892400Y-89103200D01*
X135483600Y-124231400D02*
X134924800Y-124968000D01*
X151765000Y-81153000D02*
X152095200Y-79908400D01*
X253771400Y-96139000D02*
X253847600Y-97561400D01*
X151968200Y-53213000D02*
X154355800Y-48107600D01*
X170230800Y-39192200D02*
X169646600Y-38506400D01*
X153289000Y-36957000D02*
X153263600Y-35483800D01*
X93599000Y-48158400D02*
X98475800Y-52933600D01*
X82270600Y-115646200D02*
X81889600Y-116382800D01*
X77012800Y-93065600D02*
X73304400Y-96037400D01*
X93167200Y-70891400D02*
X93421200Y-72263000D01*
X182270400Y-42570400D02*
X180060600Y-40538400D01*
X164439600Y-110388400D02*
X164668200Y-111201200D01*
X39979600Y-79883000D02*
X40208200Y-81153000D01*
X251104400Y-99034600D02*
X251307600Y-97561400D01*
X127812800Y-139141200D02*
X127863600Y-138125200D01*
X62865000Y-68478400D02*
X62915800Y-72186800D01*
X229209600Y-110261400D02*
X229641400Y-109397800D01*
X234848400Y-99110800D02*
X233476800Y-103581200D01*
X140589000Y-103378000D02*
X140614400Y-119176800D01*
X98475800Y-52933600D02*
X98526600Y-54432200D01*
X180136800Y-112268000D02*
X180009800Y-106603800D01*
X202996800Y-72288400D02*
X202920600Y-73685400D01*
X167182800Y-121462800D02*
X166141400Y-119634000D01*
X84683600Y-103225600D02*
X84632800Y-106807000D01*
X135051800Y-59512200D02*
X135128000Y-58674000D01*
X46329600Y-124587000D02*
X47472600Y-129209800D01*
X71221600Y-64516000D02*
X71805800Y-63220600D01*
X154228800Y-142011400D02*
X154381200Y-141452600D01*
X77978000Y-57734200D02*
X77800200Y-58572400D01*
X202920600Y-73685400D02*
X201726800Y-77673200D01*
X69316600Y-120091200D02*
X69443600Y-119176800D01*
X72517000Y-66624200D02*
X72999600Y-65633600D01*
X109753400Y-107264200D02*
X109931200Y-106578400D01*
X150977600Y-118694200D02*
X150596600Y-117906800D01*
X226745800Y-64236600D02*
X226034600Y-65328800D01*
X131673600Y-97485200D02*
X131673600Y-105105200D01*
X162128200Y-112649000D02*
X160985200Y-121716800D01*
X164439600Y-110388400D02*
X164922200Y-109550200D01*
X132969000Y-124485400D02*
X132918200Y-112014000D01*
X257683000Y-108483400D02*
X256641600Y-106603800D01*
X187629800Y-121742200D02*
X187655200Y-123012200D01*
X157251400Y-96139000D02*
X157099000Y-97561400D01*
X64262000Y-106603800D02*
X64287400Y-103606600D01*
X92252800Y-75006200D02*
X91871800Y-75742800D01*
X76276200Y-125222000D02*
X77444600Y-123266200D01*
X152069800Y-130606800D02*
X152044400Y-132054600D01*
X182346600Y-45415200D02*
X182270400Y-42570400D01*
X190220600Y-37973000D02*
X190931800Y-38328600D01*
X87782400Y-134493000D02*
X88087200Y-133705600D01*
X39954200Y-99034600D02*
X39903400Y-97485200D01*
X190296800Y-99110800D02*
X190220600Y-97510600D01*
X69215000Y-87477600D02*
X69062600Y-87122000D01*
X187782200Y-40513000D02*
X190220600Y-37973000D01*
X71831200Y-129184400D02*
X71882000Y-138074400D01*
X90932000Y-52857400D02*
X92024200Y-50520600D01*
X251053600Y-124256800D02*
X251053600Y-129133600D01*
X200329800Y-129184400D02*
X201574400Y-124510800D01*
X163931600Y-87757000D02*
X163626800Y-86842600D01*
X169849800Y-122986800D02*
X169849800Y-115189000D01*
X145821400Y-92456000D02*
X143129000Y-95707200D01*
X193370200Y-85039200D02*
X191973200Y-60071000D01*
X91363800Y-63017400D02*
X91948000Y-63728600D01*
X112547400Y-110312200D02*
X112242600Y-111277400D01*
D26*
X42545000Y-65674600D02*
X47193200Y-65709800D01*
D22*
X231825800Y-64109600D02*
X232308400Y-63322200D01*
X248691400Y-142646400D02*
X248615200Y-142900400D01*
X84556600Y-120904000D02*
X84582000Y-114046000D01*
X145745200Y-35534600D02*
X145516600Y-33883600D01*
X120929400Y-118033800D02*
X120548400Y-118821200D01*
X256489200Y-78308200D02*
X257606800Y-73888600D01*
X164922200Y-109550200D02*
X165989000Y-106629200D01*
X48793400Y-112598200D02*
X48183800Y-114249200D01*
X246202200Y-73787000D02*
X247446800Y-78105000D01*
X42494200Y-122961400D02*
X42443400Y-121539000D01*
X95580200Y-128727200D02*
X93675200Y-126771400D01*
X58775600Y-136652000D02*
X66446400Y-143103600D01*
X68046600Y-81178400D02*
X67995800Y-79806800D01*
X75717400Y-120624600D02*
X75793600Y-119888000D01*
X190347600Y-34163000D02*
X190931800Y-33832800D01*
X130454400Y-121615200D02*
X130454400Y-124587000D01*
D28*
X141808200Y-33985200D02*
X141757400Y-30581600D01*
D22*
X175006000Y-79832200D02*
X174675800Y-80492600D01*
X153289000Y-42113200D02*
X153289000Y-36957000D01*
X37363400Y-105105200D02*
X37439600Y-106451400D01*
X190195200Y-46888400D02*
X190220600Y-46278800D01*
X156362400Y-51460400D02*
X156489400Y-50469800D01*
X164846000Y-67157600D02*
X164261800Y-67157600D01*
X88366600Y-37668200D02*
X88747600Y-36855400D01*
X163449000Y-78054200D02*
X162306000Y-73736200D01*
X193852800Y-66090800D02*
X194259200Y-66649600D01*
X195326000Y-60502800D02*
X194716400Y-59715400D01*
X182549800Y-121513600D02*
X181330600Y-106857800D01*
X164668200Y-52222400D02*
X164693600Y-52578000D01*
X258470400Y-87604600D02*
X257733800Y-87325200D01*
X88392000Y-66446400D02*
X88341200Y-70916800D01*
X88366600Y-46812200D02*
X88239600Y-45161200D01*
D29*
X39954200Y-68275200D02*
X40005000Y-63474600D01*
D22*
X213156800Y-72288400D02*
X213207600Y-71094600D01*
X243713000Y-84099400D02*
X243687600Y-79883000D01*
X236194600Y-70789800D02*
X239395000Y-64211200D01*
X149529800Y-97612200D02*
X149529800Y-109550200D01*
X160909000Y-70510400D02*
X160909000Y-73964800D01*
X144373600Y-120523000D02*
X144322800Y-120015000D01*
X205435200Y-97561400D02*
X205435200Y-89966800D01*
X73177400Y-97409000D02*
X73126600Y-98755200D01*
X139242800Y-98933000D02*
X139293600Y-97485200D01*
X106172000Y-79806800D02*
X106172000Y-78282800D01*
X189026800Y-65557400D02*
X189026800Y-73660000D01*
X210667600Y-92049600D02*
X210616800Y-91668600D01*
X111201200Y-97510600D02*
X111277400Y-98882200D01*
X168630600Y-124383800D02*
X168630600Y-120345200D01*
X179781200Y-99034600D02*
X177774600Y-103911400D01*
X172491400Y-94665800D02*
X173482000Y-87452200D01*
X96037400Y-103403400D02*
X95935800Y-98806000D01*
X168275000Y-68351400D02*
X166039800Y-70535800D01*
X108712000Y-129057400D02*
X108712000Y-130530600D01*
X163423600Y-57810400D02*
X163398200Y-52476400D01*
X42443400Y-131953000D02*
X42392600Y-134518400D01*
D30*
X38930888Y-76827688D02*
X41325800Y-76733400D01*
D22*
X242874800Y-142036800D02*
X242214400Y-143510000D01*
X152374600Y-75996800D02*
X152069800Y-76936600D01*
X223215200Y-123037600D02*
X223266000Y-121666000D01*
X185521600Y-81203800D02*
X185166000Y-79832200D01*
X246303800Y-103428800D02*
X247523000Y-99212400D01*
X149301200Y-112877600D02*
X150571200Y-112014000D01*
X141808200Y-66243200D02*
X141706600Y-54457600D01*
X244881400Y-103759000D02*
X243687600Y-99110800D01*
X166446200Y-110007400D02*
X164795200Y-121691400D01*
X154533600Y-96240600D02*
X154559000Y-97561400D01*
X162483800Y-110540800D02*
X164668200Y-106603800D01*
X116382800Y-78333600D02*
X116332000Y-79806800D01*
X91008200Y-105105200D02*
X90754200Y-106553000D01*
X169672000Y-97180400D02*
X169545000Y-111760000D01*
X171373800Y-132511800D02*
X171297600Y-118770400D01*
X182473600Y-81178400D02*
X182626000Y-79832200D01*
X160248600Y-47879000D02*
X159613600Y-46812200D01*
X129184400Y-103581200D02*
X130327400Y-99339400D01*
X223266000Y-121666000D02*
X219100400Y-111582200D01*
X143027400Y-52781200D02*
X143052800Y-61671200D01*
X159562800Y-121691400D02*
X158394400Y-114630200D01*
X172770800Y-133883400D02*
X172186600Y-134569200D01*
X162661600Y-112420400D02*
X162229800Y-111607600D01*
X64084200Y-52857400D02*
X62992000Y-48260000D01*
X79070200Y-87198200D02*
X79425800Y-86258400D01*
X146354800Y-136271000D02*
X146888200Y-135661400D01*
X247523000Y-90652600D02*
X247827800Y-89738200D01*
X256159000Y-73660000D02*
X256387600Y-72263000D01*
X150672800Y-94259400D02*
X151765000Y-81153000D01*
X246151400Y-116332000D02*
X249961400Y-111734600D01*
X167436800Y-140843000D02*
X167335200Y-140512800D01*
X46278800Y-132054600D02*
X46990000Y-133096000D01*
X87122000Y-73355200D02*
X88442800Y-78333600D01*
D24*
X34874200Y-76987400D02*
X34791391Y-93516191D01*
D22*
X60401200Y-114325400D02*
X60452000Y-106400600D01*
X93548200Y-94462600D02*
X93548200Y-97485200D01*
X62611000Y-81254600D02*
X62915800Y-79806800D01*
X233476800Y-103581200D02*
X233426000Y-105181400D01*
X76987400Y-84836000D02*
X77012800Y-93065600D01*
X244881400Y-106984800D02*
X244881400Y-103759000D01*
X134162800Y-122936000D02*
X134315200Y-121412000D01*
X164261800Y-67157600D02*
X160909000Y-70510400D01*
X139395200Y-78105000D02*
X140335000Y-75742800D01*
X39827200Y-124409200D02*
X39954200Y-122961400D01*
X182905400Y-106603800D02*
X182600600Y-105130600D01*
X205511400Y-118668800D02*
X205409800Y-118999000D01*
X80645000Y-137998200D02*
X80568800Y-137160000D01*
X177546000Y-79832200D02*
X177571400Y-78638400D01*
X95961200Y-72263000D02*
X96062800Y-70739000D01*
X190195200Y-45593000D02*
X190195200Y-46888400D01*
X211861400Y-88849200D02*
X211785200Y-99034600D01*
X74422000Y-124104400D02*
X74980800Y-125222000D01*
X170434000Y-35001200D02*
X171043600Y-34188400D01*
X68859400Y-86334600D02*
X68046600Y-81178400D01*
X172618400Y-80543400D02*
X169672000Y-97180400D01*
X258927600Y-103682800D02*
X260146800Y-99034600D01*
X224510600Y-51816000D02*
X225018600Y-52324000D01*
X219100400Y-97942400D02*
X219075000Y-95859600D01*
X166852600Y-109245400D02*
X166446200Y-110007400D01*
X90881200Y-129336800D02*
X91465400Y-129006600D01*
X227101400Y-103073200D02*
X227101400Y-112420400D01*
X202641200Y-111734600D02*
X203885800Y-111277400D01*
X54000400Y-61899800D02*
X48463200Y-68503800D01*
X200152000Y-73533000D02*
X200456800Y-72288400D01*
X180035200Y-54508400D02*
X180035200Y-53009800D01*
X60452000Y-106400600D02*
X60477400Y-105029000D01*
X95961200Y-129184400D02*
X95580200Y-128727200D01*
X118821200Y-105130600D02*
X118973600Y-106629200D01*
X54533800Y-79832200D02*
X54356000Y-80772000D01*
X157200600Y-84023200D02*
X157251400Y-96139000D01*
D30*
X34874200Y-76987400D02*
X36804792Y-76911392D01*
D22*
X233527600Y-79883000D02*
X233730800Y-78689200D01*
X85801200Y-123012200D02*
X85801200Y-121869200D01*
X77876400Y-81305400D02*
X75387200Y-83388200D01*
X203504800Y-87757000D02*
X202895200Y-87147400D01*
X225882200Y-78486000D02*
X228244400Y-73837800D01*
X99695000Y-132740400D02*
X99415600Y-133680200D01*
X81635600Y-73812400D02*
X83286600Y-78359000D01*
X38930888Y-76827688D02*
X38735000Y-70358000D01*
X202869800Y-92633800D02*
X193370200Y-85039200D01*
X173659800Y-142163800D02*
X173253400Y-143027400D01*
X45364400Y-67310000D02*
X42316400Y-70739000D01*
X253669800Y-124256800D02*
X253796800Y-122885200D01*
X78714600Y-132537200D02*
X78206600Y-131775200D01*
X246202200Y-84912200D02*
X246227600Y-79883000D01*
X129159000Y-118897400D02*
X130454400Y-121615200D01*
X141960600Y-124333000D02*
X141782800Y-122936000D01*
X200456800Y-103555800D02*
X199085200Y-99187000D01*
X167309800Y-122986800D02*
X167182800Y-121462800D01*
X144272000Y-70891400D02*
X141808200Y-66243200D01*
X229870000Y-116840000D02*
X231241600Y-117475000D01*
X159562800Y-94234000D02*
X159562800Y-95554800D01*
X187096400Y-117475000D02*
X187248800Y-118364000D01*
X134137400Y-111480600D02*
X134137400Y-106426000D01*
X90906600Y-54432200D02*
X90932000Y-52857400D01*
X141833600Y-117297200D02*
X142214600Y-116535200D01*
X39954200Y-68275200D02*
X39141400Y-68478400D01*
X210464400Y-88773000D02*
X210413600Y-89585800D01*
X140614400Y-119176800D02*
X139852400Y-119761000D01*
X113690400Y-48133000D02*
X112217200Y-49682400D01*
X173659800Y-95859600D02*
X173659800Y-142163800D01*
X243636800Y-110363000D02*
X243586000Y-108839000D01*
X141782800Y-98806000D02*
X140589000Y-103378000D01*
X181279800Y-132181600D02*
X181305200Y-121488200D01*
X182321200Y-73634600D02*
X182626000Y-72212200D01*
X186334400Y-93014800D02*
X186334400Y-98704400D01*
X75692000Y-121513600D02*
X75717400Y-120624600D01*
X190195200Y-123012200D02*
X190169800Y-121259600D01*
X177520600Y-107162600D02*
X177520600Y-105130600D01*
X67919600Y-46812200D02*
X67665600Y-48234600D01*
X50165000Y-114198400D02*
X50063400Y-106476800D01*
X51485800Y-81102200D02*
X51460400Y-78130400D01*
X178714400Y-48437800D02*
X178689000Y-45008800D01*
X72999600Y-65633600D02*
X73101200Y-65176400D01*
X37439600Y-106451400D02*
X38658800Y-113919000D01*
X64211200Y-95758000D02*
X64236600Y-99161600D01*
X151993600Y-54432200D02*
X151968200Y-53213000D01*
X37465000Y-128854200D02*
X38608000Y-125095000D01*
X112522000Y-78232000D02*
X112547400Y-80848200D01*
X63042800Y-110261400D02*
X63398400Y-109423200D01*
X47472600Y-129209800D02*
X47574200Y-130581400D01*
X205562200Y-78333600D02*
X205536800Y-79908400D01*
X205511400Y-70789800D02*
X205536800Y-72288400D01*
X151942800Y-140741400D02*
X151485600Y-141757400D01*
X191465200Y-103505000D02*
X190296800Y-99110800D01*
X42392600Y-129184400D02*
X42494200Y-130581400D01*
X102158800Y-142595600D02*
X102184200Y-116179600D01*
X97256600Y-90652600D02*
X97256600Y-91160600D01*
X169062400Y-95046800D02*
X168630600Y-94183200D01*
X160985200Y-124993400D02*
X160147000Y-126060200D01*
X68148200Y-106400600D02*
X68097400Y-105029000D01*
X120167400Y-44958000D02*
X120091200Y-48183800D01*
X138074400Y-106654600D02*
X137998200Y-103555800D01*
X202895200Y-87147400D02*
X195376800Y-82092800D01*
X186334400Y-98704400D02*
X185089800Y-103555800D01*
X139217400Y-121716800D02*
X138430000Y-120396000D01*
X74498200Y-106578400D02*
X75209400Y-116636800D01*
X250698000Y-139395200D02*
X251129800Y-138557000D01*
X226110800Y-70866000D02*
X225907600Y-72263000D01*
X173456600Y-83388200D02*
X173990000Y-82448400D01*
X54102000Y-137515600D02*
X54127400Y-92405200D01*
X160807400Y-106832400D02*
X160883600Y-106476800D01*
X246176800Y-117983000D02*
X246151400Y-116332000D01*
X146888200Y-135661400D02*
X146939000Y-102133400D01*
X248691400Y-132156200D02*
X248691400Y-142646400D01*
X121386600Y-38150800D02*
X121513600Y-39116000D01*
X54127400Y-92405200D02*
X56083200Y-80187800D01*
X227101400Y-112420400D02*
X226542600Y-113309400D01*
X63398400Y-109423200D02*
X64262000Y-106603800D01*
X103809800Y-65938400D02*
X103759000Y-44704000D01*
X233375200Y-123037600D02*
X233121200Y-124180600D01*
X177774600Y-48209200D02*
X177495200Y-46888400D01*
X84328000Y-108839000D02*
X84124800Y-109931200D01*
X100888800Y-92151200D02*
X101371400Y-91211400D01*
X176428400Y-34163000D02*
X176555400Y-34925000D01*
X188950600Y-56362600D02*
X189052200Y-52400200D01*
X69316600Y-124409200D02*
X69291200Y-121767600D01*
X154609800Y-122986800D02*
X154482800Y-121564400D01*
X190042800Y-48336200D02*
X190195200Y-46888400D01*
X150672800Y-82118200D02*
X149529800Y-97612200D01*
X225907600Y-79883000D02*
X225882200Y-78486000D01*
X42443400Y-121539000D02*
X39878000Y-106603800D01*
X117602000Y-75107800D02*
X117348000Y-76022200D01*
X176250600Y-106629200D02*
X176733200Y-110337600D01*
X91363800Y-117678200D02*
X93192600Y-106248200D01*
X160807400Y-81534000D02*
X163271200Y-93065600D01*
X195173600Y-54381400D02*
X201752200Y-54330600D01*
X132943600Y-103352600D02*
X134137400Y-99009200D01*
X115036600Y-61722000D02*
X115747800Y-61442600D01*
X88696800Y-65557400D02*
X88392000Y-66446400D01*
X56261000Y-70637400D02*
X55727600Y-69875400D01*
X75717400Y-97409000D02*
X75488800Y-98882200D01*
X187680600Y-97510600D02*
X187655200Y-99034600D01*
X153035000Y-88976200D02*
X154533600Y-96240600D01*
X207822800Y-91389200D02*
X208407000Y-92075000D01*
X176555400Y-135940800D02*
X178308000Y-135940800D01*
X243306600Y-84988400D02*
X243713000Y-84099400D01*
X84556600Y-124942600D02*
X84556600Y-120904000D01*
X112115600Y-135102600D02*
X112064800Y-135991600D01*
X70662800Y-94538800D02*
X70586600Y-94183200D01*
X256387600Y-79883000D02*
X256489200Y-78308200D01*
X72136000Y-74599800D02*
X67284600Y-74650600D01*
X149225000Y-136118600D02*
X149910800Y-135051800D01*
X128574800Y-70510400D02*
X129006600Y-70866000D01*
X191566800Y-113842800D02*
X191465200Y-103505000D01*
X46431200Y-83108800D02*
X45847000Y-83769200D01*
X200787000Y-83769200D02*
X201777600Y-84074000D01*
X197967600Y-109347000D02*
X197408800Y-110109000D01*
X237236000Y-63398400D02*
X233883200Y-69646800D01*
X152095200Y-99034600D02*
X152019000Y-97561400D01*
X175031400Y-106527600D02*
X176199800Y-121386600D01*
X113690400Y-46812200D02*
X113690400Y-48133000D01*
X112547400Y-80848200D02*
X111531400Y-91694000D01*
X160909000Y-48463200D02*
X160578800Y-48158400D01*
X158216600Y-113131600D02*
X157657884Y-109753316D01*
X81711800Y-70332600D02*
X81635600Y-73812400D01*
X144195800Y-48234600D02*
X143027400Y-52781200D01*
X70459600Y-46812200D02*
X70459600Y-45847000D01*
X230860600Y-81254600D02*
X230987600Y-79883000D01*
X84632800Y-106807000D02*
X84531200Y-107899200D01*
X77089000Y-107797600D02*
X77089000Y-97028000D01*
X176555400Y-34925000D02*
X177698400Y-40995600D01*
X89636600Y-129133600D02*
X84556600Y-124942600D01*
X168478200Y-110947200D02*
X168605200Y-96647000D01*
X73075800Y-72186800D02*
X73075800Y-73533000D01*
X150698200Y-81305400D02*
X150672800Y-82118200D01*
X38658800Y-113919000D02*
X41275000Y-121361200D01*
X109753400Y-56819800D02*
X114223800Y-56819800D01*
X236067600Y-72263000D02*
X236194600Y-70789800D01*
X218186000Y-144729200D02*
X246253000Y-144729200D01*
X93421200Y-130632200D02*
X93929200Y-131978400D01*
X56794400Y-57302400D02*
X48107600Y-67233800D01*
X130759200Y-58623200D02*
X129006600Y-54457600D01*
X208076800Y-73761600D02*
X205562200Y-78333600D01*
X141909800Y-119989600D02*
X141833600Y-117297200D01*
X213207600Y-71094600D02*
X216687400Y-67767200D01*
X172669200Y-56972200D02*
X174066200Y-54559200D01*
X188518800Y-113411000D02*
X188188600Y-112725200D01*
X84607400Y-70637400D02*
X84810600Y-67005200D01*
X121208800Y-119049800D02*
X121513600Y-121386600D01*
X138150600Y-75946000D02*
X139166600Y-73482200D01*
X108788200Y-118440200D02*
X108712000Y-122910600D01*
X46329600Y-78232000D02*
X46431200Y-83108800D01*
X88239600Y-45161200D02*
X88366600Y-37668200D01*
X62966600Y-130581400D02*
X63017400Y-129108200D01*
X65481200Y-73533000D02*
X65455800Y-72186800D01*
X186359800Y-38100000D02*
X187528200Y-35128200D01*
X158064200Y-126060200D02*
X157175200Y-124409200D01*
X98628200Y-97485200D02*
X98526600Y-95580200D01*
X209169000Y-95707200D02*
X209296000Y-99034600D01*
X62890400Y-55956200D02*
X64262000Y-70332600D01*
X71907400Y-62763400D02*
X71780400Y-52628800D01*
X176199800Y-121386600D02*
X176199800Y-124333000D01*
X50063400Y-106476800D02*
X50063400Y-105105200D01*
X252552200Y-127939800D02*
X253669800Y-124256800D01*
X191973200Y-60071000D02*
X195173600Y-54381400D01*
X44551600Y-110185200D02*
X45034200Y-110744000D01*
X185115200Y-54508400D02*
X185140600Y-53060600D01*
X157175200Y-124409200D02*
X157149800Y-122986800D01*
X246202200Y-108991400D02*
X248513600Y-106553000D01*
X154635200Y-72288400D02*
X154203400Y-73456800D01*
X136626600Y-46837600D02*
X136804400Y-48183800D01*
X143637000Y-113690400D02*
X143992600Y-114554000D01*
X253644400Y-88849200D02*
X253771400Y-96139000D01*
X97663000Y-67767200D02*
X97332800Y-69215000D01*
X48920400Y-78435200D02*
X47853600Y-73787000D01*
X246176800Y-110363000D02*
X246202200Y-108991400D01*
X185089800Y-69672200D02*
X178943000Y-65176400D01*
X131546600Y-54457600D02*
X131851400Y-55702200D01*
X251256800Y-122885200D02*
X251053600Y-124256800D01*
X62992000Y-48260000D02*
X62839600Y-46812200D01*
X200355200Y-105181400D02*
X200456800Y-103555800D01*
X74980800Y-125222000D02*
X76276200Y-125222000D01*
X70510400Y-129184400D02*
X69316600Y-124409200D01*
X141960600Y-128981200D02*
X141960600Y-124333000D01*
X243586000Y-108839000D02*
X244881400Y-106984800D01*
X248716800Y-130505200D02*
X248691400Y-132156200D01*
X112547400Y-129184400D02*
X112547400Y-132334000D01*
X66675000Y-124282200D02*
X66675000Y-121920000D01*
X229209600Y-67716400D02*
X231825800Y-64109600D01*
X84582000Y-114046000D02*
X87122000Y-106654600D01*
X111074200Y-121513600D02*
X111252000Y-122910600D01*
X85826600Y-78130400D02*
X84531200Y-73812400D01*
X173532800Y-61950600D02*
X172669200Y-60629800D01*
X67868800Y-112344200D02*
X67894200Y-111506000D01*
X229641400Y-109397800D02*
X229616000Y-102844600D01*
X229717600Y-63322200D02*
X227888800Y-66421000D01*
X68046600Y-130581400D02*
X67894200Y-128905000D01*
X132918200Y-112014000D02*
X132257800Y-111252000D01*
X45212000Y-73583800D02*
X46329600Y-78232000D01*
X46278800Y-128905000D02*
X46278800Y-132054600D01*
X104724200Y-96012000D02*
X107137200Y-83108800D01*
X37820600Y-93218000D02*
X37363400Y-92481400D01*
X44272200Y-109321600D02*
X44551600Y-110185200D01*
X131572000Y-106502200D02*
X131673600Y-105105200D01*
X91948000Y-63728600D02*
X93167200Y-70891400D01*
X208026000Y-103682800D02*
X207975200Y-105181400D01*
X49911000Y-131826000D02*
X50114200Y-130581400D01*
X183819800Y-48387000D02*
X182499000Y-53162200D01*
X179832000Y-45491400D02*
X180035200Y-46888400D01*
X230987600Y-73863200D02*
X230987600Y-72263000D01*
X200329800Y-121564400D02*
X200304400Y-122986800D01*
X140589000Y-121208800D02*
X141909800Y-119989600D01*
X107137200Y-83108800D02*
X107365800Y-82169000D01*
X100126800Y-52654200D02*
X100304600Y-56591200D01*
X84531200Y-107899200D02*
X84328000Y-108839000D01*
X228244400Y-73837800D02*
X228447600Y-72263000D01*
X254050800Y-103530400D02*
X253847600Y-105181400D01*
X131216400Y-116814600D02*
X131165600Y-115976400D01*
X131673600Y-125984000D02*
X135432800Y-126034800D01*
X106172000Y-78282800D02*
X110769400Y-73583800D01*
X158648400Y-82575400D02*
X159435800Y-92989400D01*
X73431400Y-116789200D02*
X73126600Y-117652800D01*
X201726800Y-81305400D02*
X210464400Y-88773000D01*
X166141400Y-119634000D02*
X166801800Y-113360200D01*
X88366600Y-132003800D02*
X88341200Y-130632200D01*
X101015800Y-133883400D02*
X100888800Y-92151200D01*
X152196800Y-121564400D02*
X152069800Y-122986800D01*
X155879800Y-99187000D02*
X155803600Y-94945200D01*
X97155000Y-90043000D02*
X97256600Y-90652600D01*
X96062800Y-70739000D02*
X95961200Y-66649600D01*
X135509000Y-121259600D02*
X135483600Y-124231400D01*
X176250600Y-103022400D02*
X176250600Y-106629200D01*
X44932600Y-132003800D02*
X45034200Y-130581400D01*
X154482800Y-52679600D02*
X155803600Y-48412400D01*
X94767400Y-124307600D02*
X94691200Y-121081800D01*
X88290400Y-98831400D02*
X88468200Y-97485200D01*
X219100400Y-111582200D02*
X219100400Y-97942400D01*
X38633400Y-134239000D02*
X38608000Y-128676400D01*
X189026800Y-73660000D02*
X187833000Y-78486000D01*
D26*
X58445400Y-52501800D02*
X58470800Y-49403000D01*
D22*
X106222800Y-134035800D02*
X106172000Y-130530600D01*
X166014400Y-74269600D02*
X164744400Y-78460600D01*
X66878200Y-87223600D02*
X66700400Y-78155800D01*
X88341200Y-70916800D02*
X88341200Y-72263000D01*
X145211800Y-82448400D02*
X145745200Y-82981800D01*
X135128000Y-58674000D02*
X134315200Y-55829200D01*
X70256400Y-106502200D02*
X70637400Y-105029000D01*
X159715200Y-72288400D02*
X159918400Y-73736200D01*
X145796000Y-81915000D02*
X145745200Y-37388800D01*
X58343800Y-115265200D02*
X58775600Y-114274600D01*
X153974800Y-84201000D02*
X154279600Y-81254600D01*
X155321000Y-83896200D02*
X156692600Y-81153000D01*
X68097400Y-97409000D02*
X68326000Y-95986600D01*
X45059600Y-72263000D02*
X45212000Y-73583800D01*
X245440200Y-63982600D02*
X248513600Y-70916800D01*
X93548200Y-120345200D02*
X94691200Y-121081800D01*
X171475400Y-62687200D02*
X170611800Y-61341000D01*
X38608000Y-128676400D02*
X39827200Y-124409200D01*
X257606800Y-111709200D02*
X257683000Y-108483400D01*
X98501200Y-86055200D02*
X97891600Y-85318600D01*
X250977400Y-93141800D02*
X251790200Y-93776800D01*
X134391400Y-112395000D02*
X134137400Y-111480600D01*
X48945800Y-81356200D02*
X48920400Y-78435200D01*
X255168400Y-78206600D02*
X256159000Y-73660000D01*
X185089800Y-70815200D02*
X185089800Y-69672200D01*
X251053600Y-129133600D02*
X251256800Y-130505200D01*
X73101200Y-112344200D02*
X73177400Y-106476800D01*
X69773800Y-88290400D02*
X69215000Y-87477600D01*
X73101200Y-65176400D02*
X73152000Y-55803800D01*
X187756800Y-106680000D02*
X187680600Y-105130600D01*
X185115200Y-45618400D02*
X185115200Y-46888400D01*
X247523000Y-81305400D02*
X251307600Y-92329000D01*
X71958200Y-88671400D02*
X71551800Y-89484200D01*
X223139000Y-98907600D02*
X222046800Y-103225600D01*
X64135000Y-86233000D02*
X65455800Y-96012000D01*
X248513600Y-70916800D02*
X248767600Y-72263000D01*
X186385200Y-84861400D02*
X186182000Y-83337400D01*
X48945800Y-133096000D02*
X49911000Y-131826000D01*
X156489400Y-50469800D02*
X156946600Y-48183800D01*
X102184200Y-116179600D02*
X104724200Y-113106200D01*
X181152800Y-36169600D02*
X181178200Y-38658800D01*
X203708000Y-133934200D02*
X205206600Y-132003800D01*
X152044400Y-132054600D02*
X151993600Y-140436600D01*
X120548400Y-118821200D02*
X121208800Y-119049800D01*
X98679000Y-78282800D02*
X98501200Y-79883000D01*
X91465400Y-129006600D02*
X93675200Y-126771400D01*
X257733800Y-87325200D02*
X255092200Y-81305400D01*
X251129800Y-138557000D02*
X251231400Y-138303000D01*
X94665800Y-114223800D02*
X94640400Y-113766600D01*
X190220600Y-42926000D02*
X190195200Y-45593000D01*
X256641600Y-106603800D02*
X256387600Y-105181400D01*
X211734400Y-112826800D02*
X211734400Y-124764800D01*
X168960800Y-133375400D02*
X169722800Y-133019800D01*
X194259200Y-66649600D02*
X194335400Y-82626200D01*
X71882000Y-106756200D02*
X71374000Y-116687600D01*
X134315200Y-55829200D02*
X134086600Y-54457600D01*
X87147400Y-103581200D02*
X88290400Y-98831400D01*
X179755800Y-129235200D02*
X180035200Y-130632200D01*
X109931200Y-106578400D02*
X109931200Y-103784400D01*
X143129000Y-98856800D02*
X145821400Y-102539800D01*
X39954200Y-68275200D02*
X40589200Y-68732400D01*
X85928200Y-97485200D02*
X85826600Y-98856800D01*
X162153600Y-41783000D02*
X162153600Y-39243000D01*
X163372800Y-142087600D02*
X162839400Y-142951200D01*
X196418200Y-57454800D02*
X196494400Y-81457800D01*
X134924800Y-124968000D02*
X133400800Y-125044200D01*
X151993600Y-140436600D02*
X151942800Y-140741400D01*
X173837600Y-95021400D02*
X173659800Y-95859600D01*
X205206600Y-132003800D02*
X205384400Y-130606800D01*
X83032600Y-55829200D02*
X81711800Y-70332600D01*
X132257800Y-111252000D02*
X132969000Y-110718600D01*
X108635800Y-60731400D02*
X107899200Y-60477400D01*
X180136800Y-92862400D02*
X180111400Y-96012000D01*
X168325800Y-116306600D02*
X168046400Y-117170200D01*
X68326000Y-95986600D02*
X68326000Y-90297000D01*
X231876600Y-68630800D02*
X217754200Y-68630800D01*
X87426800Y-120345200D02*
X93548200Y-120345200D01*
X87122000Y-106654600D02*
X87147400Y-103581200D01*
D23*
X193878200Y-34010600D02*
X194792600Y-34163000D01*
D22*
X73075800Y-73533000D02*
X72136000Y-74599800D01*
D26*
X37465000Y-65674600D02*
X28346400Y-65684400D01*
D22*
X145821400Y-102539800D02*
X145923000Y-132410200D01*
X97256600Y-91160600D02*
X97358200Y-107162600D01*
X61620400Y-34010600D02*
X61645800Y-55727600D01*
D23*
X192611869Y-34006931D02*
X193878200Y-34010600D01*
D22*
X185166000Y-78435200D02*
X185166000Y-79832200D01*
X109550200Y-88925400D02*
X109143800Y-88163400D01*
X36144200Y-70408800D02*
X36271200Y-75895200D01*
X155321000Y-91160600D02*
X155321000Y-83896200D01*
X212928200Y-128955800D02*
X213004400Y-130606800D01*
X55168800Y-138760200D02*
X55753000Y-139522200D01*
X179984400Y-92075000D02*
X180136800Y-92862400D01*
X90881200Y-130632200D02*
X90881200Y-129336800D01*
X161340800Y-109524800D02*
X157657884Y-109753316D01*
X180035200Y-53009800D02*
X178714400Y-48437800D01*
X155803600Y-45085000D02*
X154330400Y-43408600D01*
X128219200Y-70180200D02*
X128574800Y-70510400D01*
X174091600Y-35153600D02*
X173786800Y-34188400D01*
X138734800Y-127457200D02*
X140563600Y-124358400D01*
X43815000Y-70358000D02*
X43688000Y-107569000D01*
X90754200Y-106553000D02*
X89255600Y-116509800D01*
X127304800Y-56464200D02*
X127787400Y-57378600D01*
X238810800Y-99161600D02*
X239928400Y-103225600D01*
X86918800Y-69646800D02*
X87045800Y-70408800D01*
X241808000Y-64084200D02*
X242493800Y-63322200D01*
X129133600Y-105105200D02*
X129184400Y-103581200D01*
X169875200Y-72288400D02*
X169824400Y-73583800D01*
X131165600Y-115976400D02*
X130429000Y-111277400D01*
X59029600Y-88798400D02*
X62611000Y-81254600D01*
X150672800Y-43688000D02*
X150698200Y-81305400D01*
X192709800Y-92938600D02*
X192608200Y-92075000D01*
X95961200Y-130632200D02*
X95961200Y-129184400D01*
X72999600Y-113284000D02*
X73101200Y-112344200D01*
X185166000Y-72212200D02*
X185089800Y-70815200D01*
X88442800Y-78333600D02*
X88341200Y-79883000D01*
X251231400Y-137998200D02*
X251206000Y-132054600D01*
X162661600Y-112420400D02*
X162128200Y-112649000D01*
X233121200Y-124180600D02*
X231140000Y-128930400D01*
X167741600Y-141681200D02*
X167436800Y-140843000D01*
X47853600Y-73787000D02*
X47599600Y-72263000D01*
X84734400Y-66141600D02*
X84810600Y-67005200D01*
X257276600Y-62839600D02*
X257225800Y-54330600D01*
X267817600Y-74828400D02*
X267741400Y-69443600D01*
X187248800Y-118364000D02*
X187629800Y-121742200D01*
X88366600Y-52959000D02*
X88366600Y-54432200D01*
X99974400Y-70408800D02*
X99872800Y-132105400D01*
X39141400Y-68478400D02*
X36144200Y-70408800D01*
X231622600Y-85674200D02*
X232206800Y-84912200D01*
D23*
X267817600Y-82296000D02*
X269951200Y-82346800D01*
D22*
X220700600Y-87655400D02*
X220802200Y-86690200D01*
X158394400Y-114630200D02*
X158724600Y-113817400D01*
X231140000Y-128930400D02*
X230835200Y-130657600D01*
X186156600Y-92075000D02*
X186334400Y-93014800D01*
X46278800Y-112953800D02*
X46329600Y-124587000D01*
X98425000Y-128955800D02*
X94767400Y-124307600D01*
X149402800Y-147345400D02*
X149885400Y-146532600D01*
X52679600Y-119989600D02*
X50139600Y-121589800D01*
X152247600Y-94818200D02*
X153339800Y-96164400D01*
X164693600Y-52578000D02*
X164693600Y-54432200D01*
X50596800Y-115138200D02*
X50165000Y-114198400D01*
X232232200Y-77851000D02*
X233476800Y-73787000D01*
X227888800Y-66421000D02*
X210515200Y-66395600D01*
X56083200Y-80187800D02*
X56261000Y-70637400D01*
X229971600Y-84480400D02*
X230860600Y-81254600D01*
X171551600Y-37922200D02*
X171500800Y-60960000D01*
X61468000Y-110794800D02*
X62687200Y-115620800D01*
X85826600Y-54432200D02*
X85801200Y-55854600D01*
X156946600Y-48183800D02*
X157073600Y-46812200D01*
X226034600Y-65328800D02*
X209829400Y-65252600D01*
X170434000Y-146888200D02*
X169849800Y-147650200D01*
X205841600Y-118262400D02*
X205511400Y-118668800D01*
X157657884Y-109753316D02*
X157124400Y-106527600D01*
X139293600Y-79832200D02*
X139395200Y-78105000D01*
X86055200Y-96088200D02*
X85928200Y-97485200D01*
X164668200Y-111201200D02*
X163499800Y-121005600D01*
X43662600Y-120345200D02*
X43611800Y-119380000D01*
X84480400Y-95148400D02*
X84582000Y-98933000D01*
X251307600Y-72263000D02*
X251104400Y-73583800D01*
X97358200Y-107162600D02*
X98552000Y-121640600D01*
X172796200Y-117576600D02*
X172770800Y-133883400D01*
X176199800Y-124333000D02*
X179755800Y-129235200D01*
X160147000Y-126060200D02*
X158064200Y-126060200D01*
X138430000Y-120396000D02*
X136372600Y-120345200D01*
X102844600Y-110490000D02*
X102590600Y-111328200D01*
X97282000Y-73812400D02*
X98679000Y-78282800D01*
X246227600Y-105181400D02*
X246303800Y-103428800D01*
X81889600Y-126238000D02*
X83261200Y-129286000D01*
X93421200Y-81229200D02*
X93421200Y-79883000D01*
X157099000Y-78435200D02*
X157099000Y-73634600D01*
X173050200Y-148513800D02*
X173101000Y-155321000D01*
X70586600Y-96113600D02*
X70662800Y-94538800D01*
X206832200Y-73710800D02*
X203022200Y-78460600D01*
X111531400Y-91694000D02*
X111226600Y-92532200D01*
X54838600Y-62052200D02*
X54000400Y-61899800D01*
X249961400Y-111734600D02*
X250063000Y-103276400D01*
X41224200Y-70434200D02*
X41325800Y-76733400D01*
X89814400Y-76174600D02*
X90525600Y-73558400D01*
X154559000Y-103581200D02*
X155879800Y-99187000D01*
X154355800Y-48107600D02*
X154533600Y-46812200D01*
X63017400Y-97409000D02*
X62839600Y-98882200D01*
X231241600Y-117475000D02*
X231546400Y-114731800D01*
X250037600Y-63271400D02*
X258953000Y-69545200D01*
X246151400Y-70815200D02*
X244576600Y-67284600D01*
X134213600Y-72212200D02*
X133680200Y-73482200D01*
X223266000Y-97561400D02*
X223139000Y-98907600D01*
X198145400Y-78257400D02*
X200152000Y-73533000D01*
X129438400Y-78587600D02*
X129133600Y-79832200D01*
X257505200Y-89585800D02*
X256641600Y-89230200D01*
X66522600Y-90678000D02*
X66598800Y-89738200D01*
X188950600Y-141274800D02*
X188849000Y-141732000D01*
X158267400Y-69723000D02*
X158267400Y-81381600D01*
X220599000Y-98806000D02*
X220726000Y-105181400D01*
X112572800Y-96113600D02*
X109601000Y-93649800D01*
X108204000Y-61442600D02*
X108635800Y-60731400D01*
X66649600Y-53035200D02*
X66827400Y-61620400D01*
X60528200Y-57277000D02*
X56794400Y-57302400D01*
X143052800Y-61671200D02*
X143357600Y-62509400D01*
X103759000Y-44704000D02*
X104267000Y-43840400D01*
X181305200Y-103352600D02*
X182473600Y-98933000D01*
X164795200Y-121691400D02*
X164769800Y-122986800D01*
X37363400Y-92481400D02*
X37439600Y-79883000D01*
X244881400Y-63398400D02*
X245440200Y-63982600D01*
X64236600Y-99161600D02*
X63169800Y-103632000D01*
X258902200Y-116357400D02*
X257606800Y-111709200D01*
X159562800Y-95554800D02*
X159588200Y-96189800D01*
X230759000Y-98958400D02*
X230886000Y-97561400D01*
X103733600Y-124231400D02*
X108712000Y-129057400D01*
X70332600Y-131927600D02*
X70586600Y-130581400D01*
X159715200Y-79908400D02*
X159562800Y-81330800D01*
X228523800Y-82956400D02*
X229666800Y-81356200D01*
X163271200Y-93065600D02*
X163499800Y-106502200D01*
X185521600Y-134391400D02*
X185013600Y-133756400D01*
X108762800Y-99136200D02*
X108661200Y-97510600D01*
X55397400Y-91998800D02*
X55168800Y-138760200D01*
X136753600Y-72212200D02*
X136677400Y-70688200D01*
X169849800Y-115189000D02*
X171627800Y-113004600D01*
X255016000Y-125780800D02*
X254939800Y-126517400D01*
X112522000Y-99136200D02*
X112572800Y-96113600D01*
X91871800Y-75742800D02*
X90855800Y-78282800D01*
X162102800Y-78486000D02*
X162255200Y-79908400D01*
X87045800Y-70408800D02*
X87071200Y-71297800D01*
X229641400Y-78308200D02*
X230987600Y-73863200D01*
X144246600Y-119608600D02*
X143738600Y-118770400D01*
X172948600Y-147650200D02*
X173050200Y-148513800D01*
X198983600Y-92532200D02*
X198475600Y-91770200D01*
X149910800Y-135051800D02*
X149885400Y-129844800D01*
X141859000Y-106426000D02*
X141808200Y-111709200D01*
X141833600Y-105105200D02*
X141859000Y-106426000D01*
X210616800Y-91668600D02*
X210083400Y-90398600D01*
X182981600Y-131876800D02*
X182575200Y-130632200D01*
X160883600Y-106476800D02*
X160883600Y-103657400D01*
X93446600Y-46812200D02*
X93599000Y-48158400D01*
X113792000Y-72186800D02*
X113614200Y-73507600D01*
X175158400Y-64058800D02*
X183896000Y-70434200D01*
X48463200Y-68503800D02*
X45593000Y-68529200D01*
X90424000Y-127914400D02*
X90601800Y-127050800D01*
X166801800Y-113360200D02*
X168478200Y-110947200D01*
X227126800Y-63322200D02*
X226745800Y-64236600D01*
D24*
X192622656Y-42657544D02*
X192611869Y-34006931D01*
D22*
X129362200Y-128955800D02*
X130403600Y-127609600D01*
X251333000Y-103733600D02*
X251307600Y-105181400D01*
X154482800Y-116509800D02*
X154279600Y-115544600D01*
X85801200Y-55854600D02*
X84734400Y-66141600D01*
X89789000Y-50495200D02*
X90779600Y-48133000D01*
X223342200Y-78841600D02*
X221132400Y-77114400D01*
X213131400Y-121437400D02*
X213106000Y-115087400D01*
X203174600Y-54330600D02*
X204241400Y-55448200D01*
X93370400Y-86537800D02*
X93421200Y-81229200D01*
X232206800Y-102946200D02*
X232105200Y-107848400D01*
D24*
X192633600Y-51435000D02*
X192622656Y-42657544D01*
D22*
X153263600Y-35483800D02*
X153263600Y-33858200D01*
X110032800Y-78308200D02*
X112471200Y-73609200D01*
X248234200Y-63728600D02*
X247421400Y-63246000D01*
X225704400Y-99060000D02*
X225806000Y-97561400D01*
X112547400Y-132334000D02*
X112115600Y-135102600D01*
X162153600Y-39243000D02*
X162915600Y-38862000D01*
X61645800Y-55727600D02*
X60528200Y-57277000D01*
X61696600Y-103555800D02*
X61468000Y-110794800D01*
X194335400Y-82626200D02*
X200507600Y-87071200D01*
X162280600Y-48082200D02*
X164541200Y-51943000D01*
X187731400Y-45161200D02*
X187782200Y-40513000D01*
X118973600Y-63042800D02*
X118211600Y-62636400D01*
X130429000Y-111277400D02*
X131572000Y-106502200D01*
X183896000Y-73685400D02*
X185166000Y-78435200D01*
X83286600Y-86360000D02*
X83261200Y-79883000D01*
X239928400Y-105994200D02*
X240334800Y-106934000D01*
X169545000Y-111760000D02*
X168325800Y-116306600D01*
X160375600Y-107950000D02*
X160578800Y-107213400D01*
X116687600Y-55854600D02*
X116230400Y-54432200D01*
X103682800Y-107492800D02*
X102844600Y-110490000D01*
X187528200Y-35128200D02*
X187807600Y-34163000D01*
X150571200Y-112014000D02*
X150672800Y-94259400D01*
X157124400Y-106527600D02*
X157099000Y-105181400D01*
X190246000Y-106680000D02*
X190220600Y-105130600D01*
X258927600Y-105181400D02*
X258927600Y-103682800D01*
X189484000Y-65176400D02*
X189026800Y-65557400D01*
X103682800Y-96418400D02*
X103682800Y-107492800D01*
X178308000Y-135940800D02*
X181279800Y-132181600D01*
X222123000Y-110464600D02*
X221538800Y-111150400D01*
X58902600Y-113106200D02*
X58978800Y-109855000D01*
X227253800Y-69646800D02*
X226110800Y-70866000D01*
X143129000Y-95707200D02*
X143129000Y-98856800D01*
X75793600Y-119888000D02*
X77089000Y-107797600D01*
X95961200Y-79883000D02*
X95885000Y-78155800D01*
X62255400Y-67843400D02*
X62865000Y-68478400D01*
X71831200Y-124409200D02*
X73126600Y-129184400D01*
X173482000Y-69773800D02*
X173532800Y-61950600D01*
X118973600Y-106629200D02*
X120929400Y-118033800D01*
X150596600Y-117906800D02*
X150596600Y-113766600D01*
X255117600Y-45491400D02*
X258927600Y-41783000D01*
X186182000Y-83337400D02*
X185521600Y-81203800D01*
X258876800Y-117983000D02*
X258902200Y-116357400D01*
X77800200Y-58572400D02*
X77876400Y-81305400D01*
D24*
X34791391Y-93516191D02*
X34747200Y-102336600D01*
D22*
X131851400Y-55702200D02*
X132638800Y-58674000D01*
X110769400Y-73583800D02*
X111252000Y-72186800D01*
X153136600Y-88138000D02*
X153035000Y-88976200D01*
X256641600Y-89230200D02*
X256921000Y-88392000D01*
X77089000Y-97028000D02*
X79044800Y-92938600D01*
X216636600Y-145745200D02*
X218186000Y-144729200D01*
X118999000Y-129133600D02*
X118872000Y-130530600D01*
X92024200Y-50520600D02*
X92100400Y-49555400D01*
X41275000Y-124866400D02*
X42392600Y-129184400D01*
D23*
X267893800Y-107467400D02*
X270738600Y-107492800D01*
D22*
X172948600Y-147650200D02*
X173380400Y-146888200D01*
X182727600Y-83388200D02*
X182473600Y-81178400D01*
X85801200Y-121869200D02*
X87426800Y-120345200D01*
X57378600Y-67259200D02*
X57327800Y-80416400D01*
X58978800Y-109855000D02*
X59029600Y-88798400D01*
X256921000Y-88392000D02*
X253923800Y-81356200D01*
X126593600Y-129260600D02*
X126542800Y-130556000D01*
X169824400Y-73583800D02*
X168605200Y-77851000D01*
X185013600Y-133756400D02*
X182981600Y-131876800D01*
X174955200Y-130632200D02*
X175006000Y-134797800D01*
X67665600Y-48234600D02*
X66649600Y-53035200D01*
X187655200Y-130632200D02*
X187706000Y-129159000D01*
X96189800Y-48234600D02*
X100126800Y-52654200D01*
X145923000Y-132410200D02*
X145465800Y-133197600D01*
X232105200Y-107848400D02*
X231546400Y-114731800D01*
X46228000Y-95859600D02*
X48945800Y-81356200D01*
X79044800Y-92938600D02*
X79070200Y-87198200D01*
X45593000Y-68529200D02*
X43815000Y-70358000D01*
X64185800Y-55829200D02*
X64084200Y-52857400D01*
X253923800Y-81356200D02*
X253847600Y-79883000D01*
X153187400Y-110109000D02*
X152196800Y-121564400D01*
X115239800Y-76123800D02*
X116255800Y-73634600D01*
X139166600Y-54457600D02*
X139217400Y-66471800D01*
X220726000Y-97561400D02*
X220599000Y-98806000D01*
X159639000Y-52832000D02*
X159613600Y-50469800D01*
X83464400Y-103759000D02*
X83388200Y-105105200D01*
X136677400Y-70688200D02*
X136626600Y-54457600D01*
X37414200Y-130581400D02*
X37465000Y-128854200D01*
X180035200Y-81102200D02*
X180086000Y-79832200D01*
X136372600Y-120345200D02*
X135509000Y-121259600D01*
X178765200Y-52628800D02*
X177774600Y-48209200D01*
X175006000Y-134797800D02*
X176555400Y-135940800D01*
X36271200Y-75895200D02*
X36804792Y-76911392D01*
X127685800Y-88290400D02*
X127812800Y-124485400D01*
X90779600Y-118516400D02*
X91363800Y-117678200D01*
X75514200Y-64871600D02*
X75615800Y-72186800D01*
X81889600Y-116382800D02*
X81889600Y-126238000D01*
X42240200Y-95961200D02*
X42443400Y-97485200D01*
X211251800Y-112293400D02*
X211734400Y-112826800D01*
X159613600Y-50469800D02*
X159410400Y-49555400D01*
X85826600Y-98856800D02*
X84683600Y-103225600D01*
X119253000Y-33909000D02*
X121208800Y-36423600D01*
X171627800Y-113004600D02*
X171678600Y-107975400D01*
X112471200Y-103809800D02*
X112547400Y-110312200D01*
X129082800Y-130556000D02*
X129362200Y-128955800D01*
X89636600Y-76962000D02*
X89814400Y-76174600D01*
X197764400Y-130606800D02*
X197764400Y-122986800D01*
X127863600Y-138125200D02*
X126771400Y-131826000D01*
X172440600Y-113919000D02*
X172491400Y-94665800D01*
X69291200Y-121767600D02*
X69316600Y-120091200D01*
D30*
X36804792Y-76911392D02*
X38930888Y-76827688D01*
D22*
X203022200Y-78460600D02*
X202996800Y-79908400D01*
X222046800Y-103225600D02*
X222123000Y-110464600D01*
X159435800Y-92989400D02*
X159562800Y-94234000D01*
X162331400Y-110998000D02*
X162483800Y-110540800D01*
M02*
